<svg width="330" height="285" viewBox="0 0 330 285" fill="none" xmlns="http://www.w3.org/2000/svg">
<g clip-path="url(#clip0_38_2)">
<path d="M148.68 11.71L43.23 71.11C39.4058 73.2622 36.0533 76.1612 33.3716 79.6348C30.69 83.1083 28.7341 87.0855 27.62 91.33L8.62002 163.74C6.79862 170.673 7.30318 178.013 10.0563 184.632C12.8094 191.251 17.6588 196.783 23.86 200.38L148.36 272.26C153.34 275.134 158.99 276.647 164.74 276.647C170.49 276.647 176.14 275.134 181.12 272.26L305.61 200.38C311.832 196.79 316.701 191.253 319.466 184.623C322.231 177.993 322.738 170.637 320.91 163.69L301.91 91.28C300.782 87.0428 298.815 83.0748 296.127 79.6104C293.439 76.1461 290.084 73.2557 286.26 71.11L180.86 11.71C175.949 8.94215 170.407 7.48793 164.77 7.48793C159.133 7.48793 153.591 8.94215 148.68 11.71Z" stroke="#4895EF" stroke-width="15" stroke-miterlimit="10"/>
<path d="M62.74 119.83L149.51 169.93C154.135 172.598 159.381 174.002 164.72 174.002C170.059 174.002 175.305 172.598 179.93 169.93L266.78 119.78C268.348 118.874 269.649 117.571 270.554 116.003C271.459 114.435 271.936 112.656 271.936 110.845C271.936 109.034 271.459 107.255 270.554 105.687C269.649 104.119 268.348 102.816 266.78 101.91L180.57 52.11C175.75 49.3239 170.282 47.857 164.715 47.857C159.148 47.857 153.68 49.3239 148.86 52.11L62.74 101.83C61.1545 102.738 59.8368 104.048 58.9204 105.628C58.004 107.209 57.5214 109.003 57.5214 110.83C57.5214 112.657 58.004 114.451 58.9204 116.032C59.8368 117.612 61.1545 118.922 62.74 119.83Z" fill="#4895EF"/>
</g>
<defs>
<clipPath id="clip0_38_2">
<rect width="329.49" height="284.15" fill="white"/>
</clipPath>
</defs>
</svg>
