<svg width="170" height="48" viewBox="0 0 170 48" fill="none" xmlns="http://www.w3.org/2000/svg">
<path fill-rule="evenodd" clip-rule="evenodd" d="M35.3676 0C48.736 0 59.6156 10.7501 59.6156 24.0117C59.6156 37.2734 48.736 48 35.3676 48C21.9991 48 11.1195 37.2499 11.1195 23.9883C11.1432 10.7267 21.9754 0 35.3676 0Z" fill="#FFF200"/>
<path fill-rule="evenodd" clip-rule="evenodd" d="M35.3439 38.1889C30.7692 38.1889 26.1709 37.8603 21.6436 37.2031C24.7724 40.0667 29.75 41.921 35.3439 41.921C40.9615 41.921 45.9391 40.0667 49.0679 37.2031C44.5406 37.8603 39.9186 38.1889 35.3439 38.1889Z" fill="#00AF4D"/>
<path fill-rule="evenodd" clip-rule="evenodd" d="M50.49 21.6645C49.9922 24.176 43.4502 25.6313 35.3675 25.6313C27.2848 25.6313 20.7665 24.2464 20.2688 21.6645V21.6176C20.2688 21.4063 20.411 19.6694 20.3162 19.6929C9.38916 21.7584 1.49609 23.8004 0.216136 26.8518C0.192433 26.8987 0.16873 26.9691 0.145027 27.0161C0.121324 27.063 0.121325 27.0865 0.121325 27.1335C-1.60899 32.8841 15.5519 35.7711 27.1426 36.7804C34.6801 37.4376 40.2977 37.2498 47.9775 36.3579C58.5727 35.1139 70.6611 32.4381 70.6849 27.7437C70.6849 24.2229 62.3414 21.9462 50.4189 19.6929C50.3241 19.6694 50.49 21.4298 50.49 21.6645Z" fill="#00AF4D"/>
<path fill-rule="evenodd" clip-rule="evenodd" d="M57.6956 23.9646C59.0467 23.9646 60.137 25.0678 60.137 26.3822C60.137 27.0159 55.278 27.0159 55.278 26.3822C55.278 25.0443 56.3683 23.9646 57.6956 23.9646Z" fill="#FFF200"/>
<path fill-rule="evenodd" clip-rule="evenodd" d="M48.4042 27.7673C49.7552 27.7673 50.8456 28.8705 50.8456 30.1849C50.8456 30.8187 45.9865 30.8187 45.9865 30.1849C45.9628 28.8705 47.0768 27.7673 48.4042 27.7673Z" fill="#FFF200"/>
<path fill-rule="evenodd" clip-rule="evenodd" d="M12.5653 23.9646C13.9164 23.9646 15.0067 25.0678 15.0067 26.3822C15.0067 27.0159 10.1476 27.0159 10.1476 26.3822C10.1476 25.0443 11.238 23.9646 12.5653 23.9646Z" fill="#FFF200"/>
<path fill-rule="evenodd" clip-rule="evenodd" d="M21.5962 27.7673C22.9472 27.7673 24.0376 28.8705 24.0376 30.1849C24.0376 30.8187 19.1785 30.8187 19.1785 30.1849C19.1785 28.8705 20.2688 27.7673 21.5962 27.7673Z" fill="#FFF200"/>
<path fill-rule="evenodd" clip-rule="evenodd" d="M35.3438 28.9875C36.6949 28.9875 37.7852 30.0907 37.7852 31.4052C37.7852 32.0389 32.9261 32.0389 32.9261 31.4052C32.9024 30.0673 34.0164 28.9875 35.3438 28.9875Z" fill="#FFF200"/>
<path fill-rule="evenodd" clip-rule="evenodd" d="M20.2451 20.7021V21.9227C20.7429 24.5281 27.2849 25.8894 35.3676 25.8894C43.4503 25.8894 49.9923 24.4342 50.49 21.9227V20.7021C50.0634 22.9085 43.4503 24.6689 35.3676 24.6689C27.2849 24.6689 20.6718 22.9085 20.2451 20.7021Z" fill="#FCED00"/>
<path fill-rule="evenodd" clip-rule="evenodd" d="M20.2451 20.9606C20.6718 23.167 27.2849 24.9274 35.3676 24.9274C43.4503 24.9274 50.0634 23.1905 50.49 20.9606V20.7024C50.253 12.5812 43.5688 6.33765 35.3439 6.33765C27.2849 6.33765 20.2451 12.8863 20.2451 20.9606Z" fill="#0098D6"/>
<path fill-rule="evenodd" clip-rule="evenodd" d="M85.6888 34.785C85.3569 34.832 84.9303 34.8789 84.3851 34.9493C83.8399 34.9963 83.0815 35.0432 82.0622 35.0432C81.4697 35.0432 80.9008 34.9963 80.3556 34.9024C79.8105 34.8085 79.3127 34.6207 78.9097 34.339C78.4831 34.0574 78.1513 33.6584 77.9142 33.142C77.6535 32.6256 77.535 31.9449 77.535 31.0999V24.9738C77.535 24.1288 77.6535 23.4716 77.9142 22.9552C78.175 22.4388 78.5068 22.0398 78.9097 21.7581C79.3364 21.4764 79.8105 21.2887 80.3793 21.1948C80.9245 21.1009 81.5171 21.054 82.1096 21.054C82.6074 21.054 83.034 21.054 83.4133 21.0774C83.7925 21.1009 84.1244 21.1244 84.4088 21.1478C84.6932 21.1713 84.9303 21.1948 85.1436 21.2183C85.3569 21.2417 85.5228 21.2652 85.6888 21.2887C85.9258 21.3356 86.068 21.453 86.068 21.6642V23.3777C86.068 23.4716 86.0206 23.5654 85.9495 23.6359C85.8784 23.7063 85.7836 23.7532 85.6888 23.7532H81.92C81.4934 23.7532 81.1852 23.8471 80.9956 24.0114C80.806 24.1992 80.7349 24.5278 80.7349 24.9972V26.6637H85.5466C85.6414 26.6637 85.7362 26.7107 85.8073 26.7811C85.8784 26.8515 85.9258 26.9454 85.9258 27.0393V28.7997C85.9258 28.8936 85.8784 28.9875 85.8073 29.0579C85.7362 29.1283 85.6414 29.1752 85.5466 29.1752H80.7349V31.1234C80.7349 31.5928 80.8297 31.9214 80.9956 32.1092C81.1852 32.297 81.4934 32.3674 81.92 32.3674H85.6888C85.7836 32.3674 85.8784 32.4143 85.9495 32.4848C86.0206 32.5552 86.068 32.6491 86.068 32.743V34.4564C86.068 34.5972 85.9258 34.7381 85.6888 34.785Z" fill="#282829"/>
<path fill-rule="evenodd" clip-rule="evenodd" d="M97.9668 34.5974C97.9668 34.6678 97.9431 34.7148 97.8957 34.7617C97.8483 34.8087 97.7772 34.8556 97.7061 34.8556H94.9091C94.8143 34.8556 94.7195 34.8321 94.6484 34.7617C94.5773 34.6913 94.5062 34.5974 94.4114 34.4566L92.5625 31.593L90.8322 34.4566C90.7374 34.5974 90.6663 34.6913 90.5952 34.7382C90.5241 34.7852 90.453 34.8321 90.3345 34.8321H87.8456C87.7034 34.8321 87.6323 34.7617 87.6323 34.6209C87.6323 34.5505 87.656 34.5035 87.6797 34.48L90.927 29.3632L87.7745 24.6923C87.7508 24.6453 87.7271 24.5984 87.7271 24.5749C87.7271 24.5045 87.7508 24.4341 87.8219 24.3871C87.8694 24.3402 87.9405 24.2932 88.0116 24.2932H90.7848C90.8796 24.2932 90.9744 24.3167 91.0455 24.3871C91.1166 24.4576 91.1878 24.5514 91.2826 24.6688L92.9418 27.2038L94.4588 24.6688C94.5536 24.528 94.6247 24.4341 94.6958 24.3637C94.7669 24.2933 94.838 24.2698 94.9565 24.2698H97.4453C97.5875 24.2698 97.6586 24.3402 97.6586 24.5045C97.6586 24.5749 97.6349 24.6219 97.6112 24.6453L94.5536 29.4805L97.9194 34.4331C97.9431 34.5035 97.9668 34.5505 97.9668 34.5974Z" fill="#282829"/>
<path fill-rule="evenodd" clip-rule="evenodd" d="M105.86 28.8702C105.86 28.5416 105.836 28.2365 105.789 27.9783C105.741 27.7201 105.647 27.4619 105.528 27.2741C105.41 27.0629 105.244 26.9221 105.03 26.8047C104.817 26.6873 104.556 26.6404 104.201 26.6404C103.893 26.6404 103.608 26.6404 103.324 26.6639C103.063 26.6873 102.826 26.7108 102.66 26.7343V32.4614C102.873 32.4849 103.134 32.5084 103.419 32.5318C103.703 32.5553 103.964 32.5788 104.177 32.5788C104.509 32.5788 104.793 32.5318 105.007 32.4145C105.22 32.2971 105.386 32.1328 105.504 31.945C105.623 31.7338 105.718 31.4991 105.765 31.2174C105.812 30.9357 105.836 30.6541 105.836 30.3255V28.8702H105.86ZM108.894 30.302C108.894 31.7573 108.515 32.9074 107.732 33.7524C106.974 34.5974 105.789 35.0199 104.224 35.0199C104.035 35.0199 103.798 34.9964 103.537 34.9729C103.253 34.9494 102.992 34.926 102.707 34.879V38.0712C102.707 38.1651 102.66 38.259 102.589 38.3294C102.518 38.3998 102.423 38.4468 102.328 38.4468H100.076C99.9816 38.4468 99.8868 38.3998 99.8157 38.3294C99.7445 38.259 99.6971 38.1651 99.6971 38.0712V25.1617C99.6971 25.0208 99.7208 24.9035 99.792 24.8331C99.8631 24.7626 100.029 24.6922 100.266 24.6218C100.787 24.481 101.404 24.3636 102.115 24.2697C102.802 24.1758 103.513 24.1289 104.224 24.1289C105.741 24.1289 106.903 24.5514 107.685 25.3729C108.491 26.1944 108.894 27.3445 108.894 28.8467V30.302Z" fill="#282829"/>
<path fill-rule="evenodd" clip-rule="evenodd" d="M116.55 26.523C116.502 26.5934 116.431 26.6403 116.337 26.6403H116.194C115.744 26.6403 115.317 26.7107 114.914 26.8281C114.511 26.9455 114.156 27.1098 113.8 27.2975V34.4799C113.8 34.5738 113.753 34.6677 113.682 34.7381C113.611 34.8085 113.516 34.8555 113.421 34.8555H111.169C111.074 34.8555 110.98 34.8085 110.909 34.7381C110.837 34.6677 110.79 34.5738 110.79 34.4799V24.6922C110.79 24.5983 110.837 24.5044 110.909 24.434C110.98 24.3636 111.074 24.3166 111.169 24.3166H113.374C113.468 24.3166 113.563 24.3636 113.634 24.434C113.705 24.5044 113.753 24.5983 113.753 24.6922V25.0677C114.108 24.7861 114.488 24.5748 114.938 24.4105C115.388 24.2462 115.815 24.1758 116.265 24.1758C116.36 24.1758 116.455 24.2227 116.526 24.2931C116.597 24.3636 116.645 24.4574 116.645 24.5513V26.3117C116.621 26.3587 116.597 26.4526 116.55 26.523Z" fill="#282829"/>
<path fill-rule="evenodd" clip-rule="evenodd" d="M124.23 28.5888C124.23 27.9081 124.087 27.3917 123.779 27.0396C123.471 26.711 123.068 26.5232 122.547 26.5232C122.025 26.5232 121.622 26.6876 121.291 27.0396C120.982 27.3917 120.816 27.8846 120.816 28.5653V28.6357H124.206V28.5888H124.23ZM127.169 30.0675C127.169 30.3726 127.05 30.5135 126.79 30.5135H120.864V30.5604C120.864 30.8186 120.888 31.0533 120.959 31.3115C121.03 31.5462 121.125 31.7575 121.267 31.9453C121.409 32.133 121.622 32.2739 121.859 32.3912C122.096 32.5086 122.405 32.5555 122.784 32.5555C123.092 32.5555 123.4 32.5555 123.732 32.5321C124.064 32.5086 124.396 32.5086 124.727 32.4851C125.059 32.4851 125.367 32.4616 125.652 32.4382C125.936 32.4147 126.173 32.3912 126.363 32.3677H126.41C126.647 32.3677 126.766 32.4616 126.766 32.6729V34.0812C126.766 34.222 126.742 34.3394 126.695 34.4098C126.647 34.4802 126.529 34.5506 126.387 34.5741C125.794 34.7149 125.202 34.8323 124.633 34.9027C124.064 34.9731 123.376 35.0201 122.57 35.0201C122.002 35.0201 121.456 34.9497 120.888 34.7854C120.319 34.6211 119.821 34.3629 119.371 33.9873C118.92 33.6118 118.565 33.1423 118.28 32.5321C117.996 31.9218 117.877 31.1707 117.877 30.3022V29.0113C117.877 28.2836 117.972 27.603 118.185 26.9927C118.399 26.3824 118.707 25.8895 119.11 25.467C119.513 25.0445 120.011 24.7159 120.579 24.5047C121.172 24.2699 121.836 24.1526 122.57 24.1526C123.329 24.1526 123.993 24.2699 124.562 24.5281C125.13 24.7629 125.628 25.1149 126.007 25.5374C126.387 25.9599 126.671 26.4763 126.861 27.0631C127.05 27.6499 127.145 28.3071 127.145 28.9878V30.0675H127.169Z" fill="#282829"/>
<path fill-rule="evenodd" clip-rule="evenodd" d="M136.555 31.9218C136.555 32.3443 136.484 32.7668 136.318 33.1423C136.152 33.5179 135.915 33.8465 135.583 34.1281C135.252 34.4098 134.849 34.6211 134.351 34.7854C133.853 34.9497 133.26 35.0201 132.597 35.0201C132.336 35.0201 132.052 35.0201 131.767 34.9966C131.483 34.9731 131.175 34.9497 130.866 34.9027C130.558 34.8558 130.274 34.8323 129.989 34.7854C129.705 34.7384 129.444 34.6915 129.207 34.621C128.97 34.5506 128.852 34.4098 128.852 34.1986V32.6964C128.852 32.6025 128.875 32.5086 128.947 32.4382C129.018 32.3678 129.089 32.3443 129.207 32.3443H129.278C129.515 32.3912 129.8 32.4147 130.108 32.4382C130.416 32.4616 130.724 32.4851 131.009 32.5321C131.317 32.5555 131.578 32.579 131.838 32.579C132.099 32.6025 132.289 32.6025 132.455 32.6025C132.905 32.6025 133.189 32.5321 133.332 32.4382C133.474 32.3208 133.545 32.133 133.545 31.8983C133.545 31.7575 133.498 31.6401 133.403 31.5228C133.308 31.4054 133.118 31.2646 132.858 31.1237L130.44 29.7389C129.918 29.4338 129.515 29.0582 129.231 28.6122C128.947 28.1428 128.804 27.6264 128.804 27.0162C128.804 26.0773 129.112 25.3731 129.729 24.8802C130.345 24.3873 131.293 24.1526 132.597 24.1526C133.332 24.1526 133.948 24.1995 134.446 24.2699C134.943 24.3404 135.441 24.4577 135.915 24.5751C136.152 24.6455 136.271 24.7863 136.271 24.9976V26.4998C136.271 26.7345 136.176 26.8519 135.963 26.8519H135.915C135.773 26.8284 135.583 26.8284 135.346 26.7814C135.109 26.758 134.825 26.7345 134.54 26.6876C134.256 26.6641 133.948 26.6406 133.64 26.6171C133.332 26.5937 133.071 26.5937 132.834 26.5937C132.478 26.5937 132.218 26.6406 132.075 26.711C131.933 26.7814 131.862 26.9223 131.862 27.1335C131.862 27.2744 131.909 27.3917 132.004 27.4856C132.099 27.5795 132.241 27.6734 132.431 27.7907L134.73 29.1052C135.109 29.3164 135.417 29.5511 135.678 29.7858C135.915 30.0206 136.105 30.2553 136.247 30.49C136.389 30.7247 136.484 30.9829 136.531 31.2176C136.531 31.4289 136.555 31.6636 136.555 31.9218Z" fill="#282829"/>
<path fill-rule="evenodd" clip-rule="evenodd" d="M145.918 31.9218C145.918 32.3443 145.847 32.7668 145.681 33.1423C145.515 33.5179 145.278 33.8465 144.946 34.1281C144.614 34.4098 144.211 34.6211 143.713 34.7854C143.216 34.9497 142.623 35.0201 141.959 35.0201C141.699 35.0201 141.414 35.0201 141.13 34.9966C140.845 34.9731 140.537 34.9497 140.229 34.9027C139.921 34.8558 139.637 34.8323 139.352 34.7854C139.068 34.7384 138.807 34.6915 138.57 34.621C138.333 34.5506 138.214 34.4098 138.214 34.1986V32.6964C138.214 32.6025 138.238 32.5086 138.309 32.4382C138.38 32.3678 138.451 32.3443 138.57 32.3443H138.641C138.878 32.3912 139.163 32.4147 139.471 32.4382C139.779 32.4616 140.087 32.4851 140.371 32.5321C140.679 32.5555 140.94 32.579 141.201 32.579C141.462 32.6025 141.651 32.6025 141.817 32.6025C142.268 32.6025 142.552 32.5321 142.694 32.4382C142.836 32.3208 142.908 32.133 142.908 31.8983C142.908 31.7575 142.86 31.6401 142.765 31.5228C142.671 31.4054 142.481 31.2646 142.22 31.1237L139.802 29.7389C139.281 29.4338 138.878 29.0582 138.594 28.6122C138.309 28.1428 138.167 27.6264 138.167 27.0162C138.167 26.0773 138.475 25.3731 139.091 24.8802C139.708 24.3873 140.656 24.1526 141.959 24.1526C142.694 24.1526 143.311 24.1995 143.808 24.2699C144.306 24.3404 144.804 24.4577 145.278 24.5751C145.515 24.6455 145.633 24.7863 145.633 24.9976V26.4998C145.633 26.7345 145.539 26.8519 145.325 26.8519H145.278C145.136 26.8284 144.946 26.8284 144.709 26.7814C144.472 26.758 144.188 26.7345 143.903 26.6876C143.619 26.6641 143.311 26.6406 143.002 26.6171C142.694 26.5937 142.434 26.5937 142.196 26.5937C141.841 26.5937 141.58 26.6406 141.438 26.711C141.296 26.7814 141.225 26.9223 141.225 27.1335C141.225 27.2744 141.272 27.3917 141.367 27.4856C141.462 27.5795 141.604 27.6734 141.794 27.7907L144.093 29.1052C144.472 29.3164 144.78 29.5511 145.041 29.7858C145.278 30.0206 145.467 30.2553 145.61 30.49C145.752 30.7247 145.847 30.9829 145.894 31.2176C145.894 31.4289 145.918 31.6636 145.918 31.9218Z" fill="#282829"/>
<path fill-rule="evenodd" clip-rule="evenodd" d="M158.362 24.5043C158.362 25.2554 158.172 25.9126 157.817 26.4525C157.461 26.9923 156.916 27.5087 156.229 27.9782L154.641 29.0344C154.238 29.2926 153.882 29.5508 153.55 29.7855C153.218 30.0202 152.934 30.2784 152.697 30.5131C152.46 30.7478 152.27 31.006 152.128 31.2877C152.01 31.5694 151.938 31.851 151.938 32.1796V32.25H157.817C157.912 32.25 158.006 32.2735 158.077 32.3439C158.149 32.4143 158.196 32.4848 158.196 32.6021V34.5033C158.196 34.5972 158.149 34.6911 158.077 34.7615C158.006 34.8319 157.912 34.8789 157.817 34.8789H149.544C149.45 34.8789 149.355 34.8319 149.284 34.7615C149.213 34.6911 149.165 34.5972 149.165 34.5033V32.6256C149.165 31.6163 149.402 30.7009 149.9 29.9029C150.398 29.1048 150.99 28.4476 151.701 27.9547L153.408 26.7576C153.811 26.476 154.143 26.2412 154.403 26.0769C154.641 25.8892 154.854 25.7483 154.972 25.6075C155.115 25.4667 155.209 25.3258 155.233 25.185C155.281 25.0442 155.304 24.8564 155.304 24.6452C155.304 24.2461 155.162 23.9645 154.878 23.8002C154.593 23.6359 154.072 23.542 153.313 23.542C152.744 23.542 152.128 23.5654 151.488 23.6124C150.848 23.6593 150.232 23.7063 149.663 23.7767H149.616C149.521 23.7767 149.426 23.7298 149.378 23.6593C149.307 23.5889 149.284 23.495 149.284 23.4011V21.9694C149.284 21.8755 149.307 21.8051 149.378 21.7346C149.45 21.6877 149.521 21.6408 149.639 21.6173C150.161 21.453 150.777 21.3121 151.488 21.2183C152.199 21.1009 152.91 21.054 153.598 21.054C155.304 21.054 156.537 21.3356 157.248 21.9224C158.006 22.4623 158.362 23.3307 158.362 24.5043Z" fill="#282829"/>
<path fill-rule="evenodd" clip-rule="evenodd" d="M165.307 25.2792C165.307 25.2088 165.283 25.1619 165.236 25.1619C165.212 25.1619 165.212 25.1853 165.188 25.2088L162.273 29.1521C162.249 29.1755 162.225 29.2225 162.225 29.2694C162.225 29.3164 162.273 29.3398 162.344 29.3398H165.33V25.2792H165.307ZM169.976 31.4054C169.976 31.4993 169.929 31.5931 169.858 31.6636C169.787 31.734 169.692 31.7809 169.597 31.7809H168.364V34.4802C168.364 34.5741 168.341 34.668 168.27 34.7384C168.199 34.8088 168.127 34.8557 168.009 34.8557H165.544C165.449 34.8557 165.354 34.8088 165.283 34.7384C165.212 34.668 165.188 34.5741 165.188 34.4802V31.7809H159.808C159.713 31.7809 159.618 31.734 159.547 31.6636C159.476 31.5931 159.428 31.4993 159.428 31.4054V29.6215C159.428 29.4337 159.5 29.246 159.642 29.0582L165.52 21.4298C165.591 21.3359 165.639 21.289 165.733 21.242C165.805 21.1951 165.899 21.1716 166.018 21.1716H168.009C168.104 21.1716 168.199 21.2186 168.27 21.289C168.341 21.3594 168.388 21.4533 168.388 21.5472V29.3633H169.621C169.716 29.3633 169.81 29.4103 169.881 29.4807C169.953 29.5511 170 29.645 170 29.7389V31.4054H169.976Z" fill="#282829"/>
</svg>
