<svg width="285" height="532" viewBox="0 0 285 532" fill="none" xmlns="http://www.w3.org/2000/svg">
<g clip-path="url(#clip0_310_157)">
<rect width="285" height="532" rx="15" fill="white"/>
<g clip-path="url(#clip1_310_157)">
<path d="M0 15C0 6.71573 6.71573 0 15 0H270C278.284 0 285 6.71573 285 15V76H0V15Z" fill="#E2D7F4"/>
<path d="M131.084 43.094C131.084 43.6633 131.168 44.0787 131.336 44.34C131.504 44.592 131.775 44.7833 132.148 44.914L131.35 47.392C130.557 47.308 129.88 47.112 129.32 46.804C128.769 46.4867 128.345 46.0153 128.046 45.39C127.486 46.0713 126.777 46.58 125.918 46.916C125.069 47.252 124.177 47.42 123.244 47.42C121.732 47.42 120.533 46.9907 119.646 46.132C118.759 45.2733 118.316 44.158 118.316 42.786C118.316 41.2087 118.932 39.9953 120.164 39.146C121.405 38.2873 123.16 37.858 125.428 37.858H127.5V37.06C127.5 36.1827 127.229 35.548 126.688 35.156C126.147 34.7547 125.367 34.554 124.35 34.554C123.874 34.554 123.277 34.6193 122.558 34.75C121.849 34.8713 121.116 35.0627 120.36 35.324L119.478 32.79C120.421 32.4353 121.368 32.174 122.32 32.006C123.281 31.838 124.154 31.754 124.938 31.754C127.019 31.754 128.564 32.1973 129.572 33.084C130.58 33.9613 131.084 35.2073 131.084 36.822V43.094ZM124.448 44.746C125.008 44.746 125.573 44.5873 126.142 44.27C126.721 43.9527 127.173 43.5093 127.5 42.94V40.056H126.044C124.672 40.056 123.678 40.2753 123.062 40.714C122.455 41.1527 122.152 41.7733 122.152 42.576C122.152 43.2667 122.348 43.8033 122.74 44.186C123.132 44.5593 123.701 44.746 124.448 44.746ZM143.701 31.754C145.008 31.754 146.053 32.076 146.837 32.72C147.63 33.3547 148.204 34.2553 148.559 35.422C148.923 36.5887 149.105 37.9653 149.105 39.552C149.105 41.0733 148.886 42.4267 148.447 43.612C148.008 44.7973 147.364 45.7307 146.515 46.412C145.675 47.084 144.639 47.42 143.407 47.42C141.895 47.42 140.672 46.8833 139.739 45.81V52.712L136.043 53.104V32.174H139.291L139.487 33.98C140.075 33.2147 140.733 32.6547 141.461 32.3C142.189 31.936 142.936 31.754 143.701 31.754ZM142.623 34.526C141.998 34.526 141.447 34.7127 140.971 35.086C140.504 35.4593 140.094 35.9213 139.739 36.472V43.108C140.075 43.612 140.458 43.99 140.887 44.242C141.316 44.494 141.802 44.62 142.343 44.62C143.286 44.62 144.004 44.228 144.499 43.444C145.003 42.6507 145.255 41.3673 145.255 39.594C145.255 38.3433 145.152 37.3493 144.947 36.612C144.751 35.8653 144.457 35.3333 144.065 35.016C143.673 34.6893 143.192 34.526 142.623 34.526ZM160.49 31.754C161.797 31.754 162.842 32.076 163.626 32.72C164.419 33.3547 164.993 34.2553 165.348 35.422C165.712 36.5887 165.894 37.9653 165.894 39.552C165.894 41.0733 165.675 42.4267 165.236 43.612C164.797 44.7973 164.153 45.7307 163.304 46.412C162.464 47.084 161.428 47.42 160.196 47.42C158.684 47.42 157.461 46.8833 156.528 45.81V52.712L152.832 53.104V32.174H156.08L156.276 33.98C156.864 33.2147 157.522 32.6547 158.25 32.3C158.978 31.936 159.725 31.754 160.49 31.754ZM159.412 34.526C158.787 34.526 158.236 34.7127 157.76 35.086C157.293 35.4593 156.883 35.9213 156.528 36.472V43.108C156.864 43.612 157.247 43.99 157.676 44.242C158.105 44.494 158.591 44.62 159.132 44.62C160.075 44.62 160.793 44.228 161.288 43.444C161.792 42.6507 162.044 41.3673 162.044 39.594C162.044 38.3433 161.941 37.3493 161.736 36.612C161.54 35.8653 161.246 35.3333 160.854 35.016C160.462 34.6893 159.981 34.526 159.412 34.526Z" fill="black"/>
<line y1="73.5" x2="285" y2="73.5" stroke="black" stroke-width="5"/>
</g>
<g clip-path="url(#clip2_310_157)">
<rect width="285" height="76" transform="translate(0 76)" fill="#BEE2FE"/>
<path d="M76.412 107.754C77.7187 107.754 78.764 108.076 79.548 108.72C80.3413 109.355 80.9153 110.255 81.27 111.422C81.634 112.589 81.816 113.965 81.816 115.552C81.816 117.073 81.5967 118.427 81.158 119.612C80.7193 120.797 80.0753 121.731 79.226 122.412C78.386 123.084 77.35 123.42 76.118 123.42C74.606 123.42 73.3833 122.883 72.45 121.81V128.712L68.754 129.104V108.174H72.002L72.198 109.98C72.786 109.215 73.444 108.655 74.172 108.3C74.9 107.936 75.6467 107.754 76.412 107.754ZM75.334 110.526C74.7087 110.526 74.158 110.713 73.682 111.086C73.2153 111.459 72.8047 111.921 72.45 112.472V119.108C72.786 119.612 73.1687 119.99 73.598 120.242C74.0273 120.494 74.5127 120.62 75.054 120.62C75.9967 120.62 76.7153 120.228 77.21 119.444C77.714 118.651 77.966 117.367 77.966 115.594C77.966 114.343 77.8633 113.349 77.658 112.612C77.462 111.865 77.168 111.333 76.776 111.016C76.384 110.689 75.9033 110.526 75.334 110.526ZM85.6831 123V120.438H87.7691V110.722H85.6831V108.174H90.5831L91.2691 111.576C91.8104 110.316 92.4917 109.369 93.3131 108.734C94.1344 108.09 95.1657 107.768 96.4071 107.768C96.8831 107.768 97.3031 107.805 97.6671 107.88C98.0404 107.955 98.3951 108.053 98.7311 108.174L97.6251 111.282C97.3357 111.207 97.0604 111.151 96.7991 111.114C96.5377 111.067 96.2437 111.044 95.9171 111.044C94.8904 111.044 93.9944 111.445 93.2291 112.248C92.4731 113.041 91.8851 114.119 91.4651 115.482V120.438H94.4191V123H85.6831ZM95.6091 113.956V110.022L96.1131 108.174H98.7311L98.0731 113.956H95.6091ZM108.492 107.754C109.967 107.754 111.217 108.076 112.244 108.72C113.271 109.364 114.05 110.274 114.582 111.45C115.123 112.617 115.394 113.984 115.394 115.552C115.394 117.157 115.123 118.548 114.582 119.724C114.041 120.9 113.257 121.81 112.23 122.454C111.203 123.098 109.953 123.42 108.478 123.42C107.013 123.42 105.762 123.107 104.726 122.482C103.699 121.847 102.915 120.947 102.374 119.78C101.833 118.604 101.562 117.204 101.562 115.58C101.562 114.031 101.833 112.668 102.374 111.492C102.915 110.316 103.704 109.401 104.74 108.748C105.776 108.085 107.027 107.754 108.492 107.754ZM108.492 110.54C107.456 110.54 106.681 110.946 106.168 111.758C105.664 112.57 105.412 113.844 105.412 115.58C105.412 117.335 105.664 118.618 106.168 119.43C106.672 120.233 107.442 120.634 108.478 120.634C109.514 120.634 110.284 120.233 110.788 119.43C111.292 118.618 111.544 117.325 111.544 115.552C111.544 113.825 111.292 112.561 110.788 111.758C110.284 110.946 109.519 110.54 108.492 110.54ZM126.583 120.452C127.237 120.452 127.848 120.331 128.417 120.088C128.996 119.845 129.551 119.537 130.083 119.164L131.763 121.53C131.11 122.081 130.321 122.533 129.397 122.888C128.473 123.243 127.484 123.42 126.429 123.42C124.88 123.42 123.55 123.098 122.439 122.454C121.338 121.801 120.489 120.895 119.891 119.738C119.303 118.571 119.009 117.218 119.009 115.678C119.009 114.157 119.308 112.799 119.905 111.604C120.512 110.4 121.371 109.457 122.481 108.776C123.601 108.095 124.936 107.754 126.485 107.754C127.549 107.754 128.511 107.908 129.369 108.216C130.237 108.515 131.031 108.963 131.749 109.56L130.111 111.828C129.561 111.445 128.991 111.156 128.403 110.96C127.825 110.755 127.223 110.652 126.597 110.652C125.505 110.652 124.614 111.049 123.923 111.842C123.242 112.626 122.901 113.905 122.901 115.678C122.901 116.845 123.06 117.778 123.377 118.478C123.704 119.178 124.143 119.682 124.693 119.99C125.253 120.298 125.883 120.452 126.583 120.452ZM139.06 116.714C139.135 117.638 139.345 118.389 139.69 118.968C140.045 119.547 140.498 119.971 141.048 120.242C141.599 120.513 142.21 120.648 142.882 120.648C143.592 120.648 144.259 120.536 144.884 120.312C145.51 120.088 146.126 119.775 146.732 119.374L148.272 121.488C147.582 122.067 146.756 122.533 145.794 122.888C144.842 123.243 143.792 123.42 142.644 123.42C141.039 123.42 139.686 123.089 138.584 122.426C137.492 121.763 136.666 120.844 136.106 119.668C135.546 118.492 135.266 117.139 135.266 115.608C135.266 114.133 135.542 112.803 136.092 111.618C136.643 110.433 137.436 109.495 138.472 108.804C139.508 108.104 140.759 107.754 142.224 107.754C143.587 107.754 144.763 108.053 145.752 108.65C146.742 109.247 147.507 110.106 148.048 111.226C148.59 112.337 148.86 113.676 148.86 115.244C148.86 115.496 148.851 115.753 148.832 116.014C148.823 116.275 148.809 116.509 148.79 116.714H139.06ZM142.238 110.358C141.342 110.358 140.605 110.68 140.026 111.324C139.457 111.959 139.121 112.967 139.018 114.348H145.262C145.244 113.097 144.982 112.122 144.478 111.422C143.984 110.713 143.237 110.358 142.238 110.358ZM158.341 120.69C159.209 120.69 159.905 120.541 160.427 120.242C160.959 119.934 161.225 119.505 161.225 118.954C161.225 118.59 161.137 118.282 160.959 118.03C160.791 117.778 160.455 117.545 159.951 117.33C159.447 117.106 158.691 116.859 157.683 116.588C156.731 116.345 155.896 116.047 155.177 115.692C154.468 115.328 153.913 114.861 153.511 114.292C153.119 113.723 152.923 113.004 152.923 112.136C152.923 111.268 153.166 110.507 153.651 109.854C154.137 109.191 154.837 108.678 155.751 108.314C156.675 107.941 157.786 107.754 159.083 107.754C160.353 107.754 161.463 107.922 162.415 108.258C163.367 108.585 164.184 108.995 164.865 109.49L163.353 111.744C162.756 111.361 162.107 111.053 161.407 110.82C160.717 110.577 159.97 110.456 159.167 110.456C158.299 110.456 157.665 110.582 157.263 110.834C156.871 111.086 156.675 111.436 156.675 111.884C156.675 112.201 156.773 112.472 156.969 112.696C157.175 112.911 157.539 113.121 158.061 113.326C158.593 113.522 159.349 113.76 160.329 114.04C161.291 114.301 162.126 114.609 162.835 114.964C163.554 115.319 164.109 115.79 164.501 116.378C164.893 116.966 165.089 117.736 165.089 118.688C165.089 119.761 164.777 120.648 164.151 121.348C163.526 122.048 162.7 122.571 161.673 122.916C160.656 123.252 159.55 123.42 158.355 123.42C156.955 123.42 155.733 123.219 154.687 122.818C153.642 122.417 152.755 121.899 152.027 121.264L153.945 119.108C154.524 119.565 155.182 119.943 155.919 120.242C156.666 120.541 157.473 120.69 158.341 120.69ZM175.13 120.69C175.998 120.69 176.694 120.541 177.216 120.242C177.748 119.934 178.014 119.505 178.014 118.954C178.014 118.59 177.926 118.282 177.748 118.03C177.58 117.778 177.244 117.545 176.74 117.33C176.236 117.106 175.48 116.859 174.472 116.588C173.52 116.345 172.685 116.047 171.966 115.692C171.257 115.328 170.702 114.861 170.3 114.292C169.908 113.723 169.712 113.004 169.712 112.136C169.712 111.268 169.955 110.507 170.44 109.854C170.926 109.191 171.626 108.678 172.54 108.314C173.464 107.941 174.575 107.754 175.872 107.754C177.142 107.754 178.252 107.922 179.204 108.258C180.156 108.585 180.973 108.995 181.654 109.49L180.142 111.744C179.545 111.361 178.896 111.053 178.196 110.82C177.506 110.577 176.759 110.456 175.956 110.456C175.088 110.456 174.454 110.582 174.052 110.834C173.66 111.086 173.464 111.436 173.464 111.884C173.464 112.201 173.562 112.472 173.758 112.696C173.964 112.911 174.328 113.121 174.85 113.326C175.382 113.522 176.138 113.76 177.118 114.04C178.08 114.301 178.915 114.609 179.624 114.964C180.343 115.319 180.898 115.79 181.29 116.378C181.682 116.966 181.878 117.736 181.878 118.688C181.878 119.761 181.566 120.648 180.94 121.348C180.315 122.048 179.489 122.571 178.462 122.916C177.445 123.252 176.339 123.42 175.144 123.42C173.744 123.42 172.522 123.219 171.476 122.818C170.431 122.417 169.544 121.899 168.816 121.264L170.734 119.108C171.313 119.565 171.971 119.943 172.708 120.242C173.455 120.541 174.262 120.69 175.13 120.69ZM189.427 116.714C189.502 117.638 189.712 118.389 190.057 118.968C190.412 119.547 190.865 119.971 191.415 120.242C191.966 120.513 192.577 120.648 193.249 120.648C193.959 120.648 194.626 120.536 195.251 120.312C195.877 120.088 196.493 119.775 197.099 119.374L198.639 121.488C197.949 122.067 197.123 122.533 196.161 122.888C195.209 123.243 194.159 123.42 193.011 123.42C191.406 123.42 190.053 123.089 188.951 122.426C187.859 121.763 187.033 120.844 186.473 119.668C185.913 118.492 185.633 117.139 185.633 115.608C185.633 114.133 185.909 112.803 186.459 111.618C187.01 110.433 187.803 109.495 188.839 108.804C189.875 108.104 191.126 107.754 192.591 107.754C193.954 107.754 195.13 108.053 196.119 108.65C197.109 109.247 197.874 110.106 198.415 111.226C198.957 112.337 199.227 113.676 199.227 115.244C199.227 115.496 199.218 115.753 199.199 116.014C199.19 116.275 199.176 116.509 199.157 116.714H189.427ZM192.605 110.358C191.709 110.358 190.972 110.68 190.393 111.324C189.824 111.959 189.488 112.967 189.385 114.348H195.629C195.611 113.097 195.349 112.122 194.845 111.422C194.351 110.713 193.604 110.358 192.605 110.358ZM208.709 120.69C209.577 120.69 210.272 120.541 210.795 120.242C211.327 119.934 211.593 119.505 211.593 118.954C211.593 118.59 211.504 118.282 211.327 118.03C211.159 117.778 210.823 117.545 210.319 117.33C209.815 117.106 209.059 116.859 208.051 116.588C207.099 116.345 206.263 116.047 205.545 115.692C204.835 115.328 204.28 114.861 203.879 114.292C203.487 113.723 203.291 113.004 203.291 112.136C203.291 111.268 203.533 110.507 204.019 109.854C204.504 109.191 205.204 108.678 206.119 108.314C207.043 107.941 208.153 107.754 209.451 107.754C210.72 107.754 211.831 107.922 212.783 108.258C213.735 108.585 214.551 108.995 215.233 109.49L213.721 111.744C213.123 111.361 212.475 111.053 211.775 110.82C211.084 110.577 210.337 110.456 209.535 110.456C208.667 110.456 208.032 110.582 207.631 110.834C207.239 111.086 207.043 111.436 207.043 111.884C207.043 112.201 207.141 112.472 207.337 112.696C207.542 112.911 207.906 113.121 208.429 113.326C208.961 113.522 209.717 113.76 210.697 114.04C211.658 114.301 212.493 114.609 213.203 114.964C213.921 115.319 214.477 115.79 214.869 116.378C215.261 116.966 215.457 117.736 215.457 118.688C215.457 119.761 215.144 120.648 214.519 121.348C213.893 122.048 213.067 122.571 212.041 122.916C211.023 123.252 209.917 123.42 208.722 123.42C207.323 123.42 206.1 123.219 205.055 122.818C204.009 122.417 203.123 121.899 202.395 121.264L204.312 119.108C204.891 119.565 205.549 119.943 206.287 120.242C207.033 120.541 207.841 120.69 208.709 120.69Z" fill="black"/>
<path d="M66.5 114.11H217.613V114.81H66.5V114.11Z" fill="black"/>
<line y1="149.5" x2="285" y2="149.5" stroke="black" stroke-width="5"/>
</g>
<g clip-path="url(#clip3_310_157)">
<rect width="285" height="76" transform="translate(0 152)" fill="#DCF9FF"/>
<path d="M110.412 183.754C111.719 183.754 112.764 184.076 113.548 184.72C114.341 185.355 114.915 186.255 115.27 187.422C115.634 188.589 115.816 189.965 115.816 191.552C115.816 193.073 115.597 194.427 115.158 195.612C114.719 196.797 114.075 197.731 113.226 198.412C112.386 199.084 111.35 199.42 110.118 199.42C108.606 199.42 107.383 198.883 106.45 197.81V204.712L102.754 205.104V184.174H106.002L106.198 185.98C106.786 185.215 107.444 184.655 108.172 184.3C108.9 183.936 109.647 183.754 110.412 183.754ZM109.334 186.526C108.709 186.526 108.158 186.713 107.682 187.086C107.215 187.459 106.805 187.921 106.45 188.472V195.108C106.786 195.612 107.169 195.99 107.598 196.242C108.027 196.494 108.513 196.62 109.054 196.62C109.997 196.62 110.715 196.228 111.21 195.444C111.714 194.651 111.966 193.367 111.966 191.594C111.966 190.343 111.863 189.349 111.658 188.612C111.462 187.865 111.168 187.333 110.776 187.016C110.384 186.689 109.903 186.526 109.334 186.526ZM131.373 195.094C131.373 195.663 131.457 196.079 131.625 196.34C131.793 196.592 132.064 196.783 132.437 196.914L131.639 199.392C130.846 199.308 130.169 199.112 129.609 198.804C129.058 198.487 128.634 198.015 128.335 197.39C127.775 198.071 127.066 198.58 126.207 198.916C125.358 199.252 124.466 199.42 123.533 199.42C122.021 199.42 120.822 198.991 119.935 198.132C119.048 197.273 118.605 196.158 118.605 194.786C118.605 193.209 119.221 191.995 120.453 191.146C121.694 190.287 123.449 189.858 125.717 189.858H127.789V189.06C127.789 188.183 127.518 187.548 126.977 187.156C126.436 186.755 125.656 186.554 124.639 186.554C124.163 186.554 123.566 186.619 122.847 186.75C122.138 186.871 121.405 187.063 120.649 187.324L119.767 184.79C120.71 184.435 121.657 184.174 122.609 184.006C123.57 183.838 124.443 183.754 125.227 183.754C127.308 183.754 128.853 184.197 129.861 185.084C130.869 185.961 131.373 187.207 131.373 188.822V195.094ZM124.737 196.746C125.297 196.746 125.862 196.587 126.431 196.27C127.01 195.953 127.462 195.509 127.789 194.94V192.056H126.333C124.961 192.056 123.967 192.275 123.351 192.714C122.744 193.153 122.441 193.773 122.441 194.576C122.441 195.267 122.637 195.803 123.029 196.186C123.421 196.559 123.99 196.746 124.737 196.746ZM149.114 182.088L150.038 184.972C149.478 185.168 148.848 185.308 148.148 185.392C147.448 185.467 146.645 185.504 145.74 185.504C146.645 185.896 147.331 186.395 147.798 187.002C148.274 187.599 148.512 188.36 148.512 189.284C148.512 190.245 148.265 191.104 147.77 191.86C147.285 192.616 146.589 193.209 145.684 193.638C144.788 194.067 143.719 194.282 142.478 194.282C142.095 194.282 141.755 194.263 141.456 194.226C141.157 194.189 140.868 194.137 140.588 194.072C140.401 194.175 140.257 194.324 140.154 194.52C140.051 194.716 140 194.917 140 195.122C140 195.402 140.107 195.645 140.322 195.85C140.546 196.046 141.022 196.144 141.75 196.144H144.27C145.362 196.144 146.319 196.331 147.14 196.704C147.971 197.068 148.615 197.563 149.072 198.188C149.539 198.813 149.772 199.532 149.772 200.344C149.772 201.837 149.123 203.004 147.826 203.844C146.529 204.684 144.634 205.104 142.142 205.104C140.359 205.104 138.969 204.922 137.97 204.558C136.981 204.194 136.285 203.662 135.884 202.962C135.483 202.271 135.282 201.436 135.282 200.456H138.572C138.572 200.932 138.665 201.324 138.852 201.632C139.048 201.94 139.407 202.169 139.93 202.318C140.462 202.467 141.223 202.542 142.212 202.542C143.201 202.542 143.976 202.463 144.536 202.304C145.105 202.145 145.507 201.917 145.74 201.618C145.973 201.329 146.09 200.988 146.09 200.596C146.09 200.064 145.866 199.649 145.418 199.35C144.97 199.051 144.335 198.902 143.514 198.902H141.064C139.571 198.902 138.483 198.613 137.802 198.034C137.121 197.446 136.78 196.769 136.78 196.004C136.78 195.481 136.92 194.982 137.2 194.506C137.489 194.021 137.9 193.61 138.432 193.274C137.517 192.789 136.855 192.21 136.444 191.538C136.043 190.857 135.842 190.035 135.842 189.074C135.842 188.001 136.113 187.067 136.654 186.274C137.195 185.481 137.947 184.865 138.908 184.426C139.869 183.987 140.975 183.768 142.226 183.768C143.374 183.777 144.349 183.707 145.152 183.558C145.964 183.409 146.678 183.203 147.294 182.942C147.919 182.681 148.526 182.396 149.114 182.088ZM142.296 186.232C141.419 186.232 140.747 186.489 140.28 187.002C139.823 187.515 139.594 188.197 139.594 189.046C139.594 189.923 139.832 190.619 140.308 191.132C140.784 191.645 141.451 191.902 142.31 191.902C143.159 191.902 143.803 191.655 144.242 191.16C144.69 190.656 144.914 189.937 144.914 189.004C144.914 188.071 144.69 187.375 144.242 186.918C143.803 186.461 143.155 186.232 142.296 186.232ZM156.271 192.714C156.346 193.638 156.556 194.389 156.901 194.968C157.256 195.547 157.709 195.971 158.259 196.242C158.81 196.513 159.421 196.648 160.093 196.648C160.803 196.648 161.47 196.536 162.095 196.312C162.721 196.088 163.337 195.775 163.943 195.374L165.483 197.488C164.793 198.067 163.967 198.533 163.005 198.888C162.053 199.243 161.003 199.42 159.855 199.42C158.25 199.42 156.897 199.089 155.795 198.426C154.703 197.763 153.877 196.844 153.317 195.668C152.757 194.492 152.477 193.139 152.477 191.608C152.477 190.133 152.753 188.803 153.303 187.618C153.854 186.433 154.647 185.495 155.683 184.804C156.719 184.104 157.97 183.754 159.435 183.754C160.798 183.754 161.974 184.053 162.963 184.65C163.953 185.247 164.718 186.106 165.259 187.226C165.801 188.337 166.071 189.676 166.071 191.244C166.071 191.496 166.062 191.753 166.043 192.014C166.034 192.275 166.02 192.509 166.001 192.714H156.271ZM159.449 186.358C158.553 186.358 157.816 186.68 157.237 187.324C156.668 187.959 156.332 188.967 156.229 190.348H162.473C162.455 189.097 162.193 188.122 161.689 187.422C161.195 186.713 160.448 186.358 159.449 186.358ZM175.552 196.69C176.42 196.69 177.116 196.541 177.638 196.242C178.17 195.934 178.436 195.505 178.436 194.954C178.436 194.59 178.348 194.282 178.17 194.03C178.002 193.778 177.666 193.545 177.162 193.33C176.658 193.106 175.902 192.859 174.894 192.588C173.942 192.345 173.107 192.047 172.388 191.692C171.679 191.328 171.124 190.861 170.722 190.292C170.33 189.723 170.134 189.004 170.134 188.136C170.134 187.268 170.377 186.507 170.862 185.854C171.348 185.191 172.048 184.678 172.962 184.314C173.886 183.941 174.997 183.754 176.294 183.754C177.564 183.754 178.674 183.922 179.626 184.258C180.578 184.585 181.395 184.995 182.076 185.49L180.564 187.744C179.967 187.361 179.318 187.053 178.618 186.82C177.928 186.577 177.181 186.456 176.378 186.456C175.51 186.456 174.876 186.582 174.474 186.834C174.082 187.086 173.886 187.436 173.886 187.884C173.886 188.201 173.984 188.472 174.18 188.696C174.386 188.911 174.75 189.121 175.272 189.326C175.804 189.522 176.56 189.76 177.54 190.04C178.502 190.301 179.337 190.609 180.046 190.964C180.765 191.319 181.32 191.79 181.712 192.378C182.104 192.966 182.3 193.736 182.3 194.688C182.3 195.761 181.988 196.648 181.362 197.348C180.737 198.048 179.911 198.571 178.884 198.916C177.867 199.252 176.761 199.42 175.566 199.42C174.166 199.42 172.944 199.219 171.898 198.818C170.853 198.417 169.966 197.899 169.238 197.264L171.156 195.108C171.735 195.565 172.393 195.943 173.13 196.242C173.877 196.541 174.684 196.69 175.552 196.69Z" fill="black"/>
<line y1="225.5" x2="285" y2="225.5" stroke="black" stroke-width="5"/>
</g>
<g clip-path="url(#clip4_310_157)">
<rect width="285" height="76" transform="translate(0 228)" fill="#DAF6DF"/>
<path d="M97.794 275H93.454L91.956 264.71L90.36 275H86.104L83.738 260.174H87.21L88.498 272.704L90.332 262.05H93.734L95.414 272.704L96.73 260.174H100.062L97.794 275ZM111.069 260.174V272.382H114.975V275H103.033V272.382H107.373V262.792H103.173V260.174H111.069ZM108.675 252.698C109.356 252.698 109.907 252.908 110.327 253.328C110.756 253.748 110.971 254.271 110.971 254.896C110.971 255.521 110.756 256.049 110.327 256.478C109.907 256.898 109.356 257.108 108.675 257.108C107.994 257.108 107.438 256.898 107.009 256.478C106.58 256.049 106.365 255.521 106.365 254.896C106.365 254.271 106.58 253.748 107.009 253.328C107.438 252.908 107.994 252.698 108.675 252.698ZM127.928 253.86L131.624 254.252V275H128.348L128.124 273.25C127.667 273.903 127.093 274.431 126.402 274.832C125.711 275.224 124.909 275.42 123.994 275.42C122.743 275.42 121.707 275.093 120.886 274.44C120.074 273.787 119.467 272.872 119.066 271.696C118.674 270.511 118.478 269.134 118.478 267.566C118.478 266.054 118.711 264.71 119.178 263.534C119.645 262.358 120.317 261.434 121.194 260.762C122.081 260.09 123.131 259.754 124.344 259.754C125.072 259.754 125.735 259.88 126.332 260.132C126.929 260.384 127.461 260.757 127.928 261.252V253.86ZM125.338 262.512C124.405 262.512 123.667 262.918 123.126 263.73C122.594 264.533 122.328 265.816 122.328 267.58C122.328 268.821 122.44 269.815 122.664 270.562C122.888 271.299 123.205 271.831 123.616 272.158C124.027 272.485 124.512 272.648 125.072 272.648C125.688 272.648 126.229 272.466 126.696 272.102C127.172 271.729 127.583 271.267 127.928 270.716V263.968C127.583 263.511 127.195 263.156 126.766 262.904C126.346 262.643 125.87 262.512 125.338 262.512ZM148.903 258.088L149.827 260.972C149.267 261.168 148.637 261.308 147.937 261.392C147.237 261.467 146.435 261.504 145.529 261.504C146.435 261.896 147.121 262.395 147.587 263.002C148.063 263.599 148.301 264.36 148.301 265.284C148.301 266.245 148.054 267.104 147.559 267.86C147.074 268.616 146.379 269.209 145.473 269.638C144.577 270.067 143.509 270.282 142.267 270.282C141.885 270.282 141.544 270.263 141.245 270.226C140.947 270.189 140.657 270.137 140.377 270.072C140.191 270.175 140.046 270.324 139.943 270.52C139.841 270.716 139.789 270.917 139.789 271.122C139.789 271.402 139.897 271.645 140.111 271.85C140.335 272.046 140.811 272.144 141.539 272.144H144.059C145.151 272.144 146.108 272.331 146.929 272.704C147.76 273.068 148.404 273.563 148.861 274.188C149.328 274.813 149.561 275.532 149.561 276.344C149.561 277.837 148.913 279.004 147.615 279.844C146.318 280.684 144.423 281.104 141.931 281.104C140.149 281.104 138.758 280.922 137.759 280.558C136.77 280.194 136.075 279.662 135.673 278.962C135.272 278.271 135.071 277.436 135.071 276.456H138.361C138.361 276.932 138.455 277.324 138.641 277.632C138.837 277.94 139.197 278.169 139.719 278.318C140.251 278.467 141.012 278.542 142.001 278.542C142.991 278.542 143.765 278.463 144.325 278.304C144.895 278.145 145.296 277.917 145.529 277.618C145.763 277.329 145.879 276.988 145.879 276.596C145.879 276.064 145.655 275.649 145.207 275.35C144.759 275.051 144.125 274.902 143.303 274.902H140.853C139.36 274.902 138.273 274.613 137.591 274.034C136.91 273.446 136.569 272.769 136.569 272.004C136.569 271.481 136.709 270.982 136.989 270.506C137.279 270.021 137.689 269.61 138.221 269.274C137.307 268.789 136.644 268.21 136.233 267.538C135.832 266.857 135.631 266.035 135.631 265.074C135.631 264.001 135.902 263.067 136.443 262.274C136.985 261.481 137.736 260.865 138.697 260.426C139.659 259.987 140.765 259.768 142.015 259.768C143.163 259.777 144.139 259.707 144.941 259.558C145.753 259.409 146.467 259.203 147.083 258.942C147.709 258.681 148.315 258.396 148.903 258.088ZM142.085 262.232C141.208 262.232 140.536 262.489 140.069 263.002C139.612 263.515 139.383 264.197 139.383 265.046C139.383 265.923 139.621 266.619 140.097 267.132C140.573 267.645 141.241 267.902 142.099 267.902C142.949 267.902 143.593 267.655 144.031 267.16C144.479 266.656 144.703 265.937 144.703 265.004C144.703 264.071 144.479 263.375 144.031 262.918C143.593 262.461 142.944 262.232 142.085 262.232ZM156.06 268.714C156.135 269.638 156.345 270.389 156.69 270.968C157.045 271.547 157.498 271.971 158.048 272.242C158.599 272.513 159.21 272.648 159.882 272.648C160.592 272.648 161.259 272.536 161.884 272.312C162.51 272.088 163.126 271.775 163.732 271.374L165.272 273.488C164.582 274.067 163.756 274.533 162.794 274.888C161.842 275.243 160.792 275.42 159.644 275.42C158.039 275.42 156.686 275.089 155.584 274.426C154.492 273.763 153.666 272.844 153.106 271.668C152.546 270.492 152.266 269.139 152.266 267.608C152.266 266.133 152.542 264.803 153.092 263.618C153.643 262.433 154.436 261.495 155.472 260.804C156.508 260.104 157.759 259.754 159.224 259.754C160.587 259.754 161.763 260.053 162.752 260.65C163.742 261.247 164.507 262.106 165.048 263.226C165.59 264.337 165.86 265.676 165.86 267.244C165.86 267.496 165.851 267.753 165.832 268.014C165.823 268.275 165.809 268.509 165.79 268.714H156.06ZM159.238 262.358C158.342 262.358 157.605 262.68 157.026 263.324C156.457 263.959 156.121 264.967 156.018 266.348H162.262C162.244 265.097 161.982 264.122 161.478 263.422C160.984 262.713 160.237 262.358 159.238 262.358ZM182.495 274.174C181.945 274.538 181.277 274.837 180.493 275.07C179.709 275.303 178.86 275.42 177.945 275.42C176.135 275.42 174.772 274.953 173.857 274.02C172.943 273.077 172.485 271.827 172.485 270.268V262.792H169.265V260.174H172.485V256.912L176.181 256.464V260.174H181.081L180.703 262.792H176.181V270.254C176.181 271.019 176.368 271.579 176.741 271.934C177.115 272.289 177.717 272.466 178.547 272.466C179.079 272.466 179.565 272.405 180.003 272.284C180.451 272.153 180.857 271.99 181.221 271.794L182.495 274.174ZM192.13 272.69C192.998 272.69 193.694 272.541 194.216 272.242C194.748 271.934 195.014 271.505 195.014 270.954C195.014 270.59 194.926 270.282 194.748 270.03C194.58 269.778 194.244 269.545 193.74 269.33C193.236 269.106 192.48 268.859 191.472 268.588C190.52 268.345 189.685 268.047 188.966 267.692C188.257 267.328 187.702 266.861 187.3 266.292C186.908 265.723 186.712 265.004 186.712 264.136C186.712 263.268 186.955 262.507 187.44 261.854C187.926 261.191 188.626 260.678 189.54 260.314C190.464 259.941 191.575 259.754 192.872 259.754C194.142 259.754 195.252 259.922 196.204 260.258C197.156 260.585 197.973 260.995 198.654 261.49L197.142 263.744C196.545 263.361 195.896 263.053 195.196 262.82C194.506 262.577 193.759 262.456 192.956 262.456C192.088 262.456 191.454 262.582 191.052 262.834C190.66 263.086 190.464 263.436 190.464 263.884C190.464 264.201 190.562 264.472 190.758 264.696C190.964 264.911 191.328 265.121 191.85 265.326C192.382 265.522 193.138 265.76 194.118 266.04C195.08 266.301 195.915 266.609 196.624 266.964C197.343 267.319 197.898 267.79 198.29 268.378C198.682 268.966 198.878 269.736 198.878 270.688C198.878 271.761 198.566 272.648 197.94 273.348C197.315 274.048 196.489 274.571 195.462 274.916C194.445 275.252 193.339 275.42 192.144 275.42C190.744 275.42 189.522 275.219 188.476 274.818C187.431 274.417 186.544 273.899 185.816 273.264L187.734 271.108C188.313 271.565 188.971 271.943 189.708 272.242C190.455 272.541 191.262 272.69 192.13 272.69Z" fill="black"/>
<line y1="301.5" x2="285" y2="301.5" stroke="black" stroke-width="5"/>
</g>
<g clip-path="url(#clip5_310_157)">
<rect width="285" height="76" transform="translate(0 304)" fill="#FEF9D7"/>
<path d="M86.452 329.86C87.4413 329.86 88.3187 329.939 89.084 330.098C89.8493 330.257 90.5447 330.471 91.17 330.742L90.106 333.234C89.6113 333.029 89.0933 332.879 88.552 332.786C88.0107 332.693 87.4693 332.646 86.928 332.646C85.9947 332.646 85.3133 332.823 84.884 333.178C84.464 333.523 84.254 334.079 84.254 334.844V337.182H89.154L88.748 339.828H84.254V351H80.572V339.828H77.31V337.182H80.572V334.76C80.572 333.799 80.8053 332.954 81.272 332.226C81.7387 331.489 82.4107 330.91 83.288 330.49C84.1747 330.07 85.2293 329.86 86.452 329.86ZM97.1931 344.714C97.2677 345.638 97.4777 346.389 97.8231 346.968C98.1777 347.547 98.6304 347.971 99.1811 348.242C99.7317 348.513 100.343 348.648 101.015 348.648C101.724 348.648 102.392 348.536 103.017 348.312C103.642 348.088 104.258 347.775 104.865 347.374L106.405 349.488C105.714 350.067 104.888 350.533 103.927 350.888C102.975 351.243 101.925 351.42 100.777 351.42C99.1717 351.42 97.8184 351.089 96.7171 350.426C95.6251 349.763 94.7991 348.844 94.2391 347.668C93.6791 346.492 93.3991 345.139 93.3991 343.608C93.3991 342.133 93.6744 340.803 94.2251 339.618C94.7757 338.433 95.5691 337.495 96.6051 336.804C97.6411 336.104 98.8917 335.754 100.357 335.754C101.72 335.754 102.896 336.053 103.885 336.65C104.874 337.247 105.64 338.106 106.181 339.226C106.722 340.337 106.993 341.676 106.993 343.244C106.993 343.496 106.984 343.753 106.965 344.014C106.956 344.275 106.942 344.509 106.923 344.714H97.1931ZM100.371 338.358C99.4751 338.358 98.7377 338.68 98.1591 339.324C97.5897 339.959 97.2537 340.967 97.1511 342.348H103.395C103.376 341.097 103.115 340.122 102.611 339.422C102.116 338.713 101.37 338.358 100.371 338.358ZM122.662 347.094C122.662 347.663 122.746 348.079 122.914 348.34C123.082 348.592 123.353 348.783 123.726 348.914L122.928 351.392C122.135 351.308 121.458 351.112 120.898 350.804C120.347 350.487 119.923 350.015 119.624 349.39C119.064 350.071 118.355 350.58 117.496 350.916C116.647 351.252 115.755 351.42 114.822 351.42C113.31 351.42 112.111 350.991 111.224 350.132C110.337 349.273 109.894 348.158 109.894 346.786C109.894 345.209 110.51 343.995 111.742 343.146C112.983 342.287 114.738 341.858 117.006 341.858H119.078V341.06C119.078 340.183 118.807 339.548 118.266 339.156C117.725 338.755 116.945 338.554 115.928 338.554C115.452 338.554 114.855 338.619 114.136 338.75C113.427 338.871 112.694 339.063 111.938 339.324L111.056 336.79C111.999 336.435 112.946 336.174 113.898 336.006C114.859 335.838 115.732 335.754 116.516 335.754C118.597 335.754 120.142 336.197 121.15 337.084C122.158 337.961 122.662 339.207 122.662 340.822V347.094ZM116.026 348.746C116.586 348.746 117.151 348.587 117.72 348.27C118.299 347.953 118.751 347.509 119.078 346.94V344.056H117.622C116.25 344.056 115.256 344.275 114.64 344.714C114.033 345.153 113.73 345.773 113.73 346.576C113.73 347.267 113.926 347.803 114.318 348.186C114.71 348.559 115.279 348.746 116.026 348.746ZM140.417 350.174C139.867 350.538 139.199 350.837 138.415 351.07C137.631 351.303 136.782 351.42 135.867 351.42C134.057 351.42 132.694 350.953 131.779 350.02C130.865 349.077 130.407 347.827 130.407 346.268V338.792H127.187V336.174H130.407V332.912L134.103 332.464V336.174H139.003L138.625 338.792H134.103V346.254C134.103 347.019 134.29 347.579 134.663 347.934C135.037 348.289 135.639 348.466 136.469 348.466C137.001 348.466 137.487 348.405 137.925 348.284C138.373 348.153 138.779 347.99 139.143 347.794L140.417 350.174ZM148.106 336.174V346.45C148.106 347.253 148.265 347.817 148.582 348.144C148.9 348.471 149.362 348.634 149.968 348.634C150.547 348.634 151.112 348.461 151.662 348.116C152.213 347.761 152.661 347.313 153.006 346.772V336.174H156.702V351H153.482L153.286 349.18C152.754 349.908 152.073 350.463 151.242 350.846C150.412 351.229 149.553 351.42 148.666 351.42C147.238 351.42 146.17 351.019 145.46 350.216C144.76 349.404 144.41 348.298 144.41 346.898V336.174H148.106ZM161.339 351V348.438H163.425V338.722H161.339V336.174H166.239L166.925 339.576C167.467 338.316 168.148 337.369 168.969 336.734C169.791 336.09 170.822 335.768 172.063 335.768C172.539 335.768 172.959 335.805 173.323 335.88C173.697 335.955 174.051 336.053 174.387 336.174L173.281 339.282C172.992 339.207 172.717 339.151 172.455 339.114C172.194 339.067 171.9 339.044 171.573 339.044C170.547 339.044 169.651 339.445 168.885 340.248C168.129 341.041 167.541 342.119 167.121 343.482V348.438H170.075V351H161.339ZM171.265 341.956V338.022L171.769 336.174H174.387L173.729 341.956H171.265ZM181.138 344.714C181.213 345.638 181.423 346.389 181.768 346.968C182.123 347.547 182.576 347.971 183.126 348.242C183.677 348.513 184.288 348.648 184.96 348.648C185.67 348.648 186.337 348.536 186.962 348.312C187.588 348.088 188.204 347.775 188.81 347.374L190.35 349.488C189.66 350.067 188.834 350.533 187.872 350.888C186.92 351.243 185.87 351.42 184.722 351.42C183.117 351.42 181.764 351.089 180.662 350.426C179.57 349.763 178.744 348.844 178.184 347.668C177.624 346.492 177.344 345.139 177.344 343.608C177.344 342.133 177.62 340.803 178.17 339.618C178.721 338.433 179.514 337.495 180.55 336.804C181.586 336.104 182.837 335.754 184.302 335.754C185.665 335.754 186.841 336.053 187.83 336.65C188.82 337.247 189.585 338.106 190.126 339.226C190.668 340.337 190.938 341.676 190.938 343.244C190.938 343.496 190.929 343.753 190.91 344.014C190.901 344.275 190.887 344.509 190.868 344.714H181.138ZM184.316 338.358C183.42 338.358 182.683 338.68 182.104 339.324C181.535 339.959 181.199 340.967 181.096 342.348H187.34C187.322 341.097 187.06 340.122 186.556 339.422C186.062 338.713 185.315 338.358 184.316 338.358ZM200.419 348.69C201.287 348.69 201.983 348.541 202.505 348.242C203.037 347.934 203.303 347.505 203.303 346.954C203.303 346.59 203.215 346.282 203.037 346.03C202.869 345.778 202.533 345.545 202.029 345.33C201.525 345.106 200.769 344.859 199.761 344.588C198.809 344.345 197.974 344.047 197.255 343.692C196.546 343.328 195.991 342.861 195.589 342.292C195.197 341.723 195.001 341.004 195.001 340.136C195.001 339.268 195.244 338.507 195.729 337.854C196.215 337.191 196.915 336.678 197.829 336.314C198.753 335.941 199.864 335.754 201.161 335.754C202.431 335.754 203.541 335.922 204.493 336.258C205.445 336.585 206.262 336.995 206.943 337.49L205.431 339.744C204.834 339.361 204.185 339.053 203.485 338.82C202.795 338.577 202.048 338.456 201.245 338.456C200.377 338.456 199.743 338.582 199.341 338.834C198.949 339.086 198.753 339.436 198.753 339.884C198.753 340.201 198.851 340.472 199.047 340.696C199.253 340.911 199.617 341.121 200.139 341.326C200.671 341.522 201.427 341.76 202.407 342.04C203.369 342.301 204.204 342.609 204.913 342.964C205.632 343.319 206.187 343.79 206.579 344.378C206.971 344.966 207.167 345.736 207.167 346.688C207.167 347.761 206.855 348.648 206.229 349.348C205.604 350.048 204.778 350.571 203.751 350.916C202.734 351.252 201.628 351.42 200.433 351.42C199.033 351.42 197.811 351.219 196.765 350.818C195.72 350.417 194.833 349.899 194.105 349.264L196.023 347.108C196.602 347.565 197.26 347.943 197.997 348.242C198.744 348.541 199.551 348.69 200.419 348.69Z" fill="black"/>
<line y1="377.5" x2="285" y2="377.5" stroke="black" stroke-width="5"/>
</g>
<g clip-path="url(#clip6_310_157)">
<rect width="285" height="76" transform="translate(0 380)" fill="#FDE0BF"/>
<path d="M80.404 420.714C80.4787 421.638 80.6887 422.389 81.034 422.968C81.3887 423.547 81.8413 423.971 82.392 424.242C82.9427 424.513 83.554 424.648 84.226 424.648C84.9353 424.648 85.6027 424.536 86.228 424.312C86.8533 424.088 87.4693 423.775 88.076 423.374L89.616 425.488C88.9253 426.067 88.0993 426.533 87.138 426.888C86.186 427.243 85.136 427.42 83.988 427.42C82.3827 427.42 81.0293 427.089 79.928 426.426C78.836 425.763 78.01 424.844 77.45 423.668C76.89 422.492 76.61 421.139 76.61 419.608C76.61 418.133 76.8853 416.803 77.436 415.618C77.9867 414.433 78.78 413.495 79.816 412.804C80.852 412.104 82.1027 411.754 83.568 411.754C84.9307 411.754 86.1067 412.053 87.096 412.65C88.0853 413.247 88.8507 414.106 89.392 415.226C89.9333 416.337 90.204 417.676 90.204 419.244C90.204 419.496 90.1947 419.753 90.176 420.014C90.1667 420.275 90.1527 420.509 90.134 420.714H80.404ZM83.582 414.358C82.686 414.358 81.9487 414.68 81.37 415.324C80.8007 415.959 80.4647 416.967 80.362 418.348H86.606C86.5873 417.097 86.326 416.122 85.822 415.422C85.3273 414.713 84.5807 414.358 83.582 414.358ZM94.0431 427V412.174H97.2631L97.5291 414.008C98.1637 413.261 98.8777 412.701 99.6711 412.328C100.464 411.945 101.318 411.754 102.233 411.754C103.568 411.754 104.585 412.141 105.285 412.916C105.985 413.681 106.335 414.759 106.335 416.15V427H102.639V417.592C102.639 416.845 102.592 416.248 102.499 415.8C102.406 415.343 102.228 415.016 101.967 414.82C101.706 414.615 101.328 414.512 100.833 414.512C100.432 414.512 100.044 414.601 99.6711 414.778C99.3071 414.955 98.9617 415.193 98.6351 415.492C98.3177 415.791 98.0191 416.122 97.7391 416.486V427H94.0431ZM123.628 426.174C123.077 426.538 122.41 426.837 121.626 427.07C120.842 427.303 119.993 427.42 119.078 427.42C117.267 427.42 115.905 426.953 114.99 426.02C114.075 425.077 113.618 423.827 113.618 422.268V414.792H110.398V412.174H113.618V408.912L117.314 408.464V412.174H122.214L121.836 414.792H117.314V422.254C117.314 423.019 117.501 423.579 117.874 423.934C118.247 424.289 118.849 424.466 119.68 424.466C120.212 424.466 120.697 424.405 121.136 424.284C121.584 424.153 121.99 423.99 122.354 423.794L123.628 426.174ZM136.147 412.174V424.382H140.053V427H128.111V424.382H132.451V414.792H128.251V412.174H136.147ZM133.753 404.698C134.435 404.698 134.985 404.908 135.405 405.328C135.835 405.748 136.049 406.271 136.049 406.896C136.049 407.521 135.835 408.049 135.405 408.478C134.985 408.898 134.435 409.108 133.753 409.108C133.072 409.108 132.517 408.898 132.087 408.478C131.658 408.049 131.443 407.521 131.443 406.896C131.443 406.271 131.658 405.748 132.087 405.328C132.517 404.908 133.072 404.698 133.753 404.698ZM157.206 426.174C156.656 426.538 155.988 426.837 155.204 427.07C154.42 427.303 153.571 427.42 152.656 427.42C150.846 427.42 149.483 426.953 148.568 426.02C147.654 425.077 147.196 423.827 147.196 422.268V414.792H143.976V412.174H147.196V408.912L150.892 408.464V412.174H155.792L155.414 414.792H150.892V422.254C150.892 423.019 151.079 423.579 151.452 423.934C151.826 424.289 152.428 424.466 153.258 424.466C153.79 424.466 154.276 424.405 154.714 424.284C155.162 424.153 155.568 423.99 155.932 423.794L157.206 426.174ZM169.725 412.174V424.382H173.631V427H161.689V424.382H166.029V414.792H161.829V412.174H169.725ZM167.331 404.698C168.013 404.698 168.563 404.908 168.983 405.328C169.413 405.748 169.627 406.271 169.627 406.896C169.627 407.521 169.413 408.049 168.983 408.478C168.563 408.898 168.013 409.108 167.331 409.108C166.65 409.108 166.095 408.898 165.665 408.478C165.236 408.049 165.021 407.521 165.021 406.896C165.021 406.271 165.236 405.748 165.665 405.328C166.095 404.908 166.65 404.698 167.331 404.698ZM181.138 420.714C181.213 421.638 181.423 422.389 181.768 422.968C182.123 423.547 182.576 423.971 183.126 424.242C183.677 424.513 184.288 424.648 184.96 424.648C185.67 424.648 186.337 424.536 186.962 424.312C187.588 424.088 188.204 423.775 188.81 423.374L190.35 425.488C189.66 426.067 188.834 426.533 187.872 426.888C186.92 427.243 185.87 427.42 184.722 427.42C183.117 427.42 181.764 427.089 180.662 426.426C179.57 425.763 178.744 424.844 178.184 423.668C177.624 422.492 177.344 421.139 177.344 419.608C177.344 418.133 177.62 416.803 178.17 415.618C178.721 414.433 179.514 413.495 180.55 412.804C181.586 412.104 182.837 411.754 184.302 411.754C185.665 411.754 186.841 412.053 187.83 412.65C188.82 413.247 189.585 414.106 190.126 415.226C190.668 416.337 190.938 417.676 190.938 419.244C190.938 419.496 190.929 419.753 190.91 420.014C190.901 420.275 190.887 420.509 190.868 420.714H181.138ZM184.316 414.358C183.42 414.358 182.683 414.68 182.104 415.324C181.535 415.959 181.199 416.967 181.096 418.348H187.34C187.322 417.097 187.06 416.122 186.556 415.422C186.062 414.713 185.315 414.358 184.316 414.358ZM200.419 424.69C201.287 424.69 201.983 424.541 202.505 424.242C203.037 423.934 203.303 423.505 203.303 422.954C203.303 422.59 203.215 422.282 203.037 422.03C202.869 421.778 202.533 421.545 202.029 421.33C201.525 421.106 200.769 420.859 199.761 420.588C198.809 420.345 197.974 420.047 197.255 419.692C196.546 419.328 195.991 418.861 195.589 418.292C195.197 417.723 195.001 417.004 195.001 416.136C195.001 415.268 195.244 414.507 195.729 413.854C196.215 413.191 196.915 412.678 197.829 412.314C198.753 411.941 199.864 411.754 201.161 411.754C202.431 411.754 203.541 411.922 204.493 412.258C205.445 412.585 206.262 412.995 206.943 413.49L205.431 415.744C204.834 415.361 204.185 415.053 203.485 414.82C202.795 414.577 202.048 414.456 201.245 414.456C200.377 414.456 199.743 414.582 199.341 414.834C198.949 415.086 198.753 415.436 198.753 415.884C198.753 416.201 198.851 416.472 199.047 416.696C199.253 416.911 199.617 417.121 200.139 417.326C200.671 417.522 201.427 417.76 202.407 418.04C203.369 418.301 204.204 418.609 204.913 418.964C205.632 419.319 206.187 419.79 206.579 420.378C206.971 420.966 207.167 421.736 207.167 422.688C207.167 423.761 206.855 424.648 206.229 425.348C205.604 426.048 204.778 426.571 203.751 426.916C202.734 427.252 201.628 427.42 200.433 427.42C199.033 427.42 197.811 427.219 196.765 426.818C195.72 426.417 194.833 425.899 194.105 425.264L196.023 423.108C196.602 423.565 197.26 423.943 197.997 424.242C198.744 424.541 199.551 424.69 200.419 424.69Z" fill="black"/>
<line y1="453.5" x2="285" y2="453.5" stroke="black" stroke-width="5"/>
</g>
<g clip-path="url(#clip7_310_157)">
<path d="M0 456H285V517C285 525.284 278.284 532 270 532H15C6.71572 532 0 525.284 0 517V456Z" fill="#FFD6D7"/>
<path d="M99.896 500.69C100.764 500.69 101.459 500.541 101.982 500.242C102.514 499.934 102.78 499.505 102.78 498.954C102.78 498.59 102.691 498.282 102.514 498.03C102.346 497.778 102.01 497.545 101.506 497.33C101.002 497.106 100.246 496.859 99.238 496.588C98.286 496.345 97.4507 496.047 96.732 495.692C96.0227 495.328 95.4673 494.861 95.066 494.292C94.674 493.723 94.478 493.004 94.478 492.136C94.478 491.268 94.7207 490.507 95.206 489.854C95.6913 489.191 96.3913 488.678 97.306 488.314C98.23 487.941 99.3407 487.754 100.638 487.754C101.907 487.754 103.018 487.922 103.97 488.258C104.922 488.585 105.739 488.995 106.42 489.49L104.908 491.744C104.311 491.361 103.662 491.053 102.962 490.82C102.271 490.577 101.525 490.456 100.722 490.456C99.854 490.456 99.2193 490.582 98.818 490.834C98.426 491.086 98.23 491.436 98.23 491.884C98.23 492.201 98.328 492.472 98.524 492.696C98.7293 492.911 99.0933 493.121 99.616 493.326C100.148 493.522 100.904 493.76 101.884 494.04C102.845 494.301 103.681 494.609 104.39 494.964C105.109 495.319 105.664 495.79 106.056 496.378C106.448 496.966 106.644 497.736 106.644 498.688C106.644 499.761 106.331 500.648 105.706 501.348C105.081 502.048 104.255 502.571 103.228 502.916C102.211 503.252 101.105 503.42 99.91 503.42C98.51 503.42 97.2873 503.219 96.242 502.818C95.1967 502.417 94.31 501.899 93.582 501.264L95.5 499.108C96.0787 499.565 96.7367 499.943 97.474 500.242C98.2207 500.541 99.028 500.69 99.896 500.69ZM114.739 481.902V489.84C115.355 489.14 116.046 488.617 116.811 488.272C117.586 487.927 118.393 487.754 119.233 487.754C120.596 487.754 121.618 488.141 122.299 488.916C122.99 489.681 123.335 490.759 123.335 492.15V503H119.639V492.976C119.639 492.08 119.499 491.445 119.219 491.072C118.948 490.699 118.482 490.512 117.819 490.512C117.427 490.512 117.044 490.605 116.671 490.792C116.307 490.969 115.962 491.212 115.635 491.52C115.318 491.828 115.019 492.173 114.739 492.556V503H111.043V482.266L114.739 481.902ZM139.662 499.094C139.662 499.663 139.746 500.079 139.914 500.34C140.082 500.592 140.353 500.783 140.726 500.914L139.928 503.392C139.135 503.308 138.458 503.112 137.898 502.804C137.347 502.487 136.923 502.015 136.624 501.39C136.064 502.071 135.355 502.58 134.496 502.916C133.647 503.252 132.755 503.42 131.822 503.42C130.31 503.42 129.111 502.991 128.224 502.132C127.337 501.273 126.894 500.158 126.894 498.786C126.894 497.209 127.51 495.995 128.742 495.146C129.983 494.287 131.738 493.858 134.006 493.858H136.078V493.06C136.078 492.183 135.807 491.548 135.266 491.156C134.725 490.755 133.945 490.554 132.928 490.554C132.452 490.554 131.855 490.619 131.136 490.75C130.427 490.871 129.694 491.063 128.938 491.324L128.056 488.79C128.999 488.435 129.946 488.174 130.898 488.006C131.859 487.838 132.732 487.754 133.516 487.754C135.597 487.754 137.142 488.197 138.15 489.084C139.158 489.961 139.662 491.207 139.662 492.822V499.094ZM133.026 500.746C133.586 500.746 134.151 500.587 134.72 500.27C135.299 499.953 135.751 499.509 136.078 498.94V496.056H134.622C133.25 496.056 132.256 496.275 131.64 496.714C131.033 497.153 130.73 497.773 130.73 498.576C130.73 499.267 130.926 499.803 131.318 500.186C131.71 500.559 132.279 500.746 133.026 500.746ZM144.761 503V500.438H146.847V490.722H144.761V488.174H149.661L150.347 491.576C150.889 490.316 151.57 489.369 152.391 488.734C153.213 488.09 154.244 487.768 155.485 487.768C155.961 487.768 156.381 487.805 156.745 487.88C157.119 487.955 157.473 488.053 157.809 488.174L156.703 491.282C156.414 491.207 156.139 491.151 155.877 491.114C155.616 491.067 155.322 491.044 154.995 491.044C153.969 491.044 153.073 491.445 152.307 492.248C151.551 493.041 150.963 494.119 150.543 495.482V500.438H153.497V503H144.761ZM154.687 493.956V490.022L155.191 488.174H157.809L157.151 493.956H154.687ZM164.56 496.714C164.635 497.638 164.845 498.389 165.19 498.968C165.545 499.547 165.998 499.971 166.548 500.242C167.099 500.513 167.71 500.648 168.382 500.648C169.092 500.648 169.759 500.536 170.384 500.312C171.01 500.088 171.626 499.775 172.232 499.374L173.772 501.488C173.082 502.067 172.256 502.533 171.294 502.888C170.342 503.243 169.292 503.42 168.144 503.42C166.539 503.42 165.186 503.089 164.084 502.426C162.992 501.763 162.166 500.844 161.606 499.668C161.046 498.492 160.766 497.139 160.766 495.608C160.766 494.133 161.042 492.803 161.592 491.618C162.143 490.433 162.936 489.495 163.972 488.804C165.008 488.104 166.259 487.754 167.724 487.754C169.087 487.754 170.263 488.053 171.252 488.65C172.242 489.247 173.007 490.106 173.548 491.226C174.09 492.337 174.36 493.676 174.36 495.244C174.36 495.496 174.351 495.753 174.332 496.014C174.323 496.275 174.309 496.509 174.29 496.714H164.56ZM167.738 490.358C166.842 490.358 166.105 490.68 165.526 491.324C164.957 491.959 164.621 492.967 164.518 494.348H170.762C170.744 493.097 170.482 492.122 169.978 491.422C169.484 490.713 168.737 490.358 167.738 490.358ZM186.795 481.86L190.491 482.252V503H187.215L186.991 501.25C186.534 501.903 185.96 502.431 185.269 502.832C184.579 503.224 183.776 503.42 182.861 503.42C181.611 503.42 180.575 503.093 179.753 502.44C178.941 501.787 178.335 500.872 177.933 499.696C177.541 498.511 177.345 497.134 177.345 495.566C177.345 494.054 177.579 492.71 178.045 491.534C178.512 490.358 179.184 489.434 180.061 488.762C180.948 488.09 181.998 487.754 183.211 487.754C183.939 487.754 184.602 487.88 185.199 488.132C185.797 488.384 186.329 488.757 186.795 489.252V481.86ZM184.205 490.512C183.272 490.512 182.535 490.918 181.993 491.73C181.461 492.533 181.195 493.816 181.195 495.58C181.195 496.821 181.307 497.815 181.531 498.562C181.755 499.299 182.073 499.831 182.483 500.158C182.894 500.485 183.379 500.648 183.939 500.648C184.555 500.648 185.097 500.466 185.563 500.102C186.039 499.729 186.45 499.267 186.795 498.716V491.968C186.45 491.511 186.063 491.156 185.633 490.904C185.213 490.643 184.737 490.512 184.205 490.512Z" fill="black"/>
</g>
</g>
<rect x="3" y="3" width="279" height="526" rx="12" stroke="black" stroke-width="6"/>
<defs>
<clipPath id="clip0_310_157">
<rect width="285" height="532" rx="15" fill="white"/>
</clipPath>
<clipPath id="clip1_310_157">
<path d="M0 15C0 6.71573 6.71573 0 15 0H270C278.284 0 285 6.71573 285 15V76H0V15Z" fill="white"/>
</clipPath>
<clipPath id="clip2_310_157">
<rect width="285" height="76" fill="white" transform="translate(0 76)"/>
</clipPath>
<clipPath id="clip3_310_157">
<rect width="285" height="76" fill="white" transform="translate(0 152)"/>
</clipPath>
<clipPath id="clip4_310_157">
<rect width="285" height="76" fill="white" transform="translate(0 228)"/>
</clipPath>
<clipPath id="clip5_310_157">
<rect width="285" height="76" fill="white" transform="translate(0 304)"/>
</clipPath>
<clipPath id="clip6_310_157">
<rect width="285" height="76" fill="white" transform="translate(0 380)"/>
</clipPath>
<clipPath id="clip7_310_157">
<path d="M0 456H285V517C285 525.284 278.284 532 270 532H15C6.71572 532 0 525.284 0 517V456Z" fill="white"/>
</clipPath>
</defs>
</svg>
