<svg xmlns="http://www.w3.org/2000/svg" viewBox="0 0 108 32" fill="none" preserveAspectRatio="xMidYMid meet">
<rect width="108" height="32" fill="#273EC2"></rect>
<path d="M20.1293 11.241V21.4821H17.1358V13.8715H13.3988V21.4821H10.4053V11.241H20.1293ZM27.3822 19.2732C28.9493 19.2732 29.7529 18.3696 29.7529 16.3615C29.7529 14.3133 28.9894 13.4298 27.3822 13.4298C25.8553 13.4298 25.0114 14.3334 25.0114 16.3615C25.0114 18.3696 25.9356 19.2732 27.3822 19.2732ZM27.3822 21.7231C23.8863 21.7231 21.8973 20.0162 21.8973 16.3615C21.8973 12.8474 23.9868 11 27.3822 11C30.8378 11 32.867 12.7671 32.867 16.3615C32.867 19.8355 30.878 21.7231 27.3822 21.7231ZM43.4751 11.241V21.4821H40.4815V17.9479C40.0194 18.0885 38.9546 18.2893 38.0706 18.2893C35.8003 18.2893 34.193 17.5262 34.193 15.1567V11.241H37.1866V14.1326C37.1866 15.3575 37.7692 15.7591 38.9747 15.7591C39.6979 15.7591 40.16 15.6185 40.4815 15.5181V11.241H43.4751ZM51.0494 13.8715V21.4821H48.0558V13.8715H44.7207V11.241H54.3845V13.8715H51.0494ZM61.7579 17.6266V17.1246C61.3962 17.0644 61.0145 17.0041 60.2309 17.0041C58.6839 17.0041 58.2018 17.4459 58.2018 18.1487C58.2018 18.8515 58.6638 19.3736 59.7889 19.3736C61.1149 19.3736 61.7579 18.6909 61.7579 17.6266ZM64.7514 15.2571V21.4821H61.9588V20.0162H61.9186C61.4766 20.8194 60.4921 21.6628 58.6839 21.6628C56.494 21.6628 55.1479 20.4981 55.1479 18.4901C55.1479 16.3415 56.6347 15.3374 59.809 15.3374C60.693 15.3374 61.4163 15.4579 61.7579 15.4981V15.0362C61.7579 13.992 61.2355 13.49 59.5679 13.49C58.2821 13.49 56.936 13.8715 56.1324 14.2731V11.7831C56.9762 11.4016 58.4228 11 60.0903 11C63.4053 11 64.7514 12.1446 64.7514 15.2571ZM72.2855 13.8715V21.4821H69.292V13.8715H65.9569V11.241H75.6207V13.8715H72.2855ZM86.0479 18.5704V20.8596C85.5054 21.2813 84.0187 21.7231 82.2507 21.7231C78.1923 21.7231 76.4444 19.7752 76.4444 16.221C76.4444 12.988 78.3932 11 81.7283 11C85.4652 11 86.731 13.3494 86.731 16.241V17.0242H79.5183C79.7393 18.6106 80.6635 19.3335 82.6123 19.3335C84.1191 19.3335 85.3447 18.9921 86.0479 18.5704ZM79.5183 15.3173H83.7173C83.7374 14.1527 83.1347 13.2892 81.7685 13.2892C80.4224 13.2892 79.6991 13.9719 79.5183 15.3173ZM94.8879 16.1607L98.2431 21.4821H94.8678L92.7583 18.1889L90.709 21.4821H87.394L90.7492 16.1808L87.6953 11.241H91.0505L92.8989 14.2932L94.8076 11.241H98.0422L94.8879 16.1607Z" fill="white"></path>
</svg>