<svg width="420" height="200" viewBox="0 0 420 200" fill="none" xmlns="http://www.w3.org/2000/svg">
<g filter="url(#filter0_d_403_26)">
<path d="M41 50H141V59H41V50Z" fill="url(#paint0_linear_403_26)"/>
<path d="M41 63H141V72H41V63Z" fill="url(#paint1_linear_403_26)"/>
<path d="M41 89H141V98H41V89Z" fill="url(#paint2_linear_403_26)"/>
<path d="M41 102H141V111H41V102Z" fill="url(#paint3_linear_403_26)"/>
<path d="M41 115H89V124H41V115Z" fill="url(#paint4_linear_403_26)"/>
<path d="M41 76H89V85H41V76Z" fill="url(#paint5_linear_403_26)"/>
<path d="M41 128H89V137H41V128Z" fill="url(#paint6_linear_403_26)"/>
<path d="M41 141H89V150H41V141Z" fill="url(#paint7_linear_403_26)"/>
</g>
<g filter="url(#filter1_d_403_26)">
<path d="M192 50H266V59H192V50Z" fill="url(#paint8_linear_403_26)"/>
<path d="M166 63H266V72H166V63Z" fill="url(#paint9_linear_403_26)"/>
<path d="M166 76H240V85H166V76Z" fill="url(#paint10_linear_403_26)"/>
<path d="M179 89H240V98H179V89Z" fill="url(#paint11_linear_403_26)"/>
<path d="M192 102H253V111H192V102Z" fill="url(#paint12_linear_403_26)"/>
<path d="M192 115H266V124H192V115Z" fill="url(#paint13_linear_403_26)"/>
<path d="M166 128H266V137H166V128Z" fill="url(#paint14_linear_403_26)"/>
<path d="M166 141H240V150H166V141Z" fill="url(#paint15_linear_403_26)"/>
</g>
<g filter="url(#filter2_d_403_26)">
<path d="M291 50H352V59H291V50Z" fill="url(#paint16_linear_403_26)"/>
<path d="M291 63H378V72H291V63Z" fill="url(#paint17_linear_403_26)"/>
<path d="M291 89H391V98H291V89Z" fill="url(#paint18_linear_403_26)"/>
<path d="M291 102H391V111H291V102Z" fill="url(#paint19_linear_403_26)"/>
<path d="M291 115H391V124H291V115Z" fill="url(#paint20_linear_403_26)"/>
<path d="M291 76H391V85H291V76Z" fill="url(#paint21_linear_403_26)"/>
<path d="M291 128H378V137H291V128Z" fill="url(#paint22_linear_403_26)"/>
<path d="M291 141H352V150H291V141Z" fill="url(#paint23_linear_403_26)"/>
</g>
<defs>
<filter id="filter0_d_403_26" x="33" y="44" width="116" height="116" filterUnits="userSpaceOnUse" color-interpolation-filters="sRGB">
<feFlood flood-opacity="0" result="BackgroundImageFix"/>
<feColorMatrix in="SourceAlpha" type="matrix" values="0 0 0 0 0 0 0 0 0 0 0 0 0 0 0 0 0 0 127 0" result="hardAlpha"/>
<feOffset dy="2"/>
<feGaussianBlur stdDeviation="4"/>
<feComposite in2="hardAlpha" operator="out"/>
<feColorMatrix type="matrix" values="0 0 0 0 0.121569 0 0 0 0 0.517647 0 0 0 0 0.980392 0 0 0 1 0"/>
<feBlend mode="normal" in2="BackgroundImageFix" result="effect1_dropShadow_403_26"/>
<feBlend mode="normal" in="SourceGraphic" in2="effect1_dropShadow_403_26" result="shape"/>
</filter>
<filter id="filter1_d_403_26" x="158" y="44" width="116" height="116" filterUnits="userSpaceOnUse" color-interpolation-filters="sRGB">
<feFlood flood-opacity="0" result="BackgroundImageFix"/>
<feColorMatrix in="SourceAlpha" type="matrix" values="0 0 0 0 0 0 0 0 0 0 0 0 0 0 0 0 0 0 127 0" result="hardAlpha"/>
<feOffset dy="2"/>
<feGaussianBlur stdDeviation="4"/>
<feComposite in2="hardAlpha" operator="out"/>
<feColorMatrix type="matrix" values="0 0 0 0 0.122396 0 0 0 0 0.51651 0 0 0 0 0.979167 0 0 0 1 0"/>
<feBlend mode="normal" in2="BackgroundImageFix" result="effect1_dropShadow_403_26"/>
<feBlend mode="normal" in="SourceGraphic" in2="effect1_dropShadow_403_26" result="shape"/>
</filter>
<filter id="filter2_d_403_26" x="283" y="44" width="116" height="116" filterUnits="userSpaceOnUse" color-interpolation-filters="sRGB">
<feFlood flood-opacity="0" result="BackgroundImageFix"/>
<feColorMatrix in="SourceAlpha" type="matrix" values="0 0 0 0 0 0 0 0 0 0 0 0 0 0 0 0 0 0 127 0" result="hardAlpha"/>
<feOffset dy="2"/>
<feGaussianBlur stdDeviation="4"/>
<feComposite in2="hardAlpha" operator="out"/>
<feColorMatrix type="matrix" values="0 0 0 0 0.121569 0 0 0 0 0.517647 0 0 0 0 0.980392 0 0 0 1 0"/>
<feBlend mode="normal" in2="BackgroundImageFix" result="effect1_dropShadow_403_26"/>
<feBlend mode="normal" in="SourceGraphic" in2="effect1_dropShadow_403_26" result="shape"/>
</filter>
<linearGradient id="paint0_linear_403_26" x1="41" y1="50" x2="141" y2="150" gradientUnits="userSpaceOnUse">
<stop stop-color="#29BEDC"/>
<stop offset="1" stop-color="#517AED"/>
</linearGradient>
<linearGradient id="paint1_linear_403_26" x1="41" y1="50" x2="141" y2="150" gradientUnits="userSpaceOnUse">
<stop stop-color="#29BEDC"/>
<stop offset="1" stop-color="#517AED"/>
</linearGradient>
<linearGradient id="paint2_linear_403_26" x1="41" y1="50" x2="141" y2="150" gradientUnits="userSpaceOnUse">
<stop stop-color="#29BEDC"/>
<stop offset="1" stop-color="#517AED"/>
</linearGradient>
<linearGradient id="paint3_linear_403_26" x1="41" y1="50" x2="141" y2="150" gradientUnits="userSpaceOnUse">
<stop stop-color="#29BEDC"/>
<stop offset="1" stop-color="#517AED"/>
</linearGradient>
<linearGradient id="paint4_linear_403_26" x1="41" y1="50" x2="141" y2="150" gradientUnits="userSpaceOnUse">
<stop stop-color="#29BEDC"/>
<stop offset="1" stop-color="#517AED"/>
</linearGradient>
<linearGradient id="paint5_linear_403_26" x1="41" y1="50" x2="141" y2="150" gradientUnits="userSpaceOnUse">
<stop stop-color="#29BEDC"/>
<stop offset="1" stop-color="#517AED"/>
</linearGradient>
<linearGradient id="paint6_linear_403_26" x1="41" y1="50" x2="141" y2="150" gradientUnits="userSpaceOnUse">
<stop stop-color="#29BEDC"/>
<stop offset="1" stop-color="#517AED"/>
</linearGradient>
<linearGradient id="paint7_linear_403_26" x1="41" y1="50" x2="141" y2="150" gradientUnits="userSpaceOnUse">
<stop stop-color="#29BEDC"/>
<stop offset="1" stop-color="#517AED"/>
</linearGradient>
<linearGradient id="paint8_linear_403_26" x1="166" y1="50" x2="266" y2="150" gradientUnits="userSpaceOnUse">
<stop stop-color="#29BEDC"/>
<stop offset="1" stop-color="#517AED"/>
</linearGradient>
<linearGradient id="paint9_linear_403_26" x1="166" y1="50" x2="266" y2="150" gradientUnits="userSpaceOnUse">
<stop stop-color="#29BEDC"/>
<stop offset="1" stop-color="#517AED"/>
</linearGradient>
<linearGradient id="paint10_linear_403_26" x1="166" y1="50" x2="266" y2="150" gradientUnits="userSpaceOnUse">
<stop stop-color="#29BEDC"/>
<stop offset="1" stop-color="#517AED"/>
</linearGradient>
<linearGradient id="paint11_linear_403_26" x1="166" y1="50" x2="266" y2="150" gradientUnits="userSpaceOnUse">
<stop stop-color="#29BEDC"/>
<stop offset="1" stop-color="#517AED"/>
</linearGradient>
<linearGradient id="paint12_linear_403_26" x1="166" y1="50" x2="266" y2="150" gradientUnits="userSpaceOnUse">
<stop stop-color="#29BEDC"/>
<stop offset="1" stop-color="#517AED"/>
</linearGradient>
<linearGradient id="paint13_linear_403_26" x1="166" y1="50" x2="266" y2="150" gradientUnits="userSpaceOnUse">
<stop stop-color="#29BEDC"/>
<stop offset="1" stop-color="#517AED"/>
</linearGradient>
<linearGradient id="paint14_linear_403_26" x1="166" y1="50" x2="266" y2="150" gradientUnits="userSpaceOnUse">
<stop stop-color="#29BEDC"/>
<stop offset="1" stop-color="#517AED"/>
</linearGradient>
<linearGradient id="paint15_linear_403_26" x1="166" y1="50" x2="266" y2="150" gradientUnits="userSpaceOnUse">
<stop stop-color="#29BEDC"/>
<stop offset="1" stop-color="#517AED"/>
</linearGradient>
<linearGradient id="paint16_linear_403_26" x1="291" y1="50" x2="391" y2="150" gradientUnits="userSpaceOnUse">
<stop stop-color="#29BEDC"/>
<stop offset="1" stop-color="#517AED"/>
</linearGradient>
<linearGradient id="paint17_linear_403_26" x1="291" y1="50" x2="391" y2="150" gradientUnits="userSpaceOnUse">
<stop stop-color="#29BEDC"/>
<stop offset="1" stop-color="#517AED"/>
</linearGradient>
<linearGradient id="paint18_linear_403_26" x1="291" y1="50" x2="391" y2="150" gradientUnits="userSpaceOnUse">
<stop stop-color="#29BEDC"/>
<stop offset="1" stop-color="#517AED"/>
</linearGradient>
<linearGradient id="paint19_linear_403_26" x1="291" y1="50" x2="391" y2="150" gradientUnits="userSpaceOnUse">
<stop stop-color="#29BEDC"/>
<stop offset="1" stop-color="#517AED"/>
</linearGradient>
<linearGradient id="paint20_linear_403_26" x1="291" y1="50" x2="391" y2="150" gradientUnits="userSpaceOnUse">
<stop stop-color="#29BEDC"/>
<stop offset="1" stop-color="#517AED"/>
</linearGradient>
<linearGradient id="paint21_linear_403_26" x1="291" y1="50" x2="391" y2="150" gradientUnits="userSpaceOnUse">
<stop stop-color="#29BEDC"/>
<stop offset="1" stop-color="#517AED"/>
</linearGradient>
<linearGradient id="paint22_linear_403_26" x1="291" y1="50" x2="391" y2="150" gradientUnits="userSpaceOnUse">
<stop stop-color="#29BEDC"/>
<stop offset="1" stop-color="#517AED"/>
</linearGradient>
<linearGradient id="paint23_linear_403_26" x1="291" y1="50" x2="391" y2="150" gradientUnits="userSpaceOnUse">
<stop stop-color="#29BEDC"/>
<stop offset="1" stop-color="#517AED"/>
</linearGradient>
</defs>
</svg>
