<svg width="24" height="24" viewBox="0 0 24 24" fill="none" xmlns="http://www.w3.org/2000/svg">
<path fill-rule="evenodd" clip-rule="evenodd" d="M5.46751 3H18.5325C18.7956 3.00063 19.056 3.05308 19.2989 3.15436C19.5418 3.25564 19.7623 3.40376 19.9479 3.59027C20.1335 3.77678 20.2805 3.99802 20.3806 4.24136C20.4807 4.4847 20.5319 4.74538 20.5313 5.0085V22.5L18.435 20.6475L17.2553 19.5555L16.0073 18.3953L16.524 20.199H5.46751C5.20438 20.1984 4.94396 20.1459 4.70111 20.0446C4.45826 19.9434 4.23774 19.7952 4.05213 19.6087C3.86653 19.4222 3.71948 19.201 3.61939 18.9576C3.51929 18.7143 3.46811 18.4536 3.46876 18.1905V5.0085C3.46811 4.74538 3.51929 4.4847 3.61939 4.24136C3.71948 3.99802 3.86653 3.77678 4.05213 3.59027C4.23774 3.40376 4.45826 3.25564 4.70111 3.15436C4.94396 3.05308 5.20438 3.00063 5.46751 3ZM14.1255 14.9437C14.418 15.3142 14.769 15.7335 14.769 15.7335C15.3494 15.7482 15.9246 15.6208 16.4446 15.3625C16.9645 15.1043 17.4135 14.7229 17.7525 14.2515C17.7209 12.2749 17.2408 10.3313 16.3485 8.56725C15.5633 7.95055 14.606 7.59283 13.6088 7.5435L13.4723 7.6995C14.36 7.93574 15.1875 8.3578 15.9 8.93775C14.9922 8.43735 13.9952 8.11938 12.9653 8.00175C12.3103 7.92958 11.6491 7.93613 10.9958 8.02125C10.94 8.02293 10.8846 8.02945 10.83 8.04075C10.0645 8.12779 9.3176 8.33509 8.61676 8.655C8.25601 8.82075 8.04151 8.93775 8.04151 8.93775C8.79203 8.32877 9.66755 7.89268 10.6058 7.6605L10.5083 7.5435C9.51103 7.59283 8.55372 7.95055 7.76851 8.56725C6.87623 10.3313 6.39616 12.2749 6.36451 14.2515C6.70078 14.7233 7.14787 15.1052 7.66642 15.3636C8.18497 15.6221 8.75909 15.7491 9.33826 15.7335C9.33826 15.7335 9.69901 15.2948 9.99151 14.9242C9.30604 14.7514 8.70251 14.3444 8.28526 13.7738C8.28526 13.7738 8.38276 13.842 8.55826 13.9395C8.56937 13.9515 8.58259 13.9614 8.59726 13.9688C8.61188 13.9785 8.62651 13.9858 8.64113 13.9931C8.65576 14.0004 8.67038 14.0077 8.68501 14.0175C8.91437 14.1442 9.15219 14.255 9.39676 14.349C9.86073 14.5321 10.3405 14.6725 10.83 14.7682C11.6638 14.9284 12.5202 14.9317 13.3553 14.778C13.841 14.693 14.3154 14.5524 14.769 14.3588C15.1633 14.21 15.5394 14.017 15.8903 13.7835C15.4573 14.3664 14.8322 14.7774 14.1255 14.9437ZM9.60852 11.3173C9.79886 11.2096 10.0173 11.1618 10.2353 11.1803C10.3716 11.186 10.5056 11.2185 10.6294 11.276C10.7532 11.3334 10.8645 11.4148 10.9568 11.5153C11.0492 11.6158 11.1208 11.7335 11.1677 11.8617C11.2145 11.9899 11.2356 12.1261 11.2298 12.2625C11.2298 12.4812 11.1637 12.6949 11.0403 12.8755C10.9169 13.056 10.7418 13.1951 10.538 13.2746C10.3342 13.354 10.1112 13.37 9.89809 13.3206C9.68502 13.2711 9.49184 13.1585 9.34384 12.9975C9.19585 12.8364 9.09992 12.6344 9.06863 12.4179C9.03734 12.2015 9.07213 11.9806 9.16846 11.7842C9.26479 11.5878 9.41817 11.4251 9.60852 11.3173ZM13.1673 11.3173C13.3576 11.2096 13.5761 11.1618 13.794 11.1803C13.9304 11.186 14.0643 11.2185 14.1881 11.276C14.3119 11.3334 14.4232 11.4148 14.5156 11.5153C14.6079 11.6158 14.6796 11.7335 14.7264 11.8617C14.7732 11.9899 14.7943 12.1261 14.7885 12.2625C14.7885 12.4812 14.7225 12.6949 14.599 12.8755C14.4756 13.056 14.3005 13.1951 14.0967 13.2746C13.8929 13.354 13.6699 13.37 13.4568 13.3206C13.2438 13.2711 13.0506 13.1585 12.9026 12.9975C12.7546 12.8364 12.6587 12.6344 12.6274 12.4179C12.5961 12.2015 12.6309 11.9806 12.7272 11.7842C12.8235 11.5878 12.9769 11.4251 13.1673 11.3173Z" fill="#191315" fill-opacity="0.72"/>
</svg>
