<svg xmlns="http://www.w3.org/2000/svg" viewBox="0 0 80 80" fill="currentColor">
  <g clip-path="url(#a)">
    <path d="M64.1 16.9a58.6 58.6 0 0 0-14.7-4.4l-1.8 3.7a54 54 0 0 0-16.2 0 37.4 37.4 0 0 0-2-3.8A58.4 58.4 0 0 0 14.7 17 60 60 0 0 0 4.4 57.6a58.9 58.9 0 0 0 18 8.8 42 42 0 0 0 3.6-5.9l-.1-.3c-2-.7-3.8-1.6-5.6-2.6a.2.2 0 0 1 0-.4 30.3 30.3 0 0 0 1.3-.9 42 42 0 0 0 36 0l1 1c.2 0 .2.2 0 .3-1.7 1-3.6 1.9-5.5 2.6a47.2 47.2 0 0 0 3.8 6.3 58.7 58.7 0 0 0 17.8-9.1A59.5 59.5 0 0 0 64 16.9ZM27.7 49.3c-3.5 0-6.4-3.2-6.4-7.1 0-4 2.9-7.2 6.4-7.2 3.6 0 6.5 3.3 6.4 7.2 0 4-2.8 7.1-6.4 7.1Zm23.6 0c-3.5 0-6.4-3.2-6.4-7.1 0-4 2.9-7.2 6.4-7.2 3.6 0 6.5 3.3 6.4 7.2 0 4-2.8 7.1-6.4 7.1Z"/>
  </g>
  <defs>
    <clipPath id="a">
      <path fill="#fff" d="M0 0h71v55H0z" transform="translate(4 12)"/>
    </clipPath>
  </defs>
</svg>
