<svg width="24" height="24" viewBox="0 0 24 24" fill="none" xmlns="http://www.w3.org/2000/svg">
<path fill-rule="evenodd" clip-rule="evenodd" d="M12.0001 1.50003C9.50729 1.50036 7.09593 2.38756 5.19735 4.00292C3.29877 5.61828 2.03682 7.85642 1.63725 10.317C1.23768 12.7775 1.72656 15.3 3.01642 17.4331C4.30628 19.5663 6.31299 21.1709 8.67758 21.96C9.20258 22.0575 9.42758 21.735 9.42758 21.4575C9.42758 21.18 9.42758 20.55 9.42758 19.6725C6.51008 20.3025 5.89508 18.2625 5.89508 18.2625C5.68991 17.6197 5.25811 17.0732 4.68007 16.725C3.72757 16.08 4.75508 16.0875 4.75508 16.0875C5.08778 16.1345 5.40534 16.2569 5.68351 16.4454C5.96168 16.6339 6.19309 16.8835 6.36007 17.175C6.65058 17.6961 7.13613 18.0804 7.70995 18.2436C8.28377 18.4067 8.8989 18.3353 9.42008 18.045C9.46242 17.5129 9.69703 17.0143 10.0801 16.6425C7.75508 16.3725 5.30258 15.4725 5.30258 11.4525C5.28557 10.4085 5.67249 9.39815 6.38258 8.63253C6.06117 7.72818 6.09875 6.73501 6.48757 5.85753C6.48757 5.85753 7.36508 5.57253 9.37508 6.93003C11.0937 6.46124 12.9065 6.46124 14.6251 6.93003C16.6276 5.57253 17.5051 5.85753 17.5051 5.85753C17.8939 6.73501 17.9315 7.72818 17.6101 8.63253C18.3202 9.39815 18.7071 10.4085 18.6901 11.4525C18.6901 15.4875 16.2376 16.3725 13.8976 16.635C14.1482 16.8891 14.3415 17.1939 14.4644 17.529C14.5873 17.8641 14.637 18.2216 14.6101 18.5775C14.6101 19.98 14.6101 21.1125 14.6101 21.4575C14.6101 21.8025 14.7976 22.065 15.3601 21.96C17.7278 21.1699 19.7366 19.5622 21.0262 17.4251C22.3159 15.2881 22.8021 12.7615 22.3976 10.2984C21.9931 7.83536 20.7244 5.59696 18.819 3.98461C16.9136 2.37225 14.4961 1.49141 12.0001 1.50003V1.50003Z" fill="#191315" fill-opacity="0.72"/>
</svg>
