<svg width="24" height="24" viewBox="0 0 24 24" fill="none" xmlns="http://www.w3.org/2000/svg">
<path d="M20.7823 3.21749C20.681 3.11674 20.5532 3.04699 20.4137 3.01643C20.2742 2.98588 20.1288 2.99578 19.9948 3.04499L3.49476 9.04499C3.35246 9.09896 3.22995 9.19495 3.14349 9.3202C3.05704 9.44546 3.01074 9.59405 3.01074 9.74624C3.01074 9.89843 3.05704 10.047 3.14349 10.1723C3.22995 10.2975 3.35246 10.3935 3.49476 10.4475L10.6948 13.3275L13.5748 20.5275C13.6289 20.6635 13.7216 20.7808 13.8416 20.8647C13.9615 20.9487 14.1034 20.9957 14.2498 21C14.4013 20.9969 14.5484 20.9479 14.6716 20.8595C14.7947 20.7712 14.8882 20.6476 14.9398 20.505L20.9398 4.00499C20.9909 3.8723 21.0032 3.72781 20.9753 3.58838C20.9474 3.44895 20.8805 3.32032 20.7823 3.21749ZM14.2498 18.15L12.1573 12.9L15.7498 9.30749L14.6923 8.24999L11.0698 11.8725L5.84976 9.74999L18.9973 5.00249L14.2498 18.15Z" fill="#191315" fill-opacity="0.72"/>
</svg>
