<svg width="24" height="24" viewBox="0 0 24 24" fill="none" xmlns="http://www.w3.org/2000/svg">
<path d="M8.94 18.705C10.2069 18.713 11.4627 18.4694 12.6346 17.9882C13.8066 17.5071 14.8714 16.7981 15.7672 15.9022C16.663 15.0064 17.3721 13.9417 17.8532 12.7697C18.3343 11.5977 18.578 10.3419 18.57 9.07505C18.57 8.92505 18.57 8.78255 18.57 8.63255C19.2267 8.15141 19.7951 7.56017 20.25 6.88505C19.6316 7.15549 18.9773 7.33486 18.3075 7.41755C19.0177 6.99438 19.5506 6.3283 19.8075 5.54255C19.1456 5.93963 18.4199 6.21877 17.6625 6.36755C17.1524 5.82407 16.4775 5.46384 15.7421 5.34259C15.0067 5.22133 14.2518 5.34582 13.5943 5.69679C12.9368 6.04775 12.4132 6.60563 12.1047 7.2841C11.7962 7.96258 11.7198 8.72382 11.8875 9.45005C10.542 9.384 9.22553 9.03531 8.02377 8.42668C6.822 7.81804 5.7619 6.96311 4.9125 5.91755C4.48419 6.66093 4.35437 7.53929 4.54932 8.37479C4.74427 9.21029 5.24942 9.94049 5.9625 10.4175C5.43646 10.3973 4.92259 10.2534 4.4625 9.99755V10.035C4.45783 10.8119 4.71954 11.5669 5.20403 12.1742C5.68851 12.7816 6.3665 13.2045 7.125 13.3725C6.63573 13.5041 6.12322 13.5246 5.625 13.4325C5.84459 14.0951 6.26376 14.6735 6.82503 15.0884C7.38631 15.5033 8.06219 15.7344 8.76 15.75C7.56691 16.7104 6.08407 17.2391 4.5525 17.25C4.28397 17.2423 4.01606 17.2197 3.75 17.1825C5.30022 18.1702 7.1019 18.6909 8.94 18.6825" fill="#191315" fill-opacity="0.72"/>
</svg>
