<svg width="24" height="24" viewBox="0 0 24 24" fill="none" xmlns="http://www.w3.org/2000/svg">
<path d="M22.0576 6.94504C21.9381 6.50107 21.7041 6.09627 21.3789 5.77117C21.0538 5.44606 20.649 5.21204 20.2051 5.09254C18.5701 4.65004 12.0001 4.65004 12.0001 4.65004C12.0001 4.65004 5.43008 4.65004 3.79508 5.09254C3.35111 5.21204 2.94631 5.44606 2.6212 5.77117C2.29609 6.09627 2.06208 6.50107 1.94258 6.94504C1.63729 8.61249 1.48914 10.3049 1.50008 12C1.48914 13.6952 1.63729 15.3876 1.94258 17.055C2.06208 17.499 2.29609 17.9038 2.6212 18.2289C2.94631 18.554 3.35111 18.788 3.79508 18.9075C5.43008 19.35 12.0001 19.35 12.0001 19.35C12.0001 19.35 18.5701 19.35 20.2051 18.9075C20.649 18.788 21.0538 18.554 21.3789 18.2289C21.7041 17.9038 21.9381 17.499 22.0576 17.055C22.3629 15.3876 22.511 13.6952 22.5001 12C22.511 10.3049 22.3629 8.61249 22.0576 6.94504ZM9.90007 15.15V8.85004L15.3526 12L9.90007 15.15Z" fill="#191315" fill-opacity="0.72"/>
</svg>
