<svg xmlns="http://www.w3.org/2000/svg" viewBox="0 0 162 73.16"><defs><style>.cls-1{fill:#009ace;}.cls-2{fill:#3d3935;}</style></defs><title>Align_Digital</title><path class="cls-1" d="M70.83.28a5.44,5.44,0,1,0,5.44,5.43A5.42,5.42,0,0,0,70.83.28" transform="translate(0 -0.28)"/><path class="cls-2" d="M129.76,18.19h8.35l.13,3.48a12.29,12.29,0,0,1,9.59-4.53C157,17.14,162,22.81,162,32.69v23h-8.66V33c0-5.08-3.11-8-7.47-8s-7.45,2.92-7.45,8V55.71h-8.66ZM56.65,55.71H48V1.17h8.67Zm18.53,0H66.5V18.19h8.68ZM29.57,18.19h8.57V55.71H29.57l-.14-3.93a16.82,16.82,0,0,1-11.62,5C7.58,56.77,0,48.54,0,37,0,24.7,8.21,17.14,17.81,17.14a15,15,0,0,1,11.62,5ZM8.86,37c0,7.2,4.41,12,10.55,12C25,49,30,44.9,30,37c0-7.71-4.79-12-10.56-12C13,25,8.86,30.05,8.86,37m102.87,0c0-7.82-4.93-12-10.54-12-6.7,0-10.57,5.45-10.57,12,0,6.91,4.17,12,10.57,12,5.89,0,10.54-4.38,10.54-12m8.17,15c0,16.1-9.42,21.44-20.51,21.44a29.32,29.32,0,0,1-13.42-3L88.12,63a22.69,22.69,0,0,0,11.2,2.92c6.45,0,11.93-4.14,11.93-11.59V51.75a15.34,15.34,0,0,1-11.73,5c-10.1,0-17.74-8.13-17.74-19.82,0-11.2,7.19-19.81,17.78-19.81a14.9,14.9,0,0,1,11.64,5l.11-3.95h8.59Z" transform="translate(0 -0.28)"/></svg>