<svg width="1000" height="438" viewBox="0 0 1000 438" fill="none" xmlns="http://www.w3.org/2000/svg">
<path d="M1000 375.108H874.965V437.626H1000V375.108Z" fill="#004BFF"/>
<path d="M156.15 375.105V437.622C105.156 437.622 59.6365 413.134 31.1147 375.105C30.2504 373.953 29.386 372.8 28.5217 371.36C10.3715 346.007 0 314.892 0 281.185V0H62.5175V281.185C62.5175 333.042 104.58 375.105 156.15 375.105Z" fill="#01050D"/>
<path d="M406.216 125.033V156.148C379.999 136.557 347.732 125.033 312.584 125.033C226.155 125.033 156.435 195.041 156.435 281.183C156.435 316.331 167.959 348.886 187.837 374.815C216.359 412.844 261.591 437.332 312.872 437.332H406.504V374.815H312.872C261.303 374.815 219.24 332.752 219.24 281.183C219.24 229.325 261.303 187.551 312.872 187.551C364.73 187.551 406.504 229.613 406.504 281.183V374.815H469.022V124.745H406.216V125.033Z" fill="#01050D"/>
<path d="M749.928 0V156.15C723.711 136.559 691.444 125.035 656.296 125.035C569.866 125.035 500.146 195.043 500.146 281.185C500.146 316.333 511.67 348.888 531.549 374.817C560.07 412.846 605.302 437.334 656.584 437.334H750.216V374.817H656.584C605.014 374.817 562.952 332.754 562.952 281.185C562.952 229.327 605.014 187.552 656.584 187.552C708.441 187.552 750.216 229.615 750.216 281.185V374.817H812.734V0H749.928Z" fill="#01050D"/>
</svg>
