<svg width="196" height="302" viewBox="0 0 196 302" fill="none" xmlns="http://www.w3.org/2000/svg">
<path d="M42 39C42 39.5304 41.7893 40.0391 41.4142 40.4142C41.0391 40.7893 40.5304 41 40 41H24C23.4696 41 22.9609 40.7893 22.5858 40.4142C22.2107 40.0391 22 39.5304 22 39V25C22 24.4696 22.2107 23.9609 22.5858 23.5858C22.9609 23.2107 23.4696 23 24 23H29L31 26H40C40.5304 26 41.0391 26.2107 41.4142 26.5858C41.7893 26.9609 42 27.4696 42 28V39Z" fill="#2B2B2B" stroke="white" stroke-opacity="0.96" stroke-width="2" stroke-linecap="round" stroke-linejoin="round"/>
<path d="M60.41 38.716C59.51 38.716 58.754 38.566 58.142 38.266C57.53 37.954 56.99 37.528 56.522 36.988L57.926 35.62C58.274 36.016 58.652 36.328 59.06 36.556C59.48 36.784 59.96 36.898 60.5 36.898C61.052 36.898 61.448 36.802 61.688 36.61C61.94 36.418 62.066 36.154 62.066 35.818C62.066 35.542 61.976 35.326 61.796 35.17C61.628 35.002 61.334 34.888 60.914 34.828L59.978 34.702C58.958 34.57 58.178 34.282 57.638 33.838C57.11 33.382 56.846 32.722 56.846 31.858C56.846 31.402 56.93 30.994 57.098 30.634C57.266 30.262 57.506 29.95 57.818 29.698C58.13 29.434 58.502 29.236 58.934 29.104C59.378 28.96 59.87 28.888 60.41 28.888C60.866 28.888 61.268 28.924 61.616 28.996C61.976 29.056 62.3 29.152 62.588 29.284C62.876 29.404 63.14 29.56 63.38 29.752C63.62 29.932 63.854 30.136 64.082 30.364L62.732 31.714C62.456 31.426 62.126 31.186 61.742 30.994C61.358 30.802 60.938 30.706 60.482 30.706C59.978 30.706 59.612 30.796 59.384 30.976C59.168 31.156 59.06 31.39 59.06 31.678C59.06 31.99 59.15 32.23 59.33 32.398C59.522 32.554 59.84 32.668 60.284 32.74L61.238 32.866C63.266 33.154 64.28 34.078 64.28 35.638C64.28 36.094 64.184 36.514 63.992 36.898C63.812 37.27 63.554 37.594 63.218 37.87C62.882 38.134 62.474 38.344 61.994 38.5C61.526 38.644 60.998 38.716 60.41 38.716ZM66.3144 38.5V29.104H68.6184V31.048H68.7084C68.7684 30.796 68.8584 30.556 68.9784 30.328C69.1104 30.088 69.2784 29.878 69.4824 29.698C69.6864 29.518 69.9264 29.374 70.2024 29.266C70.4904 29.158 70.8204 29.104 71.1924 29.104H71.6964V31.282H70.9764C70.1964 31.282 69.6084 31.396 69.2124 31.624C68.8164 31.852 68.6184 32.224 68.6184 32.74V38.5H66.3144ZM77.0009 38.716C76.3049 38.716 75.6869 38.602 75.1469 38.374C74.6069 38.146 74.1509 37.816 73.7789 37.384C73.4189 36.952 73.1429 36.436 72.9509 35.836C72.7589 35.224 72.6629 34.54 72.6629 33.784C72.6629 33.028 72.7589 32.35 72.9509 31.75C73.1429 31.15 73.4189 30.64 73.7789 30.22C74.1509 29.788 74.6069 29.458 75.1469 29.23C75.6869 29.002 76.3049 28.888 77.0009 28.888C77.9489 28.888 78.7289 29.098 79.3409 29.518C79.9649 29.938 80.4149 30.52 80.6909 31.264L78.8009 32.11C78.6929 31.714 78.4889 31.39 78.1889 31.138C77.9009 30.874 77.5049 30.742 77.0009 30.742C76.3529 30.742 75.8669 30.946 75.5429 31.354C75.2309 31.762 75.0749 32.296 75.0749 32.956V34.666C75.0749 35.326 75.2309 35.86 75.5429 36.268C75.8669 36.664 76.3529 36.862 77.0009 36.862C77.5529 36.862 77.9789 36.724 78.2789 36.448C78.5789 36.16 78.8129 35.806 78.9809 35.386L80.7449 36.232C80.4329 37.06 79.9589 37.684 79.3229 38.104C78.6869 38.512 77.9129 38.716 77.0009 38.716Z" fill="white" fill-opacity="0.96"/>
<path d="M32 50V61C32 63.7614 34.2386 66 37 66H48" stroke="#191315" stroke-width="2" stroke-linecap="round" stroke-linejoin="round"/>
<path d="M32 50V61C32 63.7614 34.2386 66 37 66H48" stroke="white" stroke-opacity="0.68" stroke-width="2" stroke-linecap="round" stroke-linejoin="round"/>
<path d="M32 50V66V86" stroke="#191315" stroke-width="2" stroke-linecap="round" stroke-linejoin="round"/>
<path d="M32 50V66V86" stroke="white" stroke-opacity="0.68" stroke-width="2" stroke-linecap="round" stroke-linejoin="round"/>
<path d="M78 73C78 73.5304 77.7893 74.0391 77.4142 74.4142C77.0391 74.7893 76.5304 75 76 75H60C59.4696 75 58.9609 74.7893 58.5858 74.4142C58.2107 74.0391 58 73.5304 58 73V59C58 58.4696 58.2107 57.9609 58.5858 57.5858C58.9609 57.2107 59.4696 57 60 57H65L67 60H76C76.5304 60 77.0391 60.2107 77.4142 60.5858C77.7893 60.9609 78 61.4696 78 62V73Z" fill="#CAA9FF" fill-opacity="0.8" stroke="white" stroke-opacity="0.96" stroke-width="2" stroke-linecap="round" stroke-linejoin="round"/>
<path d="M100.244 72.5C99.74 72.5 99.338 72.356 99.038 72.068C98.75 71.768 98.57 71.372 98.498 70.88H98.39C98.234 71.492 97.916 71.954 97.436 72.266C96.956 72.566 96.362 72.716 95.654 72.716C94.694 72.716 93.956 72.464 93.44 71.96C92.924 71.456 92.666 70.784 92.666 69.944C92.666 68.972 93.014 68.252 93.71 67.784C94.406 67.304 95.396 67.064 96.68 67.064H98.282V66.38C98.282 65.852 98.144 65.444 97.868 65.156C97.592 64.868 97.148 64.724 96.536 64.724C95.996 64.724 95.558 64.844 95.222 65.084C94.898 65.312 94.622 65.588 94.394 65.912L93.026 64.688C93.374 64.148 93.836 63.716 94.412 63.392C94.988 63.056 95.75 62.888 96.698 62.888C97.97 62.888 98.936 63.176 99.596 63.752C100.256 64.328 100.586 65.156 100.586 66.236V70.664H101.522V72.5H100.244ZM96.428 71.042C96.944 71.042 97.382 70.928 97.742 70.7C98.102 70.472 98.282 70.136 98.282 69.692V68.45H96.806C95.606 68.45 95.006 68.834 95.006 69.602V69.908C95.006 70.292 95.126 70.58 95.366 70.772C95.618 70.952 95.972 71.042 96.428 71.042ZM103.387 63.104H105.691V64.652H105.763C105.931 64.112 106.249 63.686 106.717 63.374C107.185 63.05 107.731 62.888 108.355 62.888C109.555 62.888 110.467 63.314 111.091 64.166C111.727 65.006 112.045 66.212 112.045 67.784C112.045 69.368 111.727 70.586 111.091 71.438C110.467 72.29 109.555 72.716 108.355 72.716C107.731 72.716 107.185 72.554 106.717 72.23C106.261 71.906 105.943 71.474 105.763 70.934H105.691V76.1H103.387V63.104ZM107.617 70.808C108.217 70.808 108.703 70.61 109.075 70.214C109.447 69.818 109.633 69.284 109.633 68.612V66.992C109.633 66.32 109.447 65.786 109.075 65.39C108.703 64.982 108.217 64.778 107.617 64.778C107.065 64.778 106.603 64.916 106.231 65.192C105.871 65.468 105.691 65.834 105.691 66.29V69.278C105.691 69.77 105.871 70.148 106.231 70.412C106.603 70.676 107.065 70.808 107.617 70.808ZM114.18 63.104H116.484V64.652H116.556C116.724 64.112 117.042 63.686 117.51 63.374C117.978 63.05 118.524 62.888 119.148 62.888C120.348 62.888 121.26 63.314 121.884 64.166C122.52 65.006 122.838 66.212 122.838 67.784C122.838 69.368 122.52 70.586 121.884 71.438C121.26 72.29 120.348 72.716 119.148 72.716C118.524 72.716 117.978 72.554 117.51 72.23C117.054 71.906 116.736 71.474 116.556 70.934H116.484V76.1H114.18V63.104ZM118.41 70.808C119.01 70.808 119.496 70.61 119.868 70.214C120.24 69.818 120.426 69.284 120.426 68.612V66.992C120.426 66.32 120.24 65.786 119.868 65.39C119.496 64.982 119.01 64.778 118.41 64.778C117.858 64.778 117.396 64.916 117.024 65.192C116.664 65.468 116.484 65.834 116.484 66.29V69.278C116.484 69.77 116.664 70.148 117.024 70.412C117.396 70.676 117.858 70.808 118.41 70.808Z" fill="white" fill-opacity="0.96"/>
<path d="M32 84V95C32 97.7614 34.2386 100 37 100H48" stroke="#191315" stroke-width="2" stroke-linecap="round" stroke-linejoin="round"/>
<path d="M32 84V95C32 97.7614 34.2386 100 37 100H48" stroke="white" stroke-opacity="0.4" stroke-width="2" stroke-linecap="round" stroke-linejoin="round"/>
<path d="M32 84V100V120" stroke="#191315" stroke-width="2" stroke-linecap="round" stroke-linejoin="round"/>
<path d="M32 84V100V120" stroke="white" stroke-opacity="0.68" stroke-width="2" stroke-linecap="round" stroke-linejoin="round"/>
<path d="M78 107C78 107.53 77.7893 108.039 77.4142 108.414C77.0391 108.789 76.5304 109 76 109H60C59.4696 109 58.9609 108.789 58.5858 108.414C58.2107 108.039 58 107.53 58 107V93C58 92.4696 58.2107 91.9609 58.5858 91.5858C58.9609 91.2107 59.4696 91 60 91H65L67 94H76C76.5304 94 77.0391 94.2107 77.4142 94.5858C77.7893 94.9609 78 95.4696 78 96V107Z" fill="#4FB2FF" fill-opacity="0.4"/>
<path d="M78 107C78 107.53 77.7893 108.039 77.4142 108.414C77.0391 108.789 76.5304 109 76 109H60C59.4696 109 58.9609 108.789 58.5858 108.414C58.2107 108.039 58 107.53 58 107V93C58 92.4696 58.2107 91.9609 58.5858 91.5858C58.9609 91.2107 59.4696 91 60 91H65L67 94H76C76.5304 94 77.0391 94.2107 77.4142 94.5858C77.7893 94.9609 78 95.4696 78 96V107Z" stroke="#191315" stroke-width="2" stroke-linecap="round" stroke-linejoin="round"/>
<path d="M78 107C78 107.53 77.7893 108.039 77.4142 108.414C77.0391 108.789 76.5304 109 76 109H60C59.4696 109 58.9609 108.789 58.5858 108.414C58.2107 108.039 58 107.53 58 107V93C58 92.4696 58.2107 91.9609 58.5858 91.5858C58.9609 91.2107 59.4696 91 60 91H65L67 94H76C76.5304 94 77.0391 94.2107 77.4142 94.5858C77.7893 94.9609 78 95.4696 78 96V107Z" stroke="white" stroke-opacity="0.4" stroke-width="2" stroke-linecap="round" stroke-linejoin="round"/>
<path d="M93.332 97.104H95.636V98.652H95.708C95.876 98.112 96.194 97.686 96.662 97.374C97.13 97.05 97.676 96.888 98.3 96.888C99.5 96.888 100.412 97.314 101.036 98.166C101.672 99.006 101.99 100.212 101.99 101.784C101.99 103.368 101.672 104.586 101.036 105.438C100.412 106.29 99.5 106.716 98.3 106.716C97.676 106.716 97.13 106.554 96.662 106.23C96.206 105.906 95.888 105.474 95.708 104.934H95.636V110.1H93.332V97.104ZM97.562 104.808C98.162 104.808 98.648 104.61 99.02 104.214C99.392 103.818 99.578 103.284 99.578 102.612V100.992C99.578 100.32 99.392 99.786 99.02 99.39C98.648 98.982 98.162 98.778 97.562 98.778C97.01 98.778 96.548 98.916 96.176 99.192C95.816 99.468 95.636 99.834 95.636 100.29V103.278C95.636 103.77 95.816 104.148 96.176 104.412C96.548 104.676 97.01 104.808 97.562 104.808ZM104.125 106.5V97.104H106.429V99.048H106.519C106.579 98.796 106.669 98.556 106.789 98.328C106.921 98.088 107.089 97.878 107.293 97.698C107.497 97.518 107.737 97.374 108.013 97.266C108.301 97.158 108.631 97.104 109.003 97.104H109.507V99.282H108.787C108.007 99.282 107.419 99.396 107.023 99.624C106.627 99.852 106.429 100.224 106.429 100.74V106.5H104.125ZM114.829 106.716C114.157 106.716 113.551 106.602 113.011 106.374C112.483 106.146 112.027 105.816 111.643 105.384C111.271 104.952 110.983 104.436 110.779 103.836C110.575 103.224 110.473 102.54 110.473 101.784C110.473 101.028 110.575 100.35 110.779 99.75C110.983 99.15 111.271 98.64 111.643 98.22C112.027 97.788 112.483 97.458 113.011 97.23C113.551 97.002 114.157 96.888 114.829 96.888C115.501 96.888 116.107 97.002 116.647 97.23C117.187 97.458 117.643 97.788 118.015 98.22C118.399 98.64 118.693 99.15 118.897 99.75C119.101 100.35 119.203 101.028 119.203 101.784C119.203 102.54 119.101 103.224 118.897 103.836C118.693 104.436 118.399 104.952 118.015 105.384C117.643 105.816 117.187 106.146 116.647 106.374C116.107 106.602 115.501 106.716 114.829 106.716ZM114.829 104.862C115.441 104.862 115.921 104.676 116.269 104.304C116.617 103.932 116.791 103.386 116.791 102.666V100.92C116.791 100.212 116.617 99.672 116.269 99.3C115.921 98.928 115.441 98.742 114.829 98.742C114.229 98.742 113.755 98.928 113.407 99.3C113.059 99.672 112.885 100.212 112.885 100.92V102.666C112.885 103.386 113.059 103.932 113.407 104.304C113.755 104.676 114.229 104.862 114.829 104.862ZM124.954 106.716C124.258 106.716 123.64 106.602 123.1 106.374C122.56 106.146 122.104 105.816 121.732 105.384C121.372 104.952 121.096 104.436 120.904 103.836C120.712 103.224 120.616 102.54 120.616 101.784C120.616 101.028 120.712 100.35 120.904 99.75C121.096 99.15 121.372 98.64 121.732 98.22C122.104 97.788 122.56 97.458 123.1 97.23C123.64 97.002 124.258 96.888 124.954 96.888C125.902 96.888 126.682 97.098 127.294 97.518C127.918 97.938 128.368 98.52 128.644 99.264L126.754 100.11C126.646 99.714 126.442 99.39 126.142 99.138C125.854 98.874 125.458 98.742 124.954 98.742C124.306 98.742 123.82 98.946 123.496 99.354C123.184 99.762 123.028 100.296 123.028 100.956V102.666C123.028 103.326 123.184 103.86 123.496 104.268C123.82 104.664 124.306 104.862 124.954 104.862C125.506 104.862 125.932 104.724 126.232 104.448C126.532 104.16 126.766 103.806 126.934 103.386L128.698 104.232C128.386 105.06 127.912 105.684 127.276 106.104C126.64 106.512 125.866 106.716 124.954 106.716ZM134.185 106.716C133.489 106.716 132.865 106.602 132.313 106.374C131.773 106.134 131.311 105.804 130.927 105.384C130.555 104.952 130.267 104.436 130.063 103.836C129.859 103.224 129.757 102.54 129.757 101.784C129.757 101.04 129.853 100.368 130.045 99.768C130.249 99.168 130.537 98.658 130.909 98.238C131.281 97.806 131.737 97.476 132.277 97.248C132.817 97.008 133.429 96.888 134.113 96.888C134.845 96.888 135.481 97.014 136.021 97.266C136.561 97.518 137.005 97.86 137.353 98.292C137.701 98.724 137.959 99.228 138.127 99.804C138.307 100.368 138.397 100.974 138.397 101.622V102.378H132.151V102.612C132.151 103.296 132.343 103.848 132.727 104.268C133.111 104.676 133.681 104.88 134.437 104.88C135.013 104.88 135.481 104.76 135.841 104.52C136.213 104.28 136.543 103.974 136.831 103.602L138.073 104.988C137.689 105.528 137.161 105.954 136.489 106.266C135.829 106.566 135.061 106.716 134.185 106.716ZM134.149 98.616C133.537 98.616 133.051 98.82 132.691 99.228C132.331 99.636 132.151 100.164 132.151 100.812V100.956H136.003V100.794C136.003 100.146 135.841 99.624 135.517 99.228C135.205 98.82 134.749 98.616 134.149 98.616ZM143.502 106.716C142.602 106.716 141.846 106.566 141.234 106.266C140.622 105.954 140.082 105.528 139.614 104.988L141.018 103.62C141.366 104.016 141.744 104.328 142.152 104.556C142.572 104.784 143.052 104.898 143.592 104.898C144.144 104.898 144.54 104.802 144.78 104.61C145.032 104.418 145.158 104.154 145.158 103.818C145.158 103.542 145.068 103.326 144.888 103.17C144.72 103.002 144.426 102.888 144.006 102.828L143.07 102.702C142.05 102.57 141.27 102.282 140.73 101.838C140.202 101.382 139.938 100.722 139.938 99.858C139.938 99.402 140.022 98.994 140.19 98.634C140.358 98.262 140.598 97.95 140.91 97.698C141.222 97.434 141.594 97.236 142.026 97.104C142.47 96.96 142.962 96.888 143.502 96.888C143.958 96.888 144.36 96.924 144.708 96.996C145.068 97.056 145.392 97.152 145.68 97.284C145.968 97.404 146.232 97.56 146.472 97.752C146.712 97.932 146.946 98.136 147.174 98.364L145.824 99.714C145.548 99.426 145.218 99.186 144.834 98.994C144.45 98.802 144.03 98.706 143.574 98.706C143.07 98.706 142.704 98.796 142.476 98.976C142.26 99.156 142.152 99.39 142.152 99.678C142.152 99.99 142.242 100.23 142.422 100.398C142.614 100.554 142.932 100.668 143.376 100.74L144.33 100.866C146.358 101.154 147.372 102.078 147.372 103.638C147.372 104.094 147.276 104.514 147.084 104.898C146.904 105.27 146.646 105.594 146.31 105.87C145.974 106.134 145.566 106.344 145.086 106.5C144.618 106.644 144.09 106.716 143.502 106.716ZM152.361 106.716C151.461 106.716 150.705 106.566 150.093 106.266C149.481 105.954 148.941 105.528 148.473 104.988L149.877 103.62C150.225 104.016 150.603 104.328 151.011 104.556C151.431 104.784 151.911 104.898 152.451 104.898C153.003 104.898 153.399 104.802 153.639 104.61C153.891 104.418 154.017 104.154 154.017 103.818C154.017 103.542 153.927 103.326 153.747 103.17C153.579 103.002 153.285 102.888 152.865 102.828L151.929 102.702C150.909 102.57 150.129 102.282 149.589 101.838C149.061 101.382 148.797 100.722 148.797 99.858C148.797 99.402 148.881 98.994 149.049 98.634C149.217 98.262 149.457 97.95 149.769 97.698C150.081 97.434 150.453 97.236 150.885 97.104C151.329 96.96 151.821 96.888 152.361 96.888C152.817 96.888 153.219 96.924 153.567 96.996C153.927 97.056 154.251 97.152 154.539 97.284C154.827 97.404 155.091 97.56 155.331 97.752C155.571 97.932 155.805 98.136 156.033 98.364L154.683 99.714C154.407 99.426 154.077 99.186 153.693 98.994C153.309 98.802 152.889 98.706 152.433 98.706C151.929 98.706 151.563 98.796 151.335 98.976C151.119 99.156 151.011 99.39 151.011 99.678C151.011 99.99 151.101 100.23 151.281 100.398C151.473 100.554 151.791 100.668 152.235 100.74L153.189 100.866C155.217 101.154 156.231 102.078 156.231 103.638C156.231 104.094 156.135 104.514 155.943 104.898C155.763 105.27 155.505 105.594 155.169 105.87C154.833 106.134 154.425 106.344 153.945 106.5C153.477 106.644 152.949 106.716 152.361 106.716ZM162.064 106.716C161.368 106.716 160.744 106.602 160.192 106.374C159.652 106.134 159.19 105.804 158.806 105.384C158.434 104.952 158.146 104.436 157.942 103.836C157.738 103.224 157.636 102.54 157.636 101.784C157.636 101.04 157.732 100.368 157.924 99.768C158.128 99.168 158.416 98.658 158.788 98.238C159.16 97.806 159.616 97.476 160.156 97.248C160.696 97.008 161.308 96.888 161.992 96.888C162.724 96.888 163.36 97.014 163.9 97.266C164.44 97.518 164.884 97.86 165.232 98.292C165.58 98.724 165.838 99.228 166.006 99.804C166.186 100.368 166.276 100.974 166.276 101.622V102.378H160.03V102.612C160.03 103.296 160.222 103.848 160.606 104.268C160.99 104.676 161.56 104.88 162.316 104.88C162.892 104.88 163.36 104.76 163.72 104.52C164.092 104.28 164.422 103.974 164.71 103.602L165.952 104.988C165.568 105.528 165.04 105.954 164.368 106.266C163.708 106.566 162.94 106.716 162.064 106.716ZM162.028 98.616C161.416 98.616 160.93 98.82 160.57 99.228C160.21 99.636 160.03 100.164 160.03 100.812V100.956H163.882V100.794C163.882 100.146 163.72 99.624 163.396 99.228C163.084 98.82 162.628 98.616 162.028 98.616ZM171.381 106.716C170.481 106.716 169.725 106.566 169.113 106.266C168.501 105.954 167.961 105.528 167.493 104.988L168.897 103.62C169.245 104.016 169.623 104.328 170.031 104.556C170.451 104.784 170.931 104.898 171.471 104.898C172.023 104.898 172.419 104.802 172.659 104.61C172.911 104.418 173.037 104.154 173.037 103.818C173.037 103.542 172.947 103.326 172.767 103.17C172.599 103.002 172.305 102.888 171.885 102.828L170.949 102.702C169.929 102.57 169.149 102.282 168.609 101.838C168.081 101.382 167.817 100.722 167.817 99.858C167.817 99.402 167.901 98.994 168.069 98.634C168.237 98.262 168.477 97.95 168.789 97.698C169.101 97.434 169.473 97.236 169.905 97.104C170.349 96.96 170.841 96.888 171.381 96.888C171.837 96.888 172.239 96.924 172.587 96.996C172.947 97.056 173.271 97.152 173.559 97.284C173.847 97.404 174.111 97.56 174.351 97.752C174.591 97.932 174.825 98.136 175.053 98.364L173.703 99.714C173.427 99.426 173.097 99.186 172.713 98.994C172.329 98.802 171.909 98.706 171.453 98.706C170.949 98.706 170.583 98.796 170.355 98.976C170.139 99.156 170.031 99.39 170.031 99.678C170.031 99.99 170.121 100.23 170.301 100.398C170.493 100.554 170.811 100.668 171.255 100.74L172.209 100.866C174.237 101.154 175.251 102.078 175.251 103.638C175.251 104.094 175.155 104.514 174.963 104.898C174.783 105.27 174.525 105.594 174.189 105.87C173.853 106.134 173.445 106.344 172.965 106.5C172.497 106.644 171.969 106.716 171.381 106.716Z" fill="white" fill-opacity="0.4"/>
<path d="M32 118V129C32 131.761 34.2386 134 37 134H48" stroke="#191315" stroke-width="2" stroke-linecap="round" stroke-linejoin="round"/>
<path d="M32 118V129C32 131.761 34.2386 134 37 134H48" stroke="white" stroke-opacity="0.68" stroke-width="2" stroke-linecap="round" stroke-linejoin="round"/>
<path d="M32 118V134V154" stroke="#191315" stroke-width="2" stroke-linecap="round" stroke-linejoin="round"/>
<path d="M32 118V134V154" stroke="white" stroke-opacity="0.68" stroke-width="2" stroke-linecap="round" stroke-linejoin="round"/>
<path d="M78 141C78 141.53 77.7893 142.039 77.4142 142.414C77.0391 142.789 76.5304 143 76 143H60C59.4696 143 58.9609 142.789 58.5858 142.414C58.2107 142.039 58 141.53 58 141V127C58 126.47 58.2107 125.961 58.5858 125.586C58.9609 125.211 59.4696 125 60 125H65L67 128H76C76.5304 128 77.0391 128.211 77.4142 128.586C77.7893 128.961 78 129.47 78 130V141Z" fill="#68F1FF" fill-opacity="0.8" stroke="white" stroke-opacity="0.96" stroke-width="2" stroke-linecap="round" stroke-linejoin="round"/>
<path d="M93.332 131.104H95.636V132.652H95.708C95.876 132.112 96.194 131.686 96.662 131.374C97.13 131.05 97.676 130.888 98.3 130.888C99.5 130.888 100.412 131.314 101.036 132.166C101.672 133.006 101.99 134.212 101.99 135.784C101.99 137.368 101.672 138.586 101.036 139.438C100.412 140.29 99.5 140.716 98.3 140.716C97.676 140.716 97.13 140.554 96.662 140.23C96.206 139.906 95.888 139.474 95.708 138.934H95.636V144.1H93.332V131.104ZM97.562 138.808C98.162 138.808 98.648 138.61 99.02 138.214C99.392 137.818 99.578 137.284 99.578 136.612V134.992C99.578 134.32 99.392 133.786 99.02 133.39C98.648 132.982 98.162 132.778 97.562 132.778C97.01 132.778 96.548 132.916 96.176 133.192C95.816 133.468 95.636 133.834 95.636 134.29V137.278C95.636 137.77 95.816 138.148 96.176 138.412C96.548 138.676 97.01 138.808 97.562 138.808ZM111.037 140.5C110.533 140.5 110.131 140.356 109.831 140.068C109.543 139.768 109.363 139.372 109.291 138.88H109.183C109.027 139.492 108.709 139.954 108.229 140.266C107.749 140.566 107.155 140.716 106.447 140.716C105.487 140.716 104.749 140.464 104.233 139.96C103.717 139.456 103.459 138.784 103.459 137.944C103.459 136.972 103.807 136.252 104.503 135.784C105.199 135.304 106.189 135.064 107.473 135.064H109.075V134.38C109.075 133.852 108.937 133.444 108.661 133.156C108.385 132.868 107.941 132.724 107.329 132.724C106.789 132.724 106.351 132.844 106.015 133.084C105.691 133.312 105.415 133.588 105.187 133.912L103.819 132.688C104.167 132.148 104.629 131.716 105.205 131.392C105.781 131.056 106.543 130.888 107.491 130.888C108.763 130.888 109.729 131.176 110.389 131.752C111.049 132.328 111.379 133.156 111.379 134.236V138.664H112.315V140.5H111.037ZM107.221 139.042C107.737 139.042 108.175 138.928 108.535 138.7C108.895 138.472 109.075 138.136 109.075 137.692V136.45H107.599C106.399 136.45 105.799 136.834 105.799 137.602V137.908C105.799 138.292 105.919 138.58 106.159 138.772C106.411 138.952 106.765 139.042 107.221 139.042ZM122.658 141.292C122.658 141.784 122.568 142.216 122.388 142.588C122.22 142.972 121.938 143.29 121.542 143.542C121.146 143.794 120.636 143.986 120.012 144.118C119.388 144.25 118.626 144.316 117.726 144.316C116.934 144.316 116.262 144.262 115.71 144.154C115.158 144.058 114.702 143.914 114.342 143.722C113.994 143.542 113.742 143.314 113.586 143.038C113.43 142.762 113.352 142.45 113.352 142.102C113.352 141.574 113.496 141.16 113.784 140.86C114.084 140.572 114.498 140.386 115.026 140.302V140.104C114.642 140.008 114.342 139.822 114.126 139.546C113.922 139.258 113.82 138.922 113.82 138.538C113.82 138.298 113.868 138.088 113.964 137.908C114.06 137.716 114.186 137.554 114.342 137.422C114.51 137.29 114.696 137.182 114.9 137.098C115.104 137.002 115.32 136.93 115.548 136.882V136.81C114.972 136.546 114.54 136.18 114.252 135.712C113.976 135.244 113.838 134.698 113.838 134.074C113.838 133.114 114.168 132.346 114.828 131.77C115.488 131.182 116.454 130.888 117.726 130.888C118.014 130.888 118.296 130.906 118.572 130.942C118.86 130.978 119.124 131.038 119.364 131.122V130.816C119.364 129.904 119.808 129.448 120.696 129.448H122.154V131.212H120.156V131.464C120.648 131.74 121.014 132.1 121.254 132.544C121.494 132.988 121.614 133.498 121.614 134.074C121.614 135.022 121.284 135.784 120.624 136.36C119.976 136.936 119.01 137.224 117.726 137.224C117.174 137.224 116.694 137.17 116.286 137.062C116.106 137.146 115.95 137.26 115.818 137.404C115.686 137.536 115.62 137.704 115.62 137.908C115.62 138.376 116.028 138.61 116.844 138.61H119.364C120.516 138.61 121.35 138.85 121.866 139.33C122.394 139.798 122.658 140.452 122.658 141.292ZM120.498 141.562C120.498 141.262 120.378 141.028 120.138 140.86C119.898 140.692 119.484 140.608 118.896 140.608H115.692C115.368 140.848 115.206 141.172 115.206 141.58C115.206 141.94 115.356 142.222 115.656 142.426C115.956 142.63 116.466 142.732 117.186 142.732H118.338C119.094 142.732 119.64 142.636 119.976 142.444C120.324 142.252 120.498 141.958 120.498 141.562ZM117.726 135.658C118.854 135.658 119.418 135.178 119.418 134.218V133.912C119.418 132.952 118.854 132.472 117.726 132.472C116.598 132.472 116.034 132.952 116.034 133.912V134.218C116.034 135.178 116.598 135.658 117.726 135.658ZM127.681 140.716C126.985 140.716 126.361 140.602 125.809 140.374C125.269 140.134 124.807 139.804 124.423 139.384C124.051 138.952 123.763 138.436 123.559 137.836C123.355 137.224 123.253 136.54 123.253 135.784C123.253 135.04 123.349 134.368 123.541 133.768C123.745 133.168 124.033 132.658 124.405 132.238C124.777 131.806 125.233 131.476 125.773 131.248C126.313 131.008 126.925 130.888 127.609 130.888C128.341 130.888 128.977 131.014 129.517 131.266C130.057 131.518 130.501 131.86 130.849 132.292C131.197 132.724 131.455 133.228 131.623 133.804C131.803 134.368 131.893 134.974 131.893 135.622V136.378H125.647V136.612C125.647 137.296 125.839 137.848 126.223 138.268C126.607 138.676 127.177 138.88 127.933 138.88C128.509 138.88 128.977 138.76 129.337 138.52C129.709 138.28 130.039 137.974 130.327 137.602L131.569 138.988C131.185 139.528 130.657 139.954 129.985 140.266C129.325 140.566 128.557 140.716 127.681 140.716ZM127.645 132.616C127.033 132.616 126.547 132.82 126.187 133.228C125.827 133.636 125.647 134.164 125.647 134.812V134.956H129.499V134.794C129.499 134.146 129.337 133.624 129.013 133.228C128.701 132.82 128.245 132.616 127.645 132.616ZM136.998 140.716C136.098 140.716 135.342 140.566 134.73 140.266C134.118 139.954 133.578 139.528 133.11 138.988L134.514 137.62C134.862 138.016 135.24 138.328 135.648 138.556C136.068 138.784 136.548 138.898 137.088 138.898C137.64 138.898 138.036 138.802 138.276 138.61C138.528 138.418 138.654 138.154 138.654 137.818C138.654 137.542 138.564 137.326 138.384 137.17C138.216 137.002 137.922 136.888 137.502 136.828L136.566 136.702C135.546 136.57 134.766 136.282 134.226 135.838C133.698 135.382 133.434 134.722 133.434 133.858C133.434 133.402 133.518 132.994 133.686 132.634C133.854 132.262 134.094 131.95 134.406 131.698C134.718 131.434 135.09 131.236 135.522 131.104C135.966 130.96 136.458 130.888 136.998 130.888C137.454 130.888 137.856 130.924 138.204 130.996C138.564 131.056 138.888 131.152 139.176 131.284C139.464 131.404 139.728 131.56 139.968 131.752C140.208 131.932 140.442 132.136 140.67 132.364L139.32 133.714C139.044 133.426 138.714 133.186 138.33 132.994C137.946 132.802 137.526 132.706 137.07 132.706C136.566 132.706 136.2 132.796 135.972 132.976C135.756 133.156 135.648 133.39 135.648 133.678C135.648 133.99 135.738 134.23 135.918 134.398C136.11 134.554 136.428 134.668 136.872 134.74L137.826 134.866C139.854 135.154 140.868 136.078 140.868 137.638C140.868 138.094 140.772 138.514 140.58 138.898C140.4 139.27 140.142 139.594 139.806 139.87C139.47 140.134 139.062 140.344 138.582 140.5C138.114 140.644 137.586 140.716 136.998 140.716Z" fill="white" fill-opacity="0.96"/>
<path d="M32 152V163C32 165.761 34.2386 168 37 168H48" stroke="#191315" stroke-width="2" stroke-linecap="round" stroke-linejoin="round"/>
<path d="M32 152V163C32 165.761 34.2386 168 37 168H48" stroke="white" stroke-opacity="0.68" stroke-width="2" stroke-linecap="round" stroke-linejoin="round"/>
<path d="M32 152V168V188" stroke="#191315" stroke-width="2" stroke-linecap="round" stroke-linejoin="round"/>
<path d="M32 152V168V188" stroke="white" stroke-opacity="0.68" stroke-width="2" stroke-linecap="round" stroke-linejoin="round"/>
<path d="M78 175C78 175.53 77.7893 176.039 77.4142 176.414C77.0391 176.789 76.5304 177 76 177H60C59.4696 177 58.9609 176.789 58.5858 176.414C58.2107 176.039 58 175.53 58 175V161C58 160.47 58.2107 159.961 58.5858 159.586C58.9609 159.211 59.4696 159 60 159H65L67 162H76C76.5304 162 77.0391 162.211 77.4142 162.586C77.7893 162.961 78 163.47 78 164V175Z" fill="#60FB7C" fill-opacity="0.8" stroke="white" stroke-opacity="0.96" stroke-width="2" stroke-linecap="round" stroke-linejoin="round"/>
<path d="M92.414 165.104H94.628L95.582 168.974L96.32 172.196H96.392L97.256 168.974L98.354 165.104H100.442L101.576 168.974L102.458 172.196H102.53L103.268 168.974L104.204 165.104H106.346L103.772 174.5H101.288L100.082 170.36L99.38 167.804H99.326L98.642 170.36L97.454 174.5H95.006L92.414 165.104ZM109.232 163.736C108.752 163.736 108.404 163.628 108.188 163.412C107.984 163.196 107.882 162.92 107.882 162.584V162.224C107.882 161.888 107.984 161.612 108.188 161.396C108.404 161.18 108.752 161.072 109.232 161.072C109.7 161.072 110.042 161.18 110.258 161.396C110.474 161.612 110.582 161.888 110.582 162.224V162.584C110.582 162.92 110.474 163.196 110.258 163.412C110.042 163.628 109.7 163.736 109.232 163.736ZM108.08 165.104H110.384V174.5H108.08V165.104ZM118.887 172.934H118.797C118.629 173.474 118.311 173.906 117.843 174.23C117.375 174.554 116.829 174.716 116.205 174.716C115.017 174.716 114.105 174.29 113.469 173.438C112.845 172.586 112.533 171.368 112.533 169.784C112.533 168.212 112.845 167.006 113.469 166.166C114.105 165.314 115.017 164.888 116.205 164.888C116.829 164.888 117.375 165.05 117.843 165.374C118.311 165.686 118.629 166.112 118.797 166.652H118.887V161.18H121.191V174.5H118.887V172.934ZM116.943 172.808C117.495 172.808 117.957 172.676 118.329 172.412C118.701 172.148 118.887 171.77 118.887 171.278V168.29C118.887 167.834 118.701 167.468 118.329 167.192C117.957 166.916 117.495 166.778 116.943 166.778C116.343 166.778 115.857 166.982 115.485 167.39C115.125 167.786 114.945 168.32 114.945 168.992V170.612C114.945 171.284 115.125 171.818 115.485 172.214C115.857 172.61 116.343 172.808 116.943 172.808ZM132.326 175.292C132.326 175.784 132.236 176.216 132.056 176.588C131.888 176.972 131.606 177.29 131.21 177.542C130.814 177.794 130.304 177.986 129.68 178.118C129.056 178.25 128.294 178.316 127.394 178.316C126.602 178.316 125.93 178.262 125.378 178.154C124.826 178.058 124.37 177.914 124.01 177.722C123.662 177.542 123.41 177.314 123.254 177.038C123.098 176.762 123.02 176.45 123.02 176.102C123.02 175.574 123.164 175.16 123.452 174.86C123.752 174.572 124.166 174.386 124.694 174.302V174.104C124.31 174.008 124.01 173.822 123.794 173.546C123.59 173.258 123.488 172.922 123.488 172.538C123.488 172.298 123.536 172.088 123.632 171.908C123.728 171.716 123.854 171.554 124.01 171.422C124.178 171.29 124.364 171.182 124.568 171.098C124.772 171.002 124.988 170.93 125.216 170.882V170.81C124.64 170.546 124.208 170.18 123.92 169.712C123.644 169.244 123.506 168.698 123.506 168.074C123.506 167.114 123.836 166.346 124.496 165.77C125.156 165.182 126.122 164.888 127.394 164.888C127.682 164.888 127.964 164.906 128.24 164.942C128.528 164.978 128.792 165.038 129.032 165.122V164.816C129.032 163.904 129.476 163.448 130.364 163.448H131.822V165.212H129.824V165.464C130.316 165.74 130.682 166.1 130.922 166.544C131.162 166.988 131.282 167.498 131.282 168.074C131.282 169.022 130.952 169.784 130.292 170.36C129.644 170.936 128.678 171.224 127.394 171.224C126.842 171.224 126.362 171.17 125.954 171.062C125.774 171.146 125.618 171.26 125.486 171.404C125.354 171.536 125.288 171.704 125.288 171.908C125.288 172.376 125.696 172.61 126.512 172.61H129.032C130.184 172.61 131.018 172.85 131.534 173.33C132.062 173.798 132.326 174.452 132.326 175.292ZM130.166 175.562C130.166 175.262 130.046 175.028 129.806 174.86C129.566 174.692 129.152 174.608 128.564 174.608H125.36C125.036 174.848 124.874 175.172 124.874 175.58C124.874 175.94 125.024 176.222 125.324 176.426C125.624 176.63 126.134 176.732 126.854 176.732H128.006C128.762 176.732 129.308 176.636 129.644 176.444C129.992 176.252 130.166 175.958 130.166 175.562ZM127.394 169.658C128.522 169.658 129.086 169.178 129.086 168.218V167.912C129.086 166.952 128.522 166.472 127.394 166.472C126.266 166.472 125.702 166.952 125.702 167.912V168.218C125.702 169.178 126.266 169.658 127.394 169.658ZM137.349 174.716C136.653 174.716 136.029 174.602 135.477 174.374C134.937 174.134 134.475 173.804 134.091 173.384C133.719 172.952 133.431 172.436 133.227 171.836C133.023 171.224 132.921 170.54 132.921 169.784C132.921 169.04 133.017 168.368 133.209 167.768C133.413 167.168 133.701 166.658 134.073 166.238C134.445 165.806 134.901 165.476 135.441 165.248C135.981 165.008 136.593 164.888 137.277 164.888C138.009 164.888 138.645 165.014 139.185 165.266C139.725 165.518 140.169 165.86 140.517 166.292C140.865 166.724 141.123 167.228 141.291 167.804C141.471 168.368 141.561 168.974 141.561 169.622V170.378H135.315V170.612C135.315 171.296 135.507 171.848 135.891 172.268C136.275 172.676 136.845 172.88 137.601 172.88C138.177 172.88 138.645 172.76 139.005 172.52C139.377 172.28 139.707 171.974 139.995 171.602L141.237 172.988C140.853 173.528 140.325 173.954 139.653 174.266C138.993 174.566 138.225 174.716 137.349 174.716ZM137.313 166.616C136.701 166.616 136.215 166.82 135.855 167.228C135.495 167.636 135.315 168.164 135.315 168.812V168.956H139.167V168.794C139.167 168.146 139.005 167.624 138.681 167.228C138.369 166.82 137.913 166.616 137.313 166.616ZM146.522 174.5C145.73 174.5 145.124 174.296 144.704 173.888C144.296 173.468 144.092 172.874 144.092 172.106V166.94H142.706V165.104H143.426C143.774 165.104 144.008 165.026 144.128 164.87C144.26 164.702 144.326 164.456 144.326 164.132V162.53H146.396V165.104H148.322V166.94H146.396V172.664H148.178V174.5H146.522ZM153.398 174.716C152.498 174.716 151.742 174.566 151.13 174.266C150.518 173.954 149.978 173.528 149.51 172.988L150.914 171.62C151.262 172.016 151.64 172.328 152.048 172.556C152.468 172.784 152.948 172.898 153.488 172.898C154.04 172.898 154.436 172.802 154.676 172.61C154.928 172.418 155.054 172.154 155.054 171.818C155.054 171.542 154.964 171.326 154.784 171.17C154.616 171.002 154.322 170.888 153.902 170.828L152.966 170.702C151.946 170.57 151.166 170.282 150.626 169.838C150.098 169.382 149.834 168.722 149.834 167.858C149.834 167.402 149.918 166.994 150.086 166.634C150.254 166.262 150.494 165.95 150.806 165.698C151.118 165.434 151.49 165.236 151.922 165.104C152.366 164.96 152.858 164.888 153.398 164.888C153.854 164.888 154.256 164.924 154.604 164.996C154.964 165.056 155.288 165.152 155.576 165.284C155.864 165.404 156.128 165.56 156.368 165.752C156.608 165.932 156.842 166.136 157.07 166.364L155.72 167.714C155.444 167.426 155.114 167.186 154.73 166.994C154.346 166.802 153.926 166.706 153.47 166.706C152.966 166.706 152.6 166.796 152.372 166.976C152.156 167.156 152.048 167.39 152.048 167.678C152.048 167.99 152.138 168.23 152.318 168.398C152.51 168.554 152.828 168.668 153.272 168.74L154.226 168.866C156.254 169.154 157.268 170.078 157.268 171.638C157.268 172.094 157.172 172.514 156.98 172.898C156.8 173.27 156.542 173.594 156.206 173.87C155.87 174.134 155.462 174.344 154.982 174.5C154.514 174.644 153.986 174.716 153.398 174.716Z" fill="white" fill-opacity="0.96"/>
<path d="M32 186V197C32 199.761 34.2386 202 37 202H48" stroke="#191315" stroke-width="2" stroke-linecap="round" stroke-linejoin="round"/>
<path d="M32 186V197C32 199.761 34.2386 202 37 202H48" stroke="white" stroke-opacity="0.68" stroke-width="2" stroke-linecap="round" stroke-linejoin="round"/>
<path d="M32 186V202V222" stroke="#191315" stroke-width="2" stroke-linecap="round" stroke-linejoin="round"/>
<path d="M32 186V202V222" stroke="white" stroke-opacity="0.68" stroke-width="2" stroke-linecap="round" stroke-linejoin="round"/>
<path d="M78 209C78 209.53 77.7893 210.039 77.4142 210.414C77.0391 210.789 76.5304 211 76 211H60C59.4696 211 58.9609 210.789 58.5858 210.414C58.2107 210.039 58 209.53 58 209V195C58 194.47 58.2107 193.961 58.5858 193.586C58.9609 193.211 59.4696 193 60 193H65L67 196H76C76.5304 196 77.0391 196.211 77.4142 196.586C77.7893 196.961 78 197.47 78 198V209Z" fill="#FAE244" fill-opacity="0.8" stroke="white" stroke-opacity="0.96" stroke-width="2" stroke-linecap="round" stroke-linejoin="round"/>
<path d="M93.8 200.922H92.414V199.104H93.8V197.754C93.8 196.926 94.016 196.29 94.448 195.846C94.892 195.402 95.54 195.18 96.392 195.18H98.03V197.016H96.104V199.104H98.03V200.922H96.104V208.5H93.8V200.922ZM103.353 208.716C102.657 208.716 102.033 208.602 101.481 208.374C100.941 208.134 100.479 207.804 100.095 207.384C99.7227 206.952 99.4347 206.436 99.2307 205.836C99.0267 205.224 98.9247 204.54 98.9247 203.784C98.9247 203.04 99.0207 202.368 99.2127 201.768C99.4167 201.168 99.7047 200.658 100.077 200.238C100.449 199.806 100.905 199.476 101.445 199.248C101.985 199.008 102.597 198.888 103.281 198.888C104.013 198.888 104.649 199.014 105.189 199.266C105.729 199.518 106.173 199.86 106.521 200.292C106.869 200.724 107.127 201.228 107.295 201.804C107.475 202.368 107.565 202.974 107.565 203.622V204.378H101.319V204.612C101.319 205.296 101.511 205.848 101.895 206.268C102.279 206.676 102.849 206.88 103.605 206.88C104.181 206.88 104.649 206.76 105.009 206.52C105.381 206.28 105.711 205.974 105.999 205.602L107.241 206.988C106.857 207.528 106.329 207.954 105.657 208.266C104.997 208.566 104.229 208.716 103.353 208.716ZM103.317 200.616C102.705 200.616 102.219 200.82 101.859 201.228C101.499 201.636 101.319 202.164 101.319 202.812V202.956H105.171V202.794C105.171 202.146 105.009 201.624 104.685 201.228C104.373 200.82 103.917 200.616 103.317 200.616ZM116.504 208.5C116 208.5 115.598 208.356 115.298 208.068C115.01 207.768 114.83 207.372 114.758 206.88H114.65C114.494 207.492 114.176 207.954 113.696 208.266C113.216 208.566 112.622 208.716 111.914 208.716C110.954 208.716 110.216 208.464 109.7 207.96C109.184 207.456 108.926 206.784 108.926 205.944C108.926 204.972 109.274 204.252 109.97 203.784C110.666 203.304 111.656 203.064 112.94 203.064H114.542V202.38C114.542 201.852 114.404 201.444 114.128 201.156C113.852 200.868 113.408 200.724 112.796 200.724C112.256 200.724 111.818 200.844 111.482 201.084C111.158 201.312 110.882 201.588 110.654 201.912L109.286 200.688C109.634 200.148 110.096 199.716 110.672 199.392C111.248 199.056 112.01 198.888 112.958 198.888C114.23 198.888 115.196 199.176 115.856 199.752C116.516 200.328 116.846 201.156 116.846 202.236V206.664H117.782V208.5H116.504ZM112.688 207.042C113.204 207.042 113.642 206.928 114.002 206.7C114.362 206.472 114.542 206.136 114.542 205.692V204.45H113.066C111.866 204.45 111.266 204.834 111.266 205.602V205.908C111.266 206.292 111.386 206.58 111.626 206.772C111.878 206.952 112.232 207.042 112.688 207.042ZM122.51 208.5C121.718 208.5 121.112 208.296 120.692 207.888C120.284 207.468 120.08 206.874 120.08 206.106V200.94H118.694V199.104H119.414C119.762 199.104 119.996 199.026 120.116 198.87C120.248 198.702 120.314 198.456 120.314 198.132V196.53H122.384V199.104H124.31V200.94H122.384V206.664H124.166V208.5H122.51ZM131.925 206.934H131.835C131.751 207.174 131.637 207.402 131.493 207.618C131.361 207.822 131.187 208.008 130.971 208.176C130.767 208.344 130.515 208.476 130.215 208.572C129.927 208.668 129.591 208.716 129.207 208.716C128.235 208.716 127.491 208.398 126.975 207.762C126.459 207.126 126.201 206.22 126.201 205.044V199.104H128.505V204.81C128.505 205.458 128.631 205.956 128.883 206.304C129.135 206.64 129.537 206.808 130.089 206.808C130.317 206.808 130.539 206.778 130.755 206.718C130.983 206.658 131.181 206.568 131.349 206.448C131.517 206.316 131.655 206.16 131.763 205.98C131.871 205.788 131.925 205.566 131.925 205.314V199.104H134.229V208.5H131.925V206.934ZM136.891 208.5V199.104H139.195V201.048H139.285C139.345 200.796 139.435 200.556 139.555 200.328C139.687 200.088 139.855 199.878 140.059 199.698C140.263 199.518 140.503 199.374 140.779 199.266C141.067 199.158 141.397 199.104 141.769 199.104H142.273V201.282H141.553C140.773 201.282 140.185 201.396 139.789 201.624C139.393 201.852 139.195 202.224 139.195 202.74V208.5H136.891ZM147.667 208.716C146.971 208.716 146.347 208.602 145.795 208.374C145.255 208.134 144.793 207.804 144.409 207.384C144.037 206.952 143.749 206.436 143.545 205.836C143.341 205.224 143.239 204.54 143.239 203.784C143.239 203.04 143.335 202.368 143.527 201.768C143.731 201.168 144.019 200.658 144.391 200.238C144.763 199.806 145.219 199.476 145.759 199.248C146.299 199.008 146.911 198.888 147.595 198.888C148.327 198.888 148.963 199.014 149.503 199.266C150.043 199.518 150.487 199.86 150.835 200.292C151.183 200.724 151.441 201.228 151.609 201.804C151.789 202.368 151.879 202.974 151.879 203.622V204.378H145.633V204.612C145.633 205.296 145.825 205.848 146.209 206.268C146.593 206.676 147.163 206.88 147.919 206.88C148.495 206.88 148.963 206.76 149.323 206.52C149.695 206.28 150.025 205.974 150.313 205.602L151.555 206.988C151.171 207.528 150.643 207.954 149.971 208.266C149.311 208.566 148.543 208.716 147.667 208.716ZM147.631 200.616C147.019 200.616 146.533 200.82 146.173 201.228C145.813 201.636 145.633 202.164 145.633 202.812V202.956H149.485V202.794C149.485 202.146 149.323 201.624 148.999 201.228C148.687 200.82 148.231 200.616 147.631 200.616ZM156.984 208.716C156.084 208.716 155.328 208.566 154.716 208.266C154.104 207.954 153.564 207.528 153.096 206.988L154.5 205.62C154.848 206.016 155.226 206.328 155.634 206.556C156.054 206.784 156.534 206.898 157.074 206.898C157.626 206.898 158.022 206.802 158.262 206.61C158.514 206.418 158.64 206.154 158.64 205.818C158.64 205.542 158.55 205.326 158.37 205.17C158.202 205.002 157.908 204.888 157.488 204.828L156.552 204.702C155.532 204.57 154.752 204.282 154.212 203.838C153.684 203.382 153.42 202.722 153.42 201.858C153.42 201.402 153.504 200.994 153.672 200.634C153.84 200.262 154.08 199.95 154.392 199.698C154.704 199.434 155.076 199.236 155.508 199.104C155.952 198.96 156.444 198.888 156.984 198.888C157.44 198.888 157.842 198.924 158.19 198.996C158.55 199.056 158.874 199.152 159.162 199.284C159.45 199.404 159.714 199.56 159.954 199.752C160.194 199.932 160.428 200.136 160.656 200.364L159.306 201.714C159.03 201.426 158.7 201.186 158.316 200.994C157.932 200.802 157.512 200.706 157.056 200.706C156.552 200.706 156.186 200.796 155.958 200.976C155.742 201.156 155.634 201.39 155.634 201.678C155.634 201.99 155.724 202.23 155.904 202.398C156.096 202.554 156.414 202.668 156.858 202.74L157.812 202.866C159.84 203.154 160.854 204.078 160.854 205.638C160.854 206.094 160.758 206.514 160.566 206.898C160.386 207.27 160.128 207.594 159.792 207.87C159.456 208.134 159.048 208.344 158.568 208.5C158.1 208.644 157.572 208.716 156.984 208.716Z" fill="white" fill-opacity="0.96"/>
<path d="M32 220V231C32 233.761 34.2386 236 37 236H48" stroke="#191315" stroke-width="2" stroke-linecap="round" stroke-linejoin="round"/>
<path d="M32 220V231C32 233.761 34.2386 236 37 236H48" stroke="white" stroke-opacity="0.68" stroke-width="2" stroke-linecap="round" stroke-linejoin="round"/>
<path d="M32 220V236V256" stroke="#191315" stroke-width="2" stroke-linecap="round" stroke-linejoin="round"/>
<path d="M32 220V236V256" stroke="white" stroke-opacity="0.68" stroke-width="2" stroke-linecap="round" stroke-linejoin="round"/>
<path d="M78 243C78 243.53 77.7893 244.039 77.4142 244.414C77.0391 244.789 76.5304 245 76 245H60C59.4696 245 58.9609 244.789 58.5858 244.414C58.2107 244.039 58 243.53 58 243V229C58 228.47 58.2107 227.961 58.5858 227.586C58.9609 227.211 59.4696 227 60 227H65L67 230H76C76.5304 230 77.0391 230.211 77.4142 230.586C77.7893 230.961 78 231.47 78 232V243Z" fill="#FCA139" fill-opacity="0.8" stroke="white" stroke-opacity="0.96" stroke-width="2" stroke-linecap="round" stroke-linejoin="round"/>
<path d="M97.13 242.716C96.434 242.716 95.81 242.602 95.258 242.374C94.718 242.134 94.256 241.804 93.872 241.384C93.5 240.952 93.212 240.436 93.008 239.836C92.804 239.224 92.702 238.54 92.702 237.784C92.702 237.04 92.798 236.368 92.99 235.768C93.194 235.168 93.482 234.658 93.854 234.238C94.226 233.806 94.682 233.476 95.222 233.248C95.762 233.008 96.374 232.888 97.058 232.888C97.79 232.888 98.426 233.014 98.966 233.266C99.506 233.518 99.95 233.86 100.298 234.292C100.646 234.724 100.904 235.228 101.072 235.804C101.252 236.368 101.342 236.974 101.342 237.622V238.378H95.096V238.612C95.096 239.296 95.288 239.848 95.672 240.268C96.056 240.676 96.626 240.88 97.382 240.88C97.958 240.88 98.426 240.76 98.786 240.52C99.158 240.28 99.488 239.974 99.776 239.602L101.018 240.988C100.634 241.528 100.106 241.954 99.434 242.266C98.774 242.566 98.006 242.716 97.13 242.716ZM97.094 234.616C96.482 234.616 95.996 234.82 95.636 235.228C95.276 235.636 95.096 236.164 95.096 236.812V236.956H98.948V236.794C98.948 236.146 98.786 235.624 98.462 235.228C98.15 234.82 97.694 234.616 97.094 234.616ZM103.369 242.5V233.104H105.673V234.67H105.763C105.955 234.166 106.255 233.746 106.663 233.41C107.083 233.062 107.659 232.888 108.391 232.888C109.363 232.888 110.107 233.206 110.623 233.842C111.139 234.478 111.397 235.384 111.397 236.56V242.5H109.093V236.794C109.093 236.122 108.973 235.618 108.733 235.282C108.493 234.946 108.097 234.778 107.545 234.778C107.305 234.778 107.071 234.814 106.843 234.886C106.627 234.946 106.429 235.042 106.249 235.174C106.081 235.294 105.943 235.45 105.835 235.642C105.727 235.822 105.673 236.038 105.673 236.29V242.5H103.369ZM116.885 242.5C116.093 242.5 115.487 242.296 115.067 241.888C114.659 241.468 114.455 240.874 114.455 240.106V234.94H113.069V233.104H113.789C114.137 233.104 114.371 233.026 114.491 232.87C114.623 232.702 114.689 232.456 114.689 232.132V230.53H116.759V233.104H118.685V234.94H116.759V240.664H118.541V242.5H116.885ZM121.836 231.736C121.356 231.736 121.008 231.628 120.792 231.412C120.588 231.196 120.486 230.92 120.486 230.584V230.224C120.486 229.888 120.588 229.612 120.792 229.396C121.008 229.18 121.356 229.072 121.836 229.072C122.304 229.072 122.646 229.18 122.862 229.396C123.078 229.612 123.186 229.888 123.186 230.224V230.584C123.186 230.92 123.078 231.196 122.862 231.412C122.646 231.628 122.304 231.736 121.836 231.736ZM120.684 233.104H122.988V242.5H120.684V233.104ZM128.592 242.5C127.8 242.5 127.194 242.296 126.774 241.888C126.366 241.468 126.162 240.874 126.162 240.106V234.94H124.776V233.104H125.496C125.844 233.104 126.078 233.026 126.198 232.87C126.33 232.702 126.396 232.456 126.396 232.132V230.53H128.466V233.104H130.392V234.94H128.466V240.664H130.248V242.5H128.592ZM133.543 231.736C133.063 231.736 132.715 231.628 132.499 231.412C132.295 231.196 132.193 230.92 132.193 230.584V230.224C132.193 229.888 132.295 229.612 132.499 229.396C132.715 229.18 133.063 229.072 133.543 229.072C134.011 229.072 134.353 229.18 134.569 229.396C134.785 229.612 134.893 229.888 134.893 230.224V230.584C134.893 230.92 134.785 231.196 134.569 231.412C134.353 231.628 134.011 231.736 133.543 231.736ZM132.391 233.104H134.695V242.5H132.391V233.104ZM141.163 242.716C140.467 242.716 139.843 242.602 139.291 242.374C138.751 242.134 138.289 241.804 137.905 241.384C137.533 240.952 137.245 240.436 137.041 239.836C136.837 239.224 136.735 238.54 136.735 237.784C136.735 237.04 136.831 236.368 137.023 235.768C137.227 235.168 137.515 234.658 137.887 234.238C138.259 233.806 138.715 233.476 139.255 233.248C139.795 233.008 140.407 232.888 141.091 232.888C141.823 232.888 142.459 233.014 142.999 233.266C143.539 233.518 143.983 233.86 144.331 234.292C144.679 234.724 144.937 235.228 145.105 235.804C145.285 236.368 145.375 236.974 145.375 237.622V238.378H139.129V238.612C139.129 239.296 139.321 239.848 139.705 240.268C140.089 240.676 140.659 240.88 141.415 240.88C141.991 240.88 142.459 240.76 142.819 240.52C143.191 240.28 143.521 239.974 143.809 239.602L145.051 240.988C144.667 241.528 144.139 241.954 143.467 242.266C142.807 242.566 142.039 242.716 141.163 242.716ZM141.127 234.616C140.515 234.616 140.029 234.82 139.669 235.228C139.309 235.636 139.129 236.164 139.129 236.812V236.956H142.981V236.794C142.981 236.146 142.819 235.624 142.495 235.228C142.183 234.82 141.727 234.616 141.127 234.616ZM150.48 242.716C149.58 242.716 148.824 242.566 148.212 242.266C147.6 241.954 147.06 241.528 146.592 240.988L147.996 239.62C148.344 240.016 148.722 240.328 149.13 240.556C149.55 240.784 150.03 240.898 150.57 240.898C151.122 240.898 151.518 240.802 151.758 240.61C152.01 240.418 152.136 240.154 152.136 239.818C152.136 239.542 152.046 239.326 151.866 239.17C151.698 239.002 151.404 238.888 150.984 238.828L150.048 238.702C149.028 238.57 148.248 238.282 147.708 237.838C147.18 237.382 146.916 236.722 146.916 235.858C146.916 235.402 147 234.994 147.168 234.634C147.336 234.262 147.576 233.95 147.888 233.698C148.2 233.434 148.572 233.236 149.004 233.104C149.448 232.96 149.94 232.888 150.48 232.888C150.936 232.888 151.338 232.924 151.686 232.996C152.046 233.056 152.37 233.152 152.658 233.284C152.946 233.404 153.21 233.56 153.45 233.752C153.69 233.932 153.924 234.136 154.152 234.364L152.802 235.714C152.526 235.426 152.196 235.186 151.812 234.994C151.428 234.802 151.008 234.706 150.552 234.706C150.048 234.706 149.682 234.796 149.454 234.976C149.238 235.156 149.13 235.39 149.13 235.678C149.13 235.99 149.22 236.23 149.4 236.398C149.592 236.554 149.91 236.668 150.354 236.74L151.308 236.866C153.336 237.154 154.35 238.078 154.35 239.638C154.35 240.094 154.254 240.514 154.062 240.898C153.882 241.27 153.624 241.594 153.288 241.87C152.952 242.134 152.544 242.344 152.064 242.5C151.596 242.644 151.068 242.716 150.48 242.716Z" fill="white" fill-opacity="0.96"/>
<path d="M32 254V265C32 267.761 34.2386 270 37 270H48" stroke="#191315" stroke-width="2" stroke-linecap="round" stroke-linejoin="round"/>
<path d="M32 254V265C32 267.761 34.2386 270 37 270H48" stroke="white" stroke-opacity="0.68" stroke-width="2" stroke-linecap="round" stroke-linejoin="round"/>
<path d="M78 277C78 277.53 77.7893 278.039 77.4142 278.414C77.0391 278.789 76.5304 279 76 279H60C59.4696 279 58.9609 278.789 58.5858 278.414C58.2107 278.039 58 277.53 58 277V263C58 262.47 58.2107 261.961 58.5858 261.586C58.9609 261.211 59.4696 261 60 261H65L67 264H76C76.5304 264 77.0391 264.211 77.4142 264.586C77.7893 264.961 78 265.47 78 266V277Z" fill="#FF5155" fill-opacity="0.8" stroke="white" stroke-opacity="0.96" stroke-width="2" stroke-linecap="round" stroke-linejoin="round"/>
<path d="M96.41 276.716C95.51 276.716 94.754 276.566 94.142 276.266C93.53 275.954 92.99 275.528 92.522 274.988L93.926 273.62C94.274 274.016 94.652 274.328 95.06 274.556C95.48 274.784 95.96 274.898 96.5 274.898C97.052 274.898 97.448 274.802 97.688 274.61C97.94 274.418 98.066 274.154 98.066 273.818C98.066 273.542 97.976 273.326 97.796 273.17C97.628 273.002 97.334 272.888 96.914 272.828L95.978 272.702C94.958 272.57 94.178 272.282 93.638 271.838C93.11 271.382 92.846 270.722 92.846 269.858C92.846 269.402 92.93 268.994 93.098 268.634C93.266 268.262 93.506 267.95 93.818 267.698C94.13 267.434 94.502 267.236 94.934 267.104C95.378 266.96 95.87 266.888 96.41 266.888C96.866 266.888 97.268 266.924 97.616 266.996C97.976 267.056 98.3 267.152 98.588 267.284C98.876 267.404 99.14 267.56 99.38 267.752C99.62 267.932 99.854 268.136 100.082 268.364L98.732 269.714C98.456 269.426 98.126 269.186 97.742 268.994C97.358 268.802 96.938 268.706 96.482 268.706C95.978 268.706 95.612 268.796 95.384 268.976C95.168 269.156 95.06 269.39 95.06 269.678C95.06 269.99 95.15 270.23 95.33 270.398C95.522 270.554 95.84 270.668 96.284 270.74L97.238 270.866C99.266 271.154 100.28 272.078 100.28 273.638C100.28 274.094 100.184 274.514 99.992 274.898C99.812 275.27 99.554 275.594 99.218 275.87C98.882 276.134 98.474 276.344 97.994 276.5C97.526 276.644 96.998 276.716 96.41 276.716ZM102.314 263.18H104.618V268.67H104.708C104.9 268.166 105.2 267.746 105.608 267.41C106.028 267.062 106.604 266.888 107.336 266.888C108.308 266.888 109.052 267.206 109.568 267.842C110.084 268.478 110.342 269.384 110.342 270.56V276.5H108.038V270.794C108.038 270.122 107.918 269.618 107.678 269.282C107.438 268.946 107.042 268.778 106.49 268.778C106.25 268.778 106.016 268.814 105.788 268.886C105.572 268.946 105.374 269.042 105.194 269.174C105.026 269.294 104.888 269.45 104.78 269.642C104.672 269.822 104.618 270.038 104.618 270.29V276.5H102.314V263.18ZM119.808 276.5C119.304 276.5 118.902 276.356 118.602 276.068C118.314 275.768 118.134 275.372 118.062 274.88H117.954C117.798 275.492 117.48 275.954 117 276.266C116.52 276.566 115.926 276.716 115.218 276.716C114.258 276.716 113.52 276.464 113.004 275.96C112.488 275.456 112.23 274.784 112.23 273.944C112.23 272.972 112.578 272.252 113.274 271.784C113.97 271.304 114.96 271.064 116.244 271.064H117.846V270.38C117.846 269.852 117.708 269.444 117.432 269.156C117.156 268.868 116.712 268.724 116.1 268.724C115.56 268.724 115.122 268.844 114.786 269.084C114.462 269.312 114.186 269.588 113.958 269.912L112.59 268.688C112.938 268.148 113.4 267.716 113.976 267.392C114.552 267.056 115.314 266.888 116.262 266.888C117.534 266.888 118.5 267.176 119.16 267.752C119.82 268.328 120.15 269.156 120.15 270.236V274.664H121.086V276.5H119.808ZM115.992 275.042C116.508 275.042 116.946 274.928 117.306 274.7C117.666 274.472 117.846 274.136 117.846 273.692V272.45H116.37C115.17 272.45 114.57 272.834 114.57 273.602V273.908C114.57 274.292 114.69 274.58 114.93 274.772C115.182 274.952 115.536 275.042 115.992 275.042ZM122.951 276.5V267.104H125.255V269.048H125.345C125.405 268.796 125.495 268.556 125.615 268.328C125.747 268.088 125.915 267.878 126.119 267.698C126.323 267.518 126.563 267.374 126.839 267.266C127.127 267.158 127.457 267.104 127.829 267.104H128.333V269.282H127.613C126.833 269.282 126.245 269.396 125.849 269.624C125.453 269.852 125.255 270.224 125.255 270.74V276.5H122.951ZM133.728 276.716C133.032 276.716 132.408 276.602 131.856 276.374C131.316 276.134 130.854 275.804 130.47 275.384C130.098 274.952 129.81 274.436 129.606 273.836C129.402 273.224 129.3 272.54 129.3 271.784C129.3 271.04 129.396 270.368 129.588 269.768C129.792 269.168 130.08 268.658 130.452 268.238C130.824 267.806 131.28 267.476 131.82 267.248C132.36 267.008 132.972 266.888 133.656 266.888C134.388 266.888 135.024 267.014 135.564 267.266C136.104 267.518 136.548 267.86 136.896 268.292C137.244 268.724 137.502 269.228 137.67 269.804C137.85 270.368 137.94 270.974 137.94 271.622V272.378H131.694V272.612C131.694 273.296 131.886 273.848 132.27 274.268C132.654 274.676 133.224 274.88 133.98 274.88C134.556 274.88 135.024 274.76 135.384 274.52C135.756 274.28 136.086 273.974 136.374 273.602L137.616 274.988C137.232 275.528 136.704 275.954 136.032 276.266C135.372 276.566 134.604 276.716 133.728 276.716ZM133.692 268.616C133.08 268.616 132.594 268.82 132.234 269.228C131.874 269.636 131.694 270.164 131.694 270.812V270.956H135.546V270.794C135.546 270.146 135.384 269.624 135.06 269.228C134.748 268.82 134.292 268.616 133.692 268.616ZM145.799 274.934H145.709C145.541 275.474 145.223 275.906 144.755 276.23C144.287 276.554 143.741 276.716 143.117 276.716C141.929 276.716 141.017 276.29 140.381 275.438C139.757 274.586 139.445 273.368 139.445 271.784C139.445 270.212 139.757 269.006 140.381 268.166C141.017 267.314 141.929 266.888 143.117 266.888C143.741 266.888 144.287 267.05 144.755 267.374C145.223 267.686 145.541 268.112 145.709 268.652H145.799V263.18H148.103V276.5H145.799V274.934ZM143.855 274.808C144.407 274.808 144.869 274.676 145.241 274.412C145.613 274.148 145.799 273.77 145.799 273.278V270.29C145.799 269.834 145.613 269.468 145.241 269.192C144.869 268.916 144.407 268.778 143.855 268.778C143.255 268.778 142.769 268.982 142.397 269.39C142.037 269.786 141.857 270.32 141.857 270.992V272.612C141.857 273.284 142.037 273.818 142.397 274.214C142.769 274.61 143.255 274.808 143.855 274.808Z" fill="white" fill-opacity="0.96"/>
</svg>
