<svg width="285" height="456" viewBox="0 0 285 456" fill="none" xmlns="http://www.w3.org/2000/svg">
<g clip-path="url(#clip0_310_157)">
<rect width="285" height="456" rx="15" fill="white"/>
<g clip-path="url(#clip1_310_157)">
<path d="M0 15C0 6.71573 6.71573 0 15 0H270C278.284 0 285 6.71573 285 15V76H0V15Z" fill="#E2D7F4"/>
<path d="M131.084 43.094C131.084 43.6633 131.168 44.0787 131.336 44.34C131.504 44.592 131.775 44.7833 132.148 44.914L131.35 47.392C130.557 47.308 129.88 47.112 129.32 46.804C128.769 46.4867 128.345 46.0153 128.046 45.39C127.486 46.0713 126.777 46.58 125.918 46.916C125.069 47.252 124.177 47.42 123.244 47.42C121.732 47.42 120.533 46.9907 119.646 46.132C118.759 45.2733 118.316 44.158 118.316 42.786C118.316 41.2087 118.932 39.9953 120.164 39.146C121.405 38.2873 123.16 37.858 125.428 37.858H127.5V37.06C127.5 36.1827 127.229 35.548 126.688 35.156C126.147 34.7547 125.367 34.554 124.35 34.554C123.874 34.554 123.277 34.6193 122.558 34.75C121.849 34.8713 121.116 35.0627 120.36 35.324L119.478 32.79C120.421 32.4353 121.368 32.174 122.32 32.006C123.281 31.838 124.154 31.754 124.938 31.754C127.019 31.754 128.564 32.1973 129.572 33.084C130.58 33.9613 131.084 35.2073 131.084 36.822V43.094ZM124.448 44.746C125.008 44.746 125.573 44.5873 126.142 44.27C126.721 43.9527 127.173 43.5093 127.5 42.94V40.056H126.044C124.672 40.056 123.678 40.2753 123.062 40.714C122.455 41.1527 122.152 41.7733 122.152 42.576C122.152 43.2667 122.348 43.8033 122.74 44.186C123.132 44.5593 123.701 44.746 124.448 44.746ZM143.701 31.754C145.008 31.754 146.053 32.076 146.837 32.72C147.63 33.3547 148.204 34.2553 148.559 35.422C148.923 36.5887 149.105 37.9653 149.105 39.552C149.105 41.0733 148.886 42.4267 148.447 43.612C148.008 44.7973 147.364 45.7307 146.515 46.412C145.675 47.084 144.639 47.42 143.407 47.42C141.895 47.42 140.672 46.8833 139.739 45.81V52.712L136.043 53.104V32.174H139.291L139.487 33.98C140.075 33.2147 140.733 32.6547 141.461 32.3C142.189 31.936 142.936 31.754 143.701 31.754ZM142.623 34.526C141.998 34.526 141.447 34.7127 140.971 35.086C140.504 35.4593 140.094 35.9213 139.739 36.472V43.108C140.075 43.612 140.458 43.99 140.887 44.242C141.316 44.494 141.802 44.62 142.343 44.62C143.286 44.62 144.004 44.228 144.499 43.444C145.003 42.6507 145.255 41.3673 145.255 39.594C145.255 38.3433 145.152 37.3493 144.947 36.612C144.751 35.8653 144.457 35.3333 144.065 35.016C143.673 34.6893 143.192 34.526 142.623 34.526ZM160.49 31.754C161.797 31.754 162.842 32.076 163.626 32.72C164.419 33.3547 164.993 34.2553 165.348 35.422C165.712 36.5887 165.894 37.9653 165.894 39.552C165.894 41.0733 165.675 42.4267 165.236 43.612C164.797 44.7973 164.153 45.7307 163.304 46.412C162.464 47.084 161.428 47.42 160.196 47.42C158.684 47.42 157.461 46.8833 156.528 45.81V52.712L152.832 53.104V32.174H156.08L156.276 33.98C156.864 33.2147 157.522 32.6547 158.25 32.3C158.978 31.936 159.725 31.754 160.49 31.754ZM159.412 34.526C158.787 34.526 158.236 34.7127 157.76 35.086C157.293 35.4593 156.883 35.9213 156.528 36.472V43.108C156.864 43.612 157.247 43.99 157.676 44.242C158.105 44.494 158.591 44.62 159.132 44.62C160.075 44.62 160.793 44.228 161.288 43.444C161.792 42.6507 162.044 41.3673 162.044 39.594C162.044 38.3433 161.941 37.3493 161.736 36.612C161.54 35.8653 161.246 35.3333 160.854 35.016C160.462 34.6893 159.981 34.526 159.412 34.526Z" fill="black"/>
<line y1="73.5" x2="285" y2="73.5" stroke="black" stroke-width="5"/>
</g>
<g clip-path="url(#clip2_310_157)">
<rect width="285" height="76" transform="translate(0 76)" fill="#BEE2FE"/>
<path d="M110.412 107.754C111.719 107.754 112.764 108.076 113.548 108.72C114.341 109.355 114.915 110.255 115.27 111.422C115.634 112.589 115.816 113.965 115.816 115.552C115.816 117.073 115.597 118.427 115.158 119.612C114.719 120.797 114.075 121.731 113.226 122.412C112.386 123.084 111.35 123.42 110.118 123.42C108.606 123.42 107.383 122.883 106.45 121.81V128.712L102.754 129.104V108.174H106.002L106.198 109.98C106.786 109.215 107.444 108.655 108.172 108.3C108.9 107.936 109.647 107.754 110.412 107.754ZM109.334 110.526C108.709 110.526 108.158 110.713 107.682 111.086C107.215 111.459 106.805 111.921 106.45 112.472V119.108C106.786 119.612 107.169 119.99 107.598 120.242C108.027 120.494 108.513 120.62 109.054 120.62C109.997 120.62 110.715 120.228 111.21 119.444C111.714 118.651 111.966 117.367 111.966 115.594C111.966 114.343 111.863 113.349 111.658 112.612C111.462 111.865 111.168 111.333 110.776 111.016C110.384 110.689 109.903 110.526 109.334 110.526ZM131.373 119.094C131.373 119.663 131.457 120.079 131.625 120.34C131.793 120.592 132.064 120.783 132.437 120.914L131.639 123.392C130.846 123.308 130.169 123.112 129.609 122.804C129.058 122.487 128.634 122.015 128.335 121.39C127.775 122.071 127.066 122.58 126.207 122.916C125.358 123.252 124.466 123.42 123.533 123.42C122.021 123.42 120.822 122.991 119.935 122.132C119.048 121.273 118.605 120.158 118.605 118.786C118.605 117.209 119.221 115.995 120.453 115.146C121.694 114.287 123.449 113.858 125.717 113.858H127.789V113.06C127.789 112.183 127.518 111.548 126.977 111.156C126.436 110.755 125.656 110.554 124.639 110.554C124.163 110.554 123.566 110.619 122.847 110.75C122.138 110.871 121.405 111.063 120.649 111.324L119.767 108.79C120.71 108.435 121.657 108.174 122.609 108.006C123.57 107.838 124.443 107.754 125.227 107.754C127.308 107.754 128.853 108.197 129.861 109.084C130.869 109.961 131.373 111.207 131.373 112.822V119.094ZM124.737 120.746C125.297 120.746 125.862 120.587 126.431 120.27C127.01 119.953 127.462 119.509 127.789 118.94V116.056H126.333C124.961 116.056 123.967 116.275 123.351 116.714C122.744 117.153 122.441 117.773 122.441 118.576C122.441 119.267 122.637 119.803 123.029 120.186C123.421 120.559 123.99 120.746 124.737 120.746ZM149.114 106.088L150.038 108.972C149.478 109.168 148.848 109.308 148.148 109.392C147.448 109.467 146.645 109.504 145.74 109.504C146.645 109.896 147.331 110.395 147.798 111.002C148.274 111.599 148.512 112.36 148.512 113.284C148.512 114.245 148.265 115.104 147.77 115.86C147.285 116.616 146.589 117.209 145.684 117.638C144.788 118.067 143.719 118.282 142.478 118.282C142.095 118.282 141.755 118.263 141.456 118.226C141.157 118.189 140.868 118.137 140.588 118.072C140.401 118.175 140.257 118.324 140.154 118.52C140.051 118.716 140 118.917 140 119.122C140 119.402 140.107 119.645 140.322 119.85C140.546 120.046 141.022 120.144 141.75 120.144H144.27C145.362 120.144 146.319 120.331 147.14 120.704C147.971 121.068 148.615 121.563 149.072 122.188C149.539 122.813 149.772 123.532 149.772 124.344C149.772 125.837 149.123 127.004 147.826 127.844C146.529 128.684 144.634 129.104 142.142 129.104C140.359 129.104 138.969 128.922 137.97 128.558C136.981 128.194 136.285 127.662 135.884 126.962C135.483 126.271 135.282 125.436 135.282 124.456H138.572C138.572 124.932 138.665 125.324 138.852 125.632C139.048 125.94 139.407 126.169 139.93 126.318C140.462 126.467 141.223 126.542 142.212 126.542C143.201 126.542 143.976 126.463 144.536 126.304C145.105 126.145 145.507 125.917 145.74 125.618C145.973 125.329 146.09 124.988 146.09 124.596C146.09 124.064 145.866 123.649 145.418 123.35C144.97 123.051 144.335 122.902 143.514 122.902H141.064C139.571 122.902 138.483 122.613 137.802 122.034C137.121 121.446 136.78 120.769 136.78 120.004C136.78 119.481 136.92 118.982 137.2 118.506C137.489 118.021 137.9 117.61 138.432 117.274C137.517 116.789 136.855 116.21 136.444 115.538C136.043 114.857 135.842 114.035 135.842 113.074C135.842 112.001 136.113 111.067 136.654 110.274C137.195 109.481 137.947 108.865 138.908 108.426C139.869 107.987 140.975 107.768 142.226 107.768C143.374 107.777 144.349 107.707 145.152 107.558C145.964 107.409 146.678 107.203 147.294 106.942C147.919 106.681 148.526 106.396 149.114 106.088ZM142.296 110.232C141.419 110.232 140.747 110.489 140.28 111.002C139.823 111.515 139.594 112.197 139.594 113.046C139.594 113.923 139.832 114.619 140.308 115.132C140.784 115.645 141.451 115.902 142.31 115.902C143.159 115.902 143.803 115.655 144.242 115.16C144.69 114.656 144.914 113.937 144.914 113.004C144.914 112.071 144.69 111.375 144.242 110.918C143.803 110.461 143.155 110.232 142.296 110.232ZM156.271 116.714C156.346 117.638 156.556 118.389 156.901 118.968C157.256 119.547 157.709 119.971 158.259 120.242C158.81 120.513 159.421 120.648 160.093 120.648C160.803 120.648 161.47 120.536 162.095 120.312C162.721 120.088 163.337 119.775 163.943 119.374L165.483 121.488C164.793 122.067 163.967 122.533 163.005 122.888C162.053 123.243 161.003 123.42 159.855 123.42C158.25 123.42 156.897 123.089 155.795 122.426C154.703 121.763 153.877 120.844 153.317 119.668C152.757 118.492 152.477 117.139 152.477 115.608C152.477 114.133 152.753 112.803 153.303 111.618C153.854 110.433 154.647 109.495 155.683 108.804C156.719 108.104 157.97 107.754 159.435 107.754C160.798 107.754 161.974 108.053 162.963 108.65C163.953 109.247 164.718 110.106 165.259 111.226C165.801 112.337 166.071 113.676 166.071 115.244C166.071 115.496 166.062 115.753 166.043 116.014C166.034 116.275 166.02 116.509 166.001 116.714H156.271ZM159.449 110.358C158.553 110.358 157.816 110.68 157.237 111.324C156.668 111.959 156.332 112.967 156.229 114.348H162.473C162.455 113.097 162.193 112.122 161.689 111.422C161.195 110.713 160.448 110.358 159.449 110.358ZM175.552 120.69C176.42 120.69 177.116 120.541 177.638 120.242C178.17 119.934 178.436 119.505 178.436 118.954C178.436 118.59 178.348 118.282 178.17 118.03C178.002 117.778 177.666 117.545 177.162 117.33C176.658 117.106 175.902 116.859 174.894 116.588C173.942 116.345 173.107 116.047 172.388 115.692C171.679 115.328 171.124 114.861 170.722 114.292C170.33 113.723 170.134 113.004 170.134 112.136C170.134 111.268 170.377 110.507 170.862 109.854C171.348 109.191 172.048 108.678 172.962 108.314C173.886 107.941 174.997 107.754 176.294 107.754C177.564 107.754 178.674 107.922 179.626 108.258C180.578 108.585 181.395 108.995 182.076 109.49L180.564 111.744C179.967 111.361 179.318 111.053 178.618 110.82C177.928 110.577 177.181 110.456 176.378 110.456C175.51 110.456 174.876 110.582 174.474 110.834C174.082 111.086 173.886 111.436 173.886 111.884C173.886 112.201 173.984 112.472 174.18 112.696C174.386 112.911 174.75 113.121 175.272 113.326C175.804 113.522 176.56 113.76 177.54 114.04C178.502 114.301 179.337 114.609 180.046 114.964C180.765 115.319 181.32 115.79 181.712 116.378C182.104 116.966 182.3 117.736 182.3 118.688C182.3 119.761 181.988 120.648 181.362 121.348C180.737 122.048 179.911 122.571 178.884 122.916C177.867 123.252 176.761 123.42 175.566 123.42C174.166 123.42 172.944 123.219 171.898 122.818C170.853 122.417 169.966 121.899 169.238 121.264L171.156 119.108C171.735 119.565 172.393 119.943 173.13 120.242C173.877 120.541 174.684 120.69 175.552 120.69Z" fill="black"/>
<line y1="149.5" x2="285" y2="149.5" stroke="black" stroke-width="5"/>
</g>
<g clip-path="url(#clip3_310_157)">
<rect width="285" height="76" transform="translate(0 152)" fill="#DAF6DF"/>
<path d="M97.794 199H93.454L91.956 188.71L90.36 199H86.104L83.738 184.174H87.21L88.498 196.704L90.332 186.05H93.734L95.414 196.704L96.73 184.174H100.062L97.794 199ZM111.069 184.174V196.382H114.975V199H103.033V196.382H107.373V186.792H103.173V184.174H111.069ZM108.675 176.698C109.356 176.698 109.907 176.908 110.327 177.328C110.756 177.748 110.971 178.271 110.971 178.896C110.971 179.521 110.756 180.049 110.327 180.478C109.907 180.898 109.356 181.108 108.675 181.108C107.994 181.108 107.438 180.898 107.009 180.478C106.58 180.049 106.365 179.521 106.365 178.896C106.365 178.271 106.58 177.748 107.009 177.328C107.438 176.908 107.994 176.698 108.675 176.698ZM127.928 177.86L131.624 178.252V199H128.348L128.124 197.25C127.667 197.903 127.093 198.431 126.402 198.832C125.711 199.224 124.909 199.42 123.994 199.42C122.743 199.42 121.707 199.093 120.886 198.44C120.074 197.787 119.467 196.872 119.066 195.696C118.674 194.511 118.478 193.134 118.478 191.566C118.478 190.054 118.711 188.71 119.178 187.534C119.645 186.358 120.317 185.434 121.194 184.762C122.081 184.09 123.131 183.754 124.344 183.754C125.072 183.754 125.735 183.88 126.332 184.132C126.929 184.384 127.461 184.757 127.928 185.252V177.86ZM125.338 186.512C124.405 186.512 123.667 186.918 123.126 187.73C122.594 188.533 122.328 189.816 122.328 191.58C122.328 192.821 122.44 193.815 122.664 194.562C122.888 195.299 123.205 195.831 123.616 196.158C124.027 196.485 124.512 196.648 125.072 196.648C125.688 196.648 126.229 196.466 126.696 196.102C127.172 195.729 127.583 195.267 127.928 194.716V187.968C127.583 187.511 127.195 187.156 126.766 186.904C126.346 186.643 125.87 186.512 125.338 186.512ZM148.903 182.088L149.827 184.972C149.267 185.168 148.637 185.308 147.937 185.392C147.237 185.467 146.435 185.504 145.529 185.504C146.435 185.896 147.121 186.395 147.587 187.002C148.063 187.599 148.301 188.36 148.301 189.284C148.301 190.245 148.054 191.104 147.559 191.86C147.074 192.616 146.379 193.209 145.473 193.638C144.577 194.067 143.509 194.282 142.267 194.282C141.885 194.282 141.544 194.263 141.245 194.226C140.947 194.189 140.657 194.137 140.377 194.072C140.191 194.175 140.046 194.324 139.943 194.52C139.841 194.716 139.789 194.917 139.789 195.122C139.789 195.402 139.897 195.645 140.111 195.85C140.335 196.046 140.811 196.144 141.539 196.144H144.059C145.151 196.144 146.108 196.331 146.929 196.704C147.76 197.068 148.404 197.563 148.861 198.188C149.328 198.813 149.561 199.532 149.561 200.344C149.561 201.837 148.913 203.004 147.615 203.844C146.318 204.684 144.423 205.104 141.931 205.104C140.149 205.104 138.758 204.922 137.759 204.558C136.77 204.194 136.075 203.662 135.673 202.962C135.272 202.271 135.071 201.436 135.071 200.456H138.361C138.361 200.932 138.455 201.324 138.641 201.632C138.837 201.94 139.197 202.169 139.719 202.318C140.251 202.467 141.012 202.542 142.001 202.542C142.991 202.542 143.765 202.463 144.325 202.304C144.895 202.145 145.296 201.917 145.529 201.618C145.763 201.329 145.879 200.988 145.879 200.596C145.879 200.064 145.655 199.649 145.207 199.35C144.759 199.051 144.125 198.902 143.303 198.902H140.853C139.36 198.902 138.273 198.613 137.591 198.034C136.91 197.446 136.569 196.769 136.569 196.004C136.569 195.481 136.709 194.982 136.989 194.506C137.279 194.021 137.689 193.61 138.221 193.274C137.307 192.789 136.644 192.21 136.233 191.538C135.832 190.857 135.631 190.035 135.631 189.074C135.631 188.001 135.902 187.067 136.443 186.274C136.985 185.481 137.736 184.865 138.697 184.426C139.659 183.987 140.765 183.768 142.015 183.768C143.163 183.777 144.139 183.707 144.941 183.558C145.753 183.409 146.467 183.203 147.083 182.942C147.709 182.681 148.315 182.396 148.903 182.088ZM142.085 186.232C141.208 186.232 140.536 186.489 140.069 187.002C139.612 187.515 139.383 188.197 139.383 189.046C139.383 189.923 139.621 190.619 140.097 191.132C140.573 191.645 141.241 191.902 142.099 191.902C142.949 191.902 143.593 191.655 144.031 191.16C144.479 190.656 144.703 189.937 144.703 189.004C144.703 188.071 144.479 187.375 144.031 186.918C143.593 186.461 142.944 186.232 142.085 186.232ZM156.06 192.714C156.135 193.638 156.345 194.389 156.69 194.968C157.045 195.547 157.498 195.971 158.048 196.242C158.599 196.513 159.21 196.648 159.882 196.648C160.592 196.648 161.259 196.536 161.884 196.312C162.51 196.088 163.126 195.775 163.732 195.374L165.272 197.488C164.582 198.067 163.756 198.533 162.794 198.888C161.842 199.243 160.792 199.42 159.644 199.42C158.039 199.42 156.686 199.089 155.584 198.426C154.492 197.763 153.666 196.844 153.106 195.668C152.546 194.492 152.266 193.139 152.266 191.608C152.266 190.133 152.542 188.803 153.092 187.618C153.643 186.433 154.436 185.495 155.472 184.804C156.508 184.104 157.759 183.754 159.224 183.754C160.587 183.754 161.763 184.053 162.752 184.65C163.742 185.247 164.507 186.106 165.048 187.226C165.59 188.337 165.86 189.676 165.86 191.244C165.86 191.496 165.851 191.753 165.832 192.014C165.823 192.275 165.809 192.509 165.79 192.714H156.06ZM159.238 186.358C158.342 186.358 157.605 186.68 157.026 187.324C156.457 187.959 156.121 188.967 156.018 190.348H162.262C162.244 189.097 161.982 188.122 161.478 187.422C160.984 186.713 160.237 186.358 159.238 186.358ZM182.495 198.174C181.945 198.538 181.277 198.837 180.493 199.07C179.709 199.303 178.86 199.42 177.945 199.42C176.135 199.42 174.772 198.953 173.857 198.02C172.943 197.077 172.485 195.827 172.485 194.268V186.792H169.265V184.174H172.485V180.912L176.181 180.464V184.174H181.081L180.703 186.792H176.181V194.254C176.181 195.019 176.368 195.579 176.741 195.934C177.115 196.289 177.717 196.466 178.547 196.466C179.079 196.466 179.565 196.405 180.003 196.284C180.451 196.153 180.857 195.99 181.221 195.794L182.495 198.174ZM192.13 196.69C192.998 196.69 193.694 196.541 194.216 196.242C194.748 195.934 195.014 195.505 195.014 194.954C195.014 194.59 194.926 194.282 194.748 194.03C194.58 193.778 194.244 193.545 193.74 193.33C193.236 193.106 192.48 192.859 191.472 192.588C190.52 192.345 189.685 192.047 188.966 191.692C188.257 191.328 187.702 190.861 187.3 190.292C186.908 189.723 186.712 189.004 186.712 188.136C186.712 187.268 186.955 186.507 187.44 185.854C187.926 185.191 188.626 184.678 189.54 184.314C190.464 183.941 191.575 183.754 192.872 183.754C194.142 183.754 195.252 183.922 196.204 184.258C197.156 184.585 197.973 184.995 198.654 185.49L197.142 187.744C196.545 187.361 195.896 187.053 195.196 186.82C194.506 186.577 193.759 186.456 192.956 186.456C192.088 186.456 191.454 186.582 191.052 186.834C190.66 187.086 190.464 187.436 190.464 187.884C190.464 188.201 190.562 188.472 190.758 188.696C190.964 188.911 191.328 189.121 191.85 189.326C192.382 189.522 193.138 189.76 194.118 190.04C195.08 190.301 195.915 190.609 196.624 190.964C197.343 191.319 197.898 191.79 198.29 192.378C198.682 192.966 198.878 193.736 198.878 194.688C198.878 195.761 198.566 196.648 197.94 197.348C197.315 198.048 196.489 198.571 195.462 198.916C194.445 199.252 193.339 199.42 192.144 199.42C190.744 199.42 189.522 199.219 188.476 198.818C187.431 198.417 186.544 197.899 185.816 197.264L187.734 195.108C188.313 195.565 188.971 195.943 189.708 196.242C190.455 196.541 191.262 196.69 192.13 196.69Z" fill="black"/>
<line y1="225.5" x2="285" y2="225.5" stroke="black" stroke-width="5"/>
</g>
<g clip-path="url(#clip4_310_157)">
<rect width="285" height="76" transform="translate(0 228)" fill="#FEF9D7"/>
<path d="M86.452 253.86C87.4413 253.86 88.3187 253.939 89.084 254.098C89.8493 254.257 90.5447 254.471 91.17 254.742L90.106 257.234C89.6113 257.029 89.0933 256.879 88.552 256.786C88.0107 256.693 87.4693 256.646 86.928 256.646C85.9947 256.646 85.3133 256.823 84.884 257.178C84.464 257.523 84.254 258.079 84.254 258.844V261.182H89.154L88.748 263.828H84.254V275H80.572V263.828H77.31V261.182H80.572V258.76C80.572 257.799 80.8053 256.954 81.272 256.226C81.7387 255.489 82.4107 254.91 83.288 254.49C84.1747 254.07 85.2293 253.86 86.452 253.86ZM97.1931 268.714C97.2677 269.638 97.4777 270.389 97.8231 270.968C98.1777 271.547 98.6304 271.971 99.1811 272.242C99.7317 272.513 100.343 272.648 101.015 272.648C101.724 272.648 102.392 272.536 103.017 272.312C103.642 272.088 104.258 271.775 104.865 271.374L106.405 273.488C105.714 274.067 104.888 274.533 103.927 274.888C102.975 275.243 101.925 275.42 100.777 275.42C99.1717 275.42 97.8184 275.089 96.7171 274.426C95.6251 273.763 94.7991 272.844 94.2391 271.668C93.6791 270.492 93.3991 269.139 93.3991 267.608C93.3991 266.133 93.6744 264.803 94.2251 263.618C94.7757 262.433 95.5691 261.495 96.6051 260.804C97.6411 260.104 98.8917 259.754 100.357 259.754C101.72 259.754 102.896 260.053 103.885 260.65C104.874 261.247 105.64 262.106 106.181 263.226C106.722 264.337 106.993 265.676 106.993 267.244C106.993 267.496 106.984 267.753 106.965 268.014C106.956 268.275 106.942 268.509 106.923 268.714H97.1931ZM100.371 262.358C99.4751 262.358 98.7377 262.68 98.1591 263.324C97.5897 263.959 97.2537 264.967 97.1511 266.348H103.395C103.376 265.097 103.115 264.122 102.611 263.422C102.116 262.713 101.37 262.358 100.371 262.358ZM122.662 271.094C122.662 271.663 122.746 272.079 122.914 272.34C123.082 272.592 123.353 272.783 123.726 272.914L122.928 275.392C122.135 275.308 121.458 275.112 120.898 274.804C120.347 274.487 119.923 274.015 119.624 273.39C119.064 274.071 118.355 274.58 117.496 274.916C116.647 275.252 115.755 275.42 114.822 275.42C113.31 275.42 112.111 274.991 111.224 274.132C110.337 273.273 109.894 272.158 109.894 270.786C109.894 269.209 110.51 267.995 111.742 267.146C112.983 266.287 114.738 265.858 117.006 265.858H119.078V265.06C119.078 264.183 118.807 263.548 118.266 263.156C117.725 262.755 116.945 262.554 115.928 262.554C115.452 262.554 114.855 262.619 114.136 262.75C113.427 262.871 112.694 263.063 111.938 263.324L111.056 260.79C111.999 260.435 112.946 260.174 113.898 260.006C114.859 259.838 115.732 259.754 116.516 259.754C118.597 259.754 120.142 260.197 121.15 261.084C122.158 261.961 122.662 263.207 122.662 264.822V271.094ZM116.026 272.746C116.586 272.746 117.151 272.587 117.72 272.27C118.299 271.953 118.751 271.509 119.078 270.94V268.056H117.622C116.25 268.056 115.256 268.275 114.64 268.714C114.033 269.153 113.73 269.773 113.73 270.576C113.73 271.267 113.926 271.803 114.318 272.186C114.71 272.559 115.279 272.746 116.026 272.746ZM140.417 274.174C139.867 274.538 139.199 274.837 138.415 275.07C137.631 275.303 136.782 275.42 135.867 275.42C134.057 275.42 132.694 274.953 131.779 274.02C130.865 273.077 130.407 271.827 130.407 270.268V262.792H127.187V260.174H130.407V256.912L134.103 256.464V260.174H139.003L138.625 262.792H134.103V270.254C134.103 271.019 134.29 271.579 134.663 271.934C135.037 272.289 135.639 272.466 136.469 272.466C137.001 272.466 137.487 272.405 137.925 272.284C138.373 272.153 138.779 271.99 139.143 271.794L140.417 274.174ZM148.106 260.174V270.45C148.106 271.253 148.265 271.817 148.582 272.144C148.9 272.471 149.362 272.634 149.968 272.634C150.547 272.634 151.112 272.461 151.662 272.116C152.213 271.761 152.661 271.313 153.006 270.772V260.174H156.702V275H153.482L153.286 273.18C152.754 273.908 152.073 274.463 151.242 274.846C150.412 275.229 149.553 275.42 148.666 275.42C147.238 275.42 146.17 275.019 145.46 274.216C144.76 273.404 144.41 272.298 144.41 270.898V260.174H148.106ZM161.339 275V272.438H163.425V262.722H161.339V260.174H166.239L166.925 263.576C167.467 262.316 168.148 261.369 168.969 260.734C169.791 260.09 170.822 259.768 172.063 259.768C172.539 259.768 172.959 259.805 173.323 259.88C173.697 259.955 174.051 260.053 174.387 260.174L173.281 263.282C172.992 263.207 172.717 263.151 172.455 263.114C172.194 263.067 171.9 263.044 171.573 263.044C170.547 263.044 169.651 263.445 168.885 264.248C168.129 265.041 167.541 266.119 167.121 267.482V272.438H170.075V275H161.339ZM171.265 265.956V262.022L171.769 260.174H174.387L173.729 265.956H171.265ZM181.138 268.714C181.213 269.638 181.423 270.389 181.768 270.968C182.123 271.547 182.576 271.971 183.126 272.242C183.677 272.513 184.288 272.648 184.96 272.648C185.67 272.648 186.337 272.536 186.962 272.312C187.588 272.088 188.204 271.775 188.81 271.374L190.35 273.488C189.66 274.067 188.834 274.533 187.872 274.888C186.92 275.243 185.87 275.42 184.722 275.42C183.117 275.42 181.764 275.089 180.662 274.426C179.57 273.763 178.744 272.844 178.184 271.668C177.624 270.492 177.344 269.139 177.344 267.608C177.344 266.133 177.62 264.803 178.17 263.618C178.721 262.433 179.514 261.495 180.55 260.804C181.586 260.104 182.837 259.754 184.302 259.754C185.665 259.754 186.841 260.053 187.83 260.65C188.82 261.247 189.585 262.106 190.126 263.226C190.668 264.337 190.938 265.676 190.938 267.244C190.938 267.496 190.929 267.753 190.91 268.014C190.901 268.275 190.887 268.509 190.868 268.714H181.138ZM184.316 262.358C183.42 262.358 182.683 262.68 182.104 263.324C181.535 263.959 181.199 264.967 181.096 266.348H187.34C187.322 265.097 187.06 264.122 186.556 263.422C186.062 262.713 185.315 262.358 184.316 262.358ZM200.419 272.69C201.287 272.69 201.983 272.541 202.505 272.242C203.037 271.934 203.303 271.505 203.303 270.954C203.303 270.59 203.215 270.282 203.037 270.03C202.869 269.778 202.533 269.545 202.029 269.33C201.525 269.106 200.769 268.859 199.761 268.588C198.809 268.345 197.974 268.047 197.255 267.692C196.546 267.328 195.991 266.861 195.589 266.292C195.197 265.723 195.001 265.004 195.001 264.136C195.001 263.268 195.244 262.507 195.729 261.854C196.215 261.191 196.915 260.678 197.829 260.314C198.753 259.941 199.864 259.754 201.161 259.754C202.431 259.754 203.541 259.922 204.493 260.258C205.445 260.585 206.262 260.995 206.943 261.49L205.431 263.744C204.834 263.361 204.185 263.053 203.485 262.82C202.795 262.577 202.048 262.456 201.245 262.456C200.377 262.456 199.743 262.582 199.341 262.834C198.949 263.086 198.753 263.436 198.753 263.884C198.753 264.201 198.851 264.472 199.047 264.696C199.253 264.911 199.617 265.121 200.139 265.326C200.671 265.522 201.427 265.76 202.407 266.04C203.369 266.301 204.204 266.609 204.913 266.964C205.632 267.319 206.187 267.79 206.579 268.378C206.971 268.966 207.167 269.736 207.167 270.688C207.167 271.761 206.855 272.648 206.229 273.348C205.604 274.048 204.778 274.571 203.751 274.916C202.734 275.252 201.628 275.42 200.433 275.42C199.033 275.42 197.811 275.219 196.765 274.818C195.72 274.417 194.833 273.899 194.105 273.264L196.023 271.108C196.602 271.565 197.26 271.943 197.997 272.242C198.744 272.541 199.551 272.69 200.419 272.69Z" fill="black"/>
<line y1="301.5" x2="285" y2="301.5" stroke="black" stroke-width="5"/>
</g>
<g clip-path="url(#clip5_310_157)">
<rect width="285" height="76" transform="translate(0 304)" fill="#FDE0BF"/>
<path d="M80.404 344.714C80.4787 345.638 80.6887 346.389 81.034 346.968C81.3887 347.547 81.8413 347.971 82.392 348.242C82.9427 348.513 83.554 348.648 84.226 348.648C84.9353 348.648 85.6027 348.536 86.228 348.312C86.8533 348.088 87.4693 347.775 88.076 347.374L89.616 349.488C88.9253 350.067 88.0993 350.533 87.138 350.888C86.186 351.243 85.136 351.42 83.988 351.42C82.3827 351.42 81.0293 351.089 79.928 350.426C78.836 349.763 78.01 348.844 77.45 347.668C76.89 346.492 76.61 345.139 76.61 343.608C76.61 342.133 76.8853 340.803 77.436 339.618C77.9867 338.433 78.78 337.495 79.816 336.804C80.852 336.104 82.1027 335.754 83.568 335.754C84.9307 335.754 86.1067 336.053 87.096 336.65C88.0853 337.247 88.8507 338.106 89.392 339.226C89.9333 340.337 90.204 341.676 90.204 343.244C90.204 343.496 90.1947 343.753 90.176 344.014C90.1667 344.275 90.1527 344.509 90.134 344.714H80.404ZM83.582 338.358C82.686 338.358 81.9487 338.68 81.37 339.324C80.8007 339.959 80.4647 340.967 80.362 342.348H86.606C86.5873 341.097 86.326 340.122 85.822 339.422C85.3273 338.713 84.5807 338.358 83.582 338.358ZM94.0431 351V336.174H97.2631L97.5291 338.008C98.1637 337.261 98.8777 336.701 99.6711 336.328C100.464 335.945 101.318 335.754 102.233 335.754C103.568 335.754 104.585 336.141 105.285 336.916C105.985 337.681 106.335 338.759 106.335 340.15V351H102.639V341.592C102.639 340.845 102.592 340.248 102.499 339.8C102.406 339.343 102.228 339.016 101.967 338.82C101.706 338.615 101.328 338.512 100.833 338.512C100.432 338.512 100.044 338.601 99.6711 338.778C99.3071 338.955 98.9617 339.193 98.6351 339.492C98.3177 339.791 98.0191 340.122 97.7391 340.486V351H94.0431ZM123.628 350.174C123.077 350.538 122.41 350.837 121.626 351.07C120.842 351.303 119.993 351.42 119.078 351.42C117.267 351.42 115.905 350.953 114.99 350.02C114.075 349.077 113.618 347.827 113.618 346.268V338.792H110.398V336.174H113.618V332.912L117.314 332.464V336.174H122.214L121.836 338.792H117.314V346.254C117.314 347.019 117.501 347.579 117.874 347.934C118.247 348.289 118.849 348.466 119.68 348.466C120.212 348.466 120.697 348.405 121.136 348.284C121.584 348.153 121.99 347.99 122.354 347.794L123.628 350.174ZM136.147 336.174V348.382H140.053V351H128.111V348.382H132.451V338.792H128.251V336.174H136.147ZM133.753 328.698C134.435 328.698 134.985 328.908 135.405 329.328C135.835 329.748 136.049 330.271 136.049 330.896C136.049 331.521 135.835 332.049 135.405 332.478C134.985 332.898 134.435 333.108 133.753 333.108C133.072 333.108 132.517 332.898 132.087 332.478C131.658 332.049 131.443 331.521 131.443 330.896C131.443 330.271 131.658 329.748 132.087 329.328C132.517 328.908 133.072 328.698 133.753 328.698ZM157.206 350.174C156.656 350.538 155.988 350.837 155.204 351.07C154.42 351.303 153.571 351.42 152.656 351.42C150.846 351.42 149.483 350.953 148.568 350.02C147.654 349.077 147.196 347.827 147.196 346.268V338.792H143.976V336.174H147.196V332.912L150.892 332.464V336.174H155.792L155.414 338.792H150.892V346.254C150.892 347.019 151.079 347.579 151.452 347.934C151.826 348.289 152.428 348.466 153.258 348.466C153.79 348.466 154.276 348.405 154.714 348.284C155.162 348.153 155.568 347.99 155.932 347.794L157.206 350.174ZM169.725 336.174V348.382H173.631V351H161.689V348.382H166.029V338.792H161.829V336.174H169.725ZM167.331 328.698C168.013 328.698 168.563 328.908 168.983 329.328C169.413 329.748 169.627 330.271 169.627 330.896C169.627 331.521 169.413 332.049 168.983 332.478C168.563 332.898 168.013 333.108 167.331 333.108C166.65 333.108 166.095 332.898 165.665 332.478C165.236 332.049 165.021 331.521 165.021 330.896C165.021 330.271 165.236 329.748 165.665 329.328C166.095 328.908 166.65 328.698 167.331 328.698ZM181.138 344.714C181.213 345.638 181.423 346.389 181.768 346.968C182.123 347.547 182.576 347.971 183.126 348.242C183.677 348.513 184.288 348.648 184.96 348.648C185.67 348.648 186.337 348.536 186.962 348.312C187.588 348.088 188.204 347.775 188.81 347.374L190.35 349.488C189.66 350.067 188.834 350.533 187.872 350.888C186.92 351.243 185.87 351.42 184.722 351.42C183.117 351.42 181.764 351.089 180.662 350.426C179.57 349.763 178.744 348.844 178.184 347.668C177.624 346.492 177.344 345.139 177.344 343.608C177.344 342.133 177.62 340.803 178.17 339.618C178.721 338.433 179.514 337.495 180.55 336.804C181.586 336.104 182.837 335.754 184.302 335.754C185.665 335.754 186.841 336.053 187.83 336.65C188.82 337.247 189.585 338.106 190.126 339.226C190.668 340.337 190.938 341.676 190.938 343.244C190.938 343.496 190.929 343.753 190.91 344.014C190.901 344.275 190.887 344.509 190.868 344.714H181.138ZM184.316 338.358C183.42 338.358 182.683 338.68 182.104 339.324C181.535 339.959 181.199 340.967 181.096 342.348H187.34C187.322 341.097 187.06 340.122 186.556 339.422C186.062 338.713 185.315 338.358 184.316 338.358ZM200.419 348.69C201.287 348.69 201.983 348.541 202.505 348.242C203.037 347.934 203.303 347.505 203.303 346.954C203.303 346.59 203.215 346.282 203.037 346.03C202.869 345.778 202.533 345.545 202.029 345.33C201.525 345.106 200.769 344.859 199.761 344.588C198.809 344.345 197.974 344.047 197.255 343.692C196.546 343.328 195.991 342.861 195.589 342.292C195.197 341.723 195.001 341.004 195.001 340.136C195.001 339.268 195.244 338.507 195.729 337.854C196.215 337.191 196.915 336.678 197.829 336.314C198.753 335.941 199.864 335.754 201.161 335.754C202.431 335.754 203.541 335.922 204.493 336.258C205.445 336.585 206.262 336.995 206.943 337.49L205.431 339.744C204.834 339.361 204.185 339.053 203.485 338.82C202.795 338.577 202.048 338.456 201.245 338.456C200.377 338.456 199.743 338.582 199.341 338.834C198.949 339.086 198.753 339.436 198.753 339.884C198.753 340.201 198.851 340.472 199.047 340.696C199.253 340.911 199.617 341.121 200.139 341.326C200.671 341.522 201.427 341.76 202.407 342.04C203.369 342.301 204.204 342.609 204.913 342.964C205.632 343.319 206.187 343.79 206.579 344.378C206.971 344.966 207.167 345.736 207.167 346.688C207.167 347.761 206.855 348.648 206.229 349.348C205.604 350.048 204.778 350.571 203.751 350.916C202.734 351.252 201.628 351.42 200.433 351.42C199.033 351.42 197.811 351.219 196.765 350.818C195.72 350.417 194.833 349.899 194.105 349.264L196.023 347.108C196.602 347.565 197.26 347.943 197.997 348.242C198.744 348.541 199.551 348.69 200.419 348.69Z" fill="black"/>
<line y1="377.5" x2="285" y2="377.5" stroke="black" stroke-width="5"/>
</g>
<g clip-path="url(#clip6_310_157)">
<path d="M0 380H285V441C285 449.284 278.284 456 270 456H15C6.71572 456 0 449.284 0 441V380Z" fill="#FFD6D7"/>
<path d="M99.896 424.69C100.764 424.69 101.459 424.541 101.982 424.242C102.514 423.934 102.78 423.505 102.78 422.954C102.78 422.59 102.691 422.282 102.514 422.03C102.346 421.778 102.01 421.545 101.506 421.33C101.002 421.106 100.246 420.859 99.238 420.588C98.286 420.345 97.4507 420.047 96.732 419.692C96.0227 419.328 95.4673 418.861 95.066 418.292C94.674 417.723 94.478 417.004 94.478 416.136C94.478 415.268 94.7207 414.507 95.206 413.854C95.6913 413.191 96.3913 412.678 97.306 412.314C98.23 411.941 99.3407 411.754 100.638 411.754C101.907 411.754 103.018 411.922 103.97 412.258C104.922 412.585 105.739 412.995 106.42 413.49L104.908 415.744C104.311 415.361 103.662 415.053 102.962 414.82C102.271 414.577 101.525 414.456 100.722 414.456C99.854 414.456 99.2193 414.582 98.818 414.834C98.426 415.086 98.23 415.436 98.23 415.884C98.23 416.201 98.328 416.472 98.524 416.696C98.7293 416.911 99.0933 417.121 99.616 417.326C100.148 417.522 100.904 417.76 101.884 418.04C102.845 418.301 103.681 418.609 104.39 418.964C105.109 419.319 105.664 419.79 106.056 420.378C106.448 420.966 106.644 421.736 106.644 422.688C106.644 423.761 106.331 424.648 105.706 425.348C105.081 426.048 104.255 426.571 103.228 426.916C102.211 427.252 101.105 427.42 99.91 427.42C98.51 427.42 97.2873 427.219 96.242 426.818C95.1967 426.417 94.31 425.899 93.582 425.264L95.5 423.108C96.0787 423.565 96.7367 423.943 97.474 424.242C98.2207 424.541 99.028 424.69 99.896 424.69ZM114.739 405.902V413.84C115.355 413.14 116.046 412.617 116.811 412.272C117.586 411.927 118.393 411.754 119.233 411.754C120.596 411.754 121.618 412.141 122.299 412.916C122.99 413.681 123.335 414.759 123.335 416.15V427H119.639V416.976C119.639 416.08 119.499 415.445 119.219 415.072C118.948 414.699 118.482 414.512 117.819 414.512C117.427 414.512 117.044 414.605 116.671 414.792C116.307 414.969 115.962 415.212 115.635 415.52C115.318 415.828 115.019 416.173 114.739 416.556V427H111.043V406.266L114.739 405.902ZM139.662 423.094C139.662 423.663 139.746 424.079 139.914 424.34C140.082 424.592 140.353 424.783 140.726 424.914L139.928 427.392C139.135 427.308 138.458 427.112 137.898 426.804C137.347 426.487 136.923 426.015 136.624 425.39C136.064 426.071 135.355 426.58 134.496 426.916C133.647 427.252 132.755 427.42 131.822 427.42C130.31 427.42 129.111 426.991 128.224 426.132C127.337 425.273 126.894 424.158 126.894 422.786C126.894 421.209 127.51 419.995 128.742 419.146C129.983 418.287 131.738 417.858 134.006 417.858H136.078V417.06C136.078 416.183 135.807 415.548 135.266 415.156C134.725 414.755 133.945 414.554 132.928 414.554C132.452 414.554 131.855 414.619 131.136 414.75C130.427 414.871 129.694 415.063 128.938 415.324L128.056 412.79C128.999 412.435 129.946 412.174 130.898 412.006C131.859 411.838 132.732 411.754 133.516 411.754C135.597 411.754 137.142 412.197 138.15 413.084C139.158 413.961 139.662 415.207 139.662 416.822V423.094ZM133.026 424.746C133.586 424.746 134.151 424.587 134.72 424.27C135.299 423.953 135.751 423.509 136.078 422.94V420.056H134.622C133.25 420.056 132.256 420.275 131.64 420.714C131.033 421.153 130.73 421.773 130.73 422.576C130.73 423.267 130.926 423.803 131.318 424.186C131.71 424.559 132.279 424.746 133.026 424.746ZM144.761 427V424.438H146.847V414.722H144.761V412.174H149.661L150.347 415.576C150.889 414.316 151.57 413.369 152.391 412.734C153.213 412.09 154.244 411.768 155.485 411.768C155.961 411.768 156.381 411.805 156.745 411.88C157.119 411.955 157.473 412.053 157.809 412.174L156.703 415.282C156.414 415.207 156.139 415.151 155.877 415.114C155.616 415.067 155.322 415.044 154.995 415.044C153.969 415.044 153.073 415.445 152.307 416.248C151.551 417.041 150.963 418.119 150.543 419.482V424.438H153.497V427H144.761ZM154.687 417.956V414.022L155.191 412.174H157.809L157.151 417.956H154.687ZM164.56 420.714C164.635 421.638 164.845 422.389 165.19 422.968C165.545 423.547 165.998 423.971 166.548 424.242C167.099 424.513 167.71 424.648 168.382 424.648C169.092 424.648 169.759 424.536 170.384 424.312C171.01 424.088 171.626 423.775 172.232 423.374L173.772 425.488C173.082 426.067 172.256 426.533 171.294 426.888C170.342 427.243 169.292 427.42 168.144 427.42C166.539 427.42 165.186 427.089 164.084 426.426C162.992 425.763 162.166 424.844 161.606 423.668C161.046 422.492 160.766 421.139 160.766 419.608C160.766 418.133 161.042 416.803 161.592 415.618C162.143 414.433 162.936 413.495 163.972 412.804C165.008 412.104 166.259 411.754 167.724 411.754C169.087 411.754 170.263 412.053 171.252 412.65C172.242 413.247 173.007 414.106 173.548 415.226C174.09 416.337 174.36 417.676 174.36 419.244C174.36 419.496 174.351 419.753 174.332 420.014C174.323 420.275 174.309 420.509 174.29 420.714H164.56ZM167.738 414.358C166.842 414.358 166.105 414.68 165.526 415.324C164.957 415.959 164.621 416.967 164.518 418.348H170.762C170.744 417.097 170.482 416.122 169.978 415.422C169.484 414.713 168.737 414.358 167.738 414.358ZM186.795 405.86L190.491 406.252V427H187.215L186.991 425.25C186.534 425.903 185.96 426.431 185.269 426.832C184.579 427.224 183.776 427.42 182.861 427.42C181.611 427.42 180.575 427.093 179.753 426.44C178.941 425.787 178.335 424.872 177.933 423.696C177.541 422.511 177.345 421.134 177.345 419.566C177.345 418.054 177.579 416.71 178.045 415.534C178.512 414.358 179.184 413.434 180.061 412.762C180.948 412.09 181.998 411.754 183.211 411.754C183.939 411.754 184.602 411.88 185.199 412.132C185.797 412.384 186.329 412.757 186.795 413.252V405.86ZM184.205 414.512C183.272 414.512 182.535 414.918 181.993 415.73C181.461 416.533 181.195 417.816 181.195 419.58C181.195 420.821 181.307 421.815 181.531 422.562C181.755 423.299 182.073 423.831 182.483 424.158C182.894 424.485 183.379 424.648 183.939 424.648C184.555 424.648 185.097 424.466 185.563 424.102C186.039 423.729 186.45 423.267 186.795 422.716V415.968C186.45 415.511 186.063 415.156 185.633 414.904C185.213 414.643 184.737 414.512 184.205 414.512Z" fill="black"/>
</g>
</g>
<rect x="3" y="3" width="279" height="450" rx="12" stroke="black" stroke-width="6"/>
<defs>
<clipPath id="clip0_310_157">
<rect width="285" height="456" rx="15" fill="white"/>
</clipPath>
<clipPath id="clip1_310_157">
<path d="M0 15C0 6.71573 6.71573 0 15 0H270C278.284 0 285 6.71573 285 15V76H0V15Z" fill="white"/>
</clipPath>
<clipPath id="clip2_310_157">
<rect width="285" height="76" fill="white" transform="translate(0 76)"/>
</clipPath>
<clipPath id="clip3_310_157">
<rect width="285" height="76" fill="white" transform="translate(0 152)"/>
</clipPath>
<clipPath id="clip4_310_157">
<rect width="285" height="76" fill="white" transform="translate(0 228)"/>
</clipPath>
<clipPath id="clip5_310_157">
<rect width="285" height="76" fill="white" transform="translate(0 304)"/>
</clipPath>
<clipPath id="clip6_310_157">
<path d="M0 380H285V441C285 449.284 278.284 456 270 456H15C6.71572 456 0 449.284 0 441V380Z" fill="white"/>
</clipPath>
</defs>
</svg>
