<svg version="1.2" baseProfile="tiny-ps" xmlns="http://www.w3.org/2000/svg" viewBox="0 0 1338 386" width="1338" height="386"><title>yandex_logo_ru-ai</title><style>tspan { white-space:pre }.shp0 { fill: #fc3f1d } .shp1 { fill: #000000 } </style><g ><path class="shp0" d="M163.87 45.42L138.07 45.42C90.78 45.42 65.94 69.15 65.94 104.26C65.94 144.12 83.14 162.63 118.49 186.36L147.62 205.81L63.55 330.62L0.98 330.62L76.45 219.1C32.98 188.25 8.62 158.36 8.62 107.58C8.62 44 53.05 0.81 137.59 0.81L221.66 0.81L221.66 330.62L163.87 330.62L163.87 45.42Z" /><path fill-rule="evenodd" class="shp1" d="M690.26 286.01L715.57 286.01L715.57 385.19L663.03 385.19L663.03 330.62L535.49 330.62L535.49 385.19L482.95 385.19L482.95 286.01L500.62 286.01C520.68 246.15 524.51 170.7 524.51 112.33L524.51 91.92L690.26 91.92L690.26 286.01ZM633.41 136.53L573.23 136.53L573.23 143.65C573.23 184.93 568.93 249.94 553.17 286.01L633.41 286.01L633.41 136.53Z" /><path class="shp1" d="M402.22 186.36L326.27 186.36L326.27 91.92L269.43 91.92L269.43 330.62L326.27 330.62L326.27 230.96L402.22 230.96L402.22 330.62L459.06 330.62L459.06 91.92L402.22 91.92L402.22 186.36Z" /><path class="shp1" d="M1282.09 131.78C1304.06 131.78 1325.56 139.38 1337.02 146.5L1337.02 98.57C1325.08 91.92 1304.06 87.18 1275.88 87.18C1203.27 87.18 1165.54 138.9 1165.54 211.51C1165.54 291.23 1202.32 335.36 1278.27 335.36C1304.54 335.36 1323.17 330.62 1337.02 320.65L1337.02 274.62C1322.69 284.59 1305.49 290.75 1281.61 290.75C1241.01 290.75 1224.29 259.43 1224.29 210.08C1224.29 158.36 1244.83 131.78 1282.09 131.78Z" /><path class="shp1" d="M1157.89 91.92L1100.57 91.92L1020.33 202.02L1020.33 91.92L963.48 91.92L963.48 330.62L1020.33 330.62L1020.33 213.4L1104.4 330.62L1168.88 330.62L1077.65 202.02L1157.89 91.92Z" /><path fill-rule="evenodd" class="shp1" d="M925.27 201.54L925.27 231.44L788.18 231.44C790.57 271.3 806.33 290.75 847.89 290.75C875.59 290.75 905.21 280.31 922.88 268.45L922.88 314.48C906.16 325.87 879.41 335.36 843.11 335.36C770.5 335.36 729.43 295.03 729.43 211.98C729.43 139.85 762.38 87.18 831.65 87.18C888.49 87.18 925.27 118.5 925.27 201.54ZM867.47 184.93C867.47 155.04 858.87 131.78 830.69 131.78C803.46 131.78 789.61 151.72 788.18 189.68L867.47 189.68L867.47 184.93Z" /><g ></g></g></svg>