<svg width="244" height="180" viewBox="0 0 244 180" fill="none" xmlns="http://www.w3.org/2000/svg">
<path d="M57.6 100L51.82 72H56.04L59.34 89.42C59.4467 89.9667 59.54 90.46 59.62 90.9C59.7 91.3267 59.76 91.7467 59.8 92.16C59.88 91.7467 59.9733 91.32 60.08 90.88C60.2 90.4267 60.3333 89.9467 60.48 89.44L65.1 72H68.42L73.1 89.4C73.2333 89.9067 73.3467 90.3667 73.44 90.78C73.5333 91.18 73.6067 91.5733 73.66 91.96C73.7267 91.5733 73.7933 91.18 73.86 90.78C73.94 90.3667 74.0333 89.9133 74.14 89.42L77.72 72H81.88L75.8 100H72.4L67.32 81.66C67.1867 81.18 67.0667 80.7467 66.96 80.36C66.8667 79.96 66.78 79.56 66.7 79.16C66.6333 79.56 66.5533 79.9533 66.46 80.34C66.3667 80.7133 66.2533 81.1467 66.12 81.64L61.08 100H57.6ZM93.9372 100.48C92.0305 100.48 90.3839 100.027 88.9972 99.12C87.6239 98.2133 86.5639 96.9533 85.8172 95.34C85.0839 93.7267 84.7172 91.8667 84.7172 89.76C84.7172 87.52 85.0972 85.6067 85.8572 84.02C86.6305 82.42 87.7039 81.2 89.0772 80.36C90.4639 79.5067 92.0839 79.08 93.9372 79.08C95.5105 79.08 96.9439 79.4267 98.2372 80.12C99.5439 80.8 100.584 81.86 101.357 83.3C102.144 84.7267 102.537 86.56 102.537 88.8C102.537 89.12 102.524 89.5067 102.497 89.96C102.484 90.4 102.451 90.8533 102.397 91.32H88.7372C88.8439 92.4533 89.1172 93.4533 89.5572 94.32C90.0105 95.1733 90.6105 95.84 91.3572 96.32C92.1039 96.8 92.9839 97.04 93.9972 97.04C94.8905 97.04 95.7039 96.8867 96.4372 96.58C97.1705 96.26 97.8572 95.7667 98.4972 95.1L100.817 97.6C100.017 98.44 99.0372 99.1333 97.8772 99.68C96.7172 100.213 95.4039 100.48 93.9372 100.48ZM88.7172 88H98.5772C98.5505 86.92 98.3505 85.9733 97.9772 85.16C97.6172 84.3333 97.0905 83.6867 96.3972 83.22C95.7172 82.7533 94.8839 82.52 93.8972 82.52C92.5239 82.52 91.3439 82.96 90.3572 83.84C89.3705 84.72 88.8239 86.1067 88.7172 88ZM116.574 100.48C115.587 100.48 114.707 100.307 113.934 99.96C113.161 99.6 112.401 99.04 111.654 98.28V100H107.674V72.96L111.654 71.12V81.26C112.254 80.5667 112.981 80.0333 113.834 79.66C114.687 79.2733 115.594 79.08 116.554 79.08C118.274 79.08 119.767 79.52 121.034 80.4C122.301 81.2667 123.281 82.5067 123.974 84.12C124.681 85.72 125.034 87.6 125.034 89.76C125.034 93.1467 124.287 95.78 122.794 97.66C121.314 99.54 119.241 100.48 116.574 100.48ZM116.054 96.72C117.641 96.72 118.854 96.12 119.694 94.92C120.547 93.72 120.974 92 120.974 89.76C120.974 87.4933 120.554 85.7667 119.714 84.58C118.874 83.3933 117.654 82.8 116.054 82.8C115.187 82.8 114.347 83.0267 113.534 83.48C112.721 83.9333 112.094 84.5133 111.654 85.22V94.28C112.134 95.04 112.754 95.64 113.514 96.08C114.274 96.5067 115.121 96.72 116.054 96.72ZM136.219 100.48C134.725 100.48 133.292 100.16 131.919 99.52C130.559 98.88 129.452 98.02 128.599 96.94L131.359 94.6C132.065 95.36 132.859 95.9533 133.739 96.38C134.619 96.7933 135.479 97 136.319 97C137.465 97 138.352 96.7933 138.979 96.38C139.605 95.9533 139.919 95.3667 139.919 94.62C139.919 94.14 139.772 93.7067 139.479 93.32C139.199 92.92 138.719 92.54 138.039 92.18C137.359 91.8067 136.439 91.4067 135.279 90.98C133.012 90.14 131.392 89.2333 130.419 88.26C129.445 87.2733 128.959 86.04 128.959 84.56C128.959 82.9333 129.612 81.6133 130.919 80.6C132.225 79.5867 133.919 79.08 135.999 79.08C137.439 79.08 138.759 79.3533 139.959 79.9C141.159 80.4333 142.192 81.2133 143.059 82.24L140.359 84.46C139.145 83.1933 137.679 82.56 135.959 82.56C134.985 82.56 134.212 82.7467 133.639 83.12C133.065 83.48 132.779 83.98 132.779 84.62C132.779 85.2467 133.105 85.7933 133.759 86.26C134.412 86.7267 135.605 87.2733 137.339 87.9C138.832 88.42 140.045 88.9933 140.979 89.62C141.925 90.2467 142.612 90.9667 143.039 91.78C143.479 92.58 143.699 93.5067 143.699 94.56C143.699 96.4 143.032 97.8467 141.699 98.9C140.379 99.9533 138.552 100.48 136.219 100.48ZM149.081 100V79.56H153.061V100H149.081ZM151.061 76.22C150.395 76.22 149.821 75.9867 149.341 75.52C148.875 75.04 148.641 74.4667 148.641 73.8C148.641 73.12 148.875 72.54 149.341 72.06C149.808 71.58 150.381 71.34 151.061 71.34C151.755 71.34 152.335 71.58 152.801 72.06C153.268 72.54 153.501 73.12 153.501 73.8C153.501 74.48 153.268 75.0533 152.801 75.52C152.335 75.9867 151.755 76.22 151.061 76.22ZM165.348 100.48C163.881 100.48 162.761 100.053 161.988 99.2C161.228 98.3333 160.848 97.08 160.848 95.44V83.04H157.648V79.56H160.848V73.04L164.828 71.12V79.56H169.728V83.04H164.828V94.38C164.828 95.2333 164.981 95.86 165.288 96.26C165.608 96.66 166.101 96.86 166.768 96.86C167.728 96.86 168.768 96.52 169.888 95.84L169.428 99.56C168.815 99.88 168.175 100.113 167.508 100.26C166.841 100.407 166.121 100.48 165.348 100.48ZM182.648 100.48C180.741 100.48 179.095 100.027 177.708 99.12C176.335 98.2133 175.275 96.9533 174.528 95.34C173.795 93.7267 173.428 91.8667 173.428 89.76C173.428 87.52 173.808 85.6067 174.568 84.02C175.341 82.42 176.415 81.2 177.788 80.36C179.175 79.5067 180.795 79.08 182.648 79.08C184.221 79.08 185.655 79.4267 186.948 80.12C188.255 80.8 189.295 81.86 190.068 83.3C190.855 84.7267 191.248 86.56 191.248 88.8C191.248 89.12 191.235 89.5067 191.208 89.96C191.195 90.4 191.161 90.8533 191.108 91.32H177.448C177.555 92.4533 177.828 93.4533 178.268 94.32C178.721 95.1733 179.321 95.84 180.068 96.32C180.815 96.8 181.695 97.04 182.708 97.04C183.601 97.04 184.415 96.8867 185.148 96.58C185.881 96.26 186.568 95.7667 187.208 95.1L189.528 97.6C188.728 98.44 187.748 99.1333 186.588 99.68C185.428 100.213 184.115 100.48 182.648 100.48ZM177.428 88H187.288C187.261 86.92 187.061 85.9733 186.688 85.16C186.328 84.3333 185.801 83.6867 185.108 83.22C184.428 82.7533 183.595 82.52 182.608 82.52C181.235 82.52 180.055 82.96 179.068 83.84C178.081 84.72 177.535 86.1067 177.428 88Z" fill="#109FBC" fill-opacity="0.96"/>
<path d="M50 105.44H193.108V108.8H50V105.44Z" fill="#109FBC" fill-opacity="0.96"/>
</svg>
