<svg width="165" height="180" viewBox="0 0 165 180" fill="none" xmlns="http://www.w3.org/2000/svg">
<rect y="34" width="165" height="112" rx="16" fill="white" fill-opacity="0.9"/>
<g clip-path="url(#clip0_417_227)">
<path d="M60 54C50.4544 54 41.2912 57.7952 34.5469 64.5441C27.7955 71.2956 24.0019 80.452 24 90C24 99.5439 27.7969 108.707 34.5469 115.456C41.2912 122.205 50.4544 126 60 126C69.5456 126 78.7088 122.205 85.4531 115.456C92.2031 108.707 96 99.5439 96 90C96 80.4561 92.2031 71.2929 85.4531 64.5441C78.7088 57.7952 69.5456 54 60 54Z" fill="url(#paint0_linear_417_227)"/>
<path d="M40.2955 89.6196C50.7918 85.0476 57.7893 82.0332 61.288 80.5769C71.2893 76.4183 73.3649 75.6961 74.7205 75.6716C75.0187 75.6668 75.6824 75.7405 76.1155 76.0907C76.4755 76.386 76.5768 76.7854 76.6274 77.0658C76.6724 77.3459 76.7343 77.9843 76.6837 78.4827C76.1437 84.1752 73.798 97.9891 72.6055 104.365C72.1049 107.063 71.1093 107.967 70.1474 108.056C68.0549 108.248 66.4687 106.674 64.4437 105.347C61.2768 103.27 59.488 101.977 56.4112 99.9505C52.8562 97.6083 55.1624 96.3207 57.1874 94.2169C57.7162 93.6663 66.9299 85.2878 67.1043 84.5279C67.1268 84.4328 67.1493 84.0784 66.9355 83.8917C66.7274 83.7044 66.418 83.7685 66.193 83.8191C65.8724 83.8911 60.8155 87.2369 51.0055 93.8558C49.5712 94.8424 48.2718 95.3234 47.1018 95.2981C45.8193 95.2705 43.3443 94.5713 41.5049 93.9739C39.2549 93.241 37.4605 92.8534 37.618 91.6086C37.6968 90.9606 38.5912 90.2974 40.2955 89.6196Z" fill="white"/>
</g>
<path d="M110.232 86V69.2H117.192C118.56 69.2 119.636 69.436 120.42 69.908C121.204 70.38 121.76 70.992 122.088 71.744C122.424 72.496 122.592 73.288 122.592 74.12C122.592 74.768 122.464 75.416 122.208 76.064C121.952 76.712 121.548 77.284 120.996 77.78C120.452 78.276 119.744 78.632 118.872 78.848L122.376 86H119.64L116.28 79.076H112.656V86H110.232ZM112.656 76.808H117.24C117.96 76.808 118.528 76.68 118.944 76.424C119.368 76.16 119.668 75.828 119.844 75.428C120.028 75.02 120.12 74.596 120.12 74.156C120.12 73.756 120.036 73.352 119.868 72.944C119.7 72.528 119.408 72.18 118.992 71.9C118.576 71.612 117.992 71.468 117.24 71.468H112.656V76.808ZM132.36 86.288C130.976 86.288 129.82 86.032 128.892 85.52C127.972 85 127.28 84.248 126.816 83.264C126.352 82.272 126.12 81.068 126.12 79.652V69.2H128.544V79.652C128.544 81.052 128.844 82.124 129.444 82.868C130.044 83.612 131.016 83.984 132.36 83.984C133.216 83.984 133.928 83.828 134.496 83.516C135.064 83.204 135.488 82.732 135.768 82.1C136.048 81.46 136.188 80.644 136.188 79.652V69.2H138.612V79.652C138.612 80.772 138.468 81.748 138.18 82.58C137.9 83.412 137.488 84.104 136.944 84.656C136.408 85.208 135.752 85.62 134.976 85.892C134.2 86.156 133.328 86.288 132.36 86.288Z" fill="#191315" fill-opacity="0.54"/>
<defs>
<linearGradient id="paint0_linear_417_227" x1="3624" y1="54" x2="3624" y2="7254" gradientUnits="userSpaceOnUse">
<stop stop-color="#2AABEE"/>
<stop offset="1" stop-color="#229ED9"/>
</linearGradient>
<clipPath id="clip0_417_227">
<rect width="72" height="72" fill="white" transform="translate(24 54)"/>
</clipPath>
</defs>
</svg>
