<svg width="157" height="180" viewBox="0 0 157 180" fill="none" xmlns="http://www.w3.org/2000/svg">
<g clip-path="url(#clip0_415_178)">
<path d="M56 54C46.4544 54 37.2913 57.7952 30.5469 64.5441C23.7955 71.2956 20.0019 80.452 20 90C20 99.5439 23.7969 108.707 30.5469 115.456C37.2913 122.205 46.4544 126 56 126C65.5456 126 74.7088 122.205 81.4531 115.456C88.2031 108.707 92 99.5439 92 90C92 80.4561 88.2031 71.2929 81.4531 64.5441C74.7088 57.7952 65.5456 54 56 54Z" fill="url(#paint0_linear_415_178)"/>
<path d="M36.2955 89.6196C46.7918 85.0476 53.7893 82.0332 57.288 80.5769C67.2893 76.4183 69.3649 75.6961 70.7205 75.6716C71.0187 75.6668 71.6824 75.7405 72.1155 76.0907C72.4755 76.386 72.5768 76.7854 72.6274 77.0658C72.6724 77.3459 72.7343 77.9843 72.6837 78.4827C72.1437 84.1752 69.798 97.9891 68.6055 104.365C68.1049 107.063 67.1093 107.967 66.1474 108.056C64.0549 108.248 62.4687 106.674 60.4437 105.347C57.2768 103.27 55.488 101.977 52.4112 99.9505C48.8562 97.6083 51.1624 96.3207 53.1874 94.2169C53.7162 93.6663 62.9299 85.2878 63.1043 84.5279C63.1268 84.4328 63.1493 84.0784 62.9355 83.8917C62.7274 83.7044 62.418 83.7685 62.193 83.8191C61.8724 83.8911 56.8155 87.2369 47.0055 93.8558C45.5712 94.8424 44.2718 95.3234 43.1018 95.2981C41.8193 95.2705 39.3443 94.5713 37.5049 93.9739C35.2549 93.241 33.4605 92.8534 33.618 91.6086C33.6968 90.9606 34.5912 90.2974 36.2955 89.6196Z" fill="white"/>
</g>
<path d="M106.232 86V69.2H113.192C114.56 69.2 115.636 69.436 116.42 69.908C117.204 70.38 117.76 70.992 118.088 71.744C118.424 72.496 118.592 73.288 118.592 74.12C118.592 74.768 118.464 75.416 118.208 76.064C117.952 76.712 117.548 77.284 116.996 77.78C116.452 78.276 115.744 78.632 114.872 78.848L118.376 86H115.64L112.28 79.076H108.656V86H106.232ZM108.656 76.808H113.24C113.96 76.808 114.528 76.68 114.944 76.424C115.368 76.16 115.668 75.828 115.844 75.428C116.028 75.02 116.12 74.596 116.12 74.156C116.12 73.756 116.036 73.352 115.868 72.944C115.7 72.528 115.408 72.18 114.992 71.9C114.576 71.612 113.992 71.468 113.24 71.468H108.656V76.808ZM128.36 86.288C126.976 86.288 125.82 86.032 124.892 85.52C123.972 85 123.28 84.248 122.816 83.264C122.352 82.272 122.12 81.068 122.12 79.652V69.2H124.544V79.652C124.544 81.052 124.844 82.124 125.444 82.868C126.044 83.612 127.016 83.984 128.36 83.984C129.216 83.984 129.928 83.828 130.496 83.516C131.064 83.204 131.488 82.732 131.768 82.1C132.048 81.46 132.188 80.644 132.188 79.652V69.2H134.612V79.652C134.612 80.772 134.468 81.748 134.18 82.58C133.9 83.412 133.488 84.104 132.944 84.656C132.408 85.208 131.752 85.62 130.976 85.892C130.2 86.156 129.328 86.288 128.36 86.288Z" fill="#191315" fill-opacity="0.54"/>
<defs>
<linearGradient id="paint0_linear_415_178" x1="3620" y1="54" x2="3620" y2="7254" gradientUnits="userSpaceOnUse">
<stop stop-color="#2AABEE"/>
<stop offset="1" stop-color="#229ED9"/>
</linearGradient>
<clipPath id="clip0_415_178">
<rect width="72" height="72" fill="white" transform="translate(20 54)"/>
</clipPath>
</defs>
</svg>
