<svg width="181" height="180" viewBox="0 0 181 180" fill="none" xmlns="http://www.w3.org/2000/svg">
<rect x="8" y="34" width="165" height="112" rx="16" fill="white" fill-opacity="0.9"/>
<g clip-path="url(#clip0_415_178)">
<path d="M68 54C58.4544 54 49.2912 57.7952 42.5469 64.5441C35.7955 71.2956 32.0019 80.452 32 90C32 99.5439 35.7969 108.707 42.5469 115.456C49.2912 122.205 58.4544 126 68 126C77.5456 126 86.7088 122.205 93.4531 115.456C100.203 108.707 104 99.5439 104 90C104 80.4561 100.203 71.2929 93.4531 64.5441C86.7088 57.7952 77.5456 54 68 54Z" fill="url(#paint0_linear_415_178)"/>
<path d="M48.2955 89.6196C58.7918 85.0476 65.7893 82.0332 69.288 80.5769C79.2893 76.4183 81.3649 75.6961 82.7205 75.6716C83.0187 75.6668 83.6824 75.7405 84.1155 76.0907C84.4755 76.386 84.5768 76.7854 84.6274 77.0658C84.6724 77.3459 84.7343 77.9843 84.6837 78.4827C84.1437 84.1752 81.798 97.9891 80.6055 104.365C80.1049 107.063 79.1093 107.967 78.1474 108.056C76.0549 108.248 74.4687 106.674 72.4437 105.347C69.2768 103.27 67.488 101.977 64.4112 99.9505C60.8562 97.6083 63.1624 96.3207 65.1874 94.2169C65.7162 93.6663 74.9299 85.2878 75.1043 84.5279C75.1268 84.4328 75.1493 84.0784 74.9355 83.8917C74.7274 83.7044 74.418 83.7685 74.193 83.8191C73.8724 83.8911 68.8155 87.2369 59.0055 93.8558C57.5712 94.8424 56.2718 95.3234 55.1018 95.2981C53.8193 95.2705 51.3443 94.5713 49.5049 93.9739C47.2549 93.241 45.4605 92.8534 45.618 91.6086C45.6968 90.9606 46.5912 90.2974 48.2955 89.6196Z" fill="white"/>
</g>
<path d="M118.232 86V69.2H125.192C126.56 69.2 127.636 69.436 128.42 69.908C129.204 70.38 129.76 70.992 130.088 71.744C130.424 72.496 130.592 73.288 130.592 74.12C130.592 74.768 130.464 75.416 130.208 76.064C129.952 76.712 129.548 77.284 128.996 77.78C128.452 78.276 127.744 78.632 126.872 78.848L130.376 86H127.64L124.28 79.076H120.656V86H118.232ZM120.656 76.808H125.24C125.96 76.808 126.528 76.68 126.944 76.424C127.368 76.16 127.668 75.828 127.844 75.428C128.028 75.02 128.12 74.596 128.12 74.156C128.12 73.756 128.036 73.352 127.868 72.944C127.7 72.528 127.408 72.18 126.992 71.9C126.576 71.612 125.992 71.468 125.24 71.468H120.656V76.808ZM140.36 86.288C138.976 86.288 137.82 86.032 136.892 85.52C135.972 85 135.28 84.248 134.816 83.264C134.352 82.272 134.12 81.068 134.12 79.652V69.2H136.544V79.652C136.544 81.052 136.844 82.124 137.444 82.868C138.044 83.612 139.016 83.984 140.36 83.984C141.216 83.984 141.928 83.828 142.496 83.516C143.064 83.204 143.488 82.732 143.768 82.1C144.048 81.46 144.188 80.644 144.188 79.652V69.2H146.612V79.652C146.612 80.772 146.468 81.748 146.18 82.58C145.9 83.412 145.488 84.104 144.944 84.656C144.408 85.208 143.752 85.62 142.976 85.892C142.2 86.156 141.328 86.288 140.36 86.288Z" fill="#191315" fill-opacity="0.54"/>
<defs>
<linearGradient id="paint0_linear_415_178" x1="3632" y1="54" x2="3632" y2="7254" gradientUnits="userSpaceOnUse">
<stop stop-color="#2AABEE"/>
<stop offset="1" stop-color="#229ED9"/>
</linearGradient>
<clipPath id="clip0_415_178">
<rect width="72" height="72" fill="white" transform="translate(32 54)"/>
</clipPath>
</defs>
</svg>
