<svg width="240" height="180" viewBox="0 0 240 180" fill="none" xmlns="http://www.w3.org/2000/svg">
<rect x="8" y="34" width="224" height="112" rx="16" fill="white" fill-opacity="0.9"/>
<path d="M55.6 100L49.82 72H54.04L57.34 89.42C57.4467 89.9667 57.54 90.46 57.62 90.9C57.7 91.3267 57.76 91.7467 57.8 92.16C57.88 91.7467 57.9733 91.32 58.08 90.88C58.2 90.4267 58.3333 89.9467 58.48 89.44L63.1 72H66.42L71.1 89.4C71.2333 89.9067 71.3467 90.3667 71.44 90.78C71.5333 91.18 71.6067 91.5733 71.66 91.96C71.7267 91.5733 71.7933 91.18 71.86 90.78C71.94 90.3667 72.0333 89.9133 72.14 89.42L75.72 72H79.88L73.8 100H70.4L65.32 81.66C65.1867 81.18 65.0667 80.7467 64.96 80.36C64.8667 79.96 64.78 79.56 64.7 79.16C64.6333 79.56 64.5533 79.9533 64.46 80.34C64.3667 80.7133 64.2533 81.1467 64.12 81.64L59.08 100H55.6ZM91.9372 100.48C90.0305 100.48 88.3839 100.027 86.9972 99.12C85.6239 98.2133 84.5639 96.9533 83.8172 95.34C83.0839 93.7267 82.7172 91.8667 82.7172 89.76C82.7172 87.52 83.0972 85.6067 83.8572 84.02C84.6305 82.42 85.7039 81.2 87.0772 80.36C88.4639 79.5067 90.0839 79.08 91.9372 79.08C93.5105 79.08 94.9439 79.4267 96.2372 80.12C97.5439 80.8 98.5839 81.86 99.3572 83.3C100.144 84.7267 100.537 86.56 100.537 88.8C100.537 89.12 100.524 89.5067 100.497 89.96C100.484 90.4 100.451 90.8533 100.397 91.32H86.7372C86.8439 92.4533 87.1172 93.4533 87.5572 94.32C88.0105 95.1733 88.6105 95.84 89.3572 96.32C90.1039 96.8 90.9839 97.04 91.9972 97.04C92.8905 97.04 93.7039 96.8867 94.4372 96.58C95.1705 96.26 95.8572 95.7667 96.4972 95.1L98.8172 97.6C98.0172 98.44 97.0372 99.1333 95.8772 99.68C94.7172 100.213 93.4039 100.48 91.9372 100.48ZM86.7172 88H96.5772C96.5505 86.92 96.3505 85.9733 95.9772 85.16C95.6172 84.3333 95.0905 83.6867 94.3972 83.22C93.7172 82.7533 92.8839 82.52 91.8972 82.52C90.5239 82.52 89.3439 82.96 88.3572 83.84C87.3705 84.72 86.8239 86.1067 86.7172 88ZM114.574 100.48C113.587 100.48 112.707 100.307 111.934 99.96C111.161 99.6 110.401 99.04 109.654 98.28V100H105.674V72.96L109.654 71.12V81.26C110.254 80.5667 110.981 80.0333 111.834 79.66C112.687 79.2733 113.594 79.08 114.554 79.08C116.274 79.08 117.767 79.52 119.034 80.4C120.301 81.2667 121.281 82.5067 121.974 84.12C122.681 85.72 123.034 87.6 123.034 89.76C123.034 93.1467 122.287 95.78 120.794 97.66C119.314 99.54 117.241 100.48 114.574 100.48ZM114.054 96.72C115.641 96.72 116.854 96.12 117.694 94.92C118.547 93.72 118.974 92 118.974 89.76C118.974 87.4933 118.554 85.7667 117.714 84.58C116.874 83.3933 115.654 82.8 114.054 82.8C113.187 82.8 112.347 83.0267 111.534 83.48C110.721 83.9333 110.094 84.5133 109.654 85.22V94.28C110.134 95.04 110.754 95.64 111.514 96.08C112.274 96.5067 113.121 96.72 114.054 96.72ZM134.219 100.48C132.725 100.48 131.292 100.16 129.919 99.52C128.559 98.88 127.452 98.02 126.599 96.94L129.359 94.6C130.065 95.36 130.859 95.9533 131.739 96.38C132.619 96.7933 133.479 97 134.319 97C135.465 97 136.352 96.7933 136.979 96.38C137.605 95.9533 137.919 95.3667 137.919 94.62C137.919 94.14 137.772 93.7067 137.479 93.32C137.199 92.92 136.719 92.54 136.039 92.18C135.359 91.8067 134.439 91.4067 133.279 90.98C131.012 90.14 129.392 89.2333 128.419 88.26C127.445 87.2733 126.959 86.04 126.959 84.56C126.959 82.9333 127.612 81.6133 128.919 80.6C130.225 79.5867 131.919 79.08 133.999 79.08C135.439 79.08 136.759 79.3533 137.959 79.9C139.159 80.4333 140.192 81.2133 141.059 82.24L138.359 84.46C137.145 83.1933 135.679 82.56 133.959 82.56C132.985 82.56 132.212 82.7467 131.639 83.12C131.065 83.48 130.779 83.98 130.779 84.62C130.779 85.2467 131.105 85.7933 131.759 86.26C132.412 86.7267 133.605 87.2733 135.339 87.9C136.832 88.42 138.045 88.9933 138.979 89.62C139.925 90.2467 140.612 90.9667 141.039 91.78C141.479 92.58 141.699 93.5067 141.699 94.56C141.699 96.4 141.032 97.8467 139.699 98.9C138.379 99.9533 136.552 100.48 134.219 100.48ZM147.081 100V79.56H151.061V100H147.081ZM149.061 76.22C148.395 76.22 147.821 75.9867 147.341 75.52C146.875 75.04 146.641 74.4667 146.641 73.8C146.641 73.12 146.875 72.54 147.341 72.06C147.808 71.58 148.381 71.34 149.061 71.34C149.755 71.34 150.335 71.58 150.801 72.06C151.268 72.54 151.501 73.12 151.501 73.8C151.501 74.48 151.268 75.0533 150.801 75.52C150.335 75.9867 149.755 76.22 149.061 76.22ZM163.348 100.48C161.881 100.48 160.761 100.053 159.988 99.2C159.228 98.3333 158.848 97.08 158.848 95.44V83.04H155.648V79.56H158.848V73.04L162.828 71.12V79.56H167.728V83.04H162.828V94.38C162.828 95.2333 162.981 95.86 163.288 96.26C163.608 96.66 164.101 96.86 164.768 96.86C165.728 96.86 166.768 96.52 167.888 95.84L167.428 99.56C166.815 99.88 166.175 100.113 165.508 100.26C164.841 100.407 164.121 100.48 163.348 100.48ZM180.648 100.48C178.741 100.48 177.095 100.027 175.708 99.12C174.335 98.2133 173.275 96.9533 172.528 95.34C171.795 93.7267 171.428 91.8667 171.428 89.76C171.428 87.52 171.808 85.6067 172.568 84.02C173.341 82.42 174.415 81.2 175.788 80.36C177.175 79.5067 178.795 79.08 180.648 79.08C182.221 79.08 183.655 79.4267 184.948 80.12C186.255 80.8 187.295 81.86 188.068 83.3C188.855 84.7267 189.248 86.56 189.248 88.8C189.248 89.12 189.235 89.5067 189.208 89.96C189.195 90.4 189.161 90.8533 189.108 91.32H175.448C175.555 92.4533 175.828 93.4533 176.268 94.32C176.721 95.1733 177.321 95.84 178.068 96.32C178.815 96.8 179.695 97.04 180.708 97.04C181.601 97.04 182.415 96.8867 183.148 96.58C183.881 96.26 184.568 95.7667 185.208 95.1L187.528 97.6C186.728 98.44 185.748 99.1333 184.588 99.68C183.428 100.213 182.115 100.48 180.648 100.48ZM175.428 88H185.288C185.261 86.92 185.061 85.9733 184.688 85.16C184.328 84.3333 183.801 83.6867 183.108 83.22C182.428 82.7533 181.595 82.52 180.608 82.52C179.235 82.52 178.055 82.96 177.068 83.84C176.081 84.72 175.535 86.1067 175.428 88Z" fill="#109FBC" fill-opacity="0.96"/>
</svg>
