<svg xmlns="http://www.w3.org/2000/svg" width="136" height="180" fill="none"><rect width="120" height="112" x="8" y="34" fill="#fff" fill-opacity=".9" rx="16"/><path fill="#5865F2" d="M92.988 67.667A58.6 58.6 0 0 0 78.136 63a44 44 0 0 0-1.903 3.95q-8.307-1.25-16.46 0A42 42 0 0 0 57.846 63a58.4 58.4 0 0 0-14.864 4.679c-9.4 14.204-11.948 28.055-10.674 41.71 6.235 4.656 12.277 7.484 18.217 9.335a45.3 45.3 0 0 0 3.9-6.426 38.3 38.3 0 0 1-6.143-2.99 30 30 0 0 0 1.506-1.191c11.846 5.54 24.717 5.54 36.421 0q.738.615 1.506 1.191a38 38 0 0 1-6.154 2.996 45 45 0 0 0 3.901 6.425c5.946-1.85 11.993-4.678 18.227-9.34 1.495-15.83-2.553-29.553-10.702-41.722M56.04 100.992c-3.556 0-6.472-3.32-6.472-7.363 0-4.042 2.854-7.368 6.472-7.368s6.534 3.32 6.472 7.368c.006 4.043-2.854 7.363-6.472 7.363m23.918 0c-3.556 0-6.472-3.32-6.472-7.363 0-4.042 2.854-7.368 6.472-7.368s6.534 3.32 6.472 7.368c0 4.043-2.854 7.363-6.472 7.363"/></svg>