<svg width="156" height="180" viewBox="0 0 156 180" fill="none" xmlns="http://www.w3.org/2000/svg">
<path d="M80.988 67.6674C76.2666 65.4584 71.2718 63.8887 66.1355 63C65.4958 64.1567 64.7483 65.7124 64.2328 66.95C58.695 66.1173 53.2081 66.1173 47.7721 66.95C47.2569 65.7127 46.4925 64.1567 45.8468 63C40.7055 63.8891 35.7064 65.4628 30.9828 67.679C21.5833 81.8832 19.0352 95.7342 20.3091 109.389C26.5435 114.045 32.5852 116.873 38.5252 118.724C40.0014 116.694 41.3064 114.544 42.4266 112.298C40.2939 111.486 38.2379 110.486 36.283 109.308C36.7975 108.927 37.2998 108.53 37.7893 108.117C49.6349 113.657 62.5058 113.657 74.2103 108.117C74.7018 108.527 75.204 108.924 75.7162 109.308C73.7582 110.489 71.6984 111.491 69.5614 112.304C70.688 114.559 71.9906 116.711 73.4628 118.729C79.4083 116.879 85.4557 114.051 91.6901 109.389C93.1851 93.5598 89.1366 79.8359 80.988 67.6674ZM44.0405 100.992C40.4845 100.992 37.5682 97.6718 37.5682 93.6292C37.5682 89.5867 40.4223 86.2612 44.0405 86.2612C47.659 86.2612 50.575 89.5808 50.5128 93.6292C50.5185 97.6718 47.659 100.992 44.0405 100.992ZM67.9587 100.992C64.4026 100.992 61.4867 97.6718 61.4867 93.6292C61.4867 89.5867 64.3405 86.2612 67.9587 86.2612C71.5772 86.2612 74.4932 89.5808 74.431 93.6292C74.431 97.6718 71.5772 100.992 67.9587 100.992Z" fill="#5865F2"/>
<path d="M106.232 86V69.2H116.672V71.492H108.656V76.172H113.756V78.464H108.656V83.684H117.188V86H106.232ZM120.67 86V69.2H123.046L130.21 80.468C130.322 80.644 130.438 80.84 130.557 81.056C130.678 81.272 130.794 81.492 130.906 81.716C130.898 81.516 130.886 81.304 130.87 81.08C130.862 80.856 130.858 80.656 130.858 80.48V69.2H133.282V86H131.014L123.718 74.684C123.622 74.516 123.51 74.324 123.382 74.108C123.262 73.892 123.146 73.684 123.034 73.484C123.058 73.668 123.074 73.868 123.082 74.084C123.09 74.3 123.094 74.5 123.094 74.684V86H120.67Z" fill="#191315" fill-opacity="0.54"/>
</svg>
