<svg xmlns="http://www.w3.org/2000/svg" width="1016" height="180" fill="none"><path fill="url(#a)" d="M2.063 38.563h70.125v8.25H2.063z"/><path fill="url(#b)" d="M2.063 50.938h70.125v8.25H2.063z"/><path fill="url(#c)" d="M2.063 63.313h33v8.25h-33z"/><path fill="url(#d)" d="M2.063 75.688h70.125v8.25H2.063z"/><path fill="url(#e)" d="M2.063 88.063h70.125v8.25H2.063z"/><path fill="url(#f)" d="M2.063 100.438h33v8.25h-33z"/><path fill="url(#g)" d="M2.063 112.812h33v8.25h-33z"/><path fill="url(#h)" d="M2.063 125.188h33v8.25h-33z"/><path fill="url(#i)" d="M107.25 38.563h51.563v8.25H107.25z"/><path fill="url(#j)" d="M92.813 50.938h66v8.25h-66z"/><path fill="url(#k)" d="M122.719 100.438h36.094v8.25h-36.094z"/><path fill="url(#l)" d="M101.062 88.063h55.688v8.25h-55.688z"/><path fill="url(#m)" d="M88.688 75.688h51.563v8.25H88.688z"/><path fill="url(#n)" d="M88.688 112.812h66v8.25h-66z"/><path fill="url(#o)" d="M88.688 125.188h51.563v8.25H88.688z"/><path fill="url(#p)" d="M88.688 63.313h36.094v8.25H88.688z"/><path fill="url(#q)" d="M175.312 63.313h70.125v8.25h-70.125z"/><path fill="url(#r)" d="M175.312 38.563h45.375v8.25h-45.375z"/><path fill="url(#s)" d="M175.312 75.688h70.125v8.25h-70.125z"/><path fill="url(#t)" d="M175.312 88.063h70.125v8.25h-70.125z"/><path fill="url(#u)" d="M175.312 125.188h45.375v8.25h-45.375z"/><path fill="url(#v)" d="M175.312 100.438h70.125v8.25h-70.125z"/><path fill="url(#w)" d="M175.312 112.812h57.75v8.25h-57.75z"/><path fill="url(#x)" d="M175.312 50.938h57.75v8.25h-57.75z"/><path fill="#fff" fill-opacity=".96" d="M320.316 78.5V42.1h24.206v6.396H327.05v8.008h11.18V62.9h-11.18v15.6zm36.686.624q-3.822 0-6.604-1.716-2.756-1.716-4.264-4.836-1.482-3.146-1.482-7.384 0-4.29 1.508-7.41 1.534-3.12 4.29-4.784 2.782-1.69 6.552-1.69 3.223 0 5.85 1.352t4.186 4.16q1.56 2.782 1.56 7.098 0 .675-.052 1.664a25 25 0 0 1-.13 1.95h-17.342q.104 1.82.832 3.198a5.45 5.45 0 0 0 2.054 2.106q1.3.754 3.068.754 1.898 0 3.302-.624 1.404-.65 2.652-2.054l3.744 3.874a13.3 13.3 0 0 1-4.134 3.146q-2.418 1.196-5.59 1.196M351.1 62.458h11.206q-.13-1.742-.78-2.99-.65-1.275-1.82-1.95t-2.834-.676q-2.287 0-3.9 1.404t-1.872 4.212m31.499 16.666q-4.341 0-6.89-2.34-2.522-2.366-2.522-6.396 0-2.6 1.3-4.55 1.326-1.976 3.666-3.042 2.367-1.092 5.512-1.092 1.743 0 3.354.338 1.639.312 2.86.91v-1.664q0-2.236-1.274-3.354-1.248-1.144-3.692-1.144-1.95 0-4.004.702t-4.16 2.08l-1.95-5.122q2.288-1.508 5.096-2.314a19.9 19.9 0 0 1 5.668-.832q5.356 0 8.008 2.548 2.652 2.522 2.652 7.54V78.5h-6.344v-2.132a8.9 8.9 0 0 1-3.224 2.054q-1.845.702-4.056.702m1.508-5.486a7.9 7.9 0 0 0 3.094-.624 8.5 8.5 0 0 0 2.678-1.82v-3.146a10.6 10.6 0 0 0-2.496-.832 12 12 0 0 0-2.704-.312q-2.418 0-3.822.936-1.377.91-1.378 2.548 0 1.534 1.222 2.392t3.406.858m26.572 5.486q-3.173 0-4.758-1.742-1.586-1.742-1.586-5.2v-14.56h-3.874v-5.694h3.874V44.05l6.448-3.094v10.972h6.032v5.694h-6.032v13.39q0 1.248.494 1.846.52.598 1.612.598 1.925 0 4.212-1.196l-.754 5.668q-1.196.598-2.6.884-1.404.312-3.068.312m22.4 0q-4.445 0-6.89-2.756-2.444-2.782-2.444-7.852V51.928h6.5v14.56q0 3.354 1.144 4.888 1.145 1.534 3.614 1.534 2.652 0 3.9-1.534 1.274-1.56 1.274-4.784V51.928h6.474V78.5h-6.474v-2.496a7.65 7.65 0 0 1-3.016 2.34q-1.767.78-4.082.78m21.75-.624V51.928h6.5v2.86q.728-1.534 2.288-2.496 1.56-.988 3.276-.988 2.834 0 4.784 1.95l-.91 5.954q-1.065-.884-2.08-1.248-1.014-.364-2.236-.364-1.611 0-2.756.754-1.143.754-1.768 2.184-.597 1.43-.598 3.432V78.5zm31.208.624q-3.822 0-6.604-1.716-2.756-1.716-4.264-4.836-1.482-3.146-1.482-7.384 0-4.29 1.508-7.41 1.535-3.12 4.29-4.784 2.783-1.69 6.552-1.69 3.224 0 5.85 1.352t4.186 4.16q1.56 2.782 1.56 7.098 0 .675-.052 1.664a25 25 0 0 1-.13 1.95h-17.342q.104 1.82.832 3.198a5.45 5.45 0 0 0 2.054 2.106q1.3.754 3.068.754 1.898 0 3.302-.624 1.404-.65 2.652-2.054l3.744 3.874a13.3 13.3 0 0 1-4.134 3.146q-2.418 1.196-5.59 1.196m-5.902-16.666h11.206q-.13-1.742-.78-2.99-.65-1.275-1.82-1.95t-2.834-.676q-2.287 0-3.9 1.404t-1.872 4.212m24.359 3.77v-6.214h13.468v6.214zm32.987 12.896q-3.407 0-6.188-1.196a13.8 13.8 0 0 1-4.784-3.38q-1.977-2.21-2.964-5.2l6.11-2.262q1.17 2.496 3.25 4.108a7.67 7.67 0 0 0 4.732 1.586q2.782 0 4.42-1.17 1.664-1.17 1.664-3.406 0-1.534-.988-2.548-.963-1.04-2.626-1.768a38 38 0 0 0-3.718-1.456 68 68 0 0 1-4.03-1.508 18.7 18.7 0 0 1-3.718-2.028 9.5 9.5 0 0 1-2.73-3.068q-1.014-1.846-1.014-4.524t1.43-4.914 4.134-3.562q2.73-1.352 6.604-1.352 3.171 0 5.616 1.092 2.47 1.065 4.082 2.912a10.35 10.35 0 0 1 2.236 4.186l-6.032 2.002q-.729-1.638-2.236-2.73-1.483-1.118-4.03-1.118-2.392 0-3.718.936t-1.326 2.652q0 1.17.884 2.002.909.806 2.418 1.456 1.533.65 3.458 1.326a52 52 0 0 1 4.29 1.664 18 18 0 0 1 3.9 2.236 10 10 0 0 1 2.834 3.302q1.066 1.95 1.066 4.784 0 3.484-1.742 5.928-1.716 2.444-4.654 3.744-2.938 1.274-6.63 1.274m20.034-.624V43.894l6.5-2.938V78.5zm14.925 0V51.928h6.5V78.5zm3.25-29.9q-1.56 0-2.704-1.118-1.118-1.144-1.118-2.704t1.118-2.652q1.118-1.118 2.704-1.118 1.638 0 2.73 1.092t1.092 2.678a3.7 3.7 0 0 1-1.118 2.704q-1.092 1.118-2.704 1.118m21.955 30.524q-3.666 0-6.344-1.69t-4.134-4.784q-1.456-3.12-1.456-7.41t1.456-7.41q1.482-3.12 4.186-4.81 2.704-1.716 6.37-1.716 4.134 0 6.864 1.924 2.755 1.898 3.978 5.642l-6.162 2.08q-.624-1.665-1.82-2.548-1.197-.91-2.756-.91-2.523 0-4.03 2.08-1.482 2.08-1.482 5.668 0 3.536 1.456 5.616t3.926 2.08q1.741 0 2.964-.988 1.248-.988 1.846-2.886l6.136 1.846q-1.17 4.082-3.978 6.162-2.783 2.055-7.02 2.054m28.447 0q-3.822 0-6.604-1.716-2.756-1.716-4.264-4.836-1.482-3.146-1.482-7.384 0-4.29 1.508-7.41 1.534-3.12 4.29-4.784 2.783-1.69 6.552-1.69 3.223 0 5.85 1.352t4.186 4.16q1.56 2.782 1.56 7.098 0 .675-.052 1.664a25 25 0 0 1-.13 1.95h-17.342q.104 1.82.832 3.198a5.45 5.45 0 0 0 2.054 2.106q1.3.754 3.068.754 1.898 0 3.302-.624 1.404-.65 2.652-2.054l3.744 3.874a13.3 13.3 0 0 1-4.134 3.146q-2.418 1.196-5.59 1.196m-5.902-16.666h11.206q-.13-1.742-.78-2.99-.65-1.275-1.82-1.95t-2.834-.676q-2.288 0-3.9 1.404t-1.872 4.212m34.357 16.666q-5.121 0-8.034-3.692-2.912-3.692-2.912-10.244 0-4.16 1.378-7.28 1.379-3.12 3.848-4.862 2.496-1.742 5.798-1.742 3.536 0 5.798 2.6v-10.01l6.474-2.938V78.5h-6.474v-2.184q-1.923 2.808-5.876 2.808m1.066-6.214q1.665 0 2.834-.572 1.17-.598 1.976-1.768V59.832q-.806-1.092-2.106-1.716a6.1 6.1 0 0 0-2.704-.624q-2.625 0-4.056 2.002-1.43 1.975-1.43 5.694 0 2.445.65 4.186.651 1.716 1.872 2.626 1.223.91 2.964.91m32.664 5.59V42.1h12.272q4.732 0 8.06 1.56 3.329 1.535 5.382 4.16a16.6 16.6 0 0 1 3.016 5.85q.962 3.225.962 6.63 0 3.12-.91 6.318a17.6 17.6 0 0 1-2.912 5.902q-2.028 2.678-5.434 4.342-3.38 1.638-8.372 1.638zm6.734-6.396h6.032q2.782 0 4.68-1.04 1.898-1.065 3.042-2.782a12 12 0 0 0 1.69-3.822q.546-2.105.546-4.16 0-2.184-.546-4.29a12.5 12.5 0 0 0-1.69-3.822 8.6 8.6 0 0 0-2.912-2.73q-1.768-1.014-4.238-1.014h-6.604zm40.108 7.02q-3.822 0-6.604-1.716-2.755-1.716-4.264-4.836-1.482-3.146-1.482-7.384 0-4.29 1.508-7.41 1.534-3.12 4.29-4.784 2.783-1.69 6.552-1.69 3.225 0 5.85 1.352 2.626 1.352 4.186 4.16 1.56 2.782 1.56 7.098 0 .675-.052 1.664-.025.962-.13 1.95h-17.342q.105 1.82.832 3.198a5.46 5.46 0 0 0 2.054 2.106q1.3.754 3.068.754 1.898 0 3.302-.624 1.404-.65 2.652-2.054l3.744 3.874a13.3 13.3 0 0 1-4.134 3.146q-2.418 1.196-5.59 1.196m-5.902-16.666h11.206q-.129-1.742-.78-2.99-.65-1.275-1.82-1.95t-2.834-.676q-2.287 0-3.9 1.404-1.611 1.404-1.872 4.212m32.128 16.666q-3.12 0-5.98-1.326-2.833-1.326-4.498-3.562l4.264-3.588a10.3 10.3 0 0 0 3.068 2.236q1.743.806 3.328.806 1.977 0 3.042-.65 1.066-.676 1.066-1.872 0-.78-.52-1.378-.493-.624-1.768-1.248-1.274-.65-3.588-1.482-4.472-1.638-6.344-3.536-1.872-1.924-1.872-4.862 0-3.276 2.652-5.304 2.652-2.055 6.916-2.054 2.913 0 5.356 1.092a11.6 11.6 0 0 1 4.238 3.198l-4.238 3.51q-2.34-2.366-5.46-2.366-1.585 0-2.548.598-.962.572-.962 1.56 0 .962 1.118 1.716 1.145.754 4.238 1.768 3.069.962 4.966 2.184 1.925 1.223 2.808 2.834.91 1.612.91 3.718 0 3.744-2.73 5.876-2.703 2.132-7.462 2.132m16.962-.624V51.928h6.5V78.5zm3.25-29.9q-1.56 0-2.704-1.118-1.118-1.144-1.118-2.704t1.118-2.652a3.7 3.7 0 0 1 2.704-1.118q1.638 0 2.73 1.092t1.092 2.678-1.118 2.704q-1.092 1.118-2.704 1.118m20.811 40.976-3.588-5.434q3.795-.286 5.876-.858 2.106-.572 2.938-1.638t.832-2.782V76.94q-2.028 2.184-5.72 2.184-3.459 0-5.954-1.664-2.496-1.69-3.848-4.81-1.326-3.146-1.326-7.462 0-4.212 1.378-7.332 1.404-3.12 3.9-4.836 2.521-1.716 5.902-1.716 1.767 0 3.224.546 1.481.546 2.444 1.586v-1.508h6.474v24.18q0 3.535-.65 5.98-.65 2.444-2.132 4.004-1.457 1.56-3.848 2.366-2.392.832-5.902 1.118m1.404-16.666q1.377 0 2.574-.624a6.5 6.5 0 0 0 2.08-1.742V59.832q-.729-1.014-2.002-1.664-1.275-.675-2.574-.676-2.808 0-4.29 1.976-1.456 1.95-1.456 5.72 0 2.445.65 4.186.675 1.716 1.95 2.626t3.068.91m19.272 5.59V51.928h6.5v2.548q1.275-1.586 3.042-2.366 1.794-.806 4.082-.806 4.446 0 6.864 2.756 2.418 2.73 2.418 7.878V78.5h-6.474V63.94q0-3.354-1.17-4.888-1.143-1.56-3.588-1.56-2.651 0-3.926 1.56-1.248 1.534-1.248 4.784V78.5z"/><path fill="#fff" fill-opacity=".82" d="m317.408 135.5 8.128-22.4h3.04l8.144 22.4h-3.376l-1.872-5.232h-8.784l-1.84 5.232zm6.272-8.128h6.752l-2.672-7.536a22 22 0 0 1-.24-.688 66 66 0 0 0-.256-.784 7 7 0 0 1-.192-.672q-.08.288-.208.672-.113.384-.24.784-.127.384-.24.688zm17.053 8.128v-16.352h3.184v2.016q.528-1.152 1.504-1.776t2.224-.624q1.568 0 2.656.96l-.464 2.96a4 4 0 0 0-1.152-.608 4.1 4.1 0 0 0-1.28-.192q-1.072 0-1.856.56-.768.544-1.2 1.552t-.432 2.384v9.12zm17.97.384q-2.16 0-3.728-1.024-1.553-1.04-2.4-2.944-.832-1.92-.832-4.576t.848-4.576q.864-1.92 2.448-2.96 1.583-1.04 3.776-1.04 2.256 0 3.792 1.04 1.551 1.04 2.24 3.056l-3.008 1.056q-.4-1.04-1.168-1.6t-1.824-.56q-1.84 0-2.848 1.456-1.008 1.457-1.008 4.128 0 2.624.992 4.08.991 1.44 2.784 1.44 1.167 0 2-.624.848-.624 1.2-1.792l2.992.96q-.64 2.176-2.256 3.328-1.617 1.152-4 1.152m10.405-.384v-21.632l3.184-1.472v8.416q.768-1.025 1.84-1.536t2.432-.512q2.048 0 3.328.848 1.296.848 1.888 2.432t.592 3.792v9.664h-3.184v-9.584q0-1.952-.8-3.056-.8-1.12-2.512-1.12-1.793 0-2.688 1.024t-.896 3.088v9.648zm18.345 0v-16.352h3.184V135.5zm1.583-19.024q-.8 0-1.375-.56a1.9 1.9 0 0 1-.56-1.376q0-.816.56-1.392a1.84 1.84 0 0 1 1.375-.576q.832 0 1.393.576.56.576.56 1.392t-.56 1.376-1.393.56m11.43 19.408q-1.76 0-2.688-1.024-.912-1.04-.912-3.008v-9.92h-2.56v-2.784h2.56v-5.216l3.184-1.536v6.752h3.92v2.784h-3.92v9.072q0 1.024.368 1.504.384.48 1.184.48 1.152 0 2.496-.816l-.368 2.976a6.2 6.2 0 0 1-1.536.56 8 8 0 0 1-1.728.176m13.84 0q-2.288 0-3.952-1.088-1.649-1.088-2.544-3.024-.88-1.936-.88-4.464 0-2.688.912-4.592.928-1.92 2.576-2.928 1.663-1.024 3.888-1.024 1.888 0 3.44.832 1.567.816 2.496 2.544.944 1.712.944 4.4 0 .384-.032.928-.016.528-.08 1.088h-10.928q.128 1.36.656 2.4.545 1.024 1.44 1.6t2.112.576q1.072 0 1.952-.368.88-.384 1.648-1.184l1.856 2q-.96 1.008-2.352 1.664-1.392.64-3.152.64m-4.176-9.984h7.888q-.031-1.296-.48-2.272-.432-.992-1.264-1.552-.816-.56-2-.56-1.649 0-2.832 1.056-1.184 1.056-1.312 3.328m21.76 9.984q-2.16 0-3.728-1.024-1.553-1.04-2.4-2.944-.832-1.92-.832-4.576t.848-4.576q.864-1.92 2.448-2.96t3.776-1.04q2.256 0 3.792 1.04 1.552 1.04 2.24 3.056l-3.008 1.056q-.4-1.04-1.168-1.6t-1.824-.56q-1.84 0-2.848 1.456-1.008 1.457-1.008 4.128 0 2.624.992 4.08.991 1.44 2.784 1.44 1.168 0 2-.624.848-.624 1.2-1.792l2.992.96q-.64 2.176-2.256 3.328t-4 1.152m14.764 0q-1.761 0-2.688-1.024-.912-1.04-.912-3.008v-9.92h-2.561v-2.784h2.561v-5.216l3.184-1.536v6.752h3.92v2.784h-3.92v9.072q0 1.024.368 1.504.383.48 1.184.48 1.152 0 2.496-.816l-.368 2.976a6.2 6.2 0 0 1-1.536.56 8 8 0 0 1-1.728.176m12.947 0q-2.928 0-4.4-1.76t-1.472-5.28v-9.696h3.184v9.552q0 2.08.832 3.136.849 1.04 2.496 1.04 1.793 0 2.672-1.024.897-1.04.896-3.088v-9.616h3.184V135.5h-3.184v-1.552q-.768.992-1.792 1.472-1.024.464-2.416.464m12.757-.384v-16.352h3.184v2.016q.528-1.152 1.504-1.776t2.224-.624q1.568 0 2.656.96l-.464 2.96a4 4 0 0 0-1.152-.608 4.1 4.1 0 0 0-1.28-.192q-1.072 0-1.856.56-.768.544-1.2 1.552t-.432 2.384v9.12zm16.987.384q-2.673 0-4.208-1.456-1.52-1.472-1.52-4 0-1.632.768-2.848.768-1.217 2.16-1.872 1.407-.672 3.296-.672 1.152 0 2.176.24 1.04.24 1.904.72v-1.104q0-1.728-.832-2.544-.833-.832-2.544-.832-1.185 0-2.448.432-1.248.432-2.416 1.216l-.928-2.608a10.6 10.6 0 0 1 2.912-1.312 11.5 11.5 0 0 1 3.248-.48q3.04 0 4.544 1.504 1.52 1.504 1.52 4.496V135.5h-3.056v-1.44a6.5 6.5 0 0 1-2.096 1.36 6.8 6.8 0 0 1-2.48.464m.576-2.752q1.087 0 2.128-.496a6 6 0 0 0 1.872-1.424v-2.528a7 7 0 0 0-1.744-.704 7.4 7.4 0 0 0-1.872-.256q-1.697 0-2.672.736-.976.72-.976 1.984 0 1.248.864 1.968t2.4.72m11.972 2.368v-21.632l3.184-1.472V135.5zm16.215 0v-16.352h3.184v1.536a4.7 4.7 0 0 1 1.792-1.44q1.073-.48 2.4-.48 1.44 0 2.56.624a4.2 4.2 0 0 1 1.728 1.744 5.2 5.2 0 0 1 2.032-1.744q1.248-.624 2.8-.624 2.752 0 4.304 1.632 1.552 1.615 1.552 4.512V135.5h-3.184v-9.6q0-2.048-.8-3.104-.785-1.056-2.304-1.056-1.024 0-1.776.512-.736.496-1.136 1.456-.4.944-.4 2.24v9.552h-3.184v-9.6q0-2.08-.768-3.12t-2.32-1.04q-1.568 0-2.432 1.072t-.864 3.04v9.648zm34.229.384q-2.287 0-3.952-1.088-1.647-1.088-2.544-3.024-.88-1.936-.88-4.464 0-2.688.912-4.592.929-1.92 2.576-2.928 1.665-1.024 3.888-1.024 1.889 0 3.44.832 1.569.816 2.496 2.544.944 1.712.944 4.4 0 .384-.032.928-.015.528-.08 1.088h-10.928q.129 1.36.656 2.4.544 1.024 1.44 1.6.897.576 2.112.576 1.073 0 1.952-.368.88-.384 1.648-1.184l1.856 2q-.96 1.008-2.352 1.664-1.391.64-3.152.64m-4.176-9.984h7.888q-.032-1.296-.48-2.272-.432-.992-1.264-1.552-.815-.56-2-.56-1.647 0-2.832 1.056-1.183 1.056-1.312 3.328m19.524 9.984q-1.761 0-2.688-1.024-.912-1.04-.912-3.008v-9.92h-2.56v-2.784h2.56v-5.216l3.184-1.536v6.752h3.92v2.784h-3.92v9.072q0 1.024.368 1.504.383.48 1.184.48 1.152 0 2.496-.816l-.368 2.976a6.2 6.2 0 0 1-1.536.56 8 8 0 0 1-1.728.176m7.017-.384v-21.632l3.184-1.472v8.416q.768-1.025 1.84-1.536 1.071-.512 2.432-.512 2.047 0 3.328.848 1.296.848 1.888 2.432t.592 3.792v9.664h-3.184v-9.584q0-1.952-.8-3.056-.8-1.12-2.512-1.12-1.793 0-2.688 1.024t-.896 3.088v9.648zm25.055.384q-3.391 0-5.344-2.288-1.952-2.304-1.952-6.256 0-2.64.88-4.56.897-1.92 2.528-2.96 1.649-1.056 3.888-1.056 2.256 0 3.888 1.04 1.649 1.024 2.528 2.944.88 1.92.88 4.56 0 2.656-.896 4.576-.88 1.92-2.512 2.96t-3.888 1.04m0-3.008q1.92 0 2.992-1.472 1.089-1.472 1.088-4.096t-1.088-4.096q-1.072-1.472-2.992-1.472t-3.008 1.472q-1.072 1.472-1.072 4.128 0 2.609 1.072 4.08 1.089 1.456 3.008 1.456m17.784 3.008q-3.12 0-4.928-2.288-1.808-2.304-1.808-6.288 0-2.608.832-4.528t2.336-2.96q1.52-1.056 3.584-1.056 2.336 0 3.952 1.552v-6.448l3.184-1.472V135.5h-3.184v-1.296q-1.472 1.68-3.968 1.68m.48-3.008q1.104 0 2-.496a4.2 4.2 0 0 0 1.488-1.456v-7.312a4.24 4.24 0 0 0-1.52-1.36 3.96 3.96 0 0 0-1.968-.512q-1.92 0-2.96 1.44t-1.04 4.128q0 1.68.496 2.944.496 1.248 1.392 1.936t2.112.688m18.236 3.008q-3.391 0-5.344-2.288-1.952-2.304-1.952-6.256 0-2.64.88-4.56.897-1.92 2.528-2.96 1.649-1.056 3.888-1.056 2.256 0 3.888 1.04 1.649 1.024 2.528 2.944.88 1.92.88 4.56 0 2.656-.896 4.576-.88 1.92-2.512 2.96t-3.888 1.04m0-3.008q1.92 0 2.992-1.472 1.089-1.472 1.088-4.096t-1.088-4.096q-1.072-1.472-2.992-1.472t-3.008 1.472q-1.072 1.472-1.072 4.128 0 2.609 1.072 4.08 1.089 1.456 3.008 1.456m11.73 2.624v-21.632l3.184-1.472V135.5zm14.895.384q-3.391 0-5.344-2.288-1.952-2.304-1.952-6.256 0-2.64.88-4.56.897-1.92 2.528-2.96 1.649-1.056 3.888-1.056 2.256 0 3.888 1.04 1.649 1.024 2.528 2.944.88 1.92.88 4.56 0 2.656-.896 4.576-.88 1.92-2.512 2.96t-3.888 1.04m0-3.008q1.92 0 2.992-1.472 1.089-1.472 1.088-4.096t-1.088-4.096q-1.072-1.472-2.992-1.472t-3.008 1.472q-1.072 1.472-1.072 4.128 0 2.609 1.072 4.08 1.089 1.456 3.008 1.456m17.24 9.44-1.632-2.56q2.24-.144 3.584-.576 1.36-.432 1.968-1.216t.608-1.984v-1.872q-1.392 1.776-3.984 1.776-2.048 0-3.568-1.056t-2.352-2.976q-.816-1.936-.816-4.544t.832-4.528q.848-1.92 2.368-2.96 1.536-1.056 3.616-1.056 1.184 0 2.192.416a4.66 4.66 0 0 1 1.712 1.168v-1.2h3.184v15.568q0 1.888-.448 3.264-.432 1.376-1.376 2.288-.944.928-2.4 1.424t-3.488.624m1.152-9.44q.976 0 1.888-.544a4.36 4.36 0 0 0 1.488-1.472v-7.184q-.512-.847-1.472-1.392t-1.888-.544q-2.016 0-3.088 1.424-1.056 1.424-1.056 4.144 0 1.711.496 2.976.511 1.248 1.44 1.92t2.192.672m13.99 8.832 2.496-6.576-6.08-15.984h3.231l3.889 10.608q.175.4.288.768.111.368.224.8.128-.432.24-.784l.272-.784 3.952-10.608h3.264l-8.528 22.56zm23.975-6.208v-13.568h-2.448v-2.784h2.448v-2.656q0-1.808.96-2.784.96-.992 2.736-.992a7 7 0 0 1 1.68.192 6.3 6.3 0 0 1 1.536.592v2.64a7.6 7.6 0 0 0-1.232-.448 4.4 4.4 0 0 0-1.104-.144q-.72 0-1.056.368-.336.353-.336 1.152v2.08h3.728v2.784h-3.728V135.5zm15.643.384q-3.391 0-5.344-2.288-1.952-2.304-1.952-6.256 0-2.64.88-4.56.897-1.92 2.528-2.96 1.649-1.056 3.888-1.056 2.256 0 3.888 1.04 1.649 1.024 2.528 2.944.88 1.92.88 4.56 0 2.656-.896 4.576-.88 1.92-2.512 2.96t-3.888 1.04m0-3.008q1.92 0 2.992-1.472 1.089-1.472 1.088-4.096t-1.088-4.096q-1.072-1.472-2.992-1.472t-3.008 1.472q-1.072 1.472-1.072 4.128 0 2.609 1.072 4.08 1.089 1.456 3.008 1.456m11.351 2.624v-16.352h3.184v2.016q.528-1.152 1.504-1.776t2.224-.624q1.568 0 2.656.96l-.464 2.96a4 4 0 0 0-1.152-.608 4.1 4.1 0 0 0-1.28-.192q-1.072 0-1.856.56-.768.544-1.2 1.552t-.432 2.384v9.12zm21.35 0v-13.568h-2.448v-2.784h2.448v-2.656q0-1.808.96-2.784.96-.992 2.736-.992a7 7 0 0 1 1.68.192 6.3 6.3 0 0 1 1.536.592v2.64a7.6 7.6 0 0 0-1.232-.448 4.4 4.4 0 0 0-1.104-.144q-.72 0-1.056.368-.336.353-.336 1.152v2.08h3.728v2.784h-3.728V135.5zm10.056 0v-16.352h3.184v2.016q.529-1.152 1.504-1.776.976-.624 2.224-.624 1.569 0 2.656.96l-.464 2.96a4 4 0 0 0-1.152-.608 4.1 4.1 0 0 0-1.28-.192q-1.071 0-1.856.56-.768.544-1.2 1.552t-.432 2.384v9.12zm18.306.384q-3.393 0-5.344-2.288-1.952-2.304-1.952-6.256 0-2.64.88-4.56.896-1.92 2.528-2.96 1.647-1.056 3.888-1.056 2.256 0 3.888 1.04 1.647 1.024 2.528 2.944.88 1.92.88 4.56 0 2.656-.896 4.576-.88 1.92-2.512 2.96t-3.888 1.04m0-3.008q1.92 0 2.992-1.472 1.088-1.472 1.088-4.096t-1.088-4.096q-1.072-1.472-2.992-1.472t-3.008 1.472q-1.072 1.472-1.072 4.128 0 2.609 1.072 4.08 1.088 1.456 3.008 1.456m11.351 2.624v-16.352h3.184v1.632q.768-1.024 1.824-1.52 1.071-.496 2.448-.496 2.895 0 4.352 1.76 1.456 1.76 1.456 5.312v9.664h-3.184v-9.584q0-2.064-.848-3.12-.849-1.056-2.464-1.056-1.792 0-2.688 1.024t-.896 3.088v9.648zm22.451.384q-1.76 0-2.688-1.024-.912-1.04-.912-3.008v-9.92h-2.56v-2.784h2.56v-5.216l3.184-1.536v6.752h3.92v2.784h-3.92v9.072q0 1.024.368 1.504.384.48 1.184.48 1.152 0 2.496-.816l-.368 2.976a6 6 0 0 1-1.536.56 8 8 0 0 1-1.728.176m13.84 0q-2.287 0-3.952-1.088-1.647-1.088-2.544-3.024-.88-1.936-.88-4.464 0-2.688.912-4.592.929-1.92 2.576-2.928 1.665-1.024 3.888-1.024 1.889 0 3.44.832 1.569.816 2.496 2.544.944 1.712.944 4.4 0 .384-.032.928-.015.528-.08 1.088h-10.928q.129 1.36.656 2.4.544 1.024 1.44 1.6.897.576 2.112.576 1.073 0 1.952-.368.88-.384 1.648-1.184l1.856 2q-.96 1.008-2.352 1.664-1.391.64-3.152.64m-4.176-9.984h7.888q-.032-1.296-.48-2.272-.432-.992-1.264-1.552-.815-.56-2-.56-1.647 0-2.832 1.056-1.183 1.056-1.312 3.328m15.416 9.6v-16.352h3.184v1.632q.768-1.024 1.824-1.52 1.071-.496 2.448-.496 2.895 0 4.352 1.76 1.456 1.76 1.456 5.312v9.664h-3.184v-9.584q0-2.064-.848-3.12-.849-1.056-2.464-1.056-1.793 0-2.688 1.024t-.896 3.088v9.648zm24.495.384q-3.12 0-4.928-2.288-1.808-2.304-1.808-6.288 0-2.608.832-4.528.833-1.92 2.336-2.96 1.52-1.056 3.584-1.056 2.337 0 3.952 1.552v-6.448l3.184-1.472V135.5h-3.184v-1.296q-1.472 1.68-3.968 1.68m.48-3.008q1.104 0 2-.496a4.2 4.2 0 0 0 1.488-1.456v-7.312a4.2 4.2 0 0 0-1.52-1.36 3.96 3.96 0 0 0-1.968-.512q-1.92 0-2.96 1.44t-1.04 4.128q0 1.68.496 2.944.496 1.248 1.392 1.936.897.688 2.112.688m19.556 9.12v-22.848h3.184v1.312q1.616-1.696 4-1.696 2.08 0 3.584 1.04 1.52 1.04 2.336 2.96.832 1.92.832 4.544 0 2.608-.848 4.544-.832 1.92-2.352 2.976t-3.568 1.056q-1.248 0-2.24-.448t-1.744-1.376v6.464zm6.736-9.12q1.92 0 2.944-1.44 1.024-1.457 1.024-4.128 0-2.592-1.072-4.08t-2.896-1.488q-1.168 0-2.08.512a3.97 3.97 0 0 0-1.472 1.44v7.232q.704.96 1.6 1.456a4 4 0 0 0 1.952.496m11.264 2.624v-16.352h3.184v2.016q.528-1.152 1.504-1.776t2.224-.624q1.568 0 2.656.96l-.464 2.96a4 4 0 0 0-1.152-.608 4.1 4.1 0 0 0-1.28-.192q-1.072 0-1.856.56-.768.544-1.2 1.552t-.432 2.384v9.12zm18.306.384q-3.393 0-5.344-2.288-1.952-2.304-1.952-6.256 0-2.64.88-4.56.896-1.92 2.528-2.96 1.647-1.056 3.888-1.056 2.256 0 3.888 1.04 1.647 1.024 2.528 2.944.88 1.92.88 4.56 0 2.656-.896 4.576-.88 1.92-2.512 2.96t-3.888 1.04m0-3.008q1.92 0 2.992-1.472 1.088-1.472 1.088-4.096t-1.088-4.096q-1.072-1.472-2.992-1.472t-3.008 1.472q-1.072 1.472-1.072 4.128 0 2.609 1.072 4.08 1.088 1.456 3.008 1.456m8.865 9.472-1.552-2.464q2.368-.432 3.328-1.216.96-.768.96-2.256v-17.264h3.184v16.256q0 3.04-1.44 4.736-1.424 1.712-4.48 2.208m4.336-25.872a1.93 1.93 0 0 1-1.392-.56 1.9 1.9 0 0 1-.56-1.376q0-.816.56-1.392a1.9 1.9 0 0 1 1.392-.576q.816 0 1.376.576.56.56.56 1.392 0 .816-.56 1.376-.544.56-1.376.56m13.254 19.408q-2.289 0-3.952-1.088-1.649-1.088-2.544-3.024-.88-1.936-.88-4.464 0-2.688.912-4.592.927-1.92 2.576-2.928 1.663-1.024 3.888-1.024 1.887 0 3.44.832 1.568.816 2.496 2.544.944 1.712.944 4.4 0 .384-.032.928-.017.528-.08 1.088h-10.928q.128 1.36.656 2.4.543 1.024 1.44 1.6t2.112.576q1.071 0 1.952-.368.88-.384 1.648-1.184l1.856 2q-.96 1.008-2.352 1.664-1.392.64-3.152.64m-4.176-9.984h7.888q-.033-1.296-.48-2.272-.433-.992-1.264-1.552-.816-.56-2-.56-1.649 0-2.832 1.056-1.185 1.056-1.312 3.328m21.76 9.984q-2.16 0-3.728-1.024-1.552-1.04-2.4-2.944-.832-1.92-.832-4.576t.848-4.576q.864-1.92 2.448-2.96 1.583-1.04 3.776-1.04 2.256 0 3.792 1.04 1.551 1.04 2.24 3.056l-3.008 1.056q-.4-1.04-1.168-1.6t-1.824-.56q-1.84 0-2.848 1.456-1.008 1.457-1.008 4.128 0 2.624.992 4.08.992 1.44 2.784 1.44 1.167 0 2-.624.848-.624 1.2-1.792l2.992.96q-.64 2.176-2.256 3.328-1.617 1.152-4 1.152m14.763 0q-1.76 0-2.688-1.024-.912-1.04-.912-3.008v-9.92h-2.56v-2.784h2.56v-5.216l3.184-1.536v6.752h3.92v2.784h-3.92v9.072q0 1.024.368 1.504.384.48 1.184.48 1.152 0 2.496-.816l-.368 2.976a6.2 6.2 0 0 1-1.536.56 8 8 0 0 1-1.728.176m12.354 0c-1.2 0-2.34-.256-3.44-.768-1.09-.512-1.97-1.2-2.66-2.064l2.21-1.872c.57.608 1.2 1.083 1.9 1.424q1.065.496 2.07.496 1.38 0 2.13-.496.75-.512.75-1.408c0-.384-.12-.731-.35-1.04-.23-.32-.61-.624-1.16-.912-.54-.299-1.28-.619-2.2-.96-1.82-.672-3.11-1.397-3.89-2.176q-1.17-1.184-1.17-2.96c0-1.301.52-2.357 1.57-3.168 1.04-.811 2.4-1.216 4.06-1.216 1.15 0 2.21.219 3.17.656a6.8 6.8 0 0 1 2.48 1.872l-2.16 1.776c-.97-1.013-2.14-1.52-3.52-1.52q-1.17 0-1.86.448c-.45.288-.68.688-.68 1.2q0 .752.78 1.312c.52.373 1.48.811 2.86 1.312 1.2.416 2.17.875 2.92 1.376s1.3 1.077 1.64 1.728c.36.64.53 1.381.53 2.224 0 1.472-.53 2.629-1.6 3.472q-1.575 1.264-4.38 1.264"/><defs><linearGradient id="a" x1="2.063" x2="92.762" y1="38.563" y2="105.601" gradientUnits="userSpaceOnUse"><stop stop-color="#29BEDC"/><stop offset="1" stop-color="#517AED"/></linearGradient><linearGradient id="b" x1="2.063" x2="92.762" y1="38.563" y2="105.601" gradientUnits="userSpaceOnUse"><stop stop-color="#29BEDC"/><stop offset="1" stop-color="#517AED"/></linearGradient><linearGradient id="c" x1="2.063" x2="92.762" y1="38.563" y2="105.601" gradientUnits="userSpaceOnUse"><stop stop-color="#29BEDC"/><stop offset="1" stop-color="#517AED"/></linearGradient><linearGradient id="d" x1="2.063" x2="92.762" y1="38.563" y2="105.601" gradientUnits="userSpaceOnUse"><stop stop-color="#29BEDC"/><stop offset="1" stop-color="#517AED"/></linearGradient><linearGradient id="e" x1="2.063" x2="92.762" y1="38.563" y2="105.601" gradientUnits="userSpaceOnUse"><stop stop-color="#29BEDC"/><stop offset="1" stop-color="#517AED"/></linearGradient><linearGradient id="f" x1="2.063" x2="92.762" y1="38.563" y2="105.601" gradientUnits="userSpaceOnUse"><stop stop-color="#29BEDC"/><stop offset="1" stop-color="#517AED"/></linearGradient><linearGradient id="g" x1="2.063" x2="92.762" y1="38.563" y2="105.601" gradientUnits="userSpaceOnUse"><stop stop-color="#29BEDC"/><stop offset="1" stop-color="#517AED"/></linearGradient><linearGradient id="h" x1="2.063" x2="92.762" y1="38.562" y2="105.601" gradientUnits="userSpaceOnUse"><stop stop-color="#29BEDC"/><stop offset="1" stop-color="#517AED"/></linearGradient><linearGradient id="i" x1="107.25" x2="186.86" y1="38.563" y2="81.829" gradientUnits="userSpaceOnUse"><stop stop-color="#29BEDC"/><stop offset="1" stop-color="#517AED"/></linearGradient><linearGradient id="j" x1="92.813" x2="181.765" y1="38.563" y2="100.443" gradientUnits="userSpaceOnUse"><stop stop-color="#29BEDC"/><stop offset="1" stop-color="#517AED"/></linearGradient><linearGradient id="k" x1="122.719" x2="215.488" y1="38.563" y2="113.559" gradientUnits="userSpaceOnUse"><stop stop-color="#29BEDC"/><stop offset="1" stop-color="#517AED"/></linearGradient><linearGradient id="l" x1="101.063" x2="183.899" y1="38.563" y2="87.184" gradientUnits="userSpaceOnUse"><stop stop-color="#29BEDC"/><stop offset="1" stop-color="#517AED"/></linearGradient><linearGradient id="m" x1="88.688" x2="168.298" y1="38.563" y2="81.829" gradientUnits="userSpaceOnUse"><stop stop-color="#29BEDC"/><stop offset="1" stop-color="#517AED"/></linearGradient><linearGradient id="n" x1="88.688" x2="176.749" y1="38.563" y2="168.741" gradientUnits="userSpaceOnUse"><stop stop-color="#29BEDC"/><stop offset="1" stop-color="#517AED"/></linearGradient><linearGradient id="o" x1="88.688" x2="182.587" y1="38.562" y2="147.006" gradientUnits="userSpaceOnUse"><stop stop-color="#29BEDC"/><stop offset="1" stop-color="#517AED"/></linearGradient><linearGradient id="p" x1="88.688" x2="181.457" y1="38.563" y2="113.559" gradientUnits="userSpaceOnUse"><stop stop-color="#29BEDC"/><stop offset="1" stop-color="#517AED"/></linearGradient><linearGradient id="q" x1="175.312" x2="261.276" y1="38.563" y2="173.581" gradientUnits="userSpaceOnUse"><stop stop-color="#29BEDC"/><stop offset="1" stop-color="#517AED"/></linearGradient><linearGradient id="r" x1="175.312" x2="249.169" y1="38.563" y2="73.885" gradientUnits="userSpaceOnUse"><stop stop-color="#29BEDC"/><stop offset="1" stop-color="#517AED"/></linearGradient><linearGradient id="s" x1="175.313" x2="266.012" y1="38.563" y2="105.601" gradientUnits="userSpaceOnUse"><stop stop-color="#29BEDC"/><stop offset="1" stop-color="#517AED"/></linearGradient><linearGradient id="t" x1="175.313" x2="266.012" y1="38.563" y2="105.601" gradientUnits="userSpaceOnUse"><stop stop-color="#29BEDC"/><stop offset="1" stop-color="#517AED"/></linearGradient><linearGradient id="u" x1="175.313" x2="270.175" y1="38.562" y2="134.972" gradientUnits="userSpaceOnUse"><stop stop-color="#29BEDC"/><stop offset="1" stop-color="#517AED"/></linearGradient><linearGradient id="v" x1="175.312" x2="261.276" y1="38.563" y2="173.581" gradientUnits="userSpaceOnUse"><stop stop-color="#29BEDC"/><stop offset="1" stop-color="#517AED"/></linearGradient><linearGradient id="w" x1="175.313" x2="267.13" y1="38.563" y2="157.327" gradientUnits="userSpaceOnUse"><stop stop-color="#29BEDC"/><stop offset="1" stop-color="#517AED"/></linearGradient><linearGradient id="x" x1="175.313" x2="259.588" y1="38.563" y2="89.86" gradientUnits="userSpaceOnUse"><stop stop-color="#29BEDC"/><stop offset="1" stop-color="#517AED"/></linearGradient></defs></svg>