<svg width="180" height="180" viewBox="0 0 180 180" fill="none" xmlns="http://www.w3.org/2000/svg">
<rect x="8" y="34" width="164" height="112" rx="16" fill="white" fill-opacity="0.9"/>
<path d="M92.988 67.6674C88.2666 65.4584 83.2718 63.8887 78.1355 63C77.4958 64.1567 76.7483 65.7124 76.2328 66.95C70.695 66.1173 65.2081 66.1173 59.7721 66.95C59.2569 65.7127 58.4925 64.1567 57.8468 63C52.7055 63.8891 47.7064 65.4628 42.9828 67.679C33.5833 81.8832 31.0352 95.7342 32.3091 109.389C38.5435 114.045 44.5852 116.873 50.5252 118.724C52.0014 116.694 53.3064 114.544 54.4266 112.298C52.2939 111.486 50.2379 110.486 48.283 109.308C48.7975 108.927 49.2998 108.53 49.7893 108.117C61.6349 113.657 74.5058 113.657 86.2102 108.117C86.7018 108.527 87.204 108.924 87.7162 109.308C85.7582 110.489 83.6984 111.491 81.5614 112.304C82.6879 114.559 83.9906 116.711 85.4628 118.729C91.4083 116.879 97.4557 114.051 103.69 109.389C105.185 93.5598 101.137 79.8359 92.988 67.6674ZM56.0405 100.992C52.4845 100.992 49.5682 97.6718 49.5682 93.6292C49.5682 89.5867 52.4223 86.2612 56.0405 86.2612C59.659 86.2612 62.575 89.5808 62.5128 93.6292C62.5185 97.6718 59.659 100.992 56.0405 100.992ZM79.9587 100.992C76.4026 100.992 73.4867 97.6718 73.4867 93.6292C73.4867 89.5867 76.3405 86.2612 79.9587 86.2612C83.5772 86.2612 86.4932 89.5808 86.431 93.6292C86.431 97.6718 83.5772 100.992 79.9587 100.992Z" fill="#5865F2"/>
<path d="M118.232 86V69.2H128.672V71.492H120.656V76.172H125.756V78.464H120.656V83.684H129.188V86H118.232ZM132.67 86V69.2H135.046L142.21 80.468C142.322 80.644 142.438 80.84 142.557 81.056C142.678 81.272 142.794 81.492 142.906 81.716C142.898 81.516 142.886 81.304 142.87 81.08C142.862 80.856 142.858 80.656 142.858 80.48V69.2H145.282V86H143.014L135.718 74.684C135.622 74.516 135.51 74.324 135.382 74.108C135.262 73.892 135.146 73.684 135.034 73.484C135.058 73.668 135.074 73.868 135.082 74.084C135.09 74.3 135.094 74.5 135.094 74.684V86H132.67Z" fill="#191315" fill-opacity="0.54"/>
</svg>
