<svg width="1016" height="180" viewBox="0 0 1016 180" fill="none" xmlns="http://www.w3.org/2000/svg">
<rect x="2.0625" y="38.5625" width="70.125" height="8.25" fill="url(#paint0_linear_411_225)"/>
<rect x="2.0625" y="50.9375" width="70.125" height="8.25" fill="url(#paint1_linear_411_225)"/>
<rect x="2.0625" y="63.3125" width="33" height="8.25" fill="url(#paint2_linear_411_225)"/>
<rect x="2.0625" y="75.6875" width="70.125" height="8.25" fill="url(#paint3_linear_411_225)"/>
<rect x="2.0625" y="88.0625" width="70.125" height="8.25" fill="url(#paint4_linear_411_225)"/>
<rect x="2.0625" y="100.438" width="33" height="8.25" fill="url(#paint5_linear_411_225)"/>
<rect x="2.0625" y="112.812" width="33" height="8.25" fill="url(#paint6_linear_411_225)"/>
<rect x="2.0625" y="125.188" width="33" height="8.25" fill="url(#paint7_linear_411_225)"/>
<rect x="107.25" y="38.5625" width="51.5625" height="8.25" fill="url(#paint8_linear_411_225)"/>
<rect x="92.8125" y="50.9375" width="66" height="8.25" fill="url(#paint9_linear_411_225)"/>
<rect x="122.719" y="100.438" width="36.0938" height="8.25" fill="url(#paint10_linear_411_225)"/>
<rect x="101.062" y="88.0625" width="55.6875" height="8.25" fill="url(#paint11_linear_411_225)"/>
<rect x="88.6875" y="75.6875" width="51.5625" height="8.25" fill="url(#paint12_linear_411_225)"/>
<rect x="88.6875" y="112.812" width="66" height="8.25" fill="url(#paint13_linear_411_225)"/>
<rect x="88.6875" y="125.188" width="51.5625" height="8.25" fill="url(#paint14_linear_411_225)"/>
<rect x="88.6875" y="63.3125" width="36.0938" height="8.25" fill="url(#paint15_linear_411_225)"/>
<rect x="175.312" y="63.3125" width="70.125" height="8.25" fill="url(#paint16_linear_411_225)"/>
<rect x="175.312" y="38.5625" width="45.375" height="8.25" fill="url(#paint17_linear_411_225)"/>
<rect x="175.312" y="75.6875" width="70.125" height="8.25" fill="url(#paint18_linear_411_225)"/>
<rect x="175.312" y="88.0625" width="70.125" height="8.25" fill="url(#paint19_linear_411_225)"/>
<rect x="175.312" y="125.188" width="45.375" height="8.25" fill="url(#paint20_linear_411_225)"/>
<rect x="175.312" y="100.438" width="70.125" height="8.25" fill="url(#paint21_linear_411_225)"/>
<rect x="175.312" y="112.812" width="57.75" height="8.25" fill="url(#paint22_linear_411_225)"/>
<rect x="175.312" y="50.9375" width="57.75" height="8.25" fill="url(#paint23_linear_411_225)"/>
<path d="M320.316 78.5V42.1H344.522V48.496H327.05V56.504H338.23V62.9H327.05V78.5H320.316ZM357.002 79.124C354.454 79.124 352.253 78.552 350.398 77.408C348.561 76.264 347.139 74.652 346.134 72.572C345.146 70.4747 344.652 68.0133 344.652 65.188C344.652 62.328 345.155 59.858 346.16 57.778C347.183 55.698 348.613 54.1033 350.45 52.994C352.305 51.8673 354.489 51.304 357.002 51.304C359.151 51.304 361.101 51.7547 362.852 52.656C364.603 53.5573 365.998 54.944 367.038 56.816C368.078 58.6707 368.598 61.0367 368.598 63.914C368.598 64.3647 368.581 64.9193 368.546 65.578C368.529 66.2193 368.485 66.8693 368.416 67.528H351.074C351.143 68.7413 351.421 69.8073 351.906 70.726C352.409 71.6273 353.093 72.3293 353.96 72.832C354.827 73.3347 355.849 73.586 357.028 73.586C358.293 73.586 359.394 73.378 360.33 72.962C361.266 72.5287 362.15 71.844 362.982 70.908L366.726 74.782C365.582 76.082 364.204 77.1307 362.592 77.928C360.98 78.7253 359.117 79.124 357.002 79.124ZM351.1 62.458H362.306C362.219 61.2967 361.959 60.3 361.526 59.468C361.093 58.6187 360.486 57.9687 359.706 57.518C358.926 57.0673 357.981 56.842 356.872 56.842C355.347 56.842 354.047 57.31 352.972 58.246C351.897 59.182 351.273 60.586 351.1 62.458ZM382.599 79.124C379.705 79.124 377.408 78.344 375.709 76.784C374.028 75.2067 373.187 73.0747 373.187 70.388C373.187 68.6547 373.621 67.138 374.487 65.838C375.371 64.5207 376.593 63.5067 378.153 62.796C379.731 62.068 381.568 61.704 383.665 61.704C384.827 61.704 385.945 61.8167 387.019 62.042C388.111 62.25 389.065 62.5533 389.879 62.952V61.288C389.879 59.7973 389.455 58.6793 388.605 57.934C387.773 57.1713 386.543 56.79 384.913 56.79C383.613 56.79 382.279 57.024 380.909 57.492C379.54 57.96 378.153 58.6533 376.749 59.572L374.799 54.45C376.325 53.4447 378.023 52.6733 379.895 52.136C381.767 51.5813 383.657 51.304 385.563 51.304C389.134 51.304 391.803 52.1533 393.571 53.852C395.339 55.5333 396.223 58.0467 396.223 61.392V78.5H389.879V76.368C388.978 77.2693 387.903 77.954 386.655 78.422C385.425 78.89 384.073 79.124 382.599 79.124ZM384.107 73.638C385.182 73.638 386.213 73.43 387.201 73.014C388.207 72.5807 389.099 71.974 389.879 71.194V68.048C389.134 67.684 388.302 67.4067 387.383 67.216C386.482 67.008 385.581 66.904 384.679 66.904C383.067 66.904 381.793 67.216 380.857 67.84C379.939 68.4467 379.479 69.296 379.479 70.388C379.479 71.4107 379.887 72.208 380.701 72.78C381.516 73.352 382.651 73.638 384.107 73.638ZM410.679 79.124C408.564 79.124 406.978 78.5433 405.921 77.382C404.864 76.2207 404.335 74.4873 404.335 72.182V57.622H400.461V51.928H404.335V44.05L410.783 40.956V51.928H416.815V57.622H410.783V71.012C410.783 71.844 410.948 72.4593 411.277 72.858C411.624 73.2567 412.161 73.456 412.889 73.456C414.172 73.456 415.576 73.0573 417.101 72.26L416.347 77.928C415.55 78.3267 414.683 78.6213 413.747 78.812C412.811 79.02 411.788 79.124 410.679 79.124ZM433.079 79.124C430.115 79.124 427.819 78.2053 426.189 76.368C424.56 74.5133 423.745 71.896 423.745 68.516V51.928H430.245V66.488C430.245 68.724 430.627 70.3533 431.389 71.376C432.152 72.3987 433.357 72.91 435.003 72.91C436.771 72.91 438.071 72.3987 438.903 71.376C439.753 70.336 440.177 68.7413 440.177 66.592V51.928H446.651V78.5H440.177V76.004C439.363 77.044 438.357 77.824 437.161 78.344C435.983 78.864 434.622 79.124 433.079 79.124ZM454.829 78.5V51.928H461.329V54.788C461.815 53.7653 462.577 52.9333 463.617 52.292C464.657 51.6333 465.749 51.304 466.893 51.304C468.783 51.304 470.377 51.954 471.677 53.254L470.767 59.208C470.057 58.6187 469.363 58.2027 468.687 57.96C468.011 57.7173 467.266 57.596 466.451 57.596C465.377 57.596 464.458 57.8473 463.695 58.35C462.933 58.8527 462.343 59.5807 461.927 60.534C461.529 61.4873 461.329 62.6313 461.329 63.966V78.5H454.829ZM486.037 79.124C483.489 79.124 481.288 78.552 479.433 77.408C477.596 76.264 476.174 74.652 475.169 72.572C474.181 70.4747 473.687 68.0133 473.687 65.188C473.687 62.328 474.19 59.858 475.195 57.778C476.218 55.698 477.648 54.1033 479.485 52.994C481.34 51.8673 483.524 51.304 486.037 51.304C488.186 51.304 490.136 51.7547 491.887 52.656C493.638 53.5573 495.033 54.944 496.073 56.816C497.113 58.6707 497.633 61.0367 497.633 63.914C497.633 64.3647 497.616 64.9193 497.581 65.578C497.564 66.2193 497.52 66.8693 497.451 67.528H480.109C480.178 68.7413 480.456 69.8073 480.941 70.726C481.444 71.6273 482.128 72.3293 482.995 72.832C483.862 73.3347 484.884 73.586 486.063 73.586C487.328 73.586 488.429 73.378 489.365 72.962C490.301 72.5287 491.185 71.844 492.017 70.908L495.761 74.782C494.617 76.082 493.239 77.1307 491.627 77.928C490.015 78.7253 488.152 79.124 486.037 79.124ZM480.135 62.458H491.341C491.254 61.2967 490.994 60.3 490.561 59.468C490.128 58.6187 489.521 57.9687 488.741 57.518C487.961 57.0673 487.016 56.842 485.907 56.842C484.382 56.842 483.082 57.31 482.007 58.246C480.932 59.182 480.308 60.586 480.135 62.458ZM504.494 66.228V60.014H517.962V66.228H504.494ZM537.481 79.124C535.21 79.124 533.147 78.7253 531.293 77.928C529.438 77.1307 527.843 76.004 526.509 74.548C525.191 73.0747 524.203 71.3413 523.545 69.348L529.655 67.086C530.435 68.75 531.518 70.1193 532.905 71.194C534.309 72.2513 535.886 72.78 537.637 72.78C539.491 72.78 540.965 72.39 542.057 71.61C543.166 70.83 543.721 69.6947 543.721 68.204C543.721 67.1813 543.391 66.332 542.733 65.656C542.091 64.9627 541.216 64.3733 540.107 63.888C539.015 63.3853 537.775 62.9 536.389 62.432C535.054 61.9813 533.711 61.4787 532.359 60.924C531.007 60.3693 529.767 59.6933 528.641 58.896C527.514 58.0813 526.604 57.0587 525.911 55.828C525.235 54.5973 524.897 53.0893 524.897 51.304C524.897 49.5187 525.373 47.8807 526.327 46.39C527.28 44.8993 528.658 43.712 530.461 42.828C532.281 41.9267 534.482 41.476 537.065 41.476C539.179 41.476 541.051 41.84 542.681 42.568C544.327 43.2787 545.688 44.2493 546.763 45.48C547.837 46.7107 548.583 48.106 548.999 49.666L542.967 51.668C542.481 50.576 541.736 49.666 540.731 48.938C539.743 48.1927 538.399 47.82 536.701 47.82C535.106 47.82 533.867 48.132 532.983 48.756C532.099 49.38 531.657 50.264 531.657 51.408C531.657 52.188 531.951 52.8553 532.541 53.41C533.147 53.9473 533.953 54.4327 534.959 54.866C535.981 55.2993 537.134 55.7413 538.417 56.192C539.855 56.6773 541.285 57.232 542.707 57.856C544.145 58.4627 545.445 59.208 546.607 60.092C547.785 60.976 548.73 62.0767 549.441 63.394C550.151 64.694 550.507 66.2887 550.507 68.178C550.507 70.5007 549.926 72.4767 548.765 74.106C547.621 75.7353 546.069 76.9833 544.111 77.85C542.152 78.6993 539.942 79.124 537.481 79.124ZM557.515 78.5V43.894L564.015 40.956V78.5H557.515ZM572.44 78.5V51.928H578.94V78.5H572.44ZM575.69 48.6C574.65 48.6 573.749 48.2273 572.986 47.482C572.241 46.7193 571.868 45.818 571.868 44.778C571.868 43.738 572.241 42.854 572.986 42.126C573.731 41.3807 574.633 41.008 575.69 41.008C576.782 41.008 577.692 41.372 578.42 42.1C579.148 42.828 579.512 43.7207 579.512 44.778C579.512 45.8353 579.139 46.7367 578.394 47.482C577.666 48.2273 576.765 48.6 575.69 48.6ZM597.645 79.124C595.201 79.124 593.086 78.5607 591.301 77.434C589.515 76.3073 588.137 74.7127 587.167 72.65C586.196 70.57 585.711 68.1 585.711 65.24C585.711 62.38 586.196 59.91 587.167 57.83C588.155 55.75 589.55 54.1467 591.353 53.02C593.155 51.876 595.279 51.304 597.723 51.304C600.479 51.304 602.767 51.9453 604.587 53.228C606.424 54.4933 607.75 56.374 608.565 58.87L602.403 60.95C601.987 59.8407 601.38 58.9913 600.583 58.402C599.785 57.7953 598.867 57.492 597.827 57.492C596.145 57.492 594.802 58.1853 593.797 59.572C592.809 60.9587 592.315 62.848 592.315 65.24C592.315 67.5973 592.8 69.4693 593.771 70.856C594.741 72.2427 596.05 72.936 597.697 72.936C598.858 72.936 599.846 72.6067 600.661 71.948C601.493 71.2893 602.108 70.3273 602.507 69.062L608.643 70.908C607.863 73.6293 606.537 75.6833 604.665 77.07C602.81 78.4393 600.47 79.124 597.645 79.124ZM626.092 79.124C623.544 79.124 621.343 78.552 619.488 77.408C617.651 76.264 616.229 74.652 615.224 72.572C614.236 70.4747 613.742 68.0133 613.742 65.188C613.742 62.328 614.245 59.858 615.25 57.778C616.273 55.698 617.703 54.1033 619.54 52.994C621.395 51.8673 623.579 51.304 626.092 51.304C628.241 51.304 630.191 51.7547 631.942 52.656C633.693 53.5573 635.088 54.944 636.128 56.816C637.168 58.6707 637.688 61.0367 637.688 63.914C637.688 64.3647 637.671 64.9193 637.636 65.578C637.619 66.2193 637.575 66.8693 637.506 67.528H620.164C620.233 68.7413 620.511 69.8073 620.996 70.726C621.499 71.6273 622.183 72.3293 623.05 72.832C623.917 73.3347 624.939 73.586 626.118 73.586C627.383 73.586 628.484 73.378 629.42 72.962C630.356 72.5287 631.24 71.844 632.072 70.908L635.816 74.782C634.672 76.082 633.294 77.1307 631.682 77.928C630.07 78.7253 628.207 79.124 626.092 79.124ZM620.19 62.458H631.396C631.309 61.2967 631.049 60.3 630.616 59.468C630.183 58.6187 629.576 57.9687 628.796 57.518C628.016 57.0673 627.071 56.842 625.962 56.842C624.437 56.842 623.137 57.31 622.062 58.246C620.987 59.182 620.363 60.586 620.19 62.458ZM654.547 79.124C651.133 79.124 648.455 77.8933 646.513 75.432C644.572 72.9707 643.601 69.556 643.601 65.188C643.601 62.4147 644.061 59.988 644.979 57.908C645.898 55.828 647.181 54.2073 648.827 53.046C650.491 51.8847 652.424 51.304 654.625 51.304C656.983 51.304 658.915 52.1707 660.423 53.904V43.894L666.897 40.956V78.5H660.423V76.316C659.141 78.188 657.182 79.124 654.547 79.124ZM655.613 72.91C656.723 72.91 657.667 72.7193 658.447 72.338C659.227 71.9393 659.886 71.35 660.423 70.57V59.832C659.886 59.104 659.184 58.532 658.317 58.116C657.468 57.7 656.567 57.492 655.613 57.492C653.863 57.492 652.511 58.1593 651.557 59.494C650.604 60.8113 650.127 62.7093 650.127 65.188C650.127 66.8173 650.344 68.2127 650.777 69.374C651.211 70.518 651.835 71.3933 652.649 72C653.464 72.6067 654.452 72.91 655.613 72.91ZM688.277 78.5V42.1H700.549C703.704 42.1 706.39 42.62 708.609 43.66C710.828 44.6827 712.622 46.0693 713.991 47.82C715.378 49.5533 716.383 51.5033 717.007 53.67C717.648 55.8193 717.969 58.0293 717.969 60.3C717.969 62.38 717.666 64.486 717.059 66.618C716.47 68.75 715.499 70.7173 714.147 72.52C712.795 74.3053 710.984 75.7527 708.713 76.862C706.46 77.954 703.669 78.5 700.341 78.5H688.277ZM695.011 72.104H701.043C702.898 72.104 704.458 71.7573 705.723 71.064C706.988 70.3533 708.002 69.426 708.765 68.282C709.545 67.1207 710.108 65.8467 710.455 64.46C710.819 63.056 711.001 61.6693 711.001 60.3C711.001 58.844 710.819 57.414 710.455 56.01C710.091 54.606 709.528 53.332 708.765 52.188C708.002 51.044 707.032 50.134 705.853 49.458C704.674 48.782 703.262 48.444 701.615 48.444H695.011V72.104ZM735.119 79.124C732.571 79.124 730.37 78.552 728.515 77.408C726.678 76.264 725.257 74.652 724.251 72.572C723.263 70.4747 722.769 68.0133 722.769 65.188C722.769 62.328 723.272 59.858 724.277 57.778C725.3 55.698 726.73 54.1033 728.567 52.994C730.422 51.8673 732.606 51.304 735.119 51.304C737.269 51.304 739.219 51.7547 740.969 52.656C742.72 53.5573 744.115 54.944 745.155 56.816C746.195 58.6707 746.715 61.0367 746.715 63.914C746.715 64.3647 746.698 64.9193 746.663 65.578C746.646 66.2193 746.603 66.8693 746.533 67.528H729.191C729.261 68.7413 729.538 69.8073 730.023 70.726C730.526 71.6273 731.211 72.3293 732.077 72.832C732.944 73.3347 733.967 73.586 735.145 73.586C736.411 73.586 737.511 73.378 738.447 72.962C739.383 72.5287 740.267 71.844 741.099 70.908L744.843 74.782C743.699 76.082 742.321 77.1307 740.709 77.928C739.097 78.7253 737.234 79.124 735.119 79.124ZM729.217 62.458H740.423C740.337 61.2967 740.077 60.3 739.643 59.468C739.21 58.6187 738.603 57.9687 737.823 57.518C737.043 57.0673 736.099 56.842 734.989 56.842C733.464 56.842 732.164 57.31 731.089 58.246C730.015 59.182 729.391 60.586 729.217 62.458ZM761.345 79.124C759.265 79.124 757.272 78.682 755.365 77.798C753.476 76.914 751.977 75.7267 750.867 74.236L755.131 70.648C756.015 71.584 757.038 72.3293 758.199 72.884C759.361 73.4213 760.47 73.69 761.527 73.69C762.845 73.69 763.859 73.4733 764.569 73.04C765.28 72.5893 765.635 71.9653 765.635 71.168C765.635 70.648 765.462 70.1887 765.115 69.79C764.786 69.374 764.197 68.958 763.347 68.542C762.498 68.1087 761.302 67.6147 759.759 67.06C756.778 65.968 754.663 64.7893 753.415 63.524C752.167 62.2413 751.543 60.6207 751.543 58.662C751.543 56.478 752.427 54.71 754.195 53.358C755.963 51.9887 758.269 51.304 761.111 51.304C763.053 51.304 764.838 51.668 766.467 52.396C768.114 53.124 769.527 54.19 770.705 55.594L766.467 59.104C764.907 57.5267 763.087 56.738 761.007 56.738C759.95 56.738 759.101 56.9373 758.459 57.336C757.818 57.7173 757.497 58.2373 757.497 58.896C757.497 59.5373 757.87 60.1093 758.615 60.612C759.378 61.1147 760.791 61.704 762.853 62.38C764.899 63.0213 766.554 63.7493 767.819 64.564C769.102 65.3787 770.038 66.3233 770.627 67.398C771.234 68.4727 771.537 69.712 771.537 71.116C771.537 73.612 770.627 75.5707 768.807 76.992C767.005 78.4133 764.517 79.124 761.345 79.124ZM778.307 78.5V51.928H784.807V78.5H778.307ZM781.557 48.6C780.517 48.6 779.616 48.2273 778.853 47.482C778.108 46.7193 777.735 45.818 777.735 44.778C777.735 43.738 778.108 42.854 778.853 42.126C779.599 41.3807 780.5 41.008 781.557 41.008C782.649 41.008 783.559 41.372 784.287 42.1C785.015 42.828 785.379 43.7207 785.379 44.778C785.379 45.8353 785.007 46.7367 784.261 47.482C783.533 48.2273 782.632 48.6 781.557 48.6ZM802.368 89.576L798.78 84.142C801.31 83.9513 803.269 83.6653 804.656 83.284C806.06 82.9027 807.039 82.3567 807.594 81.646C808.148 80.9353 808.426 80.008 808.426 78.864V76.94C807.074 78.396 805.167 79.124 802.706 79.124C800.4 79.124 798.416 78.5693 796.752 77.46C795.088 76.3333 793.805 74.73 792.904 72.65C792.02 70.5527 791.578 68.0653 791.578 65.188C791.578 62.38 792.037 59.936 792.956 57.856C793.892 55.776 795.192 54.164 796.856 53.02C798.537 51.876 800.504 51.304 802.758 51.304C803.936 51.304 805.011 51.486 805.982 51.85C806.97 52.214 807.784 52.7427 808.426 53.436V51.928H814.9V76.108C814.9 78.4653 814.683 80.4587 814.25 82.088C813.816 83.7173 813.106 85.052 812.118 86.092C811.147 87.132 809.864 87.9207 808.27 88.458C806.675 89.0127 804.708 89.3853 802.368 89.576ZM803.772 72.91C804.69 72.91 805.548 72.702 806.346 72.286C807.16 71.8527 807.854 71.272 808.426 70.544V59.832C807.94 59.156 807.273 58.6013 806.424 58.168C805.574 57.7173 804.716 57.492 803.85 57.492C801.978 57.492 800.548 58.1507 799.56 59.468C798.589 60.768 798.104 62.6747 798.104 65.188C798.104 66.8173 798.32 68.2127 798.754 69.374C799.204 70.518 799.854 71.3933 800.704 72C801.553 72.6067 802.576 72.91 803.772 72.91ZM823.044 78.5V51.928H829.544V54.476C830.394 53.4187 831.408 52.63 832.586 52.11C833.782 51.5727 835.143 51.304 836.668 51.304C839.632 51.304 841.92 52.2227 843.532 54.06C845.144 55.88 845.95 58.506 845.95 61.938V78.5H839.476V63.94C839.476 61.704 839.086 60.0747 838.306 59.052C837.544 58.012 836.348 57.492 834.718 57.492C832.95 57.492 831.642 58.012 830.792 59.052C829.96 60.0747 829.544 61.6693 829.544 63.836V78.5H823.044Z" fill="#191315" fill-opacity="0.92"/>
<path d="M317.408 135.5L325.536 113.1H328.576L336.72 135.5H333.344L331.472 130.268H322.688L320.848 135.5H317.408ZM323.68 127.372H330.432L327.76 119.836C327.685 119.633 327.605 119.404 327.52 119.148C327.435 118.881 327.349 118.62 327.264 118.364C327.179 118.108 327.115 117.884 327.072 117.692C327.019 117.884 326.949 118.108 326.864 118.364C326.789 118.62 326.709 118.881 326.624 119.148C326.539 119.404 326.459 119.633 326.384 119.836L323.68 127.372ZM340.733 135.5V119.148H343.917V121.164C344.269 120.396 344.77 119.804 345.421 119.388C346.072 118.972 346.813 118.764 347.645 118.764C348.69 118.764 349.576 119.084 350.301 119.724L349.837 122.684C349.464 122.407 349.08 122.204 348.685 122.076C348.29 121.948 347.864 121.884 347.405 121.884C346.69 121.884 346.072 122.071 345.549 122.444C345.037 122.807 344.637 123.324 344.349 123.996C344.061 124.668 343.917 125.463 343.917 126.38V135.5H340.733ZM358.703 135.884C357.263 135.884 356.02 135.543 354.975 134.86C353.94 134.167 353.14 133.185 352.575 131.916C352.02 130.636 351.743 129.111 351.743 127.34C351.743 125.569 352.025 124.044 352.591 122.764C353.167 121.484 353.983 120.497 355.039 119.804C356.095 119.111 357.353 118.764 358.815 118.764C360.319 118.764 361.583 119.111 362.607 119.804C363.641 120.497 364.388 121.516 364.847 122.86L361.839 123.916C361.572 123.223 361.183 122.689 360.671 122.316C360.159 121.943 359.551 121.756 358.847 121.756C357.62 121.756 356.671 122.241 355.999 123.212C355.327 124.183 354.991 125.559 354.991 127.34C354.991 129.089 355.321 130.449 355.983 131.42C356.644 132.38 357.572 132.86 358.767 132.86C359.545 132.86 360.212 132.652 360.767 132.236C361.332 131.82 361.732 131.223 361.967 130.444L364.959 131.404C364.532 132.855 363.78 133.964 362.703 134.732C361.625 135.5 360.292 135.884 358.703 135.884ZM369.108 135.5V113.868L372.292 112.396V120.812C372.804 120.129 373.417 119.617 374.132 119.276C374.847 118.935 375.657 118.764 376.564 118.764C377.929 118.764 379.039 119.047 379.892 119.612C380.756 120.177 381.385 120.988 381.78 122.044C382.175 123.1 382.372 124.364 382.372 125.836V135.5H379.188V125.916C379.188 124.615 378.921 123.596 378.388 122.86C377.855 122.113 377.017 121.74 375.876 121.74C374.681 121.74 373.785 122.081 373.188 122.764C372.591 123.447 372.292 124.476 372.292 125.852V135.5H369.108ZM387.453 135.5V119.148H390.637V135.5H387.453ZM389.036 116.476C388.503 116.476 388.045 116.289 387.661 115.916C387.287 115.532 387.101 115.073 387.101 114.54C387.101 113.996 387.287 113.532 387.661 113.148C388.034 112.764 388.493 112.572 389.036 112.572C389.591 112.572 390.055 112.764 390.429 113.148C390.802 113.532 390.989 113.996 390.989 114.54C390.989 115.084 390.802 115.543 390.429 115.916C390.055 116.289 389.591 116.476 389.036 116.476ZM400.466 135.884C399.293 135.884 398.397 135.543 397.778 134.86C397.17 134.167 396.866 133.164 396.866 131.852V121.932H394.306V119.148H396.866V113.932L400.05 112.396V119.148H403.97V121.932H400.05V131.004C400.05 131.687 400.173 132.188 400.418 132.508C400.674 132.828 401.069 132.988 401.602 132.988C402.37 132.988 403.202 132.716 404.098 132.172L403.73 135.148C403.239 135.404 402.727 135.591 402.194 135.708C401.661 135.825 401.085 135.884 400.466 135.884ZM414.306 135.884C412.781 135.884 411.463 135.521 410.354 134.796C409.255 134.071 408.407 133.063 407.81 131.772C407.223 130.481 406.93 128.993 406.93 127.308C406.93 125.516 407.234 123.985 407.842 122.716C408.461 121.436 409.319 120.46 410.418 119.788C411.527 119.105 412.823 118.764 414.306 118.764C415.565 118.764 416.711 119.041 417.746 119.596C418.791 120.14 419.623 120.988 420.242 122.14C420.871 123.281 421.186 124.748 421.186 126.54C421.186 126.796 421.175 127.105 421.154 127.468C421.143 127.82 421.117 128.183 421.074 128.556H410.146C410.231 129.463 410.45 130.263 410.802 130.956C411.165 131.639 411.645 132.172 412.242 132.556C412.839 132.94 413.543 133.132 414.354 133.132C415.069 133.132 415.719 133.009 416.306 132.764C416.893 132.508 417.442 132.113 417.954 131.58L419.81 133.58C419.17 134.252 418.386 134.807 417.458 135.244C416.53 135.671 415.479 135.884 414.306 135.884ZM410.13 125.9H418.018C417.997 125.036 417.837 124.279 417.538 123.628C417.25 122.967 416.829 122.449 416.274 122.076C415.73 121.703 415.063 121.516 414.274 121.516C413.175 121.516 412.231 121.868 411.442 122.572C410.653 123.276 410.215 124.385 410.13 125.9ZM431.89 135.884C430.45 135.884 429.207 135.543 428.162 134.86C427.127 134.167 426.327 133.185 425.762 131.916C425.207 130.636 424.93 129.111 424.93 127.34C424.93 125.569 425.213 124.044 425.778 122.764C426.354 121.484 427.17 120.497 428.226 119.804C429.282 119.111 430.541 118.764 432.002 118.764C433.506 118.764 434.77 119.111 435.794 119.804C436.829 120.497 437.575 121.516 438.034 122.86L435.026 123.916C434.759 123.223 434.37 122.689 433.858 122.316C433.346 121.943 432.738 121.756 432.034 121.756C430.807 121.756 429.858 122.241 429.186 123.212C428.514 124.183 428.178 125.559 428.178 127.34C428.178 129.089 428.509 130.449 429.17 131.42C429.831 132.38 430.759 132.86 431.954 132.86C432.733 132.86 433.399 132.652 433.954 132.236C434.519 131.82 434.919 131.223 435.154 130.444L438.146 131.404C437.719 132.855 436.967 133.964 435.89 134.732C434.813 135.5 433.479 135.884 431.89 135.884ZM446.654 135.884C445.48 135.884 444.584 135.543 443.966 134.86C443.358 134.167 443.054 133.164 443.054 131.852V121.932H440.493V119.148H443.054V113.932L446.238 112.396V119.148H450.158V121.932H446.238V131.004C446.238 131.687 446.36 132.188 446.606 132.508C446.862 132.828 447.256 132.988 447.79 132.988C448.558 132.988 449.39 132.716 450.286 132.172L449.918 135.148C449.427 135.404 448.915 135.591 448.382 135.708C447.848 135.825 447.272 135.884 446.654 135.884ZM459.601 135.884C457.649 135.884 456.183 135.297 455.201 134.124C454.22 132.951 453.729 131.191 453.729 128.844V119.148H456.913V128.7C456.913 130.087 457.191 131.132 457.745 131.836C458.311 132.529 459.143 132.876 460.241 132.876C461.436 132.876 462.327 132.535 462.913 131.852C463.511 131.159 463.809 130.129 463.809 128.764V119.148H466.993V135.5H463.809V133.948C463.297 134.609 462.7 135.1 462.017 135.42C461.335 135.729 460.529 135.884 459.601 135.884ZM472.358 135.5V119.148H475.542V121.164C475.894 120.396 476.395 119.804 477.046 119.388C477.697 118.972 478.438 118.764 479.27 118.764C480.315 118.764 481.201 119.084 481.926 119.724L481.462 122.684C481.089 122.407 480.705 122.204 480.31 122.076C479.915 121.948 479.489 121.884 479.03 121.884C478.315 121.884 477.697 122.071 477.174 122.444C476.662 122.807 476.262 123.324 475.974 123.996C475.686 124.668 475.542 125.463 475.542 126.38V135.5H472.358ZM489.345 135.884C487.563 135.884 486.161 135.399 485.137 134.428C484.123 133.447 483.617 132.113 483.617 130.428C483.617 129.34 483.873 128.391 484.385 127.58C484.897 126.769 485.617 126.145 486.545 125.708C487.483 125.26 488.582 125.036 489.841 125.036C490.609 125.036 491.334 125.116 492.017 125.276C492.71 125.436 493.345 125.676 493.921 125.996V124.892C493.921 123.74 493.643 122.892 493.089 122.348C492.534 121.793 491.686 121.516 490.545 121.516C489.755 121.516 488.939 121.66 488.097 121.948C487.265 122.236 486.459 122.641 485.681 123.164L484.753 120.556C485.617 119.991 486.587 119.553 487.665 119.244C488.753 118.924 489.835 118.764 490.913 118.764C492.939 118.764 494.454 119.265 495.457 120.268C496.47 121.271 496.977 122.769 496.977 124.764V135.5H493.921V134.06C493.313 134.647 492.614 135.1 491.825 135.42C491.035 135.729 490.209 135.884 489.345 135.884ZM489.921 133.132C490.646 133.132 491.355 132.967 492.049 132.636C492.753 132.295 493.377 131.82 493.921 131.212V128.684C493.409 128.385 492.827 128.151 492.177 127.98C491.526 127.809 490.902 127.724 490.305 127.724C489.174 127.724 488.283 127.969 487.633 128.46C486.982 128.94 486.657 129.601 486.657 130.444C486.657 131.276 486.945 131.932 487.521 132.412C488.097 132.892 488.897 133.132 489.921 133.132ZM501.893 135.5V113.868L505.077 112.396V135.5H501.893ZM518.108 135.5V119.148H521.292V120.684C521.783 120.044 522.38 119.564 523.084 119.244C523.799 118.924 524.599 118.764 525.484 118.764C526.444 118.764 527.297 118.972 528.044 119.388C528.791 119.793 529.367 120.375 529.772 121.132C530.295 120.375 530.972 119.793 531.804 119.388C532.636 118.972 533.569 118.764 534.604 118.764C536.439 118.764 537.873 119.308 538.908 120.396C539.943 121.473 540.46 122.977 540.46 124.908V135.5H537.276V125.9C537.276 124.535 537.009 123.5 536.476 122.796C535.953 122.092 535.185 121.74 534.172 121.74C533.489 121.74 532.897 121.911 532.396 122.252C531.905 122.583 531.527 123.068 531.26 123.708C530.993 124.337 530.86 125.084 530.86 125.948V135.5H527.676V125.9C527.676 124.513 527.42 123.473 526.908 122.78C526.396 122.087 525.623 121.74 524.588 121.74C523.543 121.74 522.732 122.097 522.156 122.812C521.58 123.527 521.292 124.54 521.292 125.852V135.5H518.108ZM552.337 135.884C550.812 135.884 549.495 135.521 548.385 134.796C547.287 134.071 546.439 133.063 545.841 131.772C545.255 130.481 544.961 128.993 544.961 127.308C544.961 125.516 545.265 123.985 545.873 122.716C546.492 121.436 547.351 120.46 548.449 119.788C549.559 119.105 550.855 118.764 552.337 118.764C553.596 118.764 554.743 119.041 555.777 119.596C556.823 120.14 557.655 120.988 558.273 122.14C558.903 123.281 559.217 124.748 559.217 126.54C559.217 126.796 559.207 127.105 559.185 127.468C559.175 127.82 559.148 128.183 559.105 128.556H548.177C548.263 129.463 548.481 130.263 548.833 130.956C549.196 131.639 549.676 132.172 550.273 132.556C550.871 132.94 551.575 133.132 552.385 133.132C553.1 133.132 553.751 133.009 554.337 132.764C554.924 132.508 555.473 132.113 555.985 131.58L557.841 133.58C557.201 134.252 556.417 134.807 555.489 135.244C554.561 135.671 553.511 135.884 552.337 135.884ZM548.161 125.9H556.049C556.028 125.036 555.868 124.279 555.569 123.628C555.281 122.967 554.86 122.449 554.305 122.076C553.761 121.703 553.095 121.516 552.305 121.516C551.207 121.516 550.263 121.868 549.473 122.572C548.684 123.276 548.247 124.385 548.161 125.9ZM567.685 135.884C566.511 135.884 565.615 135.543 564.997 134.86C564.389 134.167 564.085 133.164 564.085 131.852V121.932H561.525V119.148H564.085V113.932L567.269 112.396V119.148H571.189V121.932H567.269V131.004C567.269 131.687 567.391 132.188 567.637 132.508C567.893 132.828 568.287 132.988 568.821 132.988C569.589 132.988 570.421 132.716 571.317 132.172L570.949 135.148C570.458 135.404 569.946 135.591 569.413 135.708C568.879 135.825 568.303 135.884 567.685 135.884ZM574.702 135.5V113.868L577.886 112.396V120.812C578.398 120.129 579.011 119.617 579.726 119.276C580.44 118.935 581.251 118.764 582.158 118.764C583.523 118.764 584.632 119.047 585.486 119.612C586.35 120.177 586.979 120.988 587.374 122.044C587.768 123.1 587.966 124.364 587.966 125.836V135.5H584.782V125.916C584.782 124.615 584.515 123.596 583.982 122.86C583.448 122.113 582.611 121.74 581.47 121.74C580.275 121.74 579.379 122.081 578.782 122.764C578.184 123.447 577.886 124.476 577.886 125.852V135.5H574.702ZM599.757 135.884C597.496 135.884 595.715 135.121 594.413 133.596C593.112 132.06 592.461 129.975 592.461 127.34C592.461 125.58 592.755 124.06 593.341 122.78C593.939 121.5 594.781 120.513 595.869 119.82C596.968 119.116 598.264 118.764 599.757 118.764C601.261 118.764 602.557 119.111 603.645 119.804C604.744 120.487 605.587 121.468 606.173 122.748C606.76 124.028 607.053 125.548 607.053 127.308C607.053 129.079 606.755 130.604 606.157 131.884C605.571 133.164 604.733 134.151 603.645 134.844C602.557 135.537 601.261 135.884 599.757 135.884ZM599.757 132.876C601.037 132.876 602.035 132.385 602.749 131.404C603.475 130.423 603.837 129.057 603.837 127.308C603.837 125.559 603.475 124.193 602.749 123.212C602.035 122.231 601.037 121.74 599.757 121.74C598.477 121.74 597.475 122.231 596.749 123.212C596.035 124.193 595.677 125.569 595.677 127.34C595.677 129.079 596.035 130.439 596.749 131.42C597.475 132.391 598.477 132.876 599.757 132.876ZM617.541 135.884C615.461 135.884 613.818 135.121 612.613 133.596C611.408 132.06 610.805 129.964 610.805 127.308C610.805 125.569 611.082 124.06 611.637 122.78C612.192 121.5 612.97 120.513 613.973 119.82C614.986 119.116 616.181 118.764 617.557 118.764C619.114 118.764 620.432 119.281 621.509 120.316V113.868L624.693 112.396V135.5H621.509V134.204C620.528 135.324 619.205 135.884 617.541 135.884ZM618.021 132.876C618.757 132.876 619.424 132.711 620.021 132.38C620.618 132.039 621.114 131.553 621.509 130.924V123.612C621.114 123.036 620.608 122.583 619.989 122.252C619.381 121.911 618.725 121.74 618.021 121.74C616.741 121.74 615.754 122.22 615.061 123.18C614.368 124.14 614.021 125.516 614.021 127.308C614.021 128.428 614.186 129.409 614.517 130.252C614.848 131.084 615.312 131.729 615.909 132.188C616.506 132.647 617.21 132.876 618.021 132.876ZM636.257 135.884C633.996 135.884 632.215 135.121 630.913 133.596C629.612 132.06 628.961 129.975 628.961 127.34C628.961 125.58 629.255 124.06 629.841 122.78C630.439 121.5 631.281 120.513 632.369 119.82C633.468 119.116 634.764 118.764 636.257 118.764C637.761 118.764 639.057 119.111 640.145 119.804C641.244 120.487 642.087 121.468 642.673 122.748C643.26 124.028 643.553 125.548 643.553 127.308C643.553 129.079 643.255 130.604 642.657 131.884C642.071 133.164 641.233 134.151 640.145 134.844C639.057 135.537 637.761 135.884 636.257 135.884ZM636.257 132.876C637.537 132.876 638.535 132.385 639.249 131.404C639.975 130.423 640.337 129.057 640.337 127.308C640.337 125.559 639.975 124.193 639.249 123.212C638.535 122.231 637.537 121.74 636.257 121.74C634.977 121.74 633.975 122.231 633.249 123.212C632.535 124.193 632.177 125.569 632.177 127.34C632.177 129.079 632.535 130.439 633.249 131.42C633.975 132.391 634.977 132.876 636.257 132.876ZM647.987 135.5V113.868L651.171 112.396V135.5H647.987ZM662.882 135.884C660.621 135.884 658.84 135.121 657.538 133.596C656.237 132.06 655.586 129.975 655.586 127.34C655.586 125.58 655.88 124.06 656.466 122.78C657.064 121.5 657.906 120.513 658.994 119.82C660.093 119.116 661.389 118.764 662.882 118.764C664.386 118.764 665.682 119.111 666.77 119.804C667.869 120.487 668.712 121.468 669.298 122.748C669.885 124.028 670.178 125.548 670.178 127.308C670.178 129.079 669.88 130.604 669.282 131.884C668.696 133.164 667.858 134.151 666.77 134.844C665.682 135.537 664.386 135.884 662.882 135.884ZM662.882 132.876C664.162 132.876 665.16 132.385 665.874 131.404C666.6 130.423 666.962 129.057 666.962 127.308C666.962 125.559 666.6 124.193 665.874 123.212C665.16 122.231 664.162 121.74 662.882 121.74C661.602 121.74 660.6 122.231 659.874 123.212C659.16 124.193 658.802 125.569 658.802 127.34C658.802 129.079 659.16 130.439 659.874 131.42C660.6 132.391 661.602 132.876 662.882 132.876ZM680.122 142.316L678.49 139.756C679.983 139.66 681.178 139.468 682.074 139.18C682.981 138.892 683.637 138.487 684.042 137.964C684.447 137.441 684.65 136.78 684.65 135.98V134.108C683.722 135.292 682.394 135.884 680.666 135.884C679.301 135.884 678.111 135.532 677.098 134.828C676.085 134.124 675.301 133.132 674.746 131.852C674.202 130.561 673.93 129.047 673.93 127.308C673.93 125.569 674.207 124.06 674.762 122.78C675.327 121.5 676.117 120.513 677.13 119.82C678.154 119.116 679.359 118.764 680.746 118.764C681.535 118.764 682.266 118.903 682.938 119.18C683.621 119.457 684.191 119.847 684.65 120.348V119.148H687.834V134.716C687.834 135.975 687.685 137.063 687.386 137.98C687.098 138.897 686.639 139.66 686.01 140.268C685.381 140.887 684.581 141.361 683.61 141.692C682.639 142.023 681.477 142.231 680.122 142.316ZM681.274 132.876C681.925 132.876 682.554 132.695 683.162 132.332C683.781 131.959 684.277 131.468 684.65 130.86V123.676C684.309 123.111 683.818 122.647 683.178 122.284C682.538 121.921 681.909 121.74 681.29 121.74C679.946 121.74 678.917 122.215 678.202 123.164C677.498 124.113 677.146 125.495 677.146 127.308C677.146 128.449 677.311 129.441 677.642 130.284C677.983 131.116 678.463 131.756 679.082 132.204C679.701 132.652 680.431 132.876 681.274 132.876ZM695.264 141.708L697.76 135.132L691.68 119.148H694.911L698.8 129.756C698.917 130.023 699.013 130.279 699.088 130.524C699.162 130.769 699.237 131.036 699.312 131.324C699.397 131.036 699.477 130.775 699.552 130.54C699.637 130.295 699.728 130.033 699.824 129.756L703.776 119.148H707.04L698.512 141.708H695.264ZM719.239 135.5V121.932H716.791V119.148H719.239V116.492C719.239 115.287 719.559 114.359 720.199 113.708C720.839 113.047 721.751 112.716 722.935 112.716C723.532 112.716 724.092 112.78 724.615 112.908C725.148 113.036 725.66 113.233 726.151 113.5V116.14C725.703 115.937 725.292 115.788 724.919 115.692C724.545 115.596 724.177 115.548 723.815 115.548C723.335 115.548 722.983 115.671 722.759 115.916C722.535 116.151 722.423 116.535 722.423 117.068V119.148H726.151V121.932H722.423V135.5H719.239ZM734.882 135.884C732.621 135.884 730.84 135.121 729.538 133.596C728.237 132.06 727.586 129.975 727.586 127.34C727.586 125.58 727.88 124.06 728.466 122.78C729.064 121.5 729.906 120.513 730.994 119.82C732.093 119.116 733.389 118.764 734.882 118.764C736.386 118.764 737.682 119.111 738.77 119.804C739.869 120.487 740.712 121.468 741.298 122.748C741.885 124.028 742.178 125.548 742.178 127.308C742.178 129.079 741.88 130.604 741.282 131.884C740.696 133.164 739.858 134.151 738.77 134.844C737.682 135.537 736.386 135.884 734.882 135.884ZM734.882 132.876C736.162 132.876 737.16 132.385 737.874 131.404C738.6 130.423 738.962 129.057 738.962 127.308C738.962 125.559 738.6 124.193 737.874 123.212C737.16 122.231 736.162 121.74 734.882 121.74C733.602 121.74 732.6 122.231 731.874 123.212C731.16 124.193 730.802 125.569 730.802 127.34C730.802 129.079 731.16 130.439 731.874 131.42C732.6 132.391 733.602 132.876 734.882 132.876ZM746.233 135.5V119.148H749.417V121.164C749.769 120.396 750.27 119.804 750.921 119.388C751.572 118.972 752.313 118.764 753.145 118.764C754.19 118.764 755.076 119.084 755.801 119.724L755.337 122.684C754.964 122.407 754.58 122.204 754.185 122.076C753.79 121.948 753.364 121.884 752.905 121.884C752.19 121.884 751.572 122.071 751.049 122.444C750.537 122.807 750.137 123.324 749.849 123.996C749.561 124.668 749.417 125.463 749.417 126.38V135.5H746.233ZM767.583 135.5V121.932H765.135V119.148H767.583V116.492C767.583 115.287 767.903 114.359 768.543 113.708C769.183 113.047 770.095 112.716 771.279 112.716C771.876 112.716 772.436 112.78 772.959 112.908C773.492 113.036 774.004 113.233 774.495 113.5V116.14C774.047 115.937 773.636 115.788 773.263 115.692C772.889 115.596 772.521 115.548 772.159 115.548C771.679 115.548 771.327 115.671 771.103 115.916C770.879 116.151 770.767 116.535 770.767 117.068V119.148H774.495V121.932H770.767V135.5H767.583ZM777.639 135.5V119.148H780.823V121.164C781.175 120.396 781.677 119.804 782.327 119.388C782.978 118.972 783.719 118.764 784.551 118.764C785.597 118.764 786.482 119.084 787.207 119.724L786.743 122.684C786.37 122.407 785.986 122.204 785.591 122.076C785.197 121.948 784.77 121.884 784.311 121.884C783.597 121.884 782.978 122.071 782.455 122.444C781.943 122.807 781.543 123.324 781.255 123.996C780.967 124.668 780.823 125.463 780.823 126.38V135.5H777.639ZM795.945 135.884C793.683 135.884 791.902 135.121 790.601 133.596C789.299 132.06 788.649 129.975 788.649 127.34C788.649 125.58 788.942 124.06 789.529 122.78C790.126 121.5 790.969 120.513 792.057 119.82C793.155 119.116 794.451 118.764 795.945 118.764C797.449 118.764 798.745 119.111 799.833 119.804C800.931 120.487 801.774 121.468 802.361 122.748C802.947 124.028 803.241 125.548 803.241 127.308C803.241 129.079 802.942 130.604 802.345 131.884C801.758 133.164 800.921 134.151 799.833 134.844C798.745 135.537 797.449 135.884 795.945 135.884ZM795.945 132.876C797.225 132.876 798.222 132.385 798.937 131.404C799.662 130.423 800.025 129.057 800.025 127.308C800.025 125.559 799.662 124.193 798.937 123.212C798.222 122.231 797.225 121.74 795.945 121.74C794.665 121.74 793.662 122.231 792.937 123.212C792.222 124.193 791.865 125.569 791.865 127.34C791.865 129.079 792.222 130.439 792.937 131.42C793.662 132.391 794.665 132.876 795.945 132.876ZM807.296 135.5V119.148H810.48V120.78C810.992 120.097 811.6 119.591 812.304 119.26C813.018 118.929 813.834 118.764 814.752 118.764C816.682 118.764 818.133 119.351 819.104 120.524C820.074 121.697 820.56 123.468 820.56 125.836V135.5H817.376V125.916C817.376 124.54 817.093 123.5 816.528 122.796C815.962 122.092 815.141 121.74 814.064 121.74C812.869 121.74 811.973 122.081 811.376 122.764C810.778 123.447 810.48 124.476 810.48 125.852V135.5H807.296ZM829.747 135.884C828.574 135.884 827.678 135.543 827.059 134.86C826.451 134.167 826.147 133.164 826.147 131.852V121.932H823.587V119.148H826.147V113.932L829.331 112.396V119.148H833.251V121.932H829.331V131.004C829.331 131.687 829.454 132.188 829.699 132.508C829.955 132.828 830.35 132.988 830.883 132.988C831.651 132.988 832.483 132.716 833.379 132.172L833.011 135.148C832.521 135.404 832.009 135.591 831.475 135.708C830.942 135.825 830.366 135.884 829.747 135.884ZM843.587 135.884C842.062 135.884 840.745 135.521 839.635 134.796C838.537 134.071 837.689 133.063 837.091 131.772C836.505 130.481 836.211 128.993 836.211 127.308C836.211 125.516 836.515 123.985 837.123 122.716C837.742 121.436 838.601 120.46 839.699 119.788C840.809 119.105 842.105 118.764 843.587 118.764C844.846 118.764 845.993 119.041 847.027 119.596C848.073 120.14 848.905 120.988 849.523 122.14C850.153 123.281 850.467 124.748 850.467 126.54C850.467 126.796 850.457 127.105 850.435 127.468C850.425 127.82 850.398 128.183 850.355 128.556H839.427C839.513 129.463 839.731 130.263 840.083 130.956C840.446 131.639 840.926 132.172 841.523 132.556C842.121 132.94 842.825 133.132 843.635 133.132C844.35 133.132 845.001 133.009 845.587 132.764C846.174 132.508 846.723 132.113 847.235 131.58L849.091 133.58C848.451 134.252 847.667 134.807 846.739 135.244C845.811 135.671 844.761 135.884 843.587 135.884ZM839.411 125.9H847.299C847.278 125.036 847.118 124.279 846.819 123.628C846.531 122.967 846.11 122.449 845.555 122.076C845.011 121.703 844.345 121.516 843.555 121.516C842.457 121.516 841.513 121.868 840.723 122.572C839.934 123.276 839.497 124.385 839.411 125.9ZM854.827 135.5V119.148H858.011V120.78C858.523 120.097 859.131 119.591 859.835 119.26C860.549 118.929 861.365 118.764 862.283 118.764C864.213 118.764 865.664 119.351 866.635 120.524C867.605 121.697 868.091 123.468 868.091 125.836V135.5H864.907V125.916C864.907 124.54 864.624 123.5 864.059 122.796C863.493 122.092 862.672 121.74 861.595 121.74C860.4 121.74 859.504 122.081 858.907 122.764C858.309 123.447 858.011 124.476 858.011 125.852V135.5H854.827ZM879.322 135.884C877.242 135.884 875.6 135.121 874.394 133.596C873.189 132.06 872.586 129.964 872.586 127.308C872.586 125.569 872.864 124.06 873.418 122.78C873.973 121.5 874.752 120.513 875.754 119.82C876.768 119.116 877.962 118.764 879.338 118.764C880.896 118.764 882.213 119.281 883.29 120.316V113.868L886.474 112.396V135.5H883.29V134.204C882.309 135.324 880.986 135.884 879.322 135.884ZM879.802 132.876C880.538 132.876 881.205 132.711 881.802 132.38C882.4 132.039 882.896 131.553 883.29 130.924V123.612C882.896 123.036 882.389 122.583 881.77 122.252C881.162 121.911 880.506 121.74 879.802 121.74C878.522 121.74 877.536 122.22 876.842 123.18C876.149 124.14 875.802 125.516 875.802 127.308C875.802 128.428 875.968 129.409 876.298 130.252C876.629 131.084 877.093 131.729 877.69 132.188C878.288 132.647 878.992 132.876 879.802 132.876ZM899.358 141.996V119.148H902.542V120.46C903.619 119.329 904.953 118.764 906.542 118.764C907.929 118.764 909.123 119.111 910.126 119.804C911.139 120.497 911.918 121.484 912.462 122.764C913.017 124.044 913.294 125.559 913.294 127.308C913.294 129.047 913.011 130.561 912.446 131.852C911.891 133.132 911.107 134.124 910.094 134.828C909.081 135.532 907.891 135.884 906.526 135.884C905.694 135.884 904.947 135.735 904.286 135.436C903.625 135.137 903.043 134.679 902.542 134.06V140.524L899.358 141.996ZM906.094 132.876C907.374 132.876 908.355 132.396 909.038 131.436C909.721 130.465 910.062 129.089 910.062 127.308C910.062 125.58 909.705 124.22 908.99 123.228C908.275 122.236 907.31 121.74 906.094 121.74C905.315 121.74 904.622 121.911 904.014 122.252C903.417 122.583 902.926 123.063 902.542 123.692V130.924C903.011 131.564 903.545 132.049 904.142 132.38C904.75 132.711 905.401 132.876 906.094 132.876ZM917.358 135.5V119.148H920.542V121.164C920.894 120.396 921.395 119.804 922.046 119.388C922.697 118.972 923.438 118.764 924.27 118.764C925.315 118.764 926.201 119.084 926.926 119.724L926.462 122.684C926.089 122.407 925.705 122.204 925.31 122.076C924.915 121.948 924.489 121.884 924.03 121.884C923.315 121.884 922.697 122.071 922.174 122.444C921.662 122.807 921.262 123.324 920.974 123.996C920.686 124.668 920.542 125.463 920.542 126.38V135.5H917.358ZM935.664 135.884C933.402 135.884 931.621 135.121 930.32 133.596C929.018 132.06 928.368 129.975 928.368 127.34C928.368 125.58 928.661 124.06 929.248 122.78C929.845 121.5 930.688 120.513 931.776 119.82C932.874 119.116 934.17 118.764 935.664 118.764C937.168 118.764 938.464 119.111 939.552 119.804C940.65 120.487 941.493 121.468 942.08 122.748C942.666 124.028 942.96 125.548 942.96 127.308C942.96 129.079 942.661 130.604 942.064 131.884C941.477 133.164 940.64 134.151 939.552 134.844C938.464 135.537 937.168 135.884 935.664 135.884ZM935.664 132.876C936.944 132.876 937.941 132.385 938.656 131.404C939.381 130.423 939.744 129.057 939.744 127.308C939.744 125.559 939.381 124.193 938.656 123.212C937.941 122.231 936.944 121.74 935.664 121.74C934.384 121.74 933.381 122.231 932.656 123.212C931.941 124.193 931.584 125.569 931.584 127.34C931.584 129.079 931.941 130.439 932.656 131.42C933.381 132.391 934.384 132.876 935.664 132.876ZM944.529 142.348L942.977 139.884C944.556 139.596 945.665 139.191 946.305 138.668C946.945 138.156 947.265 137.404 947.265 136.412V119.148H950.449V135.404C950.449 137.431 949.969 139.009 949.009 140.14C948.06 141.281 946.566 142.017 944.529 142.348ZM948.865 116.476C948.321 116.476 947.857 116.289 947.473 115.916C947.1 115.532 946.913 115.073 946.913 114.54C946.913 113.996 947.1 113.532 947.473 113.148C947.857 112.764 948.321 112.572 948.865 112.572C949.409 112.572 949.868 112.764 950.241 113.148C950.614 113.521 950.801 113.985 950.801 114.54C950.801 115.084 950.614 115.543 950.241 115.916C949.878 116.289 949.42 116.476 948.865 116.476ZM962.119 135.884C960.593 135.884 959.276 135.521 958.167 134.796C957.068 134.071 956.22 133.063 955.623 131.772C955.036 130.481 954.743 128.993 954.743 127.308C954.743 125.516 955.047 123.985 955.655 122.716C956.273 121.436 957.132 120.46 958.231 119.788C959.34 119.105 960.636 118.764 962.119 118.764C963.377 118.764 964.524 119.041 965.559 119.596C966.604 120.14 967.436 120.988 968.055 122.14C968.684 123.281 968.999 124.748 968.999 126.54C968.999 126.796 968.988 127.105 968.967 127.468C968.956 127.82 968.929 128.183 968.887 128.556H957.959C958.044 129.463 958.263 130.263 958.615 130.956C958.977 131.639 959.457 132.172 960.055 132.556C960.652 132.94 961.356 133.132 962.167 133.132C962.881 133.132 963.532 133.009 964.119 132.764C964.705 132.508 965.255 132.113 965.767 131.58L967.623 133.58C966.983 134.252 966.199 134.807 965.271 135.244C964.343 135.671 963.292 135.884 962.119 135.884ZM957.943 125.9H965.831C965.809 125.036 965.649 124.279 965.351 123.628C965.063 122.967 964.641 122.449 964.087 122.076C963.543 121.703 962.876 121.516 962.087 121.516C960.988 121.516 960.044 121.868 959.255 122.572C958.465 123.276 958.028 124.385 957.943 125.9ZM979.703 135.884C978.263 135.884 977.02 135.543 975.975 134.86C974.94 134.167 974.14 133.185 973.575 131.916C973.02 130.636 972.743 129.111 972.743 127.34C972.743 125.569 973.025 124.044 973.591 122.764C974.167 121.484 974.983 120.497 976.039 119.804C977.095 119.111 978.353 118.764 979.815 118.764C981.319 118.764 982.583 119.111 983.607 119.804C984.641 120.497 985.388 121.516 985.847 122.86L982.839 123.916C982.572 123.223 982.183 122.689 981.671 122.316C981.159 121.943 980.551 121.756 979.847 121.756C978.62 121.756 977.671 122.241 976.999 123.212C976.327 124.183 975.991 125.559 975.991 127.34C975.991 129.089 976.321 130.449 976.983 131.42C977.644 132.38 978.572 132.86 979.767 132.86C980.545 132.86 981.212 132.652 981.767 132.236C982.332 131.82 982.732 131.223 982.967 130.444L985.959 131.404C985.532 132.855 984.78 133.964 983.703 134.732C982.625 135.5 981.292 135.884 979.703 135.884ZM994.466 135.884C993.293 135.884 992.397 135.543 991.778 134.86C991.17 134.167 990.866 133.164 990.866 131.852V121.932H988.306V119.148H990.866V113.932L994.05 112.396V119.148H997.97V121.932H994.05V131.004C994.05 131.687 994.173 132.188 994.418 132.508C994.674 132.828 995.069 132.988 995.602 132.988C996.37 132.988 997.202 132.716 998.098 132.172L997.73 135.148C997.239 135.404 996.727 135.591 996.194 135.708C995.661 135.825 995.085 135.884 994.466 135.884ZM1006.82 135.884C1005.62 135.884 1004.48 135.628 1003.38 135.116C1002.29 134.604 1001.41 133.916 1000.72 133.052L1002.93 131.18C1003.5 131.788 1004.13 132.263 1004.83 132.604C1005.54 132.935 1006.23 133.1 1006.9 133.1C1007.82 133.1 1008.53 132.935 1009.03 132.604C1009.53 132.263 1009.78 131.793 1009.78 131.196C1009.78 130.812 1009.66 130.465 1009.43 130.156C1009.2 129.836 1008.82 129.532 1008.27 129.244C1007.73 128.945 1006.99 128.625 1006.07 128.284C1004.25 127.612 1002.96 126.887 1002.18 126.108C1001.4 125.319 1001.01 124.332 1001.01 123.148C1001.01 121.847 1001.53 120.791 1002.58 119.98C1003.62 119.169 1004.98 118.764 1006.64 118.764C1007.79 118.764 1008.85 118.983 1009.81 119.42C1010.77 119.847 1011.6 120.471 1012.29 121.292L1010.13 123.068C1009.16 122.055 1007.99 121.548 1006.61 121.548C1005.83 121.548 1005.21 121.697 1004.75 121.996C1004.3 122.284 1004.07 122.684 1004.07 123.196C1004.07 123.697 1004.33 124.135 1004.85 124.508C1005.37 124.881 1006.33 125.319 1007.71 125.82C1008.91 126.236 1009.88 126.695 1010.63 127.196C1011.38 127.697 1011.93 128.273 1012.27 128.924C1012.63 129.564 1012.8 130.305 1012.8 131.148C1012.8 132.62 1012.27 133.777 1011.2 134.62C1010.15 135.463 1008.69 135.884 1006.82 135.884Z" fill="#191315" fill-opacity="0.72"/>
<defs>
<linearGradient id="paint0_linear_411_225" x1="2.0625" y1="38.5625" x2="92.762" y2="105.601" gradientUnits="userSpaceOnUse">
<stop stop-color="#29BEDC"/>
<stop offset="1" stop-color="#517AED"/>
</linearGradient>
<linearGradient id="paint1_linear_411_225" x1="2.0625" y1="38.5625" x2="92.762" y2="105.601" gradientUnits="userSpaceOnUse">
<stop stop-color="#29BEDC"/>
<stop offset="1" stop-color="#517AED"/>
</linearGradient>
<linearGradient id="paint2_linear_411_225" x1="2.0625" y1="38.5625" x2="92.762" y2="105.601" gradientUnits="userSpaceOnUse">
<stop stop-color="#29BEDC"/>
<stop offset="1" stop-color="#517AED"/>
</linearGradient>
<linearGradient id="paint3_linear_411_225" x1="2.0625" y1="38.5625" x2="92.762" y2="105.601" gradientUnits="userSpaceOnUse">
<stop stop-color="#29BEDC"/>
<stop offset="1" stop-color="#517AED"/>
</linearGradient>
<linearGradient id="paint4_linear_411_225" x1="2.0625" y1="38.5625" x2="92.762" y2="105.601" gradientUnits="userSpaceOnUse">
<stop stop-color="#29BEDC"/>
<stop offset="1" stop-color="#517AED"/>
</linearGradient>
<linearGradient id="paint5_linear_411_225" x1="2.0625" y1="38.5625" x2="92.762" y2="105.601" gradientUnits="userSpaceOnUse">
<stop stop-color="#29BEDC"/>
<stop offset="1" stop-color="#517AED"/>
</linearGradient>
<linearGradient id="paint6_linear_411_225" x1="2.0625" y1="38.5625" x2="92.762" y2="105.601" gradientUnits="userSpaceOnUse">
<stop stop-color="#29BEDC"/>
<stop offset="1" stop-color="#517AED"/>
</linearGradient>
<linearGradient id="paint7_linear_411_225" x1="2.0625" y1="38.5624" x2="92.762" y2="105.601" gradientUnits="userSpaceOnUse">
<stop stop-color="#29BEDC"/>
<stop offset="1" stop-color="#517AED"/>
</linearGradient>
<linearGradient id="paint8_linear_411_225" x1="107.25" y1="38.5625" x2="186.86" y2="81.8291" gradientUnits="userSpaceOnUse">
<stop stop-color="#29BEDC"/>
<stop offset="1" stop-color="#517AED"/>
</linearGradient>
<linearGradient id="paint9_linear_411_225" x1="92.8125" y1="38.5625" x2="181.765" y2="100.443" gradientUnits="userSpaceOnUse">
<stop stop-color="#29BEDC"/>
<stop offset="1" stop-color="#517AED"/>
</linearGradient>
<linearGradient id="paint10_linear_411_225" x1="122.719" y1="38.5625" x2="215.488" y2="113.559" gradientUnits="userSpaceOnUse">
<stop stop-color="#29BEDC"/>
<stop offset="1" stop-color="#517AED"/>
</linearGradient>
<linearGradient id="paint11_linear_411_225" x1="101.063" y1="38.5625" x2="183.899" y2="87.1838" gradientUnits="userSpaceOnUse">
<stop stop-color="#29BEDC"/>
<stop offset="1" stop-color="#517AED"/>
</linearGradient>
<linearGradient id="paint12_linear_411_225" x1="88.6875" y1="38.5625" x2="168.298" y2="81.829" gradientUnits="userSpaceOnUse">
<stop stop-color="#29BEDC"/>
<stop offset="1" stop-color="#517AED"/>
</linearGradient>
<linearGradient id="paint13_linear_411_225" x1="88.6875" y1="38.5625" x2="176.749" y2="168.741" gradientUnits="userSpaceOnUse">
<stop stop-color="#29BEDC"/>
<stop offset="1" stop-color="#517AED"/>
</linearGradient>
<linearGradient id="paint14_linear_411_225" x1="88.6875" y1="38.5624" x2="182.587" y2="147.006" gradientUnits="userSpaceOnUse">
<stop stop-color="#29BEDC"/>
<stop offset="1" stop-color="#517AED"/>
</linearGradient>
<linearGradient id="paint15_linear_411_225" x1="88.6875" y1="38.5625" x2="181.457" y2="113.559" gradientUnits="userSpaceOnUse">
<stop stop-color="#29BEDC"/>
<stop offset="1" stop-color="#517AED"/>
</linearGradient>
<linearGradient id="paint16_linear_411_225" x1="175.312" y1="38.5625" x2="261.276" y2="173.581" gradientUnits="userSpaceOnUse">
<stop stop-color="#29BEDC"/>
<stop offset="1" stop-color="#517AED"/>
</linearGradient>
<linearGradient id="paint17_linear_411_225" x1="175.312" y1="38.5625" x2="249.169" y2="73.8852" gradientUnits="userSpaceOnUse">
<stop stop-color="#29BEDC"/>
<stop offset="1" stop-color="#517AED"/>
</linearGradient>
<linearGradient id="paint18_linear_411_225" x1="175.313" y1="38.5625" x2="266.012" y2="105.601" gradientUnits="userSpaceOnUse">
<stop stop-color="#29BEDC"/>
<stop offset="1" stop-color="#517AED"/>
</linearGradient>
<linearGradient id="paint19_linear_411_225" x1="175.313" y1="38.5625" x2="266.012" y2="105.601" gradientUnits="userSpaceOnUse">
<stop stop-color="#29BEDC"/>
<stop offset="1" stop-color="#517AED"/>
</linearGradient>
<linearGradient id="paint20_linear_411_225" x1="175.313" y1="38.5624" x2="270.175" y2="134.972" gradientUnits="userSpaceOnUse">
<stop stop-color="#29BEDC"/>
<stop offset="1" stop-color="#517AED"/>
</linearGradient>
<linearGradient id="paint21_linear_411_225" x1="175.312" y1="38.5625" x2="261.276" y2="173.581" gradientUnits="userSpaceOnUse">
<stop stop-color="#29BEDC"/>
<stop offset="1" stop-color="#517AED"/>
</linearGradient>
<linearGradient id="paint22_linear_411_225" x1="175.313" y1="38.5625" x2="267.13" y2="157.327" gradientUnits="userSpaceOnUse">
<stop stop-color="#29BEDC"/>
<stop offset="1" stop-color="#517AED"/>
</linearGradient>
<linearGradient id="paint23_linear_411_225" x1="175.313" y1="38.5625" x2="259.588" y2="89.8604" gradientUnits="userSpaceOnUse">
<stop stop-color="#29BEDC"/>
<stop offset="1" stop-color="#517AED"/>
</linearGradient>
</defs>
</svg>
