<svg xmlns="http://www.w3.org/2000/svg" width="224" height="180" fill="none"><rect width="224" height="112" y="34" fill="#fff" fill-opacity=".9" rx="16"/><path fill="#109FBC" fill-opacity=".96" d="m47.6 100-5.78-28h4.22l3.3 17.42q.16.82.28 1.48.12.64.18 1.26.12-.62.28-1.28.18-.68.4-1.44L55.1 72h3.32l4.68 17.4q.2.76.34 1.38.14.6.22 1.18.1-.58.2-1.18.12-.62.28-1.36L67.72 72h4.16l-6.08 28h-3.4l-5.08-18.34-.36-1.3q-.14-.6-.26-1.2-.1.6-.24 1.18-.14.56-.34 1.3L51.08 100zm36.337.48q-2.86 0-4.94-1.36-2.06-1.36-3.18-3.78-1.1-2.42-1.1-5.58 0-3.36 1.14-5.74 1.16-2.4 3.22-3.66 2.08-1.28 4.86-1.28 2.36 0 4.3 1.04 1.96 1.02 3.12 3.18 1.18 2.14 1.18 5.5 0 .48-.04 1.16-.02.66-.1 1.36h-13.66q.16 1.7.82 3 .68 1.28 1.8 2t2.64.72q1.34 0 2.44-.46 1.1-.48 2.06-1.48l2.32 2.5q-1.2 1.26-2.94 2.08-1.74.8-3.94.8M78.717 88h9.86q-.04-1.62-.6-2.84-.54-1.24-1.58-1.94-1.02-.7-2.5-.7-2.06 0-3.54 1.32T78.717 88m27.857 12.48q-1.48 0-2.64-.52-1.16-.54-2.28-1.68V100h-3.98V72.96l3.98-1.84v10.14a6.06 6.06 0 0 1 2.18-1.6 6.5 6.5 0 0 1 2.72-.58q2.58 0 4.48 1.32 1.9 1.3 2.94 3.72 1.06 2.4 1.06 5.64 0 5.08-2.24 7.9-2.22 2.82-6.22 2.82m-.52-3.76q2.38 0 3.64-1.8 1.28-1.8 1.28-5.16 0-3.4-1.26-5.18t-3.66-1.78q-1.3 0-2.52.68t-1.88 1.74v9.06q.72 1.14 1.86 1.8 1.14.64 2.54.64m20.165 3.76q-2.24 0-4.3-.96-2.04-.96-3.32-2.58l2.76-2.34q1.06 1.14 2.38 1.78 1.32.62 2.58.62 1.72 0 2.66-.62.94-.64.94-1.76a2.1 2.1 0 0 0-.44-1.3q-.42-.6-1.44-1.14-1.02-.56-2.76-1.2-3.4-1.26-4.86-2.72-1.46-1.48-1.46-3.7 0-2.44 1.96-3.96t5.08-1.52q2.16 0 3.96.82a8.6 8.6 0 0 1 3.1 2.34l-2.7 2.22q-1.82-1.9-4.4-1.9-1.46 0-2.32.56-.86.54-.86 1.5 0 .94.98 1.64t3.58 1.64q2.24.78 3.64 1.72 1.42.94 2.06 2.16.66 1.2.66 2.78 0 2.76-2 4.34-1.98 1.58-5.48 1.58m12.862-.48V79.56h3.98V100zm1.98-23.78q-1 0-1.72-.7a2.38 2.38 0 0 1-.7-1.72q0-1.02.7-1.74t1.72-.72q1.041 0 1.74.72t.7 1.74-.7 1.72q-.699.7-1.74.7m14.287 24.26q-2.2 0-3.36-1.28-1.14-1.3-1.14-3.76v-12.4h-3.2v-3.48h3.2v-6.52l3.98-1.92v8.44h4.9v3.48h-4.9v11.34q0 1.28.46 1.88.48.6 1.48.6 1.44 0 3.12-1.02l-.46 3.72a7.7 7.7 0 0 1-1.92.7 10 10 0 0 1-2.16.22m17.3 0q-2.86 0-4.94-1.36-2.06-1.36-3.18-3.78-1.1-2.42-1.1-5.58 0-3.36 1.14-5.74 1.16-2.4 3.22-3.66 2.08-1.28 4.86-1.28 2.36 0 4.3 1.04 1.96 1.02 3.12 3.18 1.18 2.14 1.18 5.5 0 .48-.04 1.16-.02.66-.1 1.36h-13.66q.16 1.7.82 3 .68 1.28 1.8 2t2.64.72q1.34 0 2.44-.46 1.1-.48 2.06-1.48l2.32 2.5q-1.2 1.26-2.94 2.08-1.74.8-3.94.8M167.428 88h9.86q-.04-1.62-.6-2.84-.54-1.24-1.58-1.94-1.02-.7-2.5-.7-2.06 0-3.54 1.32t-1.64 4.16"/></svg>