<svg width="156" height="180" viewBox="0 0 156 180" fill="none" xmlns="http://www.w3.org/2000/svg">
<path d="M80.9885 67.6674C76.2671 65.4584 71.2723 63.8887 66.136 63C65.4962 64.1567 64.7488 65.7124 64.2333 66.95C58.6955 66.1173 53.2086 66.1173 47.7725 66.95C47.2573 65.7127 46.493 64.1567 45.8473 63C40.706 63.8891 35.7069 65.4628 30.9833 67.679C21.5838 81.8832 19.0356 95.7342 20.3096 109.389C26.544 114.045 32.5857 116.873 38.5257 118.724C40.0019 116.694 41.3069 114.544 42.4271 112.298C40.2944 111.486 38.2384 110.486 36.2835 109.308C36.798 108.927 37.3003 108.53 37.7897 108.117C49.6354 113.657 62.5063 113.657 74.2107 108.117C74.7023 108.527 75.2045 108.924 75.7167 109.308C73.7587 110.489 71.6988 111.491 69.5619 112.304C70.6884 114.559 71.9911 116.711 73.4633 118.729C79.4088 116.879 85.4562 114.051 91.6906 109.389C93.1856 93.5598 89.1371 79.8359 80.9885 67.6674ZM44.041 100.992C40.485 100.992 37.5687 97.6718 37.5687 93.6292C37.5687 89.5867 40.4228 86.2612 44.041 86.2612C47.6595 86.2612 50.5755 89.5808 50.5133 93.6292C50.519 97.6718 47.6595 100.992 44.041 100.992ZM67.9592 100.992C64.4031 100.992 61.4872 97.6718 61.4872 93.6292C61.4872 89.5867 64.341 86.2612 67.9592 86.2612C71.5777 86.2612 74.4936 89.5808 74.4315 93.6292C74.4315 97.6718 71.5777 100.992 67.9592 100.992Z" fill="#5865F2"/>
<path d="M106.232 86V69.2H116.672V71.492H108.656V76.172H113.756V78.464H108.656V83.684H117.188V86H106.232ZM120.67 86V69.2H123.046L130.21 80.468C130.322 80.644 130.438 80.84 130.557 81.056C130.678 81.272 130.794 81.492 130.906 81.716C130.898 81.516 130.886 81.304 130.87 81.08C130.862 80.856 130.858 80.656 130.858 80.48V69.2H133.282V86H131.014L123.718 74.684C123.622 74.516 123.51 74.324 123.382 74.108C123.262 73.892 123.146 73.684 123.034 73.484C123.058 73.668 123.074 73.868 123.082 74.084C123.09 74.3 123.094 74.5 123.094 74.684V86H120.67Z" fill="white" fill-opacity="0.68"/>
</svg>
