<svg xmlns="http://www.w3.org/2000/svg" width="136" height="180" fill="none"><rect width="120" height="112" x="8" y="34" fill="#fff" fill-opacity=".9" rx="16"/><g clip-path="url(#a)"><path fill="url(#b)" d="M68 54a36 36 0 0 0-25.453 10.544A36 36 0 0 0 32 90a36 36 0 0 0 10.547 25.456 35.995 35.995 0 0 0 50.906 0A36 36 0 0 0 104 90a36 36 0 0 0-10.547-25.456A36 36 0 0 0 68 54"/><path fill="#fff" d="M48.296 89.62q15.744-6.859 20.992-9.043c10.001-4.159 12.077-4.88 13.433-4.905.298-.005.962.069 1.395.419.36.295.46.694.511.975.046.28.107.918.057 1.417-.54 5.692-2.886 19.506-4.078 25.882-.501 2.698-1.497 3.602-2.459 3.691-2.092.192-3.678-1.382-5.703-2.709-3.167-2.077-4.956-3.37-8.033-5.396-3.555-2.343-1.248-3.63.776-5.734.53-.55 9.743-8.93 9.917-9.69.023-.094.045-.449-.168-.635-.209-.188-.518-.123-.743-.073-.32.072-5.377 3.418-15.187 10.037q-2.15 1.48-3.904 1.442c-1.283-.028-3.758-.727-5.597-1.324-2.25-.733-4.044-1.12-3.887-2.365q.12-.972 2.678-1.99"/></g><defs><linearGradient id="b" x1="3632" x2="3632" y1="54" y2="7254" gradientUnits="userSpaceOnUse"><stop stop-color="#2AABEE"/><stop offset="1" stop-color="#229ED9"/></linearGradient><clipPath id="a"><path fill="#fff" d="M32 54h72v72H32z"/></clipPath></defs></svg>
