<svg width="164" height="180" viewBox="0 0 164 180" fill="none" xmlns="http://www.w3.org/2000/svg">
<rect y="34" width="164" height="112" rx="16" fill="white" fill-opacity="0.9"/>
<path d="M84.9885 67.6674C80.2671 65.4584 75.2723 63.8887 70.136 63C69.4962 64.1567 68.7488 65.7124 68.2333 66.95C62.6955 66.1173 57.2086 66.1173 51.7725 66.95C51.2573 65.7127 50.493 64.1567 49.8473 63C44.706 63.8891 39.7069 65.4628 34.9833 67.679C25.5838 81.8832 23.0356 95.7342 24.3096 109.389C30.544 114.045 36.5857 116.873 42.5257 118.724C44.0019 116.694 45.3069 114.544 46.4271 112.298C44.2944 111.486 42.2384 110.486 40.2835 109.308C40.798 108.927 41.3003 108.53 41.7897 108.117C53.6354 113.657 66.5063 113.657 78.2107 108.117C78.7023 108.527 79.2045 108.924 79.7167 109.308C77.7587 110.489 75.6988 111.491 73.5619 112.304C74.6884 114.559 75.9911 116.711 77.4633 118.729C83.4088 116.879 89.4562 114.051 95.6906 109.389C97.1856 93.5598 93.1371 79.8359 84.9885 67.6674ZM48.041 100.992C44.485 100.992 41.5687 97.6718 41.5687 93.6292C41.5687 89.5867 44.4228 86.2612 48.041 86.2612C51.6595 86.2612 54.5755 89.5808 54.5133 93.6292C54.519 97.6718 51.6595 100.992 48.041 100.992ZM71.9592 100.992C68.4031 100.992 65.4872 97.6718 65.4872 93.6292C65.4872 89.5867 68.341 86.2612 71.9592 86.2612C75.5777 86.2612 78.4936 89.5808 78.4315 93.6292C78.4315 97.6718 75.5777 100.992 71.9592 100.992Z" fill="#5865F2"/>
<path d="M110.232 86V69.2H120.672V71.492H112.656V76.172H117.756V78.464H112.656V83.684H121.188V86H110.232ZM124.67 86V69.2H127.046L134.21 80.468C134.322 80.644 134.438 80.84 134.557 81.056C134.678 81.272 134.794 81.492 134.906 81.716C134.898 81.516 134.886 81.304 134.87 81.08C134.862 80.856 134.858 80.656 134.858 80.48V69.2H137.282V86H135.014L127.718 74.684C127.622 74.516 127.51 74.324 127.382 74.108C127.262 73.892 127.146 73.684 127.034 73.484C127.058 73.668 127.074 73.868 127.082 74.084C127.09 74.3 127.094 74.5 127.094 74.684V86H124.67Z" fill="#191315" fill-opacity="0.54"/>
</svg>
