<svg width="200" height="40" viewBox="0 0 200 40" fill="none" xmlns="http://www.w3.org/2000/svg"><g><path d="M141.128 25.3354C140.949 25.2161 140.712 25.1565 140.534 25.2161C140.297 25.2757 140.119 25.395 140 25.5738C139.941 25.6334 139.881 25.7526 139.822 25.8123C138.101 28.0775 135.49 29.3294 132.7 29.3294C129.792 29.3294 127.062 27.8987 125.4 25.5738C125.282 25.395 125.104 25.2757 124.866 25.2161C124.807 25.2161 124.748 25.2161 124.748 25.2161C124.57 25.2161 124.392 25.2757 124.273 25.395C123.917 25.6334 123.798 26.1699 124.095 26.5276C126.113 29.3294 129.317 30.9986 132.76 30.9986C136.083 30.9986 139.169 29.5082 141.187 26.8257C141.246 26.7065 141.306 26.6468 141.424 26.5276C141.543 26.1103 141.484 25.5738 141.128 25.3354Z" fill="#E15F58"></path><path d="M1.54303 30.8793C1.36499 31.0581 1.18695 31.1177 0.949559 31.1177C0.652823 31.1177 0.415427 31.0581 0.237385 30.8793C0.0593436 30.7005 0 30.462 0 30.2235V0.894188C0 0.655738 0.0593436 0.417284 0.237385 0.238446C0.415427 0.0596089 0.652819 0 0.890208 0C1.1276 0 1.36499 0.0596089 1.54303 0.238446C1.72107 0.417284 1.78042 0.655738 1.78042 0.894188V30.2235C1.83976 30.462 1.72107 30.7005 1.54303 30.8793Z" fill="#424e58"></path><path d="M49.0208 11.0285C50.3264 12.638 50.9793 14.7245 50.9793 17.2878V30.2833C50.9793 30.5218 50.9199 30.7006 50.7419 30.8794C50.5638 31.0583 50.3858 31.1179 50.0891 31.1179C49.7923 31.1179 49.6143 31.0583 49.4362 30.8794C49.2582 30.7006 49.1988 30.5218 49.1988 30.2833V17.4666C49.1988 15.3802 48.6647 13.6514 47.6558 12.3399C46.6469 11.0285 45.1039 10.3727 43.0267 10.3727C41.7805 10.3727 40.4748 10.6708 39.2879 11.3265C38.0416 11.9823 37.0327 12.8765 36.2612 13.9495C35.4897 15.0225 35.1336 16.2148 35.1336 17.4666V30.2833C35.1336 30.5218 35.0742 30.7006 34.8962 30.8794C34.7181 31.0583 34.5401 31.1179 34.2434 31.1179C34.006 31.1179 33.7686 31.0583 33.5905 30.8794C33.4125 30.7006 33.3532 30.5218 33.3532 30.2833V17.2282C33.3532 15.2013 32.8784 13.5322 31.8695 12.2207C30.9199 10.9689 29.4362 10.3131 27.4184 10.3131C26.1722 10.3131 24.9852 10.6112 23.7983 11.2669C22.6113 11.863 21.6618 12.7572 20.8903 13.8302C20.1187 14.9033 19.7626 16.0359 19.7626 17.2878V30.3429C19.7626 30.5814 19.7033 30.7602 19.5253 30.939C19.3472 31.1179 19.1692 31.1775 18.9318 31.1775C18.6944 31.1775 18.457 31.1179 18.279 30.939C18.1009 30.7602 18.0416 30.5814 18.0416 30.3429V9.7766C18.0416 9.53815 18.1009 9.35931 18.279 9.18048C18.457 9.00164 18.635 8.94205 18.8724 8.94205C19.1098 8.94205 19.3472 9.00164 19.5253 9.18048C19.7033 9.35931 19.7626 9.53815 19.7626 9.7766V12.8765C20.5935 11.6246 21.7211 10.6112 23.1454 9.7766C24.5104 9.00164 25.9941 8.58435 27.4778 8.58435C29.0802 8.58435 30.5638 9.00166 31.8101 9.83624C33.0564 10.6708 34.006 11.863 34.5994 13.4726C35.1929 12.1015 36.3799 10.9689 38.1009 10.0151C39.822 9.06127 41.5431 8.58435 43.2048 8.58435C45.7567 8.64396 47.6558 9.41895 49.0208 11.0285Z" fill="#424e58"></path><path d="M80.9497 28.4948C82.2553 27.6602 83.2642 26.5276 84.0357 25.0372C84.8072 23.5469 85.1633 21.8778 85.1633 20.0298C85.1633 18.1818 84.8072 16.5126 84.0357 15.0819C83.2642 13.5916 82.2553 12.459 80.9497 11.6244C79.644 10.7898 78.1604 10.3725 76.558 10.3725C74.8963 10.3725 73.4126 10.7898 72.1069 11.6244C70.8013 12.459 69.7924 13.5916 69.0209 15.0819C68.3087 16.5723 67.9526 18.2414 67.9526 20.0894C67.9526 21.9374 68.3087 23.6661 69.0209 25.0968C69.7331 26.5872 70.742 27.7198 72.1069 28.5544C73.4126 29.3889 74.8963 29.8062 76.558 29.8062C78.1604 29.7466 79.644 29.3293 80.9497 28.4948ZM81.9586 10.0745C83.5016 11.0283 84.7479 12.3994 85.6381 14.1281C86.5283 15.8569 86.9437 17.8241 86.9437 19.9702C86.9437 22.1162 86.469 24.0238 85.5788 25.8122C84.6885 27.541 83.4423 28.912 81.8992 29.9254C80.3562 30.9389 78.5758 31.4158 76.6767 31.4158C74.8963 31.4158 73.2939 30.9985 71.8102 30.1043C70.3265 29.2101 69.1396 27.9582 68.19 26.2891V39.1654C68.19 39.4038 68.1307 39.5827 67.9526 39.7615C67.7746 39.9403 67.5966 40 67.2998 40C67.0624 40 66.8844 39.9403 66.7063 39.7615C66.5283 39.5827 66.469 39.4038 66.469 39.1654V9.53799C66.469 9.29954 66.5283 9.1207 66.7063 8.94186C66.8844 8.76302 67.0624 8.7034 67.3592 8.7034C67.5966 8.7034 67.834 8.76302 68.012 8.94186C68.19 9.1207 68.2494 9.29954 68.2494 9.53799V13.6512C69.1396 11.9821 70.3265 10.6706 71.8102 9.89565C73.2939 9.06107 74.9556 8.6438 76.7954 8.6438C78.5758 8.6438 80.3562 9.12068 81.9586 10.0745Z" fill="#424e58"></path><path d="M112.819 9.1802C112.819 9.41865 112.76 9.65712 112.582 9.83596C112.463 10.0148 112.226 10.0744 111.988 10.0744C111.929 10.0744 111.691 10.0148 111.335 9.89555C110.979 9.77633 110.623 9.71672 110.267 9.71672C109.08 9.71672 107.834 10.1936 106.647 11.1474C105.46 12.1012 104.451 13.3531 103.68 14.7838C102.908 16.2145 102.552 17.7048 102.552 19.0163V30.1638C102.552 30.4023 102.433 30.5811 102.255 30.7599C102.077 30.9388 101.899 30.9984 101.662 30.9984C101.365 30.9984 101.187 30.9388 101.009 30.7599C100.831 30.5811 100.771 30.4023 100.771 30.1638V9.77632C100.771 9.53787 100.831 9.35903 101.009 9.1802C101.187 9.00136 101.365 8.94177 101.602 8.94177C101.84 8.94177 102.077 9.00136 102.255 9.1802C102.433 9.35903 102.493 9.53787 102.493 9.77632V14.4857C103.145 12.6973 104.214 11.1474 105.638 9.95515C107.062 8.7629 108.783 8.16679 110.742 8.10718C112.166 8.16679 112.819 8.52446 112.819 9.1802Z" fill="#424e58"></path><path d="M154.896 26.7659C154.896 26.587 155.015 26.3486 155.252 26.1698C155.371 26.0505 155.549 25.9313 155.786 25.9313C156.083 25.9313 156.321 26.0505 156.499 26.289C158.22 28.7331 160.594 29.985 163.68 29.985C165.223 29.985 166.647 29.5677 167.834 28.7927C169.021 28.0178 169.614 26.9447 169.614 25.5736C169.614 24.2025 169.08 23.1891 168.071 22.4738C167.062 21.818 165.638 21.2219 163.798 20.8046C161.424 20.2085 159.525 19.4335 158.16 18.4201C156.795 17.4067 156.083 16.0356 156.083 14.1877C156.083 12.4589 156.795 10.9686 158.16 9.83596C159.525 8.70332 161.365 8.10718 163.561 8.10718C164.748 8.10718 165.994 8.34564 167.181 8.82254C168.368 9.29944 169.496 10.0744 170.445 11.0878C170.623 11.2666 170.742 11.4455 170.742 11.6839C170.742 11.9224 170.623 12.1608 170.445 12.3993C170.208 12.5185 170.03 12.5781 169.852 12.5781C169.674 12.5781 169.496 12.5185 169.318 12.3397C167.775 10.6705 165.816 9.77632 163.383 9.77632C161.84 9.77632 160.475 10.134 159.407 10.909C158.338 11.6839 157.804 12.7569 157.804 14.128C157.864 15.3799 158.457 16.3933 159.585 17.1087C160.653 17.824 162.255 18.4201 164.332 18.9567C165.816 19.3143 167.122 19.7912 168.071 20.2085C169.08 20.6854 169.852 21.3411 170.445 22.1757C171.039 23.0103 171.335 24.0833 171.335 25.4544C171.335 27.3024 170.623 28.7927 169.199 29.8657C167.775 30.9388 165.875 31.4753 163.561 31.4753C160.178 31.4753 157.389 30.1638 155.252 27.4812C155.015 27.2428 154.896 27.0043 154.896 26.7659Z" fill="#424e58"></path><path d="M183.561 26.7659C183.561 26.587 183.679 26.3486 183.917 26.1698C184.035 26.0505 184.213 25.9313 184.451 25.9313C184.748 25.9313 184.985 26.0505 185.163 26.289C186.884 28.7331 189.258 29.985 192.344 29.985C193.887 29.985 195.311 29.5677 196.498 28.7927C197.685 28.0178 198.279 26.9447 198.279 25.5736C198.279 24.2025 197.745 23.1891 196.736 22.4738C195.727 21.818 194.303 21.2219 192.463 20.8046C190.089 20.2085 188.19 19.4335 186.825 18.4201C185.46 17.4067 184.748 16.0356 184.748 14.1877C184.748 12.4589 185.46 10.9686 186.825 9.83596C188.19 8.70332 190.03 8.10718 192.225 8.10718C193.412 8.10718 194.659 8.34564 195.846 8.82254C197.033 9.29944 198.16 10.0744 199.11 11.0878C199.288 11.2666 199.406 11.4455 199.406 11.6839C199.406 11.9224 199.288 12.1608 199.11 12.3993C198.872 12.5185 198.694 12.5781 198.516 12.5781C198.279 12.5781 198.101 12.5185 197.982 12.3397C196.439 10.6705 194.481 9.77632 192.047 9.77632C190.504 9.77632 189.139 10.134 188.071 10.909C187.003 11.6839 186.469 12.7569 186.469 14.128C186.528 15.3799 187.122 16.3933 188.249 17.1087C189.317 17.824 190.92 18.4201 192.997 18.9567C194.481 19.3143 195.786 19.7912 196.736 20.2085C197.745 20.6854 198.516 21.3411 199.11 22.1757C199.703 23.0103 200 24.0833 200 25.4544C200 27.3024 199.288 28.7927 197.863 29.8657C196.439 30.9388 194.54 31.4753 192.225 31.4753C188.843 31.4753 186.053 30.1638 183.917 27.4812C183.679 27.2428 183.561 27.0043 183.561 26.7659Z" fill="#424e58"></path><path d="M140.831 17.586H132.641H124.451V17.1687C124.629 15.6784 125.104 14.3669 125.875 13.2939C126.706 12.2208 127.715 11.3863 128.902 10.7901C130.089 10.2536 131.335 9.95555 132.582 9.95555C133.887 9.95555 135.134 10.2536 136.261 10.7901C137.448 11.3267 138.457 12.1612 139.288 13.2939C140.119 14.3669 140.594 15.6784 140.712 17.1687V17.586H140.831ZM141.128 12.7573C140.178 11.267 138.932 10.0748 137.448 9.35942C135.964 8.58446 134.362 8.22681 132.641 8.22681C130.92 8.22681 129.318 8.58446 127.834 9.35942C126.35 10.1344 125.104 11.267 124.154 12.7573C123.205 14.2477 122.73 16.1553 122.671 18.3609C122.671 18.5994 122.73 18.8378 122.908 19.0167C123.027 19.1359 123.205 19.2551 123.324 19.3147H132.582H141.84C142.018 19.2551 142.137 19.1955 142.255 19.0167C142.433 18.8378 142.493 18.5994 142.493 18.3609C142.611 16.0957 142.077 14.2477 141.128 12.7573Z" fill="#424e58"></path></g><defs></defs></svg>