<svg width="5000" height="1500" viewBox="0 0 5000 1500" fill="none" xmlns="http://www.w3.org/2000/svg">
<rect width="5000" height="1500" fill="#1E1E1E"/>
<path d="M1194.53 745.72C1161.88 739.083 1138.04 731.265 1123.02 722.268C1116.24 718.962 1110.5 713.746 1106.46 707.223C1102.43 700.699 1100.26 693.132 1100.21 685.394C1100.18 678.931 1101.74 672.566 1104.76 666.901C1107.77 661.235 1112.14 656.457 1117.45 653.019C1132.19 643.759 1149.34 639.383 1166.57 640.482C1212.05 640.482 1235.89 658.255 1238.08 693.801V699.996H1284.13V693.58C1284.5 679.992 1281.98 666.485 1276.74 654.011C1271.5 641.537 1263.68 630.398 1253.81 621.381C1233.79 603.78 1204.71 594.979 1166.57 594.979C1137.01 593.83 1107.91 602.83 1083.84 620.57C1073.36 628.156 1064.86 638.288 1059.08 650.071C1053.31 661.854 1050.44 674.924 1050.73 688.123C1050.47 699.466 1052.68 710.725 1057.21 721.065C1061.75 731.406 1068.47 740.563 1076.9 747.859C1097.44 764.948 1121.93 776.232 1147.98 780.603C1183.78 787.682 1208.95 795.967 1223.49 805.456C1230.38 809.835 1236 816.037 1239.77 823.417C1243.55 830.797 1245.33 839.085 1244.95 847.418C1245.04 855.386 1243.04 863.23 1239.16 870.123C1235.28 877.016 1229.67 882.701 1222.92 886.579C1207.12 896.38 1188.94 901.319 1170.51 900.812C1149.55 901.956 1128.82 895.942 1111.51 883.702C1104.44 878.225 1098.68 871.149 1094.68 863.018C1090.67 854.887 1088.53 845.917 1088.41 836.799H1040C1040.95 872.345 1052.68 899.951 1075.18 919.618C1097.68 939.284 1129.41 949.117 1170.36 949.117C1202.62 950.284 1234.35 940.49 1260.68 921.24C1272.48 912.477 1281.99 900.842 1288.38 887.372C1294.77 873.901 1297.83 859.011 1297.29 844.026C1297.29 793.189 1263.04 760.42 1194.53 745.72ZM1578.04 625.216C1553.87 605.009 1520.5 594.93 1477.93 594.979C1441.1 594.979 1410.71 604.419 1386.54 623.372C1374.82 632.263 1365.2 643.776 1358.42 657.047C1351.63 670.317 1347.85 685.001 1347.35 699.996H1395.4C1396.35 691.335 1399.16 683.003 1403.64 675.613C1408.12 668.223 1414.15 661.963 1421.29 657.296C1438.33 647.138 1457.83 642.201 1477.5 643.063C1503.24 643.063 1523.69 648.815 1538.85 660.172C1554.01 671.529 1561.59 689.671 1561.59 713.492V745.72H1475.78C1435.78 745.72 1403.72 754.496 1379.6 772.048C1355.48 789.6 1343.58 815.436 1343.92 849.557C1343.92 882.301 1354.02 907.08 1374.24 923.895C1396.12 941.272 1423.22 950.196 1450.82 949.117C1474.12 950.046 1497.3 945.19 1518.4 934.957C1536.73 924.793 1552.54 910.408 1564.6 892.921V943.364H1614.22V713.05C1614.22 674.848 1602.16 645.57 1578.04 625.216V625.216ZM1561.81 809.586C1562.24 822.17 1560.07 834.706 1555.44 846.356C1550.8 858.005 1543.8 868.5 1534.92 877.139C1516 895.081 1490.95 904.55 1465.27 903.467C1419.31 903.467 1396.33 885.694 1396.33 850.147C1396.33 829.276 1402.84 814.232 1416 804.94C1429.16 795.647 1449.18 791.075 1476.28 791.075H1562.09L1561.81 809.586ZM2982.92 625.216C2958.75 605.009 2925.38 594.93 2882.81 594.979C2845.98 594.979 2815.59 604.419 2791.42 623.372C2779.71 632.274 2770.11 643.79 2763.32 657.058C2756.54 670.327 2752.75 685.005 2752.23 699.996H2800.5C2801.45 691.335 2804.26 683.003 2808.74 675.613C2813.22 668.223 2819.25 661.963 2826.39 657.296C2843.52 647.174 2863.09 642.313 2882.81 643.284C2908.55 643.284 2929.01 649.036 2944.17 660.394C2959.33 671.751 2966.91 689.893 2966.91 713.713V745.72H2881.09C2841.14 745.72 2809.08 754.496 2784.91 772.048C2760.74 789.6 2748.68 815.436 2748.73 849.557C2748.73 882.301 2758.84 907.08 2779.05 923.895C2800.94 941.272 2828.03 950.196 2855.64 949.117C2878.94 950.046 2902.11 945.19 2923.21 934.957C2941.54 924.793 2957.35 910.408 2969.41 892.921V943.364H3019.04V713.05C3019.08 674.848 3007.05 645.57 2982.92 625.216ZM2966.69 809.586C2967.13 822.129 2964.99 834.627 2960.39 846.248C2955.79 857.87 2948.85 868.349 2940.02 876.991C2921.1 894.934 2896.05 904.403 2870.37 903.319C2824.41 903.319 2801.43 885.546 2801.43 849.999C2801.43 829.129 2807.94 814.084 2821.1 804.792C2834.25 795.5 2854.28 790.927 2881.38 790.927H2967.19L2966.69 809.586ZM2336.9 616.292C2319.29 605.452 2299.72 598.435 2279.39 595.672C2259.06 592.908 2238.39 594.457 2218.66 600.223C2198.93 605.988 2180.55 615.85 2164.64 629.202C2148.74 642.554 2135.64 659.116 2126.16 677.872C2111.66 706.994 2104.43 739.39 2105.14 772.122C2104.42 804.855 2111.64 837.255 2126.16 866.372C2138.8 891.645 2157.94 912.843 2181.48 927.641C2205.03 942.44 2232.07 950.269 2259.64 950.269C2287.21 950.269 2314.25 942.44 2337.79 927.641C2361.34 912.843 2380.47 891.645 2393.11 866.372C2407.66 837.268 2414.89 804.859 2414.13 772.122C2414.88 739.387 2407.65 706.982 2393.11 677.872C2380.28 652.365 2360.82 631.044 2336.9 616.292V616.292ZM2333.47 866.667C2324.2 877.401 2312.83 885.992 2300.11 891.875C2287.39 897.757 2273.61 900.798 2259.67 900.798C2245.73 900.798 2231.95 897.757 2219.23 891.875C2206.51 885.992 2195.15 877.401 2185.87 866.667C2166.81 843.903 2157.39 812.363 2157.63 772.048C2157.87 731.732 2167.28 700.193 2185.87 677.429C2195.15 666.694 2206.51 658.104 2219.23 652.221C2231.95 646.339 2245.73 643.298 2259.67 643.298C2273.61 643.298 2287.39 646.339 2300.11 652.221C2312.83 658.104 2324.2 666.694 2333.47 677.429C2352.25 700.242 2361.67 731.782 2361.72 772.048C2361.77 812.314 2352.35 843.854 2333.47 866.667V866.667ZM2703.11 600.658H2644.47L2515.75 763.493V473H2463.33V943.364H2515.75V841.002L2564.95 777.579L2678.29 943.364H2734.14L2596.77 736.87L2703.11 600.658ZM3356.21 943.364H3432.08V865.192H3356.21V943.364ZM4015.67 747.785C4015.67 699.922 4001.37 662.458 3977.05 635.467C3952.74 608.475 3917.13 594.905 3869.79 594.905C3841.66 594.775 3814.02 602.545 3789.85 617.382C3765.67 632.219 3745.87 653.563 3732.56 679.125C3718.26 705.97 3713.61 736.649 3713.61 771.237C3712.99 803.389 3719.47 835.267 3732.56 864.454C3744.31 890.413 3763.28 912.182 3787.05 926.992C3812 942.095 3840.52 949.755 3869.43 949.117C3906.67 949.117 3937.01 939.874 3960.46 921.387C3983.92 902.901 3999.1 875.86 4006.02 840.265L4006.73 836.725H3957.1L3956.39 840.265C3951.97 858.745 3941.32 875.003 3926.35 886.136C3909.14 896.839 3889.22 901.976 3869.15 900.886C3855.36 901.212 3841.67 898.417 3829.04 892.696C3816.41 886.974 3805.16 878.467 3796.06 867.773C3776.99 845.747 3766.89 815.535 3765.74 777.137H4015.6L4015.67 747.785ZM3963.9 733.035H3769.53C3775.47 704.569 3785.77 682.518 3803.64 666.662C3821.76 650.932 3844.83 642.566 3868.5 643.137C3897.44 643.137 3920.32 650.855 3937.15 666.293C3945.54 673.501 3952.29 682.521 3956.92 692.716C3961.56 702.911 3963.96 714.032 3963.97 725.292L3963.9 733.035ZM1973.42 594.979C1955.37 594.68 1937.63 599.805 1922.36 609.729C1908.47 618.058 1897.41 630.599 1890.68 645.644C1887.22 630.621 1878.64 617.379 1866.51 608.327C1853.35 599.032 1837.61 594.423 1821.67 595.2C1804.62 594.82 1787.8 599.367 1773.12 608.327C1759.1 617.044 1748.12 630.104 1741.73 645.644V600.658H1689.31V943.364H1741.73V706.634C1740.78 689.125 1746.18 671.879 1756.89 658.255C1761.85 652.409 1768.01 647.779 1774.92 644.704C1781.84 641.629 1789.33 640.186 1796.86 640.482C1809.8 639.934 1822.5 644.23 1832.62 652.576C1837.25 656.833 1840.89 662.115 1843.27 668.028C1845.65 673.941 1846.7 680.331 1846.35 686.722V943.364H1898.83V706.634C1897.88 689.125 1903.29 671.879 1913.99 658.255C1918.95 652.409 1925.12 647.779 1932.03 644.704C1938.95 641.629 1946.44 640.186 1953.97 640.482C1966.92 639.9 1979.62 644.2 1989.72 652.576C1994.39 656.812 1998.07 662.087 2000.47 668.002C2002.87 673.917 2003.94 680.318 2003.6 686.722V943.364H2055.94V688.123C2055.94 655.428 2049.51 631.73 2036.63 617.03C2023.98 602.28 2002.81 594.979 1973.42 594.979ZM3167.63 863.79V649.036H3249.66V600.658H3167.85V522.411H3115.43V600.658H3062.73V649.036H3115.43V861.652C3115.43 892.036 3122.58 914.16 3136.46 928.025C3150.33 941.889 3171.07 948.969 3198.17 948.969C3220.33 949.382 3242.43 946.272 3263.67 939.751V891.741C3244.2 897.754 3224 900.882 3203.68 901.033C3179.79 900.812 3167.85 888.422 3167.85 863.79H3167.63ZM3580.17 863.79V649.036H3662.27V600.658H3580.39V522.411H3527.97V600.658H3475.27V649.036H3527.97V861.652C3527.97 892.036 3535.12 914.16 3549 928.025C3562.87 941.889 3583.54 948.969 3610.71 948.969C3632.87 949.377 3654.97 946.268 3676.21 939.751V891.741C3656.74 897.754 3636.54 900.882 3616.22 901.033C3592.33 900.812 3580.39 888.422 3580.39 863.79H3580.17ZM4214.75 643.284C4234.67 642.631 4254.26 648.633 4270.6 660.394C4283.4 670.05 4292.45 684.088 4296.13 699.996H4344.4C4340.68 666.81 4327.88 641.465 4306 623.962C4279.74 603.889 4247.64 593.617 4214.97 594.832C4188.76 594.837 4163.04 602.068 4140.45 615.776C4116.49 630.384 4096.93 651.577 4083.96 676.987C4069.08 706.221 4061.7 738.894 4062.51 771.9C4061.64 804.97 4068.25 837.794 4081.82 867.773C4093.31 893.019 4111.8 914.19 4134.95 928.615C4158.4 942.583 4185.1 949.697 4212.18 949.191C4234.53 949.335 4256.66 944.505 4277.04 935.031C4296.47 925.636 4312.97 910.82 4324.66 892.257C4334.33 875.126 4341.01 856.381 4344.4 836.872H4296.13C4292.51 853.789 4283.62 869.019 4270.82 880.236C4251.88 895.56 4227.95 902.782 4203.98 900.407C4180.02 898.031 4157.86 886.241 4142.1 867.478C4124.17 845.206 4115.21 813.445 4115.21 772.195C4115.21 730.946 4124.75 699.308 4143.82 677.282C4152.46 666.493 4163.34 657.838 4175.65 651.955C4187.96 646.071 4201.4 643.108 4214.97 643.284H4214.75ZM4620.5 624.478C4601.67 608.194 4578.53 598.135 4554.08 595.609C4529.62 593.084 4505 598.209 4483.42 610.319C4467.72 620.171 4454.7 633.976 4445.59 650.438V473H4393.17V943.364H4445.59V753.537C4445.59 720.351 4450.74 693.211 4466.61 672.414C4473.78 662.353 4483.2 654.224 4494.07 648.716C4504.94 643.208 4516.93 640.485 4529.04 640.777C4553.88 640.777 4572.16 648.151 4583.89 662.901C4596.08 679.257 4602.31 699.515 4601.48 720.129V943.364H4653.9V705.159C4654.24 690.031 4651.44 675.002 4645.68 661.085C4639.92 647.167 4631.33 634.685 4620.5 624.478V624.478Z" fill="#FAF3C0"/>
<path d="M340 750H715" stroke="#FAF3C0" stroke-width="50" stroke-miterlimit="10"/>
<path d="M790 300V675" stroke="#FAF3C0" stroke-width="50" stroke-miterlimit="10"/>
<path d="M790 825V1200" stroke="#FAF3C0" stroke-width="50" stroke-miterlimit="10"/>
</svg>
