<svg xmlns="http://www.w3.org/2000/svg" viewBox="0 0 162 73.16">
    <defs>
        <style>
            .cls-1{fill:#009ace}.cls-2{fill:#3d3935}
        </style>
    </defs>
    <path d="M70.83 0a5.44 5.44 0 1 0 5.44 5.43A5.42 5.42 0 0 0 70.83 0" class="cls-1"/>
    <path d="M129.76 17.91h8.35l.13 3.48a12.29 12.29 0 0 1 9.59-4.53c9.17 0 14.17 5.67 14.17 15.55v23h-8.66V32.72c0-5.08-3.11-8-7.47-8s-7.45 2.92-7.45 8v22.71h-8.66ZM56.65 55.43H48V.89h8.67Zm18.53 0H66.5V17.91h8.68ZM29.57 17.91h8.57v37.52h-8.57l-.14-3.93a16.82 16.82 0 0 1-11.62 5C7.58 56.49 0 48.26 0 36.72c0-12.3 8.21-19.86 17.81-19.86a15 15 0 0 1 11.62 5ZM8.86 36.72c0 7.2 4.41 12 10.55 12 5.59 0 10.59-4.1 10.59-12 0-7.71-4.79-12-10.56-12-6.44 0-10.58 5.05-10.58 12m102.87 0c0-7.82-4.93-12-10.54-12-6.7 0-10.57 5.45-10.57 12 0 6.91 4.17 12 10.57 12 5.89 0 10.54-4.38 10.54-12m8.17 15c0 16.1-9.42 21.44-20.51 21.44a29.32 29.32 0 0 1-13.42-3l2.15-7.44a22.69 22.69 0 0 0 11.2 2.92c6.45 0 11.93-4.14 11.93-11.59v-2.58a15.34 15.34 0 0 1-11.73 5c-10.1 0-17.74-8.13-17.74-19.82 0-11.2 7.19-19.81 17.78-19.81a14.9 14.9 0 0 1 11.64 5l.11-3.95h8.59Z" class="cls-2"/>
</svg>
