<svg xmlns="http://www.w3.org/2000/svg" viewBox="0 0 162 40">
    <g fill="none" transform="translate(2)">
        <path fill="#333" d="M10 14a12.24 12.24 0 0 1 8-2c-1.07.65-1.52.98-2 1 .87.4 1.67.43 3 1-.1-.27.26-.15 1 0 1.43-3.63 4.24-5.73 8-6L15 0 2 8c3.67.27 6.43 2.28 8 6z"/>
        <path fill="#535353" d="M10.55 13.5c2.6-1.5 2.93-1.82 5.17-1.18-.6.2 1.04.41.74.91a6.62 6.62 0 0 1 3.41.5c.47-.9 1-1.7 1.6-2.4v-1.04c-.18-1.47-2.86-2.64-6.18-2.64s-6 1.17-6.18 2.64v1.03c.53.65 1 1.36 1.45 2.18z"/>
        <path fill="#ff732b" d="M19.36 13c-.2.26-.55.12-.97 0-.8-.15-1.57-.18-1.94 0 0-.6.43-.92.97-1-2.19-.78-4.55-.33-6.77 1C8.22 9.07 4.76 7 0 7v21l14.52 5L30 28V7c-4.87 0-8.36 2.13-10.64 6z"/>
        <path fill="#ffddcd" d="m0 28 14.52 5L30 28v3l-15.48 9L0 31zm2.06-4.76V9.4c2.56 0 4.85 1.77 6.9 5.3.5 1.08.5 1.76 0 2.05-.73.44-1.61-.14-2.35-1.76-.79.67-1.2 2.35-1.23 5a5.5 5.5 0 0 1-.24-2.35c-2.29.88-2.23 3.7-3.08 5.58zm26.46 0V9.4c-2.56 0-4.85 1.77-6.91 5.3 2.94 1.97 5.23 4.79 6.9 8.52z"/>
        <circle cx="8.53" cy="25.59" r="2.94" fill="#fff"/>
        <circle cx="22.64" cy="25.59" r="2.94" fill="#fff"/>
        <circle cx="8.53" cy="25.59" r="1.47" fill="#333"/>
        <circle cx="22.64" cy="25.59" r="1.47" fill="#333"/>
        <ellipse cx="19.7" cy="20.29" fill="#ed4d14" rx="1.47" ry="1"/>
        <ellipse cx="10.88" cy="20.29" fill="#ed4d14" rx="1.47" ry="1"/>
        <path fill="#333" d="M16.76 36.03h-1.03V34.9c.91-.3 1.62-1.5 1.62-2.12 0-.73-.91-1.03-2.06-1.03s-2.06.3-2.06 1.03c0 .65.7 1.83 1.62 2.12v1.12c-1.53-.03-3.24-.27-3.38-1.38a.46.46 0 0 0-.5-.38.46.46 0 0 0-.38.5c.26 1.94 2.85 2.14 4.79 2.14h1.38c.23 0 .44-.2.44-.44s-.2-.44-.44-.44z"/>
        <path fill="#48a1e6" d="M11.47 6.94v-4.7L9.7 3.25v3.68c-.41.3-.67.76-.67 1.3 0 .88.7 1.55 1.55 1.55a1.57 1.57 0 0 0 .89-2.85z"/>
        <path fill="#333" d="M53.79 25.1c-4.66 0-7.79-2.37-7.79-6.67 0-4.24 3.16-6.58 7.79-6.67V10h2.96v1.76c4.6.09 7.79 2.51 7.79 6.67 0 4.25-3.2 6.64-7.8 6.67v2.25H53.8zm0-2.74V14.5c-3.1.03-4.66 1.62-4.66 3.93 0 2.54 1.67 3.9 4.66 3.93zm2.96-7.86v7.86c3.07-.03 4.66-1.33 4.66-3.93 0-2.28-1.5-3.9-4.66-3.93zm15.09 1.48c3.6 0 5.92 2.45 5.92 5.71s-2.33 5.72-5.92 5.72c-3.6 0-5.92-2.45-5.92-5.72s2.33-5.71 5.92-5.71zm0 8.83c1.72 0 2.96-1.24 2.96-3.12 0-1.84-1.3-3.11-2.96-3.11-1.64 0-2.93 1.2-2.93 3.11 0 1.82 1.23 3.12 2.93 3.12zm8.33-8.57h2.8v10.9h-2.8zm6.1 5.2 4.68 5.71h-3.62l-4.31-5.51 3.94-5.4h3.5zm15.23 4.1a5.3 5.3 0 0 1-4.31 1.9c-3.54 0-5.9-2.28-5.9-5.72a5.54 5.54 0 0 1 5.64-5.71c1.78 0 3.36.46 4.37 1.47l-1.3 2.2a3.64 3.64 0 0 0-2.7-1.08 3 3 0 0 0-3.02 3.12c0 1.94 1.5 3.12 3.14 3.12 1.17 0 2.1-.55 2.78-1.33zm6.98 1.87h-.14c-3.8 0-5.9-2.48-5.9-5.72a5.58 5.58 0 0 1 5.87-5.71h.17v-5.8h2.79v5.8h.2c3.74 0 5.83 2.5 5.83 5.71 0 3.27-1.9 5.72-5.83 5.72h-.2v4.6h-2.79zm-.06-2.6h.1v-6.23h-.21c-2.04 0-2.87 1.44-2.87 3.11-.03 1.82.97 3.12 2.99 3.12zm2.85-6.23v6.23h.09c2 0 2.96-1.3 2.96-3.12 0-1.61-.92-3.11-2.88-3.11zm13.68-2.6c3.6 0 5.92 2.45 5.92 5.72s-2.33 5.71-5.92 5.71-5.92-2.45-5.92-5.72 2.33-5.71 5.92-5.71zm0 8.83c1.72 0 2.96-1.24 2.96-3.11 0-1.85-1.3-3.12-2.96-3.12-1.64 0-2.93 1.21-2.93 3.12 0 1.81 1.23 3.11 2.93 3.11zm8.33-8.57h2.8v1.04a4.79 4.79 0 0 1 3.36-1.3c2.99 0 4.91 2.34 4.91 5.54 0 3.32-2.27 5.9-5.75 5.9-.97 0-1.9-.18-2.53-.53V32h-2.78zm2.76 3.55v4.42c.75.49 1.38.63 2.3.63 1.93 0 3.05-1.41 3.05-3.23 0-1.73-1-3-2.85-3a3.28 3.28 0 0 0-2.5 1.18zm9.06 4.76h1.38c.77-1 1.38-3.23 1.52-5.68l.17-2.63h8.02v8.31H158v5.14h-2.64v-2.54h-7.7v2.54h-2.6v-5.14zm4.25 0h4.02v-5.68h-2.64l-.09 1.12c-.2 2.28-.8 3.9-1.29 4.56z"/>
    </g>
</svg>
