<svg xmlns="http://www.w3.org/2000/svg" viewBox="0 0 166.68 29.41">
    <defs>
        <style>
            .cls-2{fill:#000}
        </style>
    </defs>
    <path fill="#ee3a43" d="M32.54.03h-8.63L11.5 29.38h8.63L32.54.03zM16.47 10.78H7.84L0 29.38h8.63l7.84-18.6z"/>
    <path d="M44.77 5.76H68.2L62.48.03H38.65V29.4h6.12V16.51h17.3v-5.74h-17.3V5.76z" class="cls-2"/>
    <path d="M87.72 14.53 102.24.02h-8.22l-10.4 10.5L73.18 0h-8.23l14.54 14.55-14.94 14.86h8.23l10.8-10.87 10.84 10.85h8.24L87.72 14.53z" class="cls-2"/>
    <path d="M128.65 3.53c-2.84-2.59-7.82-3.5-11.52-3.5h-12.39l-3.39 3.39v22.19l3.82 3.79h12.69c3.47 0 8.14-1 10.77-3.35s4.72-4.7 4.72-11.09-2.26-9.21-4.7-11.43Zm-20.58 2.23h9c2.22 0 5.31.69 6.65 2s2.82 3.06 2.82 7.16a9.47 9.47 0 0 1-2.68 6.9c-1.23 1.23-4 1.89-6.05 1.89h-9.74V5.76Zm53.91-2.23c-2.84-2.59-7.82-3.5-11.53-3.5h-12.37l-3.39 3.39v22.19l3.82 3.79h12.68c3.47 0 8.14-1 10.77-3.35s4.72-4.7 4.72-11.09-2.26-9.21-4.7-11.43ZM141.4 5.76h9c2.23 0 5.31.69 6.65 2s2.82 3.06 2.82 7.16a9.48 9.48 0 0 1-2.68 6.9c-1.23 1.23-4 1.89-6.05 1.89h-9.71V5.76Z" class="cls-2"/>
</svg>
