<svg xmlns="http://www.w3.org/2000/svg" viewBox="0 0 508 92">
	<style>
		.space307_st0{fill:none}
		.space307_st1{fill:#00b2b9}
	</style>
	<path d="M324.4-92.1h57v66h-57z" class="space307_st0"/>
	<path d="M0 12.6c0-.4.1-.6.2-.9.1-.1.2-.1.2-.2.9-1.4 2-2.8 3.1-4C4.9 6 6.3 4.7 7.8 3.7c1.5-1.1 2.9-1.9 4.4-2.5C15 0 17.4 0 19.4.6c.9.3 1.8.6 2.6 1s1.7 1 2.5 1.6 1.7 1.3 2.6 2c1 .7 1.9 1.4 2.7 2 1.5 1 2.7 1 3.8.4.5-.3 1.1-.7 1.7-1.2.6-.5 1.3-1.3 2-2.2.6-.7 1.2-1.6 1.9-2.7.3-.4.7-.7 1.2-.7.4 0 .7.1.9.4L48 6.8c.3.3.5.7.5 1.1 0 .3-.1.6-.3.8-.9 1.4-1.8 2.7-2.8 3.9a35.9 35.9 0 0 1-3.9 3.9c-1.4 1.1-2.9 2-4.4 2.7-1.5.6-3.1 1-4.6 1-1.8 0-3.4-.3-4.9-1-1.4-.6-2.7-1.4-3.7-2.2-.7-.5-1.4-1.1-2.1-1.7-.6-.6-1.3-1.1-1.9-1.5s-1.2-.7-1.8-1c-.6-.3-1.2-.4-1.9-.4-.9 0-1.9.5-3 1.5-1.1.9-2.2 2.4-3.4 4.5-.3.4-.7.7-1.2.7-.3 0-.6-.1-.9-.3l-7.1-5c-.3-.3-.6-.7-.6-1.2zM77.9.4c1 0 1.7 1 1.4 2l-23.2 66c-.3.9-1.2 1.1-2.2 1.1H43.7c-1 0-1.7-1-1.4-2l23.2-66C65.8.6 66.7.4 67.7.4h10.2z" class="space307_st1"/>
	<ellipse cx="80.3" cy="61.8" rx="7.4" ry="7.7"/>
	<path d="M139.7 42.1c2.9 2.8 4.3 6.1 4.3 9.6 0 2.4-.5 4.7-1.5 6.8s-2.5 4-4.3 5.7c-1.9 1.6-4.2 3-6.8 3.9s-5.6 1.4-8.8 1.4c-4.2 0-8.1-.7-11.6-2.1-3.4-1.3-6.6-3.4-9.6-6.3-.3-.3-.5-.6-.5-1.1 0-.3.1-.5.2-.7l4.9-9.2c.3-.4.7-.8 1.3-.8.5 0 .9.3 1.2.7 1 1.5 2.5 2.7 3.4 3.6 1 .8 2.1 1.6 3.3 2.3 1.2.7 2.5 1.2 3.9 1.6 1.3.4 2.6.6 3.8.6 2.7 0 4.8-.4 6.2-1.2 1.3-.7 1.9-1.7 1.9-3.1 0-.8-.1-1.4-.4-1.9-.3-.5-.8-1.1-1.5-1.6s-1.6-1-2.7-1.5-2.6-.9-4.3-1.5c-1-.3-1.9-.6-2.8-.9-.9-.3-1.9-.6-2.9-1-1.9-.7-3.7-1.6-5.2-2.6s-2.9-2.1-4-3.3-2-2.6-2.5-4.2c-.6-1.6-.9-3.3-.9-5.2s.5-3.9 1.5-5.8 2.4-3.6 4.2-5c1.7-1.5 3.9-2.7 6.3-3.6s5.1-1.4 8-1.4c3.8 0 7.3.7 10.6 2.1 3.1 1.3 5.9 3.4 8.5 6.4l.1.1c.3.4.4.7.4 1.1-.1.3-.2.5-.3.7l-4.6 7.2c-.3.4-.7.6-1.2.6s-.9-.2-1.1-.6c-.5-.7-1-1.3-1-1.3-.6-.7-1.3-1.4-2.1-2.1-.9-.7-1.8-1.3-2.9-1.8a18 18 0 0 0-3.5-1.2c-2.3-.6-4.5-.6-6.4-.3-.9.1-1.7.4-2.4.7-.6.3-1.1.7-1.5 1.2-.3.5-.5 1-.5 1.7 0 .8.2 1.4.5 1.9.4.5 1 1 1.9 1.5.9.5 2 1 3.4 1.4 1.4.5 3 1 4.9 1.5 5.8 2 10.2 4.2 13.1 7zm56.6-11.6c1.1 3.5 1.7 7.8 1.7 12.5 0 4.3-.6 8.2-1.7 11.4-1.1 3.3-2.7 6-4.6 8.2a18.5 18.5 0 0 1-6.8 5c-4.5 2-9.5 2.5-14.5.3-1.6-.7-3-1.6-4.3-2.7v24.6c0 .8-.6 1.5-1.4 1.5h-10.2c-.8 0-1.4-.7-1.4-1.5L153 17c0-.8.6-1.5 1.4-1.5h9.7c.7 0 1.4.7 1.4 1.4v2.5c.5-.6 1-1.1 1.6-1.5a14.22 14.22 0 0 1 9.6-3.4 19.33 19.33 0 0 1 15.1 7.1c1.9 2.4 3.4 5.3 4.5 8.9zM184 49.8c.6-2 1-4.5 1-7.5 0-5.3-.9-9.5-2.7-12.4a8.5 8.5 0 0 0-7.6-4.2c-1.7 0-3.2.4-4.2 1.2-1.1.8-2 1.9-2.6 3.3-.7 1.4-1.1 3.1-1.3 4.9-.2 1.9-.4 3.9-.4 6 0 3.1.2 5.7.7 7.9a15 15 0 0 0 1.8 5.2c.7 1.3 1.6 2.2 2.7 2.8 2 1.1 4.5 1.3 7.1.1 1.2-.5 2.3-1.4 3.2-2.6.8-1.1 1.6-2.7 2.3-4.7zm64.1-23.2c.9 2.7 1.4 6 1.4 9.7V67c0 .8-.7 1.5-1.5 1.5h-9.8c-.8 0-1.4-.7-1.4-1.5v-2.6a21.8 21.8 0 0 1-5.7 3.5 20.4 20.4 0 0 1-8 1.6c-2.9 0-5.5-.4-7.7-1.3-2.2-.8-4-2-5.4-3.4s-2.5-3.1-3.2-5-1-3.9-1-6c0-2.7.6-5.3 1.7-7.6s2.8-4.3 4.9-5.9c2.1-1.7 4.8-3 8-3.8 3.1-.9 6.8-1.3 10.8-1.3h5.5c-.1-3.3-.8-5.8-2.1-7.3-1.3-1.6-3.4-2.6-6.3-2.4-5.6.4-9.4 3.9-11.2 5.8-.3.3-.6.5-1 .5-.5 0-.9-.2-1.1-.6l-5-6.7c-.2-.2-.3-.6-.3-.9 0-.4.2-.8.4-1 4.7-4.9 10.9-7.8 17.6-8 3.6-.1 6.8.3 9.7 1.2 2.6.8 4.8 2.2 6.6 4 1.8 1.7 3.1 4 4.1 6.8zm-11.8 24.7c.3-.5.5-1.2.6-2.2.1-.9.2-2 .2-3.2l-3.7-.1h-1.3c-2.5 0-4.6.2-6.2.5-1.9.4-3.4 1-4.5 1.8-1 .7-1.7 1.5-2.1 2.4-.4.9-.6 1.8-.6 2.7 0 .8.2 1.5.5 2.1.4.7.8 1.2 1.4 1.7.6.5 1.3.9 2.1 1.3.8.3 1.7.5 2.6.5 1.5 0 2.9-.3 4.1-.8a13.38 13.38 0 0 0 5.5-4.5c.7-.9 1.1-1.6 1.4-2.2zm66.7 7.5c.2.3.4.6.4.9 0 .4-.2.8-.4 1.1-2.7 2.9-5.7 5.1-8.8 6.5a27.3 27.3 0 0 1-10.7 2.2c-3.6 0-7-.7-10.1-2.1s-5.7-3.3-7.9-5.7c-2.2-2.4-3.9-5.3-5.2-8.7-1.3-3.3-1.9-7-1.9-10.9v-.4c0-3.9.6-7.6 1.9-10.9 1.2-3.3 3-6.2 5.2-8.7 2.2-2.4 4.8-4.3 7.9-5.7 3.1-1.4 6.5-2.1 10.1-2.1A25.45 25.45 0 0 1 303 23c.3.3.4.6.4 1.1 0 .4-.2.7-.4.9l-5.7 6.9c-.3.3-.6.6-1.1.6-.4 0-.8-.2-1-.5-.8-.9-1.6-1.7-2.3-2.4-1-.8-2-1.5-3-2s-2-.9-3-1.1c-2.9-.6-5.6-.3-7.8.9-1.5.8-2.8 2-3.9 3.4s-2 3.2-2.6 5.1c-.6 1.8-.8 3.8-.9 5.9 0 2.1.3 4.1.9 5.9.6 1.9 1.5 3.7 2.6 5.1 1.1 1.4 2.4 2.6 3.9 3.4 2.2 1.2 5 1.5 7.8.9 1-.2 2-.6 3-1.1s2-1.2 3-2c.8-.7 1.6-1.5 2.3-2.4.3-.3.6-.5 1-.5.5 0 .8.3 1.1.6l5.7 7.1zm51.6-29.9c1.1 3.2 1.7 6.9 1.7 11 0 .9 0 1.8-.1 2.7l-.2 1.8c-.1.7-.7 1.3-1.4 1.3H324c.3 2.1.8 3.9 1.5 5.3.8 1.7 1.7 3.1 2.8 4.2 1.1 1.1 2.3 1.9 3.6 2.4 3.4 1.3 7 .9 10.4-.7a14.01 14.01 0 0 0 4.7-3.8c.3-.3.6-.5 1.1-.5.4 0 .8.2 1 .4l5.4 5.6c.3.3.4.7.4 1.1 0 .4-.2.8-.4 1-5 5.8-11.2 8.7-18.5 8.7-3.6 0-6.9-.6-10-1.8a21 21 0 0 1-8-5.4c-2.2-2.3-4-5.2-5.2-8.6-1.2-3.3-1.9-7.1-1.9-11.4s.6-8.2 1.8-11.6c1.2-3.4 2.8-6.4 5-8.8 2.1-2.4 4.6-4.3 7.5-5.6s6.1-2 9.5-2c3 0 5.8.5 8.4 1.6s4.9 2.7 6.8 4.8c2 2.5 3.6 5.2 4.7 8.3zm-30.2 6.6h18.8c-.1-1.3-.3-2.5-.6-3.7a9.55 9.55 0 0 0-4.7-5.9 8.37 8.37 0 0 0-7.4-.1c-1.1.5-2.1 1.3-2.9 2.2-.9 1-1.5 2.1-2.1 3.5-.5 1.2-.9 2.5-1.1 4z"/>
	<path d="M507.6 1.7s-.1.1 0 0l-.4 5.7-21 59.9c-.3.9-1.2 1.1-2.2 1.1h-10.2c-1 0-1.7-1-1.4-2l19.3-54.3h-22.9c-.8 0-1.4-.7-1.4-1.5V1.7c0-.8.6-1.5 1.4-1.5H506c1 .1 1.6.7 1.6 1.5zM427 27.5v14.4c0 1.9.3 3.7.7 5.4l12.6-35.1c-.5-.2-1-.3-1.6-.4h-2.2c-1.1.2-2.2.5-3.2 1.1-1.3.8-2.4 2-3.4 3.4s-1.7 3.2-2.2 5.1c-.4 2-.6 4-.7 6.1zm21.2 14.4V27.5c0-2.1-.3-4.1-.7-5.8l-12.7 35.4c.6.2 1.2.4 1.8.5h2.2c1.1-.2 2.2-.5 3.2-1.1 1.3-.8 2.4-2 3.4-3.4.9-1.5 1.7-3.2 2.2-5.1.3-1.9.6-4 .6-6.1zM437.1 0h1.2c3.1 0 6 .7 8.6 2.1 2.7 1.4 5 3.3 6.9 5.7s3.4 5.3 4.5 8.7c1.1 3.3 1.6 7 1.6 10.9v14.8c0 3.9-.6 7.6-1.6 10.9-1.1 3.3-2.6 6.2-4.5 8.7a21.1 21.1 0 0 1-6.9 5.7c-2.7 1.4-5.6 2.1-8.8 2.1h-.8c-3.2 0-6.1-.7-8.8-2.1s-5-3.3-6.9-5.7c-1.9-2.4-3.4-5.3-4.5-8.7-1.1-3.3-1.6-7-1.6-10.9V27.3c0-3.9.5-7.6 1.6-10.9s2.6-6.2 4.5-8.7c1.9-2.4 4.2-4.3 6.9-5.7 2.6-1.3 5.5-2 8.6-2zm-30.5 48.8c0 3-.5 5.9-1.4 8.4-1 2.5-2.4 4.7-4.3 6.5-1.9 1.8-4.3 3.2-7 4.2s-5.9 1.5-9.4 1.5-6.9-.7-10-2.1c-2.9-1.3-5.5-3.4-7.9-6.2l-.1-.1c-.2-.2-.3-.6-.3-.9 0-.3.1-.7.3-.9l5.4-6.9c.3-.3.6-.5 1.1-.5.2 0 .5 0 .9.3.6.6 1.5 1.3 2.5 2.1 3.6 2.8 5.8 3.3 8.6 3.5 1.2 0 2.5-.2 3.5-.6 1.1-.4 2.1-.9 2.9-1.8.8-.9 1.5-1.9 2-3.2a11.96 11.96 0 0 0-.1-8.3c-.6-1.2-1.3-2.1-2.3-2.9-1-.8-2.2-1.4-3.6-1.8-1.4-.4-3-.6-4.6-.6-.1 0-4 .2-4.7.2-.8 0-1.4-.6-1.4-1.4v-7.7c0-.8.6-1.4 1.4-1.5 2.6 0 4.8-.3 6.7-.7 2-.5 3.5-1.1 4.7-1.9s2-1.8 2.5-2.9c.5-1.2.7-2.6.7-4.1 0-1-.2-2-.5-2.8-.3-.8-.8-1.6-1.4-2.3s-1.4-1.2-2.3-1.6c-2.1-.9-4.9-.8-7.9.7-1.5.8-3 2.1-4.6 4-.3.3-.6.5-1 .5s-.8-.2-1.1-.5l-5.3-6.2c-.2-.3-.4-.6-.4-1 0-.3.1-.6.3-.9.1-.1.4-.5.5-.6 2.1-2.6 4.4-4.5 7-5.7 3-1.4 6.2-2.1 9.7-2.1 2.9 0 5.5.5 7.9 1.4a18.13 18.13 0 0 1 10.3 9.8c1 2.2 1.4 4.8 1.4 7.5 0 1.7-.3 3.4-.8 4.9s-1.2 2.9-2.1 4.1-1.9 2.2-3 3.1c-.7.6-1.4 1.1-2.1 1.5.9.5 1.8 1 2.6 1.7 1.3 1 2.4 2.3 3.4 3.7a21 21 0 0 1 2.4 5c.6 1.9.9 3.9.9 6.1z" class="space307_st1"/>
</svg>
