<svg xmlns="http://www.w3.org/2000/svg" baseProfile="tiny-ps" version="1.2" viewBox="0 0 1338 386">
    <style>
        .shp0{fill:#fc3f1d}.shp1{fill:#000}
    </style>
    <path d="M163.87 45.42h-25.8c-47.29 0-72.13 23.73-72.13 58.84 0 39.86 17.2 58.37 52.55 82.1l29.13 19.45-84.07 124.81H.98L76.45 219.1C32.98 188.25 8.62 158.36 8.62 107.58 8.62 44 53.05.81 137.59.81h84.07v329.81h-57.79V45.42Z" class="shp0"/>
    <path fill-rule="evenodd" d="M690.26 286.01h25.31v99.18h-52.54v-54.57H535.49v54.57h-52.54v-99.18h17.67c20.06-39.86 23.89-115.31 23.89-173.68V91.92h165.75v194.09Zm-56.85-149.48h-60.18v7.12c0 41.28-4.3 106.29-20.06 142.36h80.24V136.53Z" class="shp1"/>
    <path d="M402.22 186.36h-75.95V91.92h-56.84v238.7h56.84v-99.66h75.95v99.66h56.84V91.92h-56.84v94.44Zm879.87-54.58c21.97 0 43.47 7.6 54.93 14.72V98.57c-11.94-6.65-32.96-11.39-61.14-11.39-72.61 0-110.34 51.72-110.34 124.33 0 79.72 36.78 123.85 112.73 123.85 26.27 0 44.9-4.74 58.75-14.71v-46.03c-14.33 9.97-31.53 16.13-55.41 16.13-40.6 0-57.32-31.32-57.32-80.67 0-51.72 20.54-78.3 57.8-78.3Zm-124.2-39.86h-57.32l-80.24 110.1V91.92h-56.85v238.7h56.85V213.4l84.07 117.22h64.48l-91.23-128.6 80.24-110.1Z" class="shp1"/>
    <path fill-rule="evenodd" d="M925.27 201.54v29.9H788.18c2.39 39.86 18.15 59.31 59.71 59.31 27.7 0 57.32-10.44 74.99-22.3v46.03c-16.72 11.39-43.47 20.88-79.77 20.88-72.61 0-113.68-40.33-113.68-123.38 0-72.13 32.95-124.8 102.22-124.8 56.84 0 93.62 31.32 93.62 114.36Zm-57.8-16.61c0-29.89-8.6-53.15-36.78-53.15-27.23 0-41.08 19.94-42.51 57.9h79.29v-4.75Z" class="shp1"/>
</svg>
