<svg id="Layer_1" data-name="Layer 1" xmlns="http://www.w3.org/2000/svg" viewBox="0 0 166.68 29.41"><defs><style>.cls-1{fill:#ee3a43;}.cls-2{fill:#000000;}</style></defs><title>fxddlogo</title><polygon class="cls-1" points="32.54 0.03 23.91 0.03 11.5 29.38 20.13 29.38 32.54 0.03"/><polygon class="cls-1" points="16.47 10.78 7.84 10.78 0 29.38 8.63 29.38 16.47 10.78"/><polygon class="cls-2" points="44.77 5.76 68.2 5.76 62.48 0.03 38.65 0.03 38.65 29.4 44.77 29.4 44.77 16.51 62.07 16.51 62.07 10.77 44.77 10.77 44.77 5.76"/><polygon class="cls-2" points="87.72 14.53 102.24 0.02 94.02 0.02 83.62 10.52 73.18 0 64.95 0 79.49 14.55 64.55 29.41 72.78 29.41 83.58 18.54 94.42 29.39 102.66 29.39 87.72 14.53"/><path class="cls-2" d="M131.08,6.56c-2.84-2.59-7.82-3.5-11.52-3.5H107.17l-3.39,3.39V28.64l3.82,3.79h12.69c3.47,0,8.14-1,10.77-3.35s4.72-4.7,4.72-11.09S133.52,8.78,131.08,6.56ZM110.5,8.79h9c2.22,0,5.31.69,6.65,2s2.82,3.06,2.82,7.16a9.47,9.47,0,0,1-2.68,6.9c-1.23,1.23-4,1.89-6.05,1.89H110.5V8.79Z" transform="translate(-2.43 -3.03)"/><path class="cls-2" d="M164.41,6.56c-2.84-2.59-7.82-3.5-11.53-3.5H140.51l-3.39,3.39V28.64l3.82,3.79h12.68c3.47,0,8.14-1,10.77-3.35s4.72-4.7,4.72-11.09S166.85,8.78,164.41,6.56ZM143.83,8.79h9c2.23,0,5.31.69,6.65,2s2.82,3.06,2.82,7.16a9.48,9.48,0,0,1-2.68,6.9c-1.23,1.23-4,1.89-6.05,1.89h-9.71V8.79Z" transform="translate(-2.43 -3.03)"/></svg>