<?xml version="1.0" encoding="utf-8"?>
<!-- Generator: Adobe Illustrator 20.1.0, SVG Export Plug-In . SVG Version: 6.00 Build 0)  -->
<svg version="1.1" id="Layer_1" xmlns="http://www.w3.org/2000/svg" xmlns:xlink="http://www.w3.org/1999/xlink" x="0px" y="0px"
	 viewBox="0 0 322 118" style="enable-background:new 0 0 322 118;" xml:space="preserve">
<style type="text/css">
	.st0{fill-rule:evenodd;clip-rule:evenodd;fill:#00d6d0;}
</style>
<g>
	<path class="st0" d="M97.7,46.4c-5.9,0-10.9,1.9-14.9,5.8c-3.8,3.6-6,8.2-6.5,13.6h41.5c0-5.4-1.7-9.8-5.1-13.4
		C109.1,48.3,104.1,46.4,97.7,46.4L97.7,46.4L97.7,46.4z M280.7,46.4c-6,0-10.9,1.9-14.9,5.8c-3.8,3.6-6,8.2-6.5,13.6h41.5
		c0-5.4-1.6-9.8-5-13.4C292,48.3,287,46.4,280.7,46.4L280.7,46.4L280.7,46.4z M224,46.4c-6,0-10.9,1.9-14.9,5.8
		c-3.8,3.6-6,8.2-6.5,13.6h41.6c0-5.4-1.7-9.8-5.1-13.4C235.4,48.3,230.4,46.4,224,46.4L224,46.4L224,46.4z M197.1,47.8
		c-2-1-4.1-1.5-6.1-1.5c-4.7,0-8.8,2.2-12.4,6.5c-3.5,4.4-5.3,9.6-5.3,15.7v43H160V47.8h-13.1v63.8h-13.3V47.8h-8.2
		c3.8,5.3,5.7,11.7,5.7,19.5c0,3-0.4,5.7-1.1,8.1H75.9c0,8.8,2.4,15.5,7.2,20.3c4.3,4.1,9.7,6.2,16.4,6.2c7.6,0,13.9-2.2,19.1-6.6
		l5.6,9.6c-2.1,2.1-5.2,3.8-9.5,5.3c-5.3,2-11.3,2.9-17.8,2.9c-9.4,0-17.4-3.2-24-9.6c-0.1-0.1-0.2-0.2-0.3-0.3c0,0,0,0-0.1-0.1
		c0,0,0,0,0,0c0,0-0.1,0-0.1-0.1c-0.1-0.1-0.1-0.1-0.2-0.2c0,0-0.1,0-0.1-0.1c-0.1-0.1-0.2-0.2-0.3-0.3c0,0,0-0.1-0.1-0.1
		c-0.1-0.1-0.2-0.2-0.3-0.3c0,0,0,0-0.1-0.1c-0.1-0.1-0.2-0.2-0.2-0.3c-0.1,0-0.1-0.1-0.1-0.1c0-0.1-0.1-0.1-0.1-0.1
		c0,0-0.1-0.1-0.1-0.1c0,0-0.1-0.1-0.1-0.1c-0.1-0.1-0.1-0.1-0.2-0.2c-0.1-0.1-0.1-0.1-0.2-0.2c0,0-0.1-0.1-0.1-0.1
		c-0.1-0.1-0.1-0.2-0.2-0.2c0-0.1-0.1-0.1-0.2-0.2c-0.1-0.1-0.1-0.1-0.2-0.2c0,0-0.1-0.1-0.1-0.1c-0.1-0.1-0.2-0.2-0.3-0.4
		c0,0,0,0,0,0c-0.2-0.3-0.4-0.5-0.6-0.8c0,0,0,0,0,0c-0.4-0.5-0.8-1.1-1.1-1.6c-1.1,1.8-2.3,3.4-3.7,5c-6.4,7.2-15.1,10.8-26,10.8
		c-3.6,0-7.1-0.7-10.5-2c-3.4-1.3-6.1-2.9-7.8-4.8l-4.7,6.8H8.5V5.8h13.3v36.3c1.3-1.7,3.6-3.3,7.1-4.7c3.5-1.5,6.9-2.2,10.3-2.2
		c10.2,0,18.6,3.5,25,10.6c1.5,1.7,2.9,3.6,4.1,5.5l0,0c0,0,0.1-0.1,0.1-0.1c0.1-0.1,0.1-0.2,0.1-0.2c0-0.1,0.1-0.1,0.1-0.2
		c0.1-0.1,0.1-0.2,0.2-0.3c0-0.1,0.1-0.1,0.1-0.2c0.1-0.1,0.1-0.2,0.2-0.3c0,0,0.1-0.1,0.1-0.1c0.1-0.1,0.1-0.2,0.2-0.3
		c0,0,0,0,0.1,0c0.1-0.1,0.1-0.2,0.3-0.3c0,0,0,0,0-0.1c0.1-0.1,0.2-0.2,0.2-0.3c0,0,0,0,0.1,0c0.1-0.1,0.2-0.2,0.2-0.3
		c0,0,0.1,0,0.1-0.1c0.1-0.1,0.2-0.2,0.2-0.3c0,0,0-0.1,0.1-0.1c0.1-0.1,0.2-0.2,0.2-0.3c0,0,0.1-0.1,0.1-0.1
		c0.2-0.2,0.4-0.5,0.6-0.7v0c0,0,0,0,0,0c0.1-0.1,0.2-0.2,0.3-0.3c0,0,0,0,0,0c0,0,0,0,0,0c0.1-0.1,0.2-0.2,0.3-0.3l0,0l0,0
		c0.1-0.1,0.2-0.2,0.3-0.3c0,0,0,0,0,0l0,0c0.1-0.1,0.2-0.2,0.3-0.3c0,0,0,0,0.1-0.1c0.1-0.1,0.2-0.2,0.3-0.3
		c6.7-6.7,14.7-10,23.9-10c10.7,0,19.1,3,25.2,9c0.1,0.1,0.2,0.2,0.4,0.3v-8h10.9c0-9.6,2.4-17.1,7.1-22.5c4.7-5.5,11-8.2,18.7-8.2
		c3.9,0,8,0.7,12.5,2.1l-3.7,9.8c-2.7-0.9-5.3-1.4-7.6-1.4c-4.1,0-7.4,1.5-10.1,4.6c-2.6,3.1-4,7-4,11.7c0,1.3,0.1,2.6,0.4,3.9H160
		h2.2h11.2v12c4.8-8.9,12.1-13.4,21.6-13.4c2.4,0,5.8,0.4,10.3,1.2l-2.5,5.8c6-4.7,12.9-7.1,20.6-7.1c10.7,0,19.1,3,25.2,9
		c1.5,1.5,2.9,3.2,4,5c1.1-1.4,2.2-2.8,3.5-4c6.7-6.7,14.7-10,23.9-10c10.7,0,19.1,3,25.2,9c5.9,5.8,8.8,13.5,8.8,23
		c0,3-0.4,5.7-1.1,8.1h-54.1c0,8.8,2.4,15.5,7.2,20.3c4.3,4.1,9.7,6.2,16.4,6.2c7.6,0,14-2.2,19.1-6.6l5.6,9.6
		c-2,2.1-5.2,3.8-9.5,5.3c-5.3,2-11.2,2.9-17.8,2.9c-9.4,0-17.4-3.2-24-9.6c-7.3-7-10.9-16.3-11-28h-42.6c0,8.8,2.4,15.5,7.2,20.3
		c4.2,4.1,9.7,6.2,16.4,6.2c7.6,0,13.9-2.2,19-6.6l5.6,9.6c-2.1,2.1-5.2,3.8-9.5,5.3c-5.3,2-11.2,2.9-17.8,2.9
		c-9.4,0-17.4-3.2-24-9.6c-7.3-7.1-11-16.5-11-28.4C188.2,64,191.2,54.9,197.1,47.8L197.1,47.8L197.1,47.8z M21.8,52.3v43.3
		c0,0.8,1.7,2,5,3.7c3.4,1.7,5.8,2.5,7.6,2.5c9,0,15.5-2.2,19.5-6.5c3.9-4.3,5.9-11.6,5.9-21.8c0-8.5-2.3-15.2-6.9-19.9
		c-4.6-4.8-10.7-7.1-18.5-7.1c-1.7,0-3.9,0.7-6.8,2.1C24.6,49.9,22.7,51.2,21.8,52.3L21.8,52.3L21.8,52.3z M69.1,50.1
		c0,0,0.1-0.1,0.1-0.1L69.1,50.1z"/>
</g>
</svg>
