<svg height="192" viewBox="0 0 236 92" fill="none" xmlns="http://www.w3.org/2000/svg">
<rect x="168" y="24" width="66" height="8" fill="white" fill-opacity="0.96"/>
<rect x="168" width="44" height="8" fill="white" fill-opacity="0.96"/>
<rect x="168" y="36" width="68" height="8" fill="white" fill-opacity="0.96"/>
<rect x="168" y="48" width="68" height="8" fill="white" fill-opacity="0.96"/>
<rect x="168" y="84" width="44" height="8" fill="white" fill-opacity="0.96"/>
<rect x="168" y="60" width="66" height="8" fill="white" fill-opacity="0.96"/>
<rect x="168" y="72" width="58" height="8" fill="white" fill-opacity="0.96"/>
<rect x="168" y="12" width="58" height="8" fill="white" fill-opacity="0.96"/>
<rect x="84" y="84" width="50" height="8" fill="white" fill-opacity="0.96"/>
<rect x="84" y="72" width="64" height="8" fill="white" fill-opacity="0.96"/>
<rect x="116" y="60" width="36" height="8" fill="white" fill-opacity="0.96"/>
<rect x="98" y="48" width="54" height="8" fill="white" fill-opacity="0.96"/>
<rect x="84" y="36" width="54" height="8" fill="white" fill-opacity="0.96"/>
<rect x="84" y="24" width="36" height="8" fill="white" fill-opacity="0.96"/>
<rect x="88" y="12" width="64" height="8" fill="white" fill-opacity="0.96"/>
<rect x="102" width="50" height="8" fill="white" fill-opacity="0.96"/>
<rect width="68" height="8" fill="white" fill-opacity="0.96"/>
<rect y="12" width="68" height="8" fill="white" fill-opacity="0.96"/>
<rect y="24" width="32" height="8" fill="white" fill-opacity="0.96"/>
<rect y="36" width="68" height="8" fill="white" fill-opacity="0.96"/>
<rect y="48" width="68" height="8" fill="white" fill-opacity="0.96"/>
<rect y="60" width="32" height="8" fill="white" fill-opacity="0.96"/>
<rect y="72" width="32" height="8" fill="white" fill-opacity="0.96"/>
<rect y="84" width="32" height="8" fill="white" fill-opacity="0.96"/>
</svg>
