<svg width="365" height="130" viewBox="0 0 365 130" fill="none" xmlns="http://www.w3.org/2000/svg">
<g clip-path="url(#clip0_513_70)">
<g filter="url(#filter0_d_513_70)">
<path d="M8 0H108V11.7H8V0Z" fill="white"/>
<path d="M8 16.9H108V28.6H8V16.9Z" fill="white"/>
<path d="M8 50.7H108V62.4H8V50.7Z" fill="white"/>
<path d="M8 67.6H108V79.3H8V67.6Z" fill="white"/>
<path d="M8 84.5H56V96.2H8V84.5Z" fill="white"/>
<path d="M8 33.8H56V45.5H8V33.8Z" fill="white"/>
<path d="M8 101.4H56V113.1H8V101.4Z" fill="white"/>
<path d="M8 118.3H56V130H8V118.3Z" fill="white"/>
</g>
<g filter="url(#filter1_d_513_70)">
<path d="M258 0H319V11.7H258V0Z" fill="white"/>
<path d="M258 16.9H345V28.6H258V16.9Z" fill="white"/>
<path d="M258 50.7H358V62.4H258V50.7Z" fill="white"/>
<path d="M258 67.6H358V79.3H258V67.6Z" fill="white"/>
<path d="M258 84.5H358V96.2H258V84.5Z" fill="white"/>
<path d="M258 33.8H358V45.5H258V33.8Z" fill="white"/>
<path d="M258 101.4H345V113.1H258V101.4Z" fill="white"/>
<path d="M258 118.3H319V130H258V118.3Z" fill="white"/>
</g>
<g filter="url(#filter2_d_513_70)">
<path d="M159 0H233V11.7H159V0Z" fill="white"/>
<path d="M133 16.9H233V28.6H133V16.9Z" fill="white"/>
<path d="M133 33.8H207V45.5H133V33.8Z" fill="white"/>
<path d="M146 50.7H207V62.4H146V50.7Z" fill="white"/>
<path d="M159 67.6H220V79.3H159V67.6Z" fill="white"/>
<path d="M159 84.5H233V96.2H159V84.5Z" fill="white"/>
<path d="M133 101.4H233V113.1H133V101.4Z" fill="white"/>
<path d="M133 118.3H207V130H133V118.3Z" fill="white"/>
</g>
</g>
<defs>
<filter id="filter0_d_513_70" x="0" y="-6" width="116" height="146" filterUnits="userSpaceOnUse" color-interpolation-filters="sRGB">
<feFlood flood-opacity="0" result="BackgroundImageFix"/>
<feColorMatrix in="SourceAlpha" type="matrix" values="0 0 0 0 0 0 0 0 0 0 0 0 0 0 0 0 0 0 127 0" result="hardAlpha"/>
<feOffset dy="2"/>
<feGaussianBlur stdDeviation="4"/>
<feComposite in2="hardAlpha" operator="out"/>
<feColorMatrix type="matrix" values="0 0 0 0 1 0 0 0 0 1 0 0 0 0 1 0 0 0 1 0"/>
<feBlend mode="normal" in2="BackgroundImageFix" result="effect1_dropShadow_513_70"/>
<feBlend mode="normal" in="SourceGraphic" in2="effect1_dropShadow_513_70" result="shape"/>
</filter>
<filter id="filter1_d_513_70" x="250" y="-6" width="116" height="146" filterUnits="userSpaceOnUse" color-interpolation-filters="sRGB">
<feFlood flood-opacity="0" result="BackgroundImageFix"/>
<feColorMatrix in="SourceAlpha" type="matrix" values="0 0 0 0 0 0 0 0 0 0 0 0 0 0 0 0 0 0 127 0" result="hardAlpha"/>
<feOffset dy="2"/>
<feGaussianBlur stdDeviation="4"/>
<feComposite in2="hardAlpha" operator="out"/>
<feColorMatrix type="matrix" values="0 0 0 0 1 0 0 0 0 1 0 0 0 0 1 0 0 0 1 0"/>
<feBlend mode="normal" in2="BackgroundImageFix" result="effect1_dropShadow_513_70"/>
<feBlend mode="normal" in="SourceGraphic" in2="effect1_dropShadow_513_70" result="shape"/>
</filter>
<filter id="filter2_d_513_70" x="125" y="-6" width="116" height="146" filterUnits="userSpaceOnUse" color-interpolation-filters="sRGB">
<feFlood flood-opacity="0" result="BackgroundImageFix"/>
<feColorMatrix in="SourceAlpha" type="matrix" values="0 0 0 0 0 0 0 0 0 0 0 0 0 0 0 0 0 0 127 0" result="hardAlpha"/>
<feOffset dy="2"/>
<feGaussianBlur stdDeviation="4"/>
<feComposite in2="hardAlpha" operator="out"/>
<feColorMatrix type="matrix" values="0 0 0 0 1 0 0 0 0 1 0 0 0 0 1 0 0 0 1 0"/>
<feBlend mode="normal" in2="BackgroundImageFix" result="effect1_dropShadow_513_70"/>
<feBlend mode="normal" in="SourceGraphic" in2="effect1_dropShadow_513_70" result="shape"/>
</filter>
<clipPath id="clip0_513_70">
<rect width="365" height="130" fill="white"/>
</clipPath>
</defs>
</svg>
