<svg xmlns="http://www.w3.org/2000/svg" viewBox="0 0 190 66" fill="none">
  <path fill="#FFDE00" d="M189.1 66V0H0v66h189.1Z"/>
  <path fill="#241F20" d="M14.7 20.9H21v25h-6.4V21Zm4.3 0h16.2v5H19v-5Zm0 11h14.4v5H19v-5Zm26 13.9a10.9 10.9 0 0 1-6-4.4 11.8 11.8 0 0 1-1.6-3.6A16.9 16.9 0 0 1 39 25.5a10.7 10.7 0 0 1 2.6-2.7A10.8 10.8 0 0 1 45 21a14.7 14.7 0 0 1 8.4 0 10.8 10.8 0 0 1 6 4.4 11.7 11.7 0 0 1 1.7 3.6 16.9 16.9 0 0 1 0 8.7 11.9 11.9 0 0 1-1.6 3.6 11.5 11.5 0 0 1-10.3 5 15.8 15.8 0 0 1-4.2-.6Zm6.3-4.8a5.1 5.1 0 0 0 3-2.6c.4-.6.6-1.4.8-2.2a13.5 13.5 0 0 0 0-5.6 9.8 9.8 0 0 0-.8-2.2 4.6 4.6 0 0 0-1.2-1.6c-.5-.5-1-.8-1.8-1a6.9 6.9 0 0 0-2.1-.4 6.9 6.9 0 0 0-2.2.4 5.5 5.5 0 0 0-1.8 1c-.5.4-1 1-1.2 1.6a8 8 0 0 0-.8 2.2c-.2.8-.2 1.7-.2 2.8 0 1 0 2 .2 2.8.2.8.4 1.6.8 2.2a4 4 0 0 0 1.2 1.6 4 4 0 0 0 1.8 1 7 7 0 0 0 2.2.3 5 5 0 0 0 2.1-.3Zm20.8 4.5a12 12 0 0 1-3.4-1.7A11.3 11.3 0 0 1 66 41a12 12 0 0 1-1.6-3.6A16.9 16.9 0 0 1 66 25.1a10.5 10.5 0 0 1 6-4.4 14 14 0 0 1 4.1-.6 12 12 0 0 1 7.6 2.3 11.3 11.3 0 0 1 2.5 2.7 12 12 0 0 1 1.6 3.6 16.8 16.8 0 0 1 0 8.7 13.3 13.3 0 0 1-1.6 3.6 11.3 11.3 0 0 1-2.5 2.7 10.2 10.2 0 0 1-3.4 1.7 18.6 18.6 0 0 1-8.3 0Zm6.2-4.8a5.8 5.8 0 0 0 1.7-1c.5-.4.9-.9 1.2-1.5a13.4 13.4 0 0 0 .7-7.9c-.1-.8-.4-1.6-.7-2.2a5 5 0 0 0-2.9-2.6 6.4 6.4 0 0 0-2.1-.3 6.3 6.3 0 0 0-2.1.3 5.8 5.8 0 0 0-1.7 1c-.5.4-1 1-1.3 1.6a13.8 13.8 0 0 0 0 10.1 5.1 5.1 0 0 0 3 2.6 6.3 6.3 0 0 0 2 .3 8 8 0 0 0 2.2-.4ZM91 20.5h6v25.2h-6V20.5Zm12.1 20a5 5 0 0 0 1.8-1c.5-.4 1-1 1.3-1.5l.8-2.1c.2-.8.2-1.7.2-2.7 0-1 0-1.9-.2-2.7l-.8-2.2a6.5 6.5 0 0 0-1.3-1.5 5 5 0 0 0-1.8-1 8 8 0 0 0-2.3-.3h-5.6l.4-5h5.2c1.6 0 3.1.3 4.4.6a10.3 10.3 0 0 1 6.1 4.2c.7 1 1.3 2.2 1.6 3.6a16.8 16.8 0 0 1 0 8.7 10.9 10.9 0 0 1-4.2 6 10.2 10.2 0 0 1-3.5 1.5 17 17 0 0 1-4.4.6h-6l.6-5h5.4c.9 0 1.6 0 2.3-.2Zm29.5-20.1h-6.4v25h6.4v-25Z"/>
  <path fill="#241F20" d="M140 36.5h-8.6v-4.8h7.5a5.6 5.6 0 0 0 1.6-.2 3.2 3.2 0 0 0 1.2-.7c.3-.2.5-.6.7-1 .2-.4.2-.8.2-1.3 0-.6 0-1-.2-1.4-.2-.4-.4-.8-.7-1a2.9 2.9 0 0 0-1.1-.7 5.6 5.6 0 0 0-1.6-.2h-7.6v-4.9h8.7c1.4 0 2.6.2 3.7.6 1 .3 2 .8 2.8 1.6.7.7 1.3 1.6 1.7 2.5a8.8 8.8 0 0 1-.4 7.5 7.2 7.2 0 0 1-3 2.7 11 11 0 0 1-4.8.9l-.1.4Z"/>
  <path fill="#241F20" d="m141 34 9 11.5h-7.5l-7.7-10L141 34Zm30.7 6.2a8.7 8.7 0 0 1-2 3.1c-1 .8-2 1.4-3.3 1.9-1.3.4-2.8.6-4.5.6-1.6 0-3-.2-4.3-.6a9 9 0 0 1-3.3-1.9 8.3 8.3 0 0 1-2-3c-.5-1.3-.8-2.7-.8-4.2V20.4h6v16c0 1 .2 1.8.5 2.5.4.7.9 1.2 1.5 1.5.7.4 1.5.6 2.4.6a5 5 0 0 0 2-.3 3 3 0 0 0 1.3-1c.4-.3.7-.8.9-1.4.2-.5.3-1.2.3-2v-16h6v15.8c0 1.5-.2 3-.7 4.1Zm-49.3-1.6h-7v6.9h7v-6.9Z"/>
</svg>
