<svg xmlns="http://www.w3.org/2000/svg" width="1658" height="1521" fill="none"><path fill="#fff" d="M0 0h1658v1521H0z"/><path fill="#191315" fill-opacity=".92" d="M852 740h1v-1h-1zm-650 1h650v-2H202zm649-1v600h2V740z"/><circle cx="697.722" cy="1014" r="20" fill="#109FBC" fill-opacity=".96"/><circle cx="473.722" cy="1097" r="20" fill="#109FBC" fill-opacity=".96"/><circle cx="316.722" cy="1034" r="20" fill="#109FBC" fill-opacity=".96"/><circle cx="509.722" cy="808" r="20" fill="#109FBC" fill-opacity=".96"/><circle cx="660.722" cy="1157" r="20" fill="#109FBC" fill-opacity=".96"/><circle cx="437" cy="1024.28" r="20" fill="#CC054E" fill-opacity=".98" transform="rotate(43.798 437 1024.28)"/><circle cx="488" cy="931.278" r="20" fill="#CC054E" fill-opacity=".98" transform="rotate(43.798 488 931.278)"/><circle cx="528" cy="1139.28" r="20" fill="#CC054E" fill-opacity=".98" transform="rotate(43.798 528 1139.28)"/><circle cx="337" cy="889.278" r="20" fill="#CC054E" fill-opacity=".98" transform="rotate(43.798 337 889.278)"/><circle cx="608.722" cy="841" r="20" fill="#74AA09" fill-opacity=".96"/><circle cx="406.722" cy="835" r="20" fill="#74AA09" fill-opacity=".96"/><circle cx="587.722" cy="1034" r="20" fill="#74AA09" fill-opacity=".96"/><circle cx="607.722" cy="942" r="20" fill="#74AA09" fill-opacity=".96"/><circle cx="372.722" cy="1139" r="20" fill="#74AA09" fill-opacity=".96"/><circle cx="385.722" cy="960" r="20" fill="#109FBC" fill-opacity=".96"/><circle cx="729" cy="874.278" r="20" fill="#CC054E" fill-opacity=".98" transform="rotate(43.798 729 874.278)"/><path fill="#191315" fill-opacity=".92" d="M328.138 1055.56a1.5 1.5 0 0 0-1.857 1.02l-3.747 12.97a1.501 1.501 0 0 0 2.882.84l3.33-11.53 11.529 3.33a1.5 1.5 0 0 0 .833-2.88zm32.897 58.72-32-58-2.627 1.44 32 58zm10.187-134.258a1.5 1.5 0 0 0-1.478-1.522l-13.498-.201a1.5 1.5 0 1 0-.045 2.999l11.998.179-.179 11.999a1.5 1.5 0 0 0 3 .045zm-34.456 34.058 34-33.004-2.089-2.152-34 32.996zm126.245-74.314a1.5 1.5 0 0 0-.524-2.056l-11.608-6.892a1.5 1.5 0 1 0-1.531 2.58l10.318 6.126-6.126 10.318a1.5 1.5 0 1 0 2.579 1.532zm-51.919 13.688 51-13-.741-2.908-51 13zm-22.877-103.313a1.5 1.5 0 0 0-1.352-1.634l-13.441-1.268a1.5 1.5 0 1 0-.282 2.986l11.947 1.127-1.127 11.947a1.5 1.5 0 1 0 2.987.282zm-29.537 25.015 29-24-1.913-2.312-29 24zm227.26-24.278a1.5 1.5 0 0 0-.338-2.094l-10.946-7.903a1.5 1.5 0 0 0-1.756 2.433l9.729 7.024-7.024 9.729a1.5 1.5 0 1 0 2.432 1.756zm-223.977 36.603 223-36-.478-2.962-223 36zM531.973 816.7a1.5 1.5 0 0 0-.551 2.048l6.736 11.7a1.5 1.5 0 0 0 2.6-1.497l-5.988-10.4 10.4-5.987a1.5 1.5 0 0 0-1.497-2.6zm53.139 13.852-52-14-.78 2.896 52 14zm8.354 179.268c.454.69 1.383.89 2.077.44l11.299-7.39c.693-.46.888-1.39.434-2.08a1.5 1.5 0 0 0-2.076-.43l-10.044 6.56-6.567-10.04a1.5 1.5 0 0 0-2.511 1.642zm8.787-44.127-9 42.997 2.937.62 9-43.003zm6.529-101.754a1.5 1.5 0 0 0-2.121 0l-9.546 9.546a1.5 1.5 0 0 0 2.121 2.122l8.486-8.486 8.485 8.486a1.501 1.501 0 0 0 2.121-2.122zm.44 54.061v-53h-3v53zm98.267-51.711a1.5 1.5 0 0 0 .521-2.057l-6.909-11.598a1.5 1.5 0 0 0-2.577 1.536l6.141 10.309-10.309 6.142a1.5 1.5 0 1 0 1.536 2.577zm-76.136-18.835 75 19 .737-2.908-75-19zm-45.134 108.631a1.5 1.5 0 0 0-1.413-1.583l-13.478-.761a1.5 1.5 0 1 0-.169 2.995l11.98.677-.676 11.981a1.5 1.5 0 1 0 2.995.169zM398.721 1124.12l187-167.001-1.998-2.238-187 166.999zm23.001-118.62a1.5 1.5 0 0 0 1.5-1.5v-13.5a1.5 1.5 0 0 0-3 0v12h-12c-.829 0-1.5.67-1.5 1.5s.671 1.5 1.5 1.5zm-24.061-23.439 23 22.999 2.121-2.12-23-23.001zm142.632 135.399a1.5 1.5 0 0 0 1.885.97l12.861-4.11a1.494 1.494 0 0 0 .973-1.88 1.49 1.49 0 0 0-1.885-.97l-11.432 3.64-3.649-11.43a1.5 1.5 0 0 0-1.885-.97 1.504 1.504 0 0 0-.973 1.89zm32.096-63.15-32 62 2.666 1.38 32-62zm-78.667 55.19c-.829 0-1.5.67-1.5 1.5v13.5a1.5 1.5 0 1 0 3 0v-12h12a1.5 1.5 0 1 0 0-3zm15.06 14.44-14-14-2.121 2.12 14 14zm127.84 29.26c.662-.5.797-1.44.3-2.1l-8.1-10.8a1.5 1.5 0 1 0-2.4 1.8l7.2 9.6-9.6 7.2a1.5 1.5 0 0 0 1.8 2.4zm-85.112-11.72 84 12 .424-2.96-84-12zm141.513-105.23a1.5 1.5 0 0 0-2.048-.55l-11.709 6.72a1.5 1.5 0 0 0-.555 2.05c.412.71 1.329.96 2.048.55l10.408-5.97 5.972 10.41c.412.71 1.329.96 2.048.55.718-.41.967-1.33.554-2.05zm-25.853 97.14 26-96-2.896-.78-26 96zM275.724 1290v-33.6h10.608q4.368 0 7.392 1.44 3.048 1.41 4.92 3.84 1.896 2.4 2.76 5.4t.864 6.12c0 1.92-.272 3.86-.816 5.83a16.4 16.4 0 0 1-2.664 5.45c-1.232 1.66-2.88 3-4.944 4.01s-4.632 1.51-7.704 1.51zm5.544-5.23h5.472c1.84 0 3.384-.34 4.632-1.01 1.248-.69 2.248-1.6 3-2.74a11.1 11.1 0 0 0 1.632-3.74 16.95 16.95 0 0 0-.024-8.3c-.352-1.4-.904-2.64-1.656-3.75a8.3 8.3 0 0 0-2.856-2.64c-1.168-.67-2.568-1.01-4.2-1.01h-6zm36.983 5.81c-2.32 0-4.32-.54-6-1.61s-2.968-2.57-3.864-4.49c-.896-1.94-1.344-4.19-1.344-6.77 0-2.67.464-4.96 1.392-6.86.928-1.92 2.232-3.39 3.912-4.42q2.52-1.53 5.904-1.53c1.936 0 3.696.41 5.28 1.24q2.4 1.26 3.816 3.84c.944 1.72 1.416 3.9 1.416 6.56 0 .41-.008.91-.024 1.48q-.024.84-.144 1.71h-16.2c.096 1.25.392 2.33.888 3.26q.768 1.395 2.04 2.19c.848.51 1.848.76 3 .76 1.12 0 2.112-.18 2.976-.55.864-.38 1.688-.99 2.472-1.82l3.12 3.29c-1.008 1.1-2.24 2-3.696 2.68-1.44.69-3.088 1.04-4.944 1.04m-5.832-15.2h11.064c-.048-1.16-.288-2.19-.72-3.07q-.624-1.32-1.776-2.04c-.768-.49-1.704-.74-2.808-.74q-2.304 0-3.936 1.44-1.608 1.44-1.824 4.41m29.665 15.2c-1.84 0-3.608-.4-5.304-1.18-1.696-.8-3.056-1.86-4.08-3.19l3.6-3.07c.848.88 1.8 1.57 2.856 2.08 1.056.52 2.088.77 3.096.77 1.28 0 2.272-.22 2.976-.67.704-.46 1.056-1.11 1.056-1.94 0-.52-.16-.98-.48-1.4-.32-.43-.88-.85-1.68-1.27-.8-.41-1.904-.89-3.312-1.41q-4.128-1.515-5.856-3.27-1.728-1.77-1.728-4.44c0-2 .8-3.61 2.4-4.85 1.6-1.23 3.68-1.84 6.24-1.84 1.744 0 3.352.33 4.824 1 1.488.66 2.768 1.61 3.84 2.86l-3.576 2.95c-1.456-1.49-3.184-2.23-5.184-2.23-1.072 0-1.928.21-2.568.62-.64.4-.96.94-.96 1.61q0 1.005 1.104 1.8 1.128.765 4.128 1.8 2.736.915 4.464 2.04c1.168.75 2.016 1.62 2.544 2.59q.816 1.47.816 3.39c0 2.25-.824 4.03-2.472 5.33q-2.448 1.92-6.744 1.92m21.92 0q-2.784 0-4.2-1.59c-.944-1.05-1.416-2.6-1.416-4.63v-14.16h-3.72v-4.73h3.72v-7.56l5.376-2.57v10.13h5.712v4.73h-5.712v12.98c0 .88.168 1.54.504 1.97q.528.63 1.608.63c1.168 0 2.44-.39 3.816-1.16l-.6 4.85c-.752.37-1.544.64-2.376.82-.832.19-1.736.29-2.712.29m9.68-.58v-24.53h5.376v2.83q.72-1.575 2.16-2.49a5.95 5.95 0 0 1 3.216-.91c1.648 0 3.04.53 4.176 1.6l-.744 4.97c-.608-.48-1.216-.82-1.824-1.03s-1.28-.31-2.016-.31c-1.024 0-1.904.25-2.64.77-.736.51-1.312 1.24-1.728 2.18q-.6 1.41-.6 3.36V1290zm27.878.58c-2.832 0-4.992-.87-6.48-2.6-1.488-1.72-2.232-4.25-2.232-7.58v-14.93h5.376v13.87c0 2.08.384 3.63 1.152 4.64.784.99 1.96 1.48 3.528 1.48 1.712 0 2.984-.49 3.816-1.48.832-1.01 1.248-2.52 1.248-4.54v-13.97h5.4V1290h-5.4v-2.3a7.15 7.15 0 0 1-2.736 2.16q-1.584.72-3.672.72m28.474 0c-2.223 0-4.135-.52-5.735-1.54q-2.4-1.56-3.696-4.44t-1.296-6.84 1.32-6.84c.88-1.94 2.128-3.42 3.744-4.46q2.424-1.56 5.784-1.56 3.576 0 6 1.68c1.616 1.1 2.792 2.72 3.528 4.87l-5.112 1.77q-.6-1.56-1.728-2.4-1.104-.84-2.64-.84-2.544 0-3.984 2.07c-.96 1.37-1.44 3.28-1.44 5.71q0 3.6 1.416 5.64t3.888 2.04c1.12 0 2.08-.3 2.88-.91.8-.63 1.384-1.51 1.752-2.67l5.088 1.56c-.688 2.34-1.872 4.12-3.552 5.33q-2.496 1.83-6.217 1.83m22.609 0q-2.784 0-4.2-1.59c-.944-1.05-1.416-2.6-1.416-4.63v-14.16h-3.72v-4.73h3.72v-7.56l5.376-2.57v10.13h5.712v4.73h-5.712v12.98c0 .88.168 1.54.504 1.97q.528.63 1.608.63c1.168 0 2.44-.39 3.816-1.16l-.6 4.85c-.752.37-1.544.64-2.376.82-.832.19-1.736.29-2.712.29m10.712-.58v-24.53h5.376V1290zm2.664-28.08c-.88 0-1.632-.31-2.256-.94a3.06 3.06 0 0 1-.936-2.25q0-1.35.912-2.28a3.06 3.06 0 0 1 2.28-.96q1.392 0 2.304.93.936.945.936 2.31 0 1.335-.936 2.28c-.624.61-1.392.91-2.304.91m16.965 28.08-8.976-24.53h5.544l5.376 15.17c.128.37.256.75.384 1.15q.192.6.336 1.23.168-.63.336-1.2c.128-.4.264-.8.408-1.18l5.304-15.17h5.52l-8.976 24.53zm28.906.58c-2.32 0-4.32-.54-6-1.61s-2.968-2.57-3.864-4.49c-.896-1.94-1.344-4.19-1.344-6.77 0-2.67.464-4.96 1.392-6.86.928-1.92 2.232-3.39 3.912-4.42q2.52-1.53 5.904-1.53c1.936 0 3.696.41 5.28 1.24q2.4 1.26 3.816 3.84c.944 1.72 1.416 3.9 1.416 6.56 0 .41-.008.91-.024 1.48q-.024.84-.144 1.71h-16.2c.096 1.25.392 2.33.888 3.26q.768 1.395 2.04 2.19c.848.51 1.848.76 3 .76 1.12 0 2.112-.18 2.976-.55.864-.38 1.688-.99 2.472-1.82l3.12 3.29c-1.008 1.1-2.24 2-3.696 2.68-1.44.69-3.088 1.04-4.944 1.04m-5.832-15.2h11.064c-.048-1.16-.288-2.19-.72-3.07q-.624-1.32-1.776-2.04c-.768-.49-1.704-.74-2.808-.74q-2.304 0-3.936 1.44-1.608 1.44-1.824 4.41m42.931 15.2c-3.152 0-5.624-1.15-7.416-3.44-1.792-2.28-2.688-5.43-2.688-9.43 0-2.57.416-4.82 1.248-6.74.848-1.94 2.024-3.43 3.528-4.49 1.52-1.06 3.304-1.58 5.352-1.58 2.272 0 4.152.78 5.64 2.35v-9.43l5.4-2.48V1290h-5.4v-1.97q-1.968 2.55-5.664 2.55m.84-5.12c1.072 0 2.008-.21 2.808-.64a5.4 5.4 0 0 0 2.016-1.9v-10.44a5.5 5.5 0 0 0-2.088-1.82 5.75 5.75 0 0 0-2.736-.68c-1.76 0-3.128.67-4.104 2-.96 1.32-1.44 3.24-1.44 5.73 0 1.6.224 2.98.672 4.13s1.088 2.05 1.92 2.69q1.248.93 2.952.93m27.732 5.12c-2.32 0-4.32-.54-6-1.61s-2.968-2.57-3.864-4.49c-.896-1.94-1.344-4.19-1.344-6.77 0-2.67.464-4.96 1.392-6.86.928-1.92 2.232-3.39 3.912-4.42q2.52-1.53 5.904-1.53c1.936 0 3.696.41 5.28 1.24q2.4 1.26 3.816 3.84c.944 1.72 1.416 3.9 1.416 6.56 0 .41-.008.91-.024 1.48q-.024.84-.144 1.71h-16.2c.096 1.25.392 2.33.888 3.26q.768 1.395 2.04 2.19c.848.51 1.848.76 3 .76 1.12 0 2.112-.18 2.976-.55.864-.38 1.688-.99 2.472-1.82l3.12 3.29c-1.008 1.1-2.24 2-3.696 2.68-1.44.69-3.088 1.04-4.944 1.04m-5.832-15.2h11.064c-.048-1.16-.288-2.19-.72-3.07q-.624-1.32-1.776-2.04c-.768-.49-1.704-.74-2.808-.74q-2.304 0-3.936 1.44-1.608 1.44-1.824 4.41m32.634 15.2c-2.224 0-4.136-.52-5.736-1.54q-2.4-1.56-3.696-4.44t-1.296-6.84 1.32-6.84c.88-1.94 2.128-3.42 3.744-4.46q2.424-1.56 5.784-1.56 3.576 0 6 1.68c1.616 1.1 2.792 2.72 3.528 4.87l-5.112 1.77q-.6-1.56-1.728-2.4-1.104-.84-2.64-.84-2.544 0-3.984 2.07c-.96 1.37-1.44 3.28-1.44 5.71q0 3.6 1.416 5.64t3.888 2.04c1.12 0 2.08-.3 2.88-.91.8-.63 1.384-1.51 1.752-2.67l5.088 1.56c-.688 2.34-1.872 4.12-3.552 5.33q-2.496 1.83-6.216 1.83m25.671 0c-3.424 0-6.12-1.15-8.088-3.44-1.968-2.28-2.952-5.41-2.952-9.38q0-3.96 1.344-6.84t3.816-4.44c1.664-1.06 3.624-1.58 5.88-1.58q3.408 0 5.88 1.56t3.816 4.44 1.344 6.84-1.344 6.84-3.816 4.44-5.88 1.56m0-5.12q2.664 0 4.152-2.04c.992-1.36 1.488-3.25 1.488-5.68 0-2.45-.504-4.36-1.512-5.72q-1.488-2.04-4.128-2.04t-4.152 2.07c-.992 1.36-1.488 3.26-1.488 5.71 0 2.42.496 4.3 1.488 5.66q1.512 2.04 4.152 2.04m25.823 5.12c-2.832 0-4.992-.87-6.48-2.6-1.488-1.72-2.232-4.25-2.232-7.58v-14.93h5.376v13.87c0 2.08.384 3.63 1.152 4.64.784.99 1.96 1.48 3.528 1.48 1.712 0 2.984-.49 3.816-1.48.832-1.01 1.248-2.52 1.248-4.54v-13.97h5.4V1290h-5.4v-2.3a7.15 7.15 0 0 1-2.736 2.16q-1.584.72-3.672.72m19.606 9.16v-34.27h5.376v1.9c1.488-1.65 3.384-2.47 5.688-2.47q3.144 0 5.4 1.56 2.28 1.56 3.504 4.44 1.248 2.88 1.248 6.84c0 2.59-.424 4.84-1.272 6.76s-2.032 3.42-3.552 4.49q-2.28 1.59-5.352 1.59-1.8 0-3.216-.63c-.928-.43-1.744-1.08-2.448-1.94v9.26zm10.248-14.28q2.664 0 4.08-2.01c.96-1.35 1.44-3.25 1.44-5.71 0-2.44-.488-4.33-1.464-5.69q-1.464-2.07-4.056-2.07c-1.056 0-1.992.22-2.808.65s-1.504 1.06-2.064 1.87v10.4q.84 1.215 2.112 1.89c.848.45 1.768.67 2.76.67m17.555 4.54v-32.18l5.376-2.48V1290zm13.308 0v-24.53h5.376V1290zm2.664-28.08c-.88 0-1.632-.31-2.256-.94a3.06 3.06 0 0 1-.936-2.25q0-1.35.912-2.28a3.06 3.06 0 0 1 2.28-.96q1.392 0 2.304.93.936.945.936 2.31 0 1.335-.936 2.28c-.624.61-1.392.91-2.304.91m10.413 28.08v-24.53h5.376v2.4c.768-1.01 1.688-1.75 2.76-2.23 1.088-.5 2.328-.74 3.72-.74 2.832 0 4.984.86 6.456 2.59s2.208 4.26 2.208 7.61v14.9h-5.4v-13.92c0-2.05-.392-3.58-1.176-4.58-.768-1.01-1.936-1.52-3.504-1.52-1.696 0-2.968.5-3.816 1.49-.832.99-1.248 2.5-1.248 4.51V1290zm36.592 10.22-2.88-4.44q3.432-.21 5.4-.81 1.992-.6 2.808-1.68.84-1.065.84-2.76v-2.31c-1.312 1.57-3.184 2.36-5.616 2.36q-3.144 0-5.424-1.56-2.28-1.59-3.528-4.47-1.224-2.88-1.224-6.84c0-2.59.424-4.85 1.272-6.77s2.04-3.4 3.576-4.46 3.344-1.58 5.424-1.58q1.704 0 3.12.57 1.44.555 2.4 1.59v-1.59h5.4v22.85c0 2.02-.216 3.74-.648 5.18-.416 1.46-1.088 2.65-2.016 3.58q-1.368 1.41-3.576 2.16c-1.472.5-3.248.82-5.328.98m1.488-14.76q1.368 0 2.616-.69a6.2 6.2 0 0 0 2.064-1.92v-10.32q-.72-1.125-2.016-1.83-1.296-.72-2.592-.72c-1.872 0-3.304.67-4.296 2q-1.488 1.965-1.488 5.73c0 1.62.232 3 .696 4.15.464 1.16 1.12 2.04 1.968 2.67q1.272.93 3.048.93M852 740v1h1v-1zm-1-600v600h2V140zm1 599H202v2h650z"/><circle cx="556" cy="462" r="20" fill="#109FBC" fill-opacity=".96"/><circle cx="626" cy="482" r="20" fill="#109FBC" fill-opacity=".96"/><circle cx="494" cy="586" r="20" fill="#109FBC" fill-opacity=".96"/><circle cx="454.5" cy="338" r="20" fill="#109FBC" fill-opacity=".96"/><circle cx="615.5" cy="276" r="20" fill="#109FBC" fill-opacity=".96"/><circle cx="626" cy="542" r="20" fill="#109FBC" fill-opacity=".96"/><path fill="#191315" fill-opacity=".92" d="M498.779 524.373a1 1 0 0 0-1.406-.152l-7.011 5.643a1 1 0 0 0 1.254 1.558l6.232-5.016 5.016 6.232a1 1 0 0 0 1.558-1.254zm-3.785 37.734 4-37-1.988-.214-4 37zm40.996-87.966a1 1 0 0 0-.849-1.131l-8.909-1.273a1 1 0 0 0-.283 1.98l7.92 1.132-1.132 7.919a1 1 0 0 0 1.98.283zM519.6 486.8l16-12-1.2-1.6-16 12zm15.716 30.149c.524-.175.807-.741.633-1.265l-2.846-8.538a1.001 1.001 0 0 0-1.898.632l2.53 7.59-7.589 2.529a1.001 1.001 0 0 0 .632 1.898zm-12.763-6.055 12 6 .894-1.788-12-6zm55.899-42.73a1 1 0 0 0-.288 1.384l4.932 7.528a1 1 0 1 0 1.673-1.096l-4.385-6.692 6.692-4.384a1 1 0 1 0-1.096-1.673zm24.752 4.857-24-5-.408 1.958 24 5zm22.089 46.686a1 1 0 0 0 1.414 0l6.364-6.364a.999.999 0 1 0-1.414-1.414L626 517.586l-5.657-5.657a.999.999 0 1 0-1.414 1.414zM625 504v15h2v-15zm-61.339 85.751c.414-.365.455-.997.09-1.412l-5.946-6.756a1 1 0 1 0-1.501 1.321l5.285 6.006-6.006 5.285a1 1 0 1 0 1.321 1.501zm-47.725-2.753 47 3 .128-1.996-47-3zm87.612-52.162a1 1 0 0 0 .288-1.384l-4.932-7.528a1 1 0 1 0-1.673 1.096l4.385 6.692-6.692 4.384a1 1 0 1 0 1.096 1.673zm-24.752-4.857 24 5 .408-1.958-24-5zm36.201 31.938a1 1 0 0 0-1.08-.914l-8.969.748a1 1 0 0 0 .166 1.993l7.973-.664.664 7.972a1 1 0 0 0 1.993-.166zm-11.234 13.729 11-13-1.526-1.292-11 13z"/><circle cx="556.278" cy="525.278" r="20" fill="#CC054E" fill-opacity=".98" transform="rotate(43.798 556.278 525.278)"/><circle cx="587.278" cy="593.278" r="20" fill="#CC054E" fill-opacity=".98" transform="rotate(43.798 587.278 593.278)"/><circle cx="355.875" cy="363.278" r="20" fill="#CC054E" fill-opacity=".98" transform="rotate(43.798 355.875 363.278)"/><circle cx="735.778" cy="341.278" r="20" fill="#CC054E" fill-opacity=".98" transform="rotate(43.798 735.778 341.278)"/><circle cx="336.875" cy="268.278" r="20" fill="#CC054E" fill-opacity=".98" transform="rotate(43.798 336.875 268.278)"/><path fill="#191315" fill-opacity=".92" d="M308.225 336.072a1 1 0 0 0-.557 1.299l3.343 8.357a1 1 0 0 0 1.857-.743l-2.971-7.428 7.427-2.971a1 1 0 1 0-.742-1.857zm28.766 12.009-28-12-.788 1.838 28 12zm51.543 48.917a1 1 0 0 0 1.061-.936l.561-8.982a1 1 0 1 0-1.996-.125l-.499 7.985-7.984-.499a1 1 0 1 0-.125 1.996zm-15.687-17.336 15 17 1.5-1.324-15-17zm-30.669-88.476a1 1 0 0 0-1.395.233l-5.231 7.323a1 1 0 0 0 1.627 1.163l4.65-6.51 6.51 4.65a1 1 0 0 0 1.163-1.628zm8.405 48.65-8-48-1.973.328 8 48zm53.005-40.966a1 1 0 0 0-1.122-.861l-8.923 1.174a1 1 0 0 0 .261 1.983l7.932-1.044 1.043 7.932a1 1 0 0 0 1.983-.261zm-33.198 43.739 33-43-1.587-1.218-33 43zm61.035 4.952a1 1 0 0 0-.267-1.389l-7.452-5.048a1 1 0 0 0-1.121 1.656l6.623 4.487-4.487 6.623a1 1 0 0 0 1.656 1.122zm-52.639 10.421 52-10-.378-1.964-52 10zm15.407-84.18a1 1 0 0 0 .206-1.399l-5.37-7.222a1 1 0 0 0-1.605 1.194l4.774 6.419-6.42 4.774a1 1 0 0 0 1.193 1.605zm-34.742-4.813 34 5 .291-1.978-34-5zm85.122 93.794a1 1 0 0 0-1.193-.759l-8.786 1.952a1 1 0 0 0 .434 1.953l7.809-1.736 1.736 7.81a1 1 0 1 0 1.952-.434zm-21.133 33.754 21-33-1.687-1.074-21 33z"/><circle cx="659.5" cy="208" r="20" fill="#74AA09" fill-opacity=".96"/><circle cx="418.5" cy="278" r="20" fill="#74AA09" fill-opacity=".96"/><circle cx="695.5" cy="275" r="20" fill="#74AA09" fill-opacity=".96"/><circle cx="655.5" cy="342" r="20" fill="#74AA09" fill-opacity=".96"/><circle cx="405.5" cy="413" r="20" fill="#74AA09" fill-opacity=".96"/><path fill="#191315" fill-opacity=".92" d="M649.494 229.89a1 1 0 0 0-1.104-.884l-8.945.994a1 1 0 1 0 .22 1.988l7.952-.884.883 7.951a1 1 0 1 0 1.988-.22zm-20.213 25.735 20-25-1.562-1.25-20 25zm53.918.329a1 1 0 0 0 1.255-.653l2.71-8.582a1 1 0 0 0-1.907-.602l-2.409 7.628-7.629-2.409a1 1 0 0 0-.602 1.907zm-13.586-25.493 13 25 1.774-.922-13-25zm56.864-.675a1 1 0 0 0-1.191-.763l-8.791 1.93a.999.999 0 1 0 .429 1.953l7.814-1.715 1.715 7.814a.999.999 0 1 0 1.953-.429zm-16.135 25.753 16-25-1.684-1.078-16 25zm53.944-1.562a1 1 0 0 0 1.191-.763l1.929-8.79a.999.999 0 1 0-1.953-.429l-1.715 7.814-7.814-1.715a.999.999 0 1 0-.429 1.953zm-16.628-25.438 16 25 1.684-1.078-16-25zm17.819 68.247a1 1 0 0 0-1.191-.763l-8.791 1.93a.999.999 0 1 0 .429 1.953l7.814-1.715 1.715 7.814a.999.999 0 1 0 1.953-.429zm-16.135 25.753 16-25-1.684-1.078-16 25zm-78.135-46.832a1 1 0 0 0 0-1.414l-6.364-6.364a.999.999 0 1 0-1.414 1.414l5.657 5.657-5.657 5.657a.999.999 0 1 0 1.414 1.414zM639.5 276h31v-2h-31zm27.023 44.214a1 1 0 0 0 1.191.763l8.791-1.93a.999.999 0 1 0-.429-1.953l-7.814 1.715-1.715-7.814a.999.999 0 1 0-1.953.429zm16.135-25.753-16 25 1.684 1.078 16-25zm40.571 26.501a1 1 0 0 0 1.233-.691l2.444-8.662a1 1 0 0 0-1.925-.543l-2.172 7.7-7.7-2.172a1 1 0 0 0-.543 1.925zm-14.602-25.473 14 25 1.746-.978-14-25z"/><circle cx="286.5" cy="326" r="20" fill="#74AA09" fill-opacity=".96"/><path fill="#191315" fill-opacity=".92" d="M634.057 209.256a2 2 0 0 0-.3-2.812l-14.008-11.305a2 2 0 1 0-2.512 3.113l12.451 10.048-10.049 12.451a2.001 2.001 0 0 0 3.113 2.512zm-187.371 62.355c27.284-20.07 51.462-33.069 79.923-42.253 28.501-9.197 61.373-14.594 106.104-19.369l-.425-3.978c-44.8 4.783-78.004 10.213-106.907 19.54-28.944 9.34-53.501 22.562-81.066 42.838z"/><circle cx="737.5" cy="206" r="20" fill="#109FBC" fill-opacity=".96"/><circle cx="499" cy="500" r="20" fill="#74AA09" fill-opacity=".96"/><circle cx="776.778" cy="274.278" r="20" fill="#CC054E" fill-opacity=".98" transform="rotate(43.798 776.778 274.278)"/><path fill="#191315" fill-opacity=".92" d="M352.138 389.845a2 2 0 0 0-2.788-.478l-14.699 10.389a2 2 0 1 0 2.309 3.266l13.066-9.235 9.235 13.066a1.999 1.999 0 1 0 3.266-2.308zM466.349 585.53c-36.415-6.44-70.373-22.624-92.477-53.202-22.093-30.562-32.588-75.842-21.396-140.99l-3.942-.677c-11.313 65.852-.811 112.323 22.096 144.011 22.895 31.671 57.937 48.238 95.022 54.797zm255.13-222.816a2 2 0 0 0-2.265-1.693l-17.815 2.574a2 2 0 0 0 .572 3.959l15.836-2.289 2.288 15.836a2 2 0 0 0 3.959-.572zm-74.377 100.483 74-99-3.204-2.394-74 99zM245.224 690v-33.6h13.752q4.176 0 6.624 1.536 2.472 1.512 3.528 3.912a12.05 12.05 0 0 1 1.056 4.944q0 1.8-.624 3.624-.6 1.8-1.944 3.336t-3.48 2.472q-2.136.912-5.16.912h-8.208V690zm5.544-18.048h8.496q1.944 0 3.096-.768 1.152-.792 1.656-1.968.504-1.2.504-2.424 0-1.104-.456-2.304-.432-1.224-1.584-2.064t-3.216-.84h-8.496zm33.956 18.624q-5.136 0-8.088-3.432t-2.952-9.384q0-3.96 1.344-6.84t3.816-4.44q2.496-1.584 5.88-1.584 3.408 0 5.88 1.56t3.816 4.44 1.344 6.84-1.344 6.84-3.816 4.44-5.88 1.56m0-5.112q2.664 0 4.152-2.04t1.488-5.688q0-3.672-1.512-5.712-1.488-2.04-4.128-2.04t-4.152 2.064q-1.488 2.04-1.488 5.712 0 3.624 1.488 5.664 1.512 2.04 4.152 2.04m27.468 5.112q-5.136 0-8.088-3.432t-2.952-9.384q0-3.96 1.344-6.84t3.816-4.44q2.496-1.584 5.88-1.584 3.408 0 5.88 1.56t3.816 4.44 1.344 6.84-1.344 6.84-3.816 4.44-5.88 1.56m0-5.112q2.664 0 4.152-2.04t1.488-5.688q0-3.672-1.512-5.712-1.488-2.04-4.128-2.04t-4.152 2.064q-1.488 2.04-1.488 5.712 0 3.624 1.488 5.664 1.512 2.04 4.152 2.04M329.168 690v-24.528h5.376v2.832a5.66 5.66 0 0 1 2.16-2.496 5.96 5.96 0 0 1 3.216-.912q2.472 0 4.176 1.608l-.744 4.968q-.912-.72-1.824-1.032a6.2 6.2 0 0 0-2.016-.312q-1.536 0-2.64.768t-1.728 2.184q-.6 1.416-.6 3.36V690zm19.553 0v-32.184l5.376-2.472V690zm16.26 9.312 3.72-9.792-9.144-24.048h5.496l5.592 15.12q.24.576.432 1.152t.336 1.2q.192-.624.384-1.2l.384-1.152 5.64-15.12h5.544l-12.864 33.84zm44.774-8.736q-3.336 0-5.736-1.536-2.4-1.56-3.696-4.44t-1.296-6.84 1.32-6.84q1.32-2.904 3.744-4.464t5.784-1.56q3.576 0 6 1.68 2.424 1.656 3.528 4.872l-5.112 1.776q-.6-1.56-1.728-2.4-1.104-.84-2.64-.84-2.544 0-3.984 2.064t-1.44 5.712q0 3.6 1.416 5.64t3.888 2.04q1.68 0 2.88-.912 1.2-.936 1.752-2.664l5.088 1.56q-1.032 3.504-3.552 5.328-2.496 1.824-6.216 1.824m15.929-.576v-32.184l5.376-2.472v12.552q1.152-1.488 2.784-2.232 1.632-.768 3.696-.768 2.952 0 4.872 1.224t2.856 3.528q.936 2.28.936 5.448V690h-5.4v-13.92q0-2.952-1.104-4.512-1.104-1.584-3.576-1.584-2.544 0-3.816 1.488-1.248 1.488-1.248 4.512V690zm38.008.576q-5.136 0-8.088-3.432t-2.952-9.384q0-3.96 1.344-6.84t3.816-4.44q2.496-1.584 5.88-1.584 3.408 0 5.88 1.56t3.816 4.44 1.344 6.84-1.344 6.84-3.816 4.44-5.88 1.56m0-5.112q2.664 0 4.152-2.04t1.488-5.688q0-3.672-1.512-5.712-1.488-2.04-4.128-2.04t-4.152 2.064q-1.488 2.04-1.488 5.712 0 3.624 1.488 5.664 1.512 2.04 4.152 2.04m24.61 5.112a12.5 12.5 0 0 1-5.304-1.176q-2.544-1.2-4.08-3.192l3.6-3.072q1.272 1.32 2.856 2.088t3.096.768q1.92 0 2.976-.672 1.056-.696 1.056-1.944 0-.768-.48-1.392-.48-.648-1.68-1.272t-3.312-1.416q-4.128-1.512-5.856-3.264-1.728-1.776-1.728-4.44 0-3 2.4-4.848t6.24-1.848q2.616 0 4.824 1.008a10.7 10.7 0 0 1 3.84 2.856l-3.576 2.952q-2.184-2.232-5.184-2.232-1.608 0-2.568.624-.96.6-.96 1.608t1.104 1.8q1.128.768 4.128 1.8 2.736.912 4.464 2.04 1.752 1.128 2.544 2.592.816 1.464.816 3.384 0 3.384-2.472 5.328-2.448 1.92-6.744 1.92m24.918 0q-3.48 0-6-1.608t-3.864-4.488q-1.344-2.904-1.344-6.768 0-4.008 1.392-6.864 1.392-2.88 3.912-4.416t5.904-1.536q2.904 0 5.28 1.248 2.4 1.248 3.816 3.84 1.416 2.568 1.416 6.552 0 .624-.024 1.488-.024.84-.144 1.704h-16.2q.144 1.872.888 3.264.768 1.392 2.04 2.184 1.272.768 3 .768 1.68 0 2.976-.552 1.296-.576 2.472-1.824l3.12 3.288q-1.512 1.656-3.696 2.688-2.16 1.032-4.944 1.032m-5.832-15.192h11.064q-.072-1.752-.72-3.072-.624-1.32-1.776-2.04-1.152-.744-2.808-.744-2.304 0-3.936 1.44-1.608 1.44-1.824 4.416M530.028 690v-24.528h5.376v2.4q1.152-1.512 2.76-2.232 1.632-.744 3.72-.744 4.248 0 6.456 2.592t2.208 7.608V690h-5.4v-13.92q0-3.072-1.176-4.584-1.152-1.512-3.504-1.512-2.544 0-3.816 1.488-1.248 1.488-1.248 4.512V690zm50.599.576q-1.728 0-3.048-.624-1.296-.624-2.472-1.968V690h-5.376v-32.184l5.376-2.472v12.096a6.7 6.7 0 0 1 2.448-1.872 7.5 7.5 0 0 1 3.168-.672q3.048 0 5.328 1.608 2.304 1.584 3.576 4.464t1.272 6.744q0 6.096-2.712 9.48t-7.56 3.384m-.672-5.112q2.64 0 4.056-2.016 1.44-2.016 1.44-5.736 0-3.768-1.416-5.736-1.416-1.992-4.08-1.992-1.464 0-2.808.72-1.32.696-2.04 1.824v10.392q.792 1.2 2.016 1.872t2.832.672m27.362 5.112q-5.136 0-8.088-3.432t-2.952-9.384q0-3.96 1.344-6.84t3.816-4.44q2.496-1.584 5.88-1.584 3.408 0 5.88 1.56t3.816 4.44 1.344 6.84-1.344 6.84-3.816 4.44-5.88 1.56m0-5.112q2.664 0 4.152-2.04t1.488-5.688q0-3.672-1.512-5.712-1.488-2.04-4.128-2.04t-4.152 2.064q-1.488 2.04-1.488 5.712 0 3.624 1.488 5.664 1.512 2.04 4.152 2.04m25.823 5.112q-4.248 0-6.48-2.592t-2.232-7.584v-14.928h5.376v13.872q0 3.12 1.152 4.632 1.176 1.488 3.528 1.488 2.568 0 3.816-1.488 1.248-1.512 1.248-4.536v-13.968h5.4V690h-5.4v-2.304a7.15 7.15 0 0 1-2.736 2.16q-1.584.72-3.672.72m19.606-.576v-24.528h5.376v2.4q1.152-1.512 2.76-2.232 1.632-.744 3.72-.744 4.248 0 6.456 2.592t2.208 7.608V690h-5.4v-13.92q0-3.072-1.176-4.584-1.152-1.512-3.504-1.512-2.544 0-3.816 1.488-1.248 1.488-1.248 4.512V690zm37.073.576q-4.728 0-7.416-3.432t-2.688-9.432q0-3.864 1.248-6.744 1.272-2.904 3.528-4.488 2.28-1.584 5.352-1.584 3.408 0 5.64 2.352v-9.432l5.4-2.472V690h-5.4v-1.968q-1.968 2.544-5.664 2.544m.84-5.112q1.608 0 2.808-.648 1.224-.648 2.016-1.896v-10.44a5.6 5.6 0 0 0-2.088-1.824 5.8 5.8 0 0 0-2.736-.672q-2.64 0-4.104 1.992-1.44 1.992-1.44 5.736 0 2.4.672 4.128t1.92 2.688q1.248.936 2.952.936m25.069 5.112q-4.032 0-6.336-2.184t-2.304-5.928q0-2.448 1.176-4.248 1.176-1.824 3.312-2.808 2.136-1.008 4.992-1.008 1.68 0 3.192.336 1.536.312 2.736.96v-1.584q0-2.352-1.2-3.48-1.2-1.152-3.624-1.152-1.776 0-3.672.648T710.28 672l-1.608-4.296q2.016-1.344 4.536-2.064a17.8 17.8 0 0 1 5.064-.744q4.728 0 7.08 2.304 2.376 2.28 2.376 6.864V690h-5.232v-2.064a9.1 9.1 0 0 1-3.048 1.968 10.3 10.3 0 0 1-3.72.672m1.104-4.584q1.56 0 3.024-.672a8.1 8.1 0 0 0 2.64-1.92v-3.336a9.3 9.3 0 0 0-2.448-.912 11 11 0 0 0-2.64-.336q-2.4 0-3.768.984-1.368.96-1.368 2.664 0 1.632 1.2 2.592 1.2.936 3.36.936M735.153 690v-24.528h5.376v2.832a5.66 5.66 0 0 1 2.16-2.496 5.96 5.96 0 0 1 3.216-.912q2.472 0 4.176 1.608l-.744 4.968q-.912-.72-1.824-1.032a6.2 6.2 0 0 0-2.016-.312q-1.536 0-2.64.768t-1.728 2.184q-.6 1.416-.6 3.36V690zm19.36 0v-24.528h5.376V690zm2.664-28.08q-1.32 0-2.256-.936a3.08 3.08 0 0 1-.936-2.256q0-1.344.912-2.28a3.06 3.06 0 0 1 2.28-.96q1.392 0 2.304.936.936.936.936 2.304 0 1.344-.936 2.28-.936.912-2.304.912m20.277 28.656q-3.48 0-6-1.608t-3.864-4.488q-1.344-2.904-1.344-6.768 0-4.008 1.392-6.864 1.392-2.88 3.912-4.416t5.904-1.536q2.904 0 5.28 1.248 2.4 1.248 3.816 3.84 1.416 2.568 1.416 6.552 0 .624-.024 1.488-.024.84-.144 1.704h-16.2q.144 1.872.888 3.264.768 1.392 2.04 2.184 1.272.768 3 .768 1.68 0 2.976-.552 1.296-.576 2.472-1.824l3.12 3.288q-1.512 1.656-3.696 2.688-2.16 1.032-4.944 1.032m-5.832-15.192h11.064q-.072-1.752-.72-3.072-.624-1.32-1.776-2.04-1.152-.744-2.808-.744-2.304 0-3.936 1.44-1.608 1.44-1.824 4.416m29.665 15.192a12.5 12.5 0 0 1-5.304-1.176q-2.544-1.2-4.08-3.192l3.6-3.072q1.272 1.32 2.856 2.088t3.096.768q1.92 0 2.976-.672 1.056-.696 1.056-1.944 0-.768-.48-1.392-.48-.648-1.68-1.272t-3.312-1.416q-4.128-1.512-5.856-3.264-1.728-1.776-1.728-4.44 0-3 2.4-4.848t6.24-1.848q2.616 0 4.824 1.008a10.7 10.7 0 0 1 3.84 2.856l-3.576 2.952q-2.184-2.232-5.184-2.232-1.608 0-2.568.624-.96.6-.96 1.608t1.104 1.8q1.128.768 4.128 1.8 2.736.912 4.464 2.04 1.752 1.128 2.544 2.592.816 1.464.816 3.384 0 3.384-2.472 5.328-2.448 1.92-6.744 1.92M852 740h-1v1h1zm650-1H852v2h650zm-649 1V140h-2v600z"/><circle cx="1191.16" cy="288.272" r="20" fill="#109FBC" fill-opacity=".96" transform="rotate(113.258 1191.16 288.272)"/><circle cx="1262.71" cy="401.304" r="20" fill="#109FBC" fill-opacity=".96" transform="rotate(113.258 1262.71 401.304)"/><circle cx="1083.92" cy="353.847" r="20" fill="#109FBC" fill-opacity=".96" transform="rotate(113.258 1083.92 353.847)"/><circle cx="1204.8" cy="551.975" r="20" fill="#109FBC" fill-opacity=".96" transform="rotate(113.258 1204.8 551.975)"/><circle cx="1013.27" cy="356.137" r="20" fill="#109FBC" fill-opacity=".96" transform="rotate(113.258 1013.27 356.137)"/><circle cx="1342.16" cy="276.272" r="20" fill="#109FBC" fill-opacity=".96" transform="rotate(113.258 1342.16 276.272)"/><circle cx="1171.16" cy="214.272" r="20" fill="#109FBC" fill-opacity=".96" transform="rotate(113.258 1171.16 214.272)"/><path fill="#191315" fill-opacity=".92" d="M1108.93 302.313a.996.996 0 0 0 .69-1.231l-2.41-8.67c-.15-.532-.7-.843-1.24-.695-.53.148-.84.7-.69 1.232l2.15 7.706-7.71 2.148a.996.996 0 0 0-.69 1.231c.14.532.7.844 1.23.695zm-33.18-18.377 32.42 18.285.98-1.742-32.41-18.285zm64.63 72.4c.47.287 1.09.138 1.38-.333l4.68-7.683a1 1 0 0 0-.33-1.375.994.994 0 0 0-1.37.333l-4.17 6.829-6.83-4.166a.993.993 0 0 0-1.37.333 1 1 0 0 0 .33 1.374zm-5.16-20.057 4.71 19.438 1.94-.47-4.7-19.439zm-33.9 2.534a.995.995 0 0 0 .91 1.08l8.97.757a1.001 1.001 0 0 0 .17-1.993l-7.97-.672.67-7.972a.997.997 0 0 0-.91-1.081.996.996 0 0 0-1.08.913zm10.6-9.336-10.25 8.656 1.29 1.528 10.25-8.655zm17.19 68.23c-.1-.544-.62-.907-1.16-.811l-8.86 1.558c-.55.096-.91.615-.82 1.158.1.544.62.908 1.16.812l7.88-1.385 1.39 7.879a.99.99 0 0 0 1.15.811c.55-.095.91-.614.82-1.158zm-14.24 20.823 14.07-20.075-1.64-1.148-14.07 20.075zm-51.61 1.858a.99.99 0 0 0-.56 1.299l3.33 8.36c.21.513.79.763 1.3.559.51-.205.76-.787.56-1.3l-2.96-7.43 7.43-2.964a.993.993 0 0 0 .55-1.299.99.99 0 0 0-1.29-.559zm14.54 5.934-13.78-5.924-.79 1.838 13.78 5.923zm-54.56-90.216a1 1 0 0 0 1.26.64l8.56-2.794c.52-.172.81-.736.64-1.261a1 1 0 0 0-1.26-.641l-7.61 2.484-2.48-7.604a1 1 0 0 0-1.9.621zm21.38-42.759-21.32 41.996 1.78.905 21.32-41.996zm13.32 101.089c.1.544.62.908 1.16.812l8.86-1.559c.55-.095.91-.614.82-1.158-.1-.544-.62-.907-1.16-.811l-7.88 1.385-1.39-7.879a.99.99 0 0 0-1.15-.812c-.55.096-.91.614-.82 1.158zm14.24-20.822-14.07 20.075 1.64 1.148 14.07-20.075zm-43.64 20.647c.53.175 1.09-.108 1.27-.631l2.85-8.535a.99.99 0 0 0-.63-1.266.993.993 0 0 0-1.26.631l-2.54 7.587-7.59-2.538a.994.994 0 0 0-1.26.631.99.99 0 0 0 .63 1.266zm-8.18-15.742 7.6 15.24 1.79-.893-7.6-15.239z"/><circle cx="1100.05" cy="435.941" r="20" fill="#CC054E" fill-opacity=".98" transform="rotate(157.056 1100.05 435.941)"/><circle cx="1226.33" cy="355.431" r="20" fill="#CC054E" fill-opacity=".98" transform="rotate(157.056 1226.33 355.431)"/><circle cx="1191.55" cy="416.738" r="20" fill="#CC054E" fill-opacity=".98" transform="rotate(157.056 1191.55 416.738)"/><circle cx="1040.71" cy="414.882" r="20" fill="#CC054E" fill-opacity=".98" transform="rotate(157.056 1040.71 414.882)"/><circle cx="1236.7" cy="478.642" r="20" fill="#CC054E" fill-opacity=".98" transform="rotate(157.056 1236.7 478.642)"/><circle cx="1130.25" cy="312.423" r="20" fill="#CC054E" fill-opacity=".98" transform="rotate(157.056 1130.25 312.423)"/><path fill="#191315" fill-opacity=".92" d="M1191.63 228.033a.997.997 0 0 0-.71 1.223l2.31 8.699c.14.534.68.852 1.22.711.53-.142.85-.69.71-1.223l-2.05-7.733 7.73-2.051c.53-.142.85-.69.71-1.223a.997.997 0 0 0-1.22-.71zm31.76 18.102-31-18-1.01 1.73 31 18zm-14.48 29.627c-.13.537.2 1.078.74 1.209l8.74 2.138a.999.999 0 1 0 .47-1.943l-7.77-1.9 1.9-7.771a1 1 0 1 0-1.94-.475zm13.73-8.673-13.28 8.056 1.04 1.71 13.27-8.056zm93.6 6.665c.47-.286.62-.901.34-1.373l-4.67-7.698a.995.995 0 0 0-1.37-.338 1.01 1.01 0 0 0-.34 1.374l4.15 6.842-6.85 4.145a.997.997 0 0 0-.33 1.374c.28.472.9.623 1.37.337zm-48.02-11.488 47.26 11.604.48-1.942-47.26-11.605zm16.71 64.874a.996.996 0 0 0 1.23-.691l2.45-8.662a1 1 0 0 0-.69-1.234c-.53-.15-1.09.16-1.24.691l-2.17 7.699-7.7-2.173a.996.996 0 0 0-1.23.691c-.15.531.16 1.084.69 1.234zm-27.08-47.772 26.48 47.298 1.74-.977-26.47-47.298zm-28.65 54.119c.3.465.92.601 1.39.303l7.58-4.853a1.001 1.001 0 0 0-1.08-1.684l-6.74 4.313-4.31-6.737a1.001 1.001 0 1 0-1.69 1.078zm11.22-52.476-11.35 51.723 1.95.428 11.35-51.723zm67.5 49.249c.14.533.69.849 1.22.706l8.69-2.34a1 1 0 1 0-.52-1.931l-7.72 2.079-2.08-7.725a1 1 0 0 0-1.23-.705.993.993 0 0 0-.7 1.225zm19.1-33.759-19 33 1.73.998 19-33zm-117.18 43.002a1 1 0 0 0 1.3-.561l3.32-8.364a.99.99 0 0 0-.56-1.299 1.006 1.006 0 0 0-1.3.561l-2.95 7.435-7.43-2.953a1 1 0 0 0-1.3.56 1 1 0 0 0 .56 1.299zm-12.87-29.107 12.32 28.573 1.84-.792-12.33-28.573z"/><circle cx="1312.53" cy="472.786" r="20" fill="#74AA09" fill-opacity=".96" transform="rotate(113.258 1312.53 472.786)"/><circle cx="1282.52" cy="542.61" r="20" fill="#74AA09" fill-opacity=".96" transform="rotate(113.258 1282.52 542.61)"/><circle cx="1294.2" cy="350.992" r="20" fill="#74AA09" fill-opacity=".96" transform="rotate(113.258 1294.2 350.992)"/><circle cx="1148.15" cy="381.028" r="20" fill="#74AA09" fill-opacity=".96" transform="rotate(113.258 1148.15 381.028)"/><circle cx="1159.41" cy="489.696" r="20" fill="#74AA09" fill-opacity=".96" transform="rotate(113.258 1159.41 489.696)"/><circle cx="1244.61" cy="258.555" r="20" fill="#74AA09" fill-opacity=".96" transform="rotate(113.258 1244.61 258.555)"/><circle cx="1055.58" cy="273.019" r="20" fill="#74AA09" fill-opacity=".96" transform="rotate(113.258 1055.58 273.019)"/><path fill="#191315" fill-opacity=".92" d="M1296.37 454.95c.53.16 1.09-.138 1.25-.666l2.62-8.611a1 1 0 0 0-.67-1.247 1 1 0 0 0-1.25.665l-2.32 7.654-7.66-2.328a1.006 1.006 0 0 0-1.25.666c-.16.528.14 1.087.67 1.248zm-15.66-28.733 15.07 28.247 1.76-.942-15.07-28.246zm-21.59 49.406a.99.99 0 0 0 .1 1.411l6.81 5.879a1 1 0 0 0 1.41-.104.99.99 0 0 0-.1-1.411l-6.06-5.225 5.23-6.058a1 1 0 0 0-.11-1.41 1 1 0 0 0-1.41.104zm28.78-2.415-28.1 2.071.15 1.995 28.1-2.072zm-21.83 52.51c.54.104 1.06-.251 1.17-.794l1.7-8.838a1.002 1.002 0 0 0-1.97-.378l-1.51 7.857-7.85-1.51a.993.993 0 0 0-1.17.793.995.995 0 0 0 .79 1.171zm-17.29-24.993 16.65 24.571 1.65-1.121-16.65-24.572zm-19.87 50.176c-.32.449-.22 1.074.23 1.396l7.32 5.244a.996.996 0 0 0 1.39-.23c.32-.449.22-1.074-.23-1.396l-6.5-4.661 4.66-6.502a1 1 0 0 0-.23-1.395.993.993 0 0 0-1.39.23zm29.94-5.232-29.29 4.828.33 1.973 29.28-4.827zm-69.74-10.578a1 1 0 0 0 1.17-.793l1.7-8.838a.999.999 0 1 0-1.96-.378l-1.51 7.857-7.86-1.51a1 1 0 0 0-1.17.793c-.1.543.25 1.067.79 1.171zm-17.29-24.992 16.65 24.571 1.66-1.122-16.65-24.571zm73.88-53.293c.21.513.79.763 1.3.558l8.36-3.333c.51-.205.76-.787.56-1.3a1.003 1.003 0 0 0-1.3-.558l-7.43 2.963-2.96-7.431a1.003 1.003 0 0 0-1.3-.558.99.99 0 0 0-.56 1.299zm12.25-29.246-12.24 28.481 1.84.789 12.24-28.48zm-51.29 7.368a1 1 0 0 0-1.17.793l-1.7 8.838a1.002 1.002 0 0 0 1.97.378l1.51-7.856 7.85 1.509a1 1 0 0 0 1.17-.793.996.996 0 0 0-.79-1.171zm17.29 24.992-16.65-24.571-1.66 1.122 16.66 24.571zm-40.37 26.81c-.34.429-.28 1.058.15 1.406l6.99 5.665c.43.348 1.06.282 1.41-.148a.997.997 0 0 0-.15-1.406l-6.21-5.036 5.03-6.216a.997.997 0 0 0-.15-1.406.993.993 0 0 0-1.4.147zm29.17-3.356-28.49 2.99.2 1.99 28.5-2.991zm-43.96-188.96a1 1 0 0 0-.49-1.324l-8.2-3.725a.997.997 0 0 0-1.32.497.994.994 0 0 0 .5 1.324l7.28 3.311-3.31 7.282a.995.995 0 0 0 .5 1.325.997.997 0 0 0 1.32-.497zm-16.56 6.522 16-6-.7-1.872-16 6zm52.01 48.998a.996.996 0 0 0 .58-1.291l-3.22-8.406a.997.997 0 0 0-1.29-.576c-.52.197-.77.775-.58 1.291l2.86 7.471-7.47 2.86c-.51.197-.77.776-.58 1.291.2.516.78.774 1.3.577zm-56.76-25.021 56 25 .81-1.826-56-25zm6.06 78.337a1 1 0 0 0-1.41.089l-5.94 6.755a1 1 0 0 0 .08 1.411 1.01 1.01 0 0 0 1.42-.09l5.28-6.004 6.01 5.287a1 1 0 0 0 1.41-.089 1.01 1.01 0 0 0-.09-1.412zm4.34 63.687-4-63-1.99.126 4 63zm55.97-92.2c-.15-.533-.7-.847-1.23-.702l-8.68 2.368a.99.99 0 0 0-.7 1.228c.14.533.69.847 1.22.702l7.72-2.105 2.11 7.718c.14.533.69.847 1.22.702.54-.146.85-.695.71-1.228zm-12.1 21.759 12-21-1.73-.992-12 21zm46.37-43.139a1 1 0 0 0 .12 1.409l6.89 5.788a1 1 0 0 0 1.29-1.531l-6.13-5.146 5.15-6.125c.35-.423.3-1.054-.12-1.409-.43-.355-1.06-.3-1.41.122zm23.68-2.353-23 2 .17 1.992 23-2zm-196.44 339.572q-3.84 0-6.6-1.44c-1.82-.976-3.32-2.288-4.49-3.936-1.17-1.664-2.03-3.528-2.59-5.592-.54-2.08-.82-4.216-.82-6.408q0-3.168.87-6.24a17.9 17.9 0 0 1 2.64-5.616 13.1 13.1 0 0 1 4.51-4.008q2.73-1.512 6.48-1.512c2.13 0 3.92.32 5.38.96 1.45.64 2.67 1.472 3.64 2.496q1.47 1.512 2.52 3.216l-4.89 2.784a13.1 13.1 0 0 0-2.67-2.928c-1.02-.848-2.35-1.272-3.98-1.272-1.65 0-3.04.368-4.18 1.104a8.2 8.2 0 0 0-2.68 2.904c-.68 1.2-1.16 2.512-1.47 3.936a21 21 0 0 0-.43 4.176c0 1.536.17 3.032.5 4.488.34 1.44.85 2.736 1.54 3.888a8.1 8.1 0 0 0 2.71 2.712c1.12.672 2.46 1.008 4.01 1.008 1.26 0 2.38-.272 3.34-.816a6.27 6.27 0 0 0 2.3-2.256q.84-1.44.84-3.24v-.864h-5.81v-5.208h11.55v4.56c0 2.832-.54 5.224-1.61 7.176s-2.54 3.432-4.39 4.44c-1.84.992-3.92 1.488-6.22 1.488m28.97 0c-3.42 0-6.12-1.144-8.09-3.432-1.96-2.288-2.95-5.416-2.95-9.384q0-3.96 1.35-6.84 1.335-2.88 3.81-4.44 2.505-1.584 5.88-1.584 3.405 0 5.88 1.56c1.65 1.04 2.92 2.52 3.82 4.44.89 1.92 1.34 4.2 1.34 6.84s-.45 4.92-1.34 6.84c-.9 1.92-2.17 3.4-3.82 4.44q-2.475 1.56-5.88 1.56m0-5.112c1.78 0 3.16-.68 4.15-2.04 1-1.36 1.49-3.256 1.49-5.688 0-2.448-.5-4.352-1.51-5.712-.99-1.36-2.37-2.04-4.13-2.04s-3.14.688-4.15 2.064c-.99 1.36-1.49 3.264-1.49 5.712 0 2.416.5 4.304 1.49 5.664 1.01 1.36 2.39 2.04 4.15 2.04m26.54 5.112c-3.16 0-5.63-1.144-7.42-3.432s-2.69-5.432-2.69-9.432c0-2.576.42-4.824 1.25-6.744.85-1.936 2.02-3.432 3.53-4.488 1.52-1.056 3.3-1.584 5.35-1.584q3.405 0 5.64 2.352v-9.432l5.4-2.472V690h-5.4v-1.968c-1.31 1.696-3.2 2.544-5.66 2.544m.84-5.112c1.07 0 2-.216 2.8-.648.82-.432 1.49-1.064 2.02-1.896v-10.44a5.6 5.6 0 0 0-2.09-1.824 5.8 5.8 0 0 0-2.73-.672q-2.64 0-4.11 1.992-1.44 1.992-1.44 5.736c0 1.6.23 2.976.67 4.128q.675 1.728 1.92 2.688c.84.624 1.82.936 2.96.936m39.33 5.112c-3.43 0-6.12-1.144-8.09-3.432s-2.95-5.416-2.95-9.384c0-2.64.44-4.92 1.34-6.84s2.17-3.4 3.82-4.44q2.49-1.584 5.88-1.584 3.405 0 5.88 1.56c1.64 1.04 2.92 2.52 3.81 4.44q1.35 2.88 1.35 6.84t-1.35 6.84c-.89 1.92-2.17 3.4-3.81 4.44q-2.475 1.56-5.88 1.56m0-5.112c1.77 0 3.16-.68 4.15-2.04s1.49-3.256 1.49-5.688c0-2.448-.51-4.352-1.52-5.712-.99-1.36-2.36-2.04-4.12-2.04s-3.15.688-4.16 2.064c-.99 1.36-1.48 3.264-1.48 5.712 0 2.416.49 4.304 1.48 5.664 1.01 1.36 2.4 2.04 4.16 2.04m28.24 5.112c-1.15 0-2.17-.208-3.05-.624-.86-.416-1.68-1.072-2.47-1.968V690h-5.37v-32.184l5.37-2.472v12.096a6.7 6.7 0 0 1 2.45-1.872 7.5 7.5 0 0 1 3.17-.672c2.03 0 3.81.536 5.33 1.608q2.295 1.584 3.57 4.464c.85 1.92 1.27 4.168 1.27 6.744 0 4.064-.9 7.224-2.71 9.48q-2.715 3.384-7.56 3.384m-.67-5.112c1.76 0 3.11-.672 4.06-2.016q1.44-2.016 1.44-5.736c0-2.512-.48-4.424-1.42-5.736q-1.41-1.992-4.08-1.992c-.98 0-1.91.24-2.81.72q-1.32.696-2.04 1.824v10.392c.53.8 1.2 1.424 2.02 1.872.81.448 1.76.672 2.83.672m13.38 14.808-2.66-4.248c2.45-.464 4.15-1.072 5.11-1.824.98-.736 1.46-1.8 1.46-3.192v-25.536h5.38v24.048c0 3.152-.75 5.584-2.26 7.296-1.48 1.728-3.83 2.88-7.03 3.456m6.6-38.352q-1.32 0-2.28-.936a3.1 3.1 0 0 1-.93-2.256q0-1.344.93-2.28.945-.96 2.28-.96 1.365 0 2.28.936c.63.624.94 1.392.94 2.304 0 .896-.31 1.656-.94 2.28q-.915.912-2.28.912m20.25 28.656q-3.48 0-6-1.608c-1.68-1.072-2.96-2.568-3.86-4.488-.9-1.936-1.34-4.192-1.34-6.768 0-2.672.46-4.96 1.39-6.864.93-1.92 2.23-3.392 3.91-4.416s3.65-1.536 5.9-1.536q2.91 0 5.28 1.248c1.6.832 2.88 2.112 3.82 3.84.94 1.712 1.42 3.896 1.42 6.552q0 .624-.03 1.488c-.01.56-.06 1.128-.14 1.704h-16.2c.09 1.248.39 2.336.89 3.264q.765 1.392 2.04 2.184 1.26.768 3 .768 1.68 0 2.97-.552c.87-.384 1.69-.992 2.47-1.824l3.12 3.288c-1 1.104-2.24 2-3.69 2.688q-2.16 1.032-4.95 1.032m-5.83-15.192h11.07q-.075-1.752-.72-3.072c-.42-.88-1.01-1.56-1.78-2.04-.77-.496-1.7-.744-2.81-.744-1.53 0-2.85.48-3.93 1.44s-1.68 2.432-1.83 4.416m32.64 15.192c-2.23 0-4.14-.512-5.74-1.536-1.6-1.04-2.83-2.52-3.7-4.44q-1.29-2.88-1.29-6.84t1.32-6.84c.88-1.936 2.13-3.424 3.74-4.464q2.43-1.56 5.79-1.56 3.57 0 6 1.68c1.61 1.104 2.79 2.728 3.52 4.872l-5.11 1.776c-.4-1.04-.97-1.84-1.73-2.4q-1.095-.84-2.64-.84c-1.69 0-3.02.688-3.98 2.064q-1.44 2.064-1.44 5.712c0 2.4.47 4.28 1.42 5.64.94 1.36 2.24 2.04 3.88 2.04q1.68 0 2.88-.912c.8-.624 1.39-1.512 1.76-2.664l5.08 1.56c-.68 2.336-1.87 4.112-3.55 5.328q-2.49 1.824-6.21 1.824m22.6 0q-2.775 0-4.2-1.584-1.41-1.584-1.41-4.632V670.2h-3.72v-4.728h3.72v-7.56l5.37-2.568v10.128h5.72v4.728h-5.72v12.984q0 1.32.51 1.968c.35.416.89.624 1.61.624 1.16 0 2.44-.384 3.81-1.152l-.6 4.848q-1.125.552-2.37.816c-.84.192-1.74.288-2.72.288M852 740v-1h-1v1zm0 1h650v-2H852zm1 599V740h-2v600z"/><circle cx="1208.5" cy="1062" r="20" fill="#109FBC" fill-opacity=".96"/><circle cx="1278.5" cy="1082" r="20" fill="#109FBC" fill-opacity=".96"/><circle cx="1208.5" cy="1127" r="20" fill="#109FBC" fill-opacity=".96"/><circle cx="1146.5" cy="1186" r="20" fill="#109FBC" fill-opacity=".96"/><circle cx="1238.5" cy="1191" r="20" fill="#109FBC" fill-opacity=".96"/><circle cx="1154.5" cy="1102" r="20" fill="#109FBC" fill-opacity=".96"/><circle cx="1278.5" cy="1142" r="20" fill="#109FBC" fill-opacity=".96"/><path fill="#191315" fill-opacity=".92" d="M1151.28 1124.37c-.35-.43-.98-.5-1.41-.15l-7.01 5.64a1.002 1.002 0 1 0 1.26 1.56l6.23-5.01 5.01 6.23a1.002 1.002 0 1 0 1.56-1.26zm-3.79 37.74 4-37-1.98-.22-4 37zm41-87.97a.995.995 0 0 0-.85-1.13l-8.91-1.27a1 1 0 0 0-.28 1.98l7.92 1.13-1.13 7.92a1 1 0 0 0 1.98.28zm-16.39 12.66 16-12-1.2-1.6-16 12zm15.72 30.15c.52-.18.8-.74.63-1.27l-2.85-8.53a.997.997 0 1 0-1.89.63l2.53 7.59-7.59 2.53a.997.997 0 1 0 .63 1.89zm-12.77-6.06 12 6 .9-1.78-12-6zm55.9-42.73c-.46.31-.59.93-.29 1.39l4.94 7.53c.3.46.92.59 1.38.28a1 1 0 0 0 .29-1.38l-4.39-6.69 6.7-4.39c.46-.3.59-.92.28-1.38a1 1 0 0 0-1.38-.29zm24.75 4.86-24-5-.4 1.96 24 5zm22.09 46.69c.39.39 1.03.39 1.42 0l6.36-6.37a.996.996 0 1 0-1.41-1.41l-5.66 5.66-5.66-5.66a.996.996 0 1 0-1.41 1.41zm-.29-15.71v15h2v-15zm-61.34 85.75c.42-.36.46-1 .09-1.41l-5.94-6.76c-.37-.41-1-.45-1.42-.09-.41.37-.45 1-.09 1.41l5.29 6.01-6.01 5.28c-.41.37-.45 1-.09 1.42.37.41 1 .45 1.41.09zm-47.72-2.75 47 3 .12-2-47-3zm87.61-52.16c.46-.31.59-.93.29-1.39l-4.94-7.53a.99.99 0 0 0-1.38-.28 1 1 0 0 0-.29 1.38l4.39 6.69-6.7 4.39c-.46.3-.59.92-.28 1.38a1 1 0 0 0 1.38.29zm-24.75-4.86 24 5 .4-1.96-24-5zm36.2 31.94c-.05-.55-.53-.96-1.08-.92l-8.97.75c-.55.05-.96.53-.92 1.08.05.55.53.96 1.08.91l7.98-.66.66 7.97c.05.55.53.96 1.08.92.55-.05.96-.53.91-1.08zm-11.24 13.73 11-13-1.52-1.3-11 13z"/><circle cx="1067.35" cy="879.176" r="20" fill="#CC054E" fill-opacity=".98" transform="rotate(43.798 1067.35 879.176)"/><circle cx="1104.03" cy="942.06" r="20" fill="#CC054E" fill-opacity=".98" transform="rotate(43.798 1104.03 942.06)"/><circle cx="1005.87" cy="963.278" r="20" fill="#CC054E" fill-opacity=".98" transform="rotate(43.798 1005.87 963.278)"/><circle cx="936.778" cy="925.767" r="20" fill="#CC054E" fill-opacity=".98" transform="rotate(43.798 936.778 925.767)"/><circle cx="986.875" cy="868.278" r="20" fill="#CC054E" fill-opacity=".98" transform="rotate(43.798 986.875 868.278)"/><circle cx="1056.87" cy="1013.28" r="20" fill="#CC054E" fill-opacity=".98" transform="rotate(43.798 1056.87 1013.28)"/><path fill="#191315" fill-opacity=".92" d="M958.225 936.072a1 1 0 0 0-.557 1.299l3.343 8.357a1 1 0 0 0 1.857-.743l-2.971-7.428 7.427-2.971a1 1 0 1 0-.742-1.857zm28.766 12.009-28-12-.788 1.838 28 12zm51.539 48.917a.99.99 0 0 0 1.06-.936l.57-8.982a1.01 1.01 0 0 0-.94-1.061 1 1 0 0 0-1.06.936l-.5 7.985-7.98-.499a.997.997 0 0 0-1.06.935.994.994 0 0 0 .93 1.061zm-15.68-17.336 15 17 1.5-1.324-15-17zm-30.672-88.476a1 1 0 0 0-1.395.233l-5.231 7.323a1 1 0 0 0 1.627 1.163l4.65-6.51 6.51 4.65a1 1 0 0 0 1.395-.233.996.996 0 0 0-.232-1.395zm8.402 48.65-7.997-48-1.973.328 8 48zm53.01-40.966a1 1 0 0 0-1.12-.861l-8.93 1.174c-.54.072-.93.574-.86 1.122.07.547.58.933 1.12.861l7.94-1.044 1.04 7.932c.07.547.57.933 1.12.861a1 1 0 0 0 .86-1.122zm-33.2 43.739 33-43-1.59-1.218-33 43zm61.03 4.952c.31-.457.19-1.079-.26-1.389l-7.45-5.048a1.001 1.001 0 0 0-1.13 1.656l6.63 4.487-4.49 6.623a1 1 0 0 0 .27 1.389c.46.31 1.08.19 1.39-.267zm-52.63 10.421 52-10-.38-1.964-52 10zm15.4-84.18a.994.994 0 0 0 .21-1.399l-5.37-7.222a1.002 1.002 0 0 0-1.61 1.194l4.78 6.419-6.42 4.774a.994.994 0 0 0-.21 1.399c.33.443.96.535 1.4.206zm-34.74-4.813 34 5 .29-1.978-34-5zm85.12 93.794a.996.996 0 0 0-1.19-.759l-8.79 1.952c-.54.12-.87.654-.76 1.193.12.539.66.879 1.2.76l7.81-1.736 1.73 7.81c.12.539.66.879 1.2.759a1 1 0 0 0 .76-1.193zm-21.13 33.754 21-33-1.69-1.074-21 33z"/><circle cx="1309.5" cy="808" r="20" fill="#74AA09" fill-opacity=".96"/><circle cx="1385.5" cy="808" r="20" fill="#74AA09" fill-opacity=".96"/><circle cx="1345.5" cy="875" r="20" fill="#74AA09" fill-opacity=".96"/><circle cx="1265.5" cy="875" r="20" fill="#74AA09" fill-opacity=".96"/><circle cx="1385.5" cy="942" r="20" fill="#74AA09" fill-opacity=".96"/><circle cx="1305.5" cy="942" r="20" fill="#74AA09" fill-opacity=".96"/><circle cx="1425.5" cy="875" r="20" fill="#74AA09" fill-opacity=".96"/><path fill="#191315" fill-opacity=".92" d="M1299.49 829.89a.995.995 0 0 0-1.1-.884l-8.95.994c-.54.061-.94.555-.88 1.104s.56.945 1.11.884l7.95-.884.88 7.951a1 1 0 0 0 1.99-.22zm-20.21 25.735 20-25-1.56-1.25-20 25zm53.92.329a.99.99 0 0 0 1.25-.653l2.71-8.582a.993.993 0 0 0-.65-1.255.99.99 0 0 0-1.25.653l-2.41 7.628-7.63-2.409a1.006 1.006 0 0 0-1.26.653c-.16.526.13 1.088.66 1.254zm-13.59-25.493 13 25 1.78-.922-13-25zm56.87-.675a1 1 0 0 0-1.19-.763l-8.8 1.93c-.53.118-.88.652-.76 1.191.12.54.65.881 1.19.762l7.82-1.715 1.71 7.814c.12.54.65.881 1.19.762.54-.118.88-.651.77-1.191zm-16.14 25.753 16-25-1.68-1.078-16 25zm53.95-1.562a1 1 0 0 0 1.19-.763l1.93-8.79a1.01 1.01 0 0 0-.77-1.191 1 1 0 0 0-1.19.762l-1.71 7.814-7.82-1.715a1 1 0 0 0-1.19.762c-.12.539.23 1.073.76 1.191zm-16.63-25.438 16 25 1.68-1.078-16-25zm17.82 68.247a1 1 0 0 0-1.19-.763l-8.8 1.93c-.53.118-.88.652-.76 1.191.12.54.65.881 1.19.762l7.82-1.715 1.71 7.814c.12.54.65.881 1.19.762.54-.118.88-.651.77-1.191zm-16.14 25.753 16-25-1.68-1.078-16 25zm-78.13-46.832a1 1 0 0 0 0-1.414l-6.37-6.364a.994.994 0 0 0-1.41 0 1 1 0 0 0 0 1.414l5.66 5.657-5.66 5.657a1 1 0 0 0 0 1.414.994.994 0 0 0 1.41 0zm-31.71.293h31v-2h-31zm27.02 44.214a1 1 0 0 0 1.19.763l8.8-1.93c.53-.118.88-.652.76-1.191a1 1 0 0 0-1.19-.762l-7.82 1.715-1.71-7.814a1 1 0 0 0-1.19-.762 1.01 1.01 0 0 0-.77 1.191zm16.14-25.753-16 25 1.68 1.078 16-25zm40.57 26.501a.996.996 0 0 0 1.23-.691l2.45-8.662a1 1 0 0 0-.7-1.233.996.996 0 0 0-1.23.69l-2.17 7.7-7.7-2.172a.997.997 0 0 0-1.23.691.993.993 0 0 0 .69 1.234zm-14.6-25.473 14 25 1.74-.978-14-25zm-356.49 94.356a2.003 2.003 0 0 0-2.79-.478l-14.699 10.389a1.996 1.996 0 0 0-.479 2.784 1.99 1.99 0 0 0 2.788.48l13.07-9.233 9.23 13.063c.64.91 1.89 1.12 2.79.48s1.11-1.88.48-2.79zm114.21 195.685c-36.42-6.44-70.37-22.62-92.48-53.2-22.09-30.56-32.586-75.84-21.39-140.992l-3.946-.677c-11.313 65.849-.811 112.319 22.096 144.009 22.89 31.67 57.94 48.24 95.02 54.8zm167.71-376.274c.69-.859.56-2.118-.3-2.812l-14.01-11.305a1.997 1.997 0 0 0-2.81.3c-.7.86-.56 2.119.3 2.813l12.45 10.048-10.05 12.451c-.69.86-.56 2.119.3 2.813.86.693 2.12.559 2.81-.301zm-187.37 62.355c27.28-20.07 51.46-33.069 79.92-42.253 28.5-9.197 61.37-14.594 106.1-19.369l-.42-3.978c-44.8 4.783-78.01 10.213-106.91 19.54-28.94 9.34-53.5 22.562-81.06 42.838zm274.79 91.103a2 2 0 0 0-2.27-1.693l-17.81 2.574a2 2 0 0 0-1.69 2.265 1.99 1.99 0 0 0 2.26 1.694l15.84-2.289 2.28 15.836a2.007 2.007 0 0 0 2.27 1.693 2 2 0 0 0 1.69-2.265zM1297.1 1063.2l74-99.003-3.2-2.394-74 98.997zM1024.61 1290v-33.6h5.55v33.6zm22.4.58c-3.16 0-5.63-1.15-7.42-3.44-1.79-2.28-2.69-5.43-2.69-9.43 0-2.57.42-4.82 1.25-6.74.85-1.94 2.02-3.43 3.53-4.49 1.52-1.06 3.3-1.58 5.35-1.58 2.27 0 4.15.78 5.64 2.35v-9.43l5.4-2.48V1290h-5.4v-1.97c-1.31 1.7-3.2 2.55-5.66 2.55m.84-5.12c1.07 0 2-.21 2.8-.64.82-.44 1.49-1.07 2.02-1.9v-10.44a5.5 5.5 0 0 0-2.09-1.82c-.85-.45-1.76-.68-2.73-.68-1.76 0-3.13.67-4.11 2-.96 1.32-1.44 3.24-1.44 5.73 0 1.6.23 2.98.67 4.13.45 1.15 1.09 2.05 1.92 2.69.84.62 1.82.93 2.96.93m27.73 5.12c-2.32 0-4.32-.54-6-1.61s-2.97-2.57-3.86-4.49c-.9-1.94-1.35-4.19-1.35-6.77 0-2.67.47-4.96 1.39-6.86.93-1.92 2.24-3.39 3.92-4.42 1.68-1.02 3.64-1.53 5.9-1.53 1.94 0 3.7.41 5.28 1.24 1.6.84 2.87 2.12 3.82 3.84.94 1.72 1.41 3.9 1.41 6.56 0 .41-.01.91-.02 1.48q-.03.84-.15 1.71h-16.2c.1 1.25.4 2.33.89 3.26q.765 1.395 2.04 2.19c.85.51 1.85.76 3 .76 1.12 0 2.11-.18 2.98-.55.86-.38 1.69-.99 2.47-1.82l3.12 3.29c-1.01 1.1-2.24 2-3.7 2.68-1.44.69-3.08 1.04-4.94 1.04m-5.83-15.2h11.06c-.05-1.16-.29-2.19-.72-3.07-.41-.88-1.01-1.56-1.77-2.04-.77-.49-1.71-.74-2.81-.74-1.54 0-2.85.48-3.94 1.44-1.07.96-1.68 2.43-1.82 4.41m29.37 15.2c-2.69 0-4.8-.73-6.34-2.19-1.53-1.45-2.3-3.43-2.3-5.93 0-1.63.39-3.04 1.17-4.24.79-1.22 1.89-2.16 3.32-2.81 1.42-.67 3.08-1.01 4.99-1.01 1.12 0 2.18.11 3.19.34 1.02.2 1.94.52 2.74.96v-1.59q0-2.355-1.2-3.48c-.8-.77-2.01-1.15-3.63-1.15-1.18 0-2.41.22-3.67.65s-2.5 1.05-3.72 1.87l-1.61-4.3c1.35-.89 2.86-1.58 4.54-2.06 1.68-.5 3.37-.74 5.06-.74 3.15 0 5.51.76 7.08 2.3 1.59 1.52 2.38 3.81 2.38 6.86V1290h-5.23v-2.06c-.87.84-1.88 1.5-3.05 1.96-1.17.45-2.41.68-3.72.68m1.1-4.59c1.04 0 2.05-.22 3.03-.67q1.485-.675 2.64-1.92v-3.34c-.72-.4-1.54-.7-2.45-.91q-1.35-.33-2.64-.33c-1.6 0-2.86.32-3.77.98-.91.64-1.37 1.53-1.37 2.66 0 1.09.4 1.96 1.2 2.6q1.2.93 3.36.93m18.19 4.01v-32.18l5.37-2.48V1290zm32.75.58c-1.84 0-3.61-.4-5.3-1.18-1.7-.8-3.06-1.86-4.08-3.19l3.6-3.07c.85.88 1.8 1.57 2.85 2.08 1.06.52 2.09.77 3.1.77 1.28 0 2.27-.22 2.98-.67.7-.46 1.05-1.11 1.05-1.94 0-.52-.16-.98-.48-1.4-.32-.43-.88-.85-1.68-1.27-.8-.41-1.9-.89-3.31-1.41-2.75-1.01-4.7-2.1-5.86-3.27-1.15-1.18-1.72-2.66-1.72-4.44 0-2 .8-3.61 2.4-4.85 1.6-1.23 3.68-1.84 6.24-1.84 1.74 0 3.35.33 4.82 1 1.49.66 2.77 1.61 3.84 2.86l-3.58 2.95c-1.45-1.49-3.18-2.23-5.18-2.23-1.07 0-1.93.21-2.57.62-.64.4-.96.94-.96 1.61q0 1.005 1.11 1.8c.75.51 2.12 1.11 4.12 1.8q2.745.915 4.47 2.04c1.17.75 2.01 1.62 2.54 2.59.55.98.82 2.11.82 3.39 0 2.25-.83 4.03-2.47 5.33-1.64 1.28-3.88 1.92-6.75 1.92m15.57-.58v-24.53h5.38V1290zm2.67-28.08c-.88 0-1.64-.31-2.26-.94-.62-.62-.94-1.37-.94-2.25 0-.9.31-1.66.92-2.28q.93-.96 2.28-.96c.92 0 1.69.31 2.3.93.62.63.94 1.4.94 2.31 0 .89-.32 1.65-.94 2.28-.62.61-1.39.91-2.3.91m17.42 28.66q-2.79 0-4.2-1.59c-.95-1.05-1.42-2.6-1.42-4.63v-14.16h-3.72v-4.73h3.72v-7.56l5.38-2.57v10.13h5.71v4.73h-5.71v12.98c0 .88.16 1.54.5 1.97.35.42.89.63 1.61.63 1.17 0 2.44-.39 3.81-1.16l-.6 4.85c-.75.37-1.54.64-2.37.82-.83.19-1.74.29-2.71.29m20.07 0c-2.83 0-4.99-.87-6.48-2.6-1.49-1.72-2.23-4.25-2.23-7.58v-14.93h5.37v13.87c0 2.08.39 3.63 1.16 4.64.78.99 1.96 1.48 3.52 1.48 1.72 0 2.99-.49 3.82-1.48.83-1.01 1.25-2.52 1.25-4.54v-13.97h5.4V1290h-5.4v-2.3c-.75.96-1.67 1.68-2.74 2.16-1.05.48-2.28.72-3.67.72m26.81 0c-2.69 0-4.8-.73-6.34-2.19-1.54-1.45-2.3-3.43-2.3-5.93 0-1.63.39-3.04 1.17-4.24.79-1.22 1.89-2.16 3.31-2.81 1.43-.67 3.09-1.01 5-1.01 1.12 0 2.18.11 3.19.34q1.53.3 2.73.96v-1.59q0-2.355-1.2-3.48c-.8-.77-2-1.15-3.62-1.15-1.18 0-2.41.22-3.67.65-1.27.43-2.51 1.05-3.72 1.87l-1.61-4.3c1.34-.89 2.86-1.58 4.54-2.06 1.68-.5 3.36-.74 5.06-.74 3.15 0 5.51.76 7.08 2.3 1.58 1.52 2.38 3.81 2.38 6.86V1290h-5.24v-2.06c-.86.84-1.88 1.5-3.04 1.96-1.17.45-2.41.68-3.72.68m1.1-4.59c1.04 0 2.05-.22 3.02-.67q1.5-.675 2.64-1.92v-3.34c-.72-.4-1.53-.7-2.44-.91q-1.35-.33-2.64-.33c-1.6 0-2.86.32-3.77.98-.91.64-1.37 1.53-1.37 2.66 0 1.09.4 1.96 1.2 2.6q1.2.93 3.36.93m24.25 4.59q-2.775 0-4.2-1.59c-.94-1.05-1.41-2.6-1.41-4.63v-14.16h-3.72v-4.73h3.72v-7.56l5.37-2.57v10.13h5.71v4.73h-5.71v12.98c0 .88.17 1.54.51 1.97.35.42.88.63 1.6.63 1.17 0 2.44-.39 3.82-1.16l-.6 4.85c-.75.37-1.54.64-2.38.82-.83.19-1.73.29-2.71.29m10.71-.58v-24.53h5.38V1290zm2.67-28.08c-.88 0-1.63-.31-2.26-.94q-.93-.93-.93-2.25c0-.9.3-1.66.91-2.28q.93-.96 2.28-.96c.93 0 1.69.31 2.3.93.63.63.94 1.4.94 2.31 0 .89-.31 1.65-.94 2.28-.62.61-1.39.91-2.3.91m20.11 28.66c-3.43 0-6.12-1.15-8.09-3.44-1.97-2.28-2.95-5.41-2.95-9.38 0-2.64.44-4.92 1.34-6.84s2.17-3.4 3.82-4.44c1.66-1.06 3.62-1.58 5.88-1.58q3.405 0 5.88 1.56c1.64 1.04 2.92 2.52 3.81 4.44q1.35 2.88 1.35 6.84t-1.35 6.84c-.89 1.92-2.17 3.4-3.81 4.44q-2.475 1.56-5.88 1.56m0-5.12c1.77 0 3.16-.68 4.15-2.04s1.49-3.25 1.49-5.68c0-2.45-.51-4.36-1.52-5.72-.99-1.36-2.36-2.04-4.12-2.04s-3.15.69-4.16 2.07c-.99 1.36-1.48 3.26-1.48 5.71 0 2.42.49 4.3 1.48 5.66 1.01 1.36 2.4 2.04 4.16 2.04m16.97 4.54v-24.53h5.38v2.4c.77-1.01 1.69-1.75 2.76-2.23 1.09-.5 2.33-.74 3.72-.74 2.83 0 4.98.86 6.45 2.59 1.48 1.73 2.21 4.26 2.21 7.61v14.9h-5.4v-13.92c0-2.05-.39-3.58-1.17-4.58-.77-1.01-1.94-1.52-3.51-1.52-1.69 0-2.97.5-3.81 1.49s-1.25 2.5-1.25 4.51V1290zM172 1350.5c-2.485 0-4.5 2.01-4.5 4.5s2.015 4.5 4.5 4.5zm1416.18 7.68a4.49 4.49 0 0 0 0-6.36l-28.64-28.64a4.49 4.49 0 0 0-6.36 0 4.49 4.49 0 0 0 0 6.36l25.46 25.46-25.46 25.46a4.49 4.49 0 0 0 0 6.36 4.49 4.49 0 0 0 6.36 0zM172 1359.5h1413v-9H172zm519.2 91.38c-4.32 0-7.973-.83-10.96-2.48s-5.4-3.87-7.24-6.64c-1.813-2.8-3.133-5.91-3.96-9.32a44.5 44.5 0 0 1-1.24-10.44q0-5.085 1.28-10.2t4.04-9.36c1.84-2.83 4.253-5.09 7.24-6.8 2.987-1.73 6.6-2.6 10.84-2.6q5.24 0 9.04 1.68t6.28 4.32c1.68 1.76 2.947 3.61 3.8 5.56l-8.24 3.92c-.907-1.33-1.853-2.51-2.84-3.52a10.6 10.6 0 0 0-3.44-2.36q-1.92-.84-4.6-.84c-2.587 0-4.773.61-6.56 1.84s-3.213 2.84-4.28 4.84c-1.04 2-1.8 4.19-2.28 6.56q-.72 3.525-.72 6.96c0 2.43.267 4.84.8 7.24q.8 3.555 2.48 6.48c1.12 1.92 2.547 3.47 4.28 4.64 1.76 1.15 3.853 1.72 6.28 1.72 2.613 0 4.773-.65 6.48-1.96q2.6-1.995 4.52-5.16l8.44 3.16c-1.12 2.43-2.56 4.6-4.32 6.52q-2.64 2.88-6.4 4.56-3.72 1.68-8.72 1.68m45.61.08c-5.707 0-10.2-1.91-13.48-5.72s-4.92-9.03-4.92-15.64q0-6.6 2.24-11.4c1.493-3.2 3.613-5.67 6.36-7.4q4.16-2.64 9.8-2.64c3.787 0 7.053.87 9.8 2.6s4.867 4.2 6.36 7.4q2.24 4.8 2.24 11.4t-2.24 11.4c-1.493 3.2-3.613 5.67-6.36 7.4s-6.013 2.6-9.8 2.6m0-8.52c2.96 0 5.267-1.13 6.92-3.4q2.48-3.405 2.48-9.48c0-4.08-.84-7.25-2.52-9.52-1.653-2.27-3.947-3.4-6.88-3.4s-5.24 1.15-6.92 3.44c-1.653 2.27-2.48 5.44-2.48 9.52 0 4.03.827 7.17 2.48 9.44 1.68 2.27 3.987 3.4 6.92 3.4m28.918 7.56v-53.64l8.96-4.12v20.92q1.92-2.475 4.64-3.72c1.813-.85 3.867-1.28 6.16-1.28q4.92 0 8.12 2.04t4.76 5.88c1.04 2.53 1.56 5.56 1.56 9.08V1450h-9v-23.2c0-3.28-.613-5.79-1.84-7.52q-1.84-2.64-5.96-2.64c-2.827 0-4.947.83-6.36 2.48-1.387 1.65-2.08 4.16-2.08 7.52V1450zm63.628.96c-3.867 0-7.2-.89-10-2.68s-4.947-4.28-6.44-7.48q-2.24-4.845-2.24-11.28c0-4.45.773-8.27 2.32-11.44 1.546-3.2 3.72-5.65 6.52-7.36s6.08-2.56 9.84-2.56c3.226 0 6.16.69 8.8 2.08 2.666 1.39 4.786 3.52 6.36 6.4q2.36 4.275 2.36 10.92c0 .69-.014 1.52-.04 2.48a26 26 0 0 1-.24 2.84h-27c.16 2.08.653 3.89 1.48 5.44.853 1.55 1.986 2.76 3.4 3.64 1.413.85 3.08 1.28 5 1.28 1.866 0 3.52-.31 4.96-.92 1.44-.64 2.813-1.65 4.12-3.04l5.2 5.48c-1.68 1.84-3.734 3.33-6.16 4.48-2.4 1.15-5.147 1.72-8.24 1.72m-9.72-25.32h18.44c-.08-1.95-.48-3.65-1.2-5.12-.694-1.47-1.68-2.6-2.96-3.4-1.28-.83-2.84-1.24-4.68-1.24q-3.84 0-6.56 2.4c-1.787 1.6-2.8 4.05-3.04 7.36m49.441 25.32c-3.067 0-6.013-.65-8.84-1.96-2.827-1.33-5.093-3.11-6.8-5.32l6-5.12q2.12 2.205 4.76 3.48c1.76.85 3.48 1.28 5.16 1.28 2.133 0 3.787-.37 4.96-1.12q1.76-1.155 1.76-3.24c0-.85-.267-1.63-.8-2.32-.533-.72-1.467-1.43-2.8-2.12s-3.173-1.48-5.52-2.36c-4.587-1.68-7.84-3.49-9.76-5.44-1.92-1.97-2.88-4.44-2.88-7.4 0-3.33 1.333-6.03 4-8.08s6.133-3.08 10.4-3.08q4.36 0 8.04 1.68c2.48 1.09 4.613 2.68 6.4 4.76l-5.96 4.92q-3.64-3.72-8.64-3.72c-1.787 0-3.213.35-4.28 1.04-1.067.67-1.6 1.56-1.6 2.68q0 1.68 1.84 3 1.88 1.275 6.88 3c3.04 1.01 5.52 2.15 7.44 3.4q2.92 1.875 4.24 4.32 1.36 2.445 1.36 5.64 0 5.64-4.12 8.88c-2.72 2.13-6.467 3.2-11.24 3.2m25.95-.96v-40.88h8.96V1450zm4.44-46.8q-2.2 0-3.76-1.56c-1.04-1.04-1.56-2.29-1.56-3.76 0-1.49.507-2.76 1.52-3.8 1.04-1.07 2.307-1.6 3.8-1.6q2.32 0 3.84 1.56 1.56 1.56 1.56 3.84c0 1.49-.52 2.76-1.56 3.8-1.04 1.01-2.32 1.52-3.84 1.52m33.515 47.76c-5.707 0-10.2-1.91-13.48-5.72s-4.92-9.03-4.92-15.64q0-6.6 2.24-11.4c1.493-3.2 3.613-5.67 6.36-7.4q4.16-2.64 9.8-2.64c3.787 0 7.053.87 9.8 2.6s4.867 4.2 6.36 7.4q2.24 4.8 2.24 11.4t-2.24 11.4c-1.493 3.2-3.613 5.67-6.36 7.4s-6.013 2.6-9.8 2.6m0-8.52c2.96 0 5.267-1.13 6.92-3.4q2.48-3.405 2.48-9.48c0-4.08-.84-7.25-2.52-9.52-1.653-2.27-3.947-3.4-6.88-3.4s-5.24 1.15-6.92 3.44c-1.653 2.27-2.48 5.44-2.48 9.52 0 4.03.827 7.17 2.48 9.44 1.68 2.27 3.987 3.4 6.92 3.4m28.293 7.56v-40.88h8.96v4q1.92-2.52 4.6-3.72c1.813-.83 3.88-1.24 6.2-1.24q7.08 0 10.76 4.32c2.453 2.88 3.68 7.11 3.68 12.68V1450h-9v-23.2c0-3.41-.653-5.96-1.96-7.64q-1.92-2.52-5.84-2.52c-2.827 0-4.947.83-6.36 2.48-1.387 1.65-2.08 4.16-2.08 7.52V1450zm-740.242-44v-21h3.885v17.23h10.155v3.77zm25.347.36c-1.68 0-3.105-.32-4.275-.95-1.17-.64-2.115-1.48-2.835-2.53q-1.065-1.59-1.56-3.51t-.495-3.87.495-3.87c.33-1.28.85-2.45 1.56-3.5.72-1.06 1.665-1.9 2.835-2.53q1.755-.96 4.275-.96t4.26.96c1.17.63 2.11 1.47 2.82 2.53.72 1.05 1.24 2.22 1.56 3.5q.495 1.92.495 3.87t-.495 3.87q-.48 1.92-1.56 3.51c-.71 1.05-1.65 1.89-2.82 2.53-1.16.63-2.58.95-4.26.95m0-3.74q1.41 0 2.385-.66c.66-.44 1.19-1.01 1.59-1.72q.6-1.065.87-2.31.27-1.26.27-2.43 0-1.26-.27-2.52a7.5 7.5 0 0 0-.855-2.31q-.585-1.05-1.575-1.68c-.65-.43-1.455-.65-2.415-.65q-1.455 0-2.445.66a5 5 0 0 0-1.575 1.74 8.5 8.5 0 0 0-.855 2.33q-.255 1.245-.255 2.43c0 .83.085 1.66.255 2.5q.27 1.26.87 2.31.615 1.05 1.59 1.68.99.63 2.415.63m15.71 3.38-4.41-21h4.02l2.28 11.82c.06.32.11.6.15.85s.075.53.105.83c.04-.28.09-.56.15-.83.06-.28.13-.56.21-.85l2.985-11.82h3.33l3 11.8c.08.28.145.56.195.83s.095.54.135.82q.06-.405.12-.78c.05-.26.1-.52.15-.79l2.385-11.88h4.005l-4.545 21h-3.525l-3.33-12.6q-.105-.36-.18-.69a19 19 0 0 1-.12-.77c-.05.3-.1.56-.15.77-.04.21-.09.43-.15.67l-3.255 12.62z"/><path fill="#CC054E" fill-opacity=".98" d="M213.934 1447.9q-.915-1.2-1.755-2.97c-.56-1.18-1.02-2.56-1.38-4.13-.35-1.57-.525-3.33-.525-5.29 0-1.95.19-3.75.57-5.39.39-1.65.89-3.1 1.5-4.36q.915-1.905 1.92-3.12h3.69q-.465.585-1.125 1.77-.66 1.17-1.305 2.85c-.43 1.12-.79 2.37-1.08 3.76-.28 1.39-.42 2.89-.42 4.49 0 1.58.135 3.04.405 4.39.27 1.34.6 2.55.99 3.62q.6 1.59 1.2 2.7.615 1.11 1.005 1.68zm14.612-3.54c-.7 0-1.305-.12-1.815-.38-.5-.25-.965-.65-1.395-1.21v1.23h-3.75v-19.97l3.75-1.69v7.53c.39-.5.87-.89 1.44-1.16.58-.27 1.21-.4 1.89-.4 1.27 0 2.38.33 3.33 1q1.425 1.005 2.22 2.82c.54 1.2.81 2.6.81 4.19 0 2.53-.575 4.5-1.725 5.92-1.14 1.41-2.725 2.12-4.755 2.12m-.45-3.59c1.02 0 1.8-.38 2.34-1.15q.825-1.155.825-3.3c0-1.43-.275-2.53-.825-3.29-.54-.77-1.32-1.15-2.34-1.15-.56 0-1.09.12-1.59.37-.5.24-.89.57-1.17.98v6.19c.31.44.69.78 1.14 1.01s.99.34 1.62.34m15.452 3.59q-2.505 0-3.975-1.35-1.455-1.365-1.455-3.69c0-1 .25-1.88.75-2.63.51-.76 1.215-1.34 2.115-1.75q1.365-.63 3.18-.63c.67 0 1.315.06 1.935.19.63.12 1.18.3 1.65.53v-.96c0-.86-.245-1.51-.735-1.94q-.72-.66-2.13-.66c-.75 0-1.52.14-2.31.41q-1.185.405-2.4 1.2l-1.125-2.96c.88-.58 1.86-1.02 2.94-1.33q1.62-.48 3.27-.48 3.09 0 4.62 1.47 1.53 1.455 1.53 4.35v9.87h-3.66v-1.23c-.52.52-1.14.91-1.86 1.18-.71.28-1.49.41-2.34.41m.87-3.17q.93 0 1.785-.36.87-.375 1.545-1.05v-1.81a6 6 0 0 0-1.44-.48q-.78-.18-1.56-.18-1.395 0-2.205.54-.795.525-.795 1.47 0 .885.705 1.38c.47.33 1.125.49 1.965.49m16.95 3.17q-2.955 0-4.635-2.13t-1.68-5.91q0-2.4.795-4.2c.53-1.2 1.27-2.14 2.22-2.81.96-.67 2.075-1 3.345-1q2.04 0 3.345 1.5v-5.78l3.735-1.69V1444h-3.735v-1.26q-1.11 1.62-3.39 1.62m.615-3.59q.96 0 1.635-.33.675-.345 1.14-1.02v-6.19q-.465-.63-1.215-.99a3.5 3.5 0 0 0-1.56-.36c-1.01 0-1.79.38-2.34 1.15-.55.76-.825 1.86-.825 3.29 0 .94.125 1.74.375 2.41.25.66.61 1.17 1.08 1.52s1.04.52 1.71.52m10.475 7.13q.405-.57 1.005-1.68t1.2-2.7c.4-1.07.73-2.28.99-3.62.27-1.34.405-2.8.405-4.39 0-1.6-.14-3.1-.42-4.49s-.635-2.64-1.065-3.76q-.645-1.68-1.305-2.85-.66-1.185-1.14-1.77h3.69q1.005 1.215 1.92 3.12c.61 1.26 1.105 2.71 1.485 4.36.39 1.64.585 3.44.585 5.39 0 1.96-.18 3.72-.54 5.29-.35 1.57-.805 2.95-1.365 4.13q-.84 1.77-1.755 2.97z"/><path fill="#191315" fill-opacity=".92" d="M1434.98 1406v-21h3.89v8.32h8.88V1385h3.88v21h-3.88v-8.97h-8.88v8.97zm21.56 0v-21h3.89v21zm17.22.36c-1.61 0-3-.3-4.16-.9a7.94 7.94 0 0 1-2.83-2.46 11.4 11.4 0 0 1-1.64-3.5c-.35-1.3-.52-2.63-.52-4 0-1.31.18-2.61.54-3.89.37-1.28.92-2.44 1.66-3.49q1.125-1.575 2.85-2.52c1.15-.64 2.52-.96 4.1-.96q2.01 0 3.39.63 1.395.63 2.34 1.65c.64.67 1.19 1.38 1.66 2.13l-3.42 1.95c-.46-.71-1-1.33-1.63-1.86-.62-.53-1.4-.8-2.34-.8q-1.47 0-2.46.66c-.65.44-1.17 1.02-1.56 1.73s-.67 1.48-.84 2.32c-.17.83-.26 1.65-.26 2.45 0 .91.1 1.79.29 2.64s.49 1.61.9 2.29q.615 1.02 1.59 1.62c.65.39 1.43.59 2.34.59.69 0 1.31-.16 1.87-.47.57-.31 1.02-.72 1.35-1.24.33-.53.5-1.13.5-1.79v-.39h-3.57v-3.67h7.57v3.03c0 1.78-.34 3.28-1.03 4.51-.68 1.22-1.61 2.15-2.78 2.79-1.16.63-2.46.95-3.91.95m12.11-.36v-21h3.88v8.32h8.88V1385h3.89v21h-3.89v-8.97h-8.88v8.97z"/><path fill="#74AA09" fill-opacity=".96" d="M1419.85 1447.9c-.61-.8-1.19-1.79-1.75-2.97s-1.02-2.56-1.38-4.13c-.35-1.57-.53-3.33-.53-5.29 0-1.95.19-3.75.57-5.39.39-1.65.89-3.1 1.5-4.36q.915-1.905 1.92-3.12h3.69c-.31.39-.68.98-1.12 1.77-.44.78-.88 1.73-1.31 2.85s-.79 2.37-1.08 3.76c-.28 1.39-.42 2.89-.42 4.49 0 1.58.14 3.04.41 4.39.27 1.34.6 2.55.99 3.62q.6 1.59 1.2 2.7c.41.74.74 1.3 1 1.68zm13.07 2.49-2.07-3.13c1.46-.11 2.59-.28 3.39-.5.81-.22 1.38-.53 1.7-.94s.48-.95.48-1.61v-1.11q-1.17 1.26-3.3 1.26c-1.33 0-2.48-.32-3.44-.96-.96-.65-1.7-1.58-2.22-2.78-.51-1.21-.76-2.64-.76-4.3 0-1.62.26-3.03.79-4.23q.81-1.8 2.25-2.79c.97-.66 2.11-.99 3.41-.99.68 0 1.3.1 1.86.31.57.21 1.04.52 1.41.92v-.87h3.73v13.95c0 1.36-.12 2.51-.37 3.45q-.375 1.41-1.23 2.31c-.56.6-1.3 1.06-2.22 1.37-.92.32-2.06.53-3.41.64m.81-9.62c.53 0 1.03-.12 1.49-.36.47-.25.87-.58 1.2-1v-6.18c-.28-.39-.67-.71-1.16-.96a3.1 3.1 0 0 0-1.48-.39c-1.08 0-1.91.38-2.48 1.14q-.84 1.125-.84 3.3c0 .94.13 1.74.38 2.41.26.66.63 1.17 1.12 1.52s1.08.52 1.77.52m16.98 3.59c-2.16 0-3.87-.72-5.12-2.15s-1.87-3.38-1.87-5.86c0-1.64.28-3.06.85-4.26.57-1.21 1.38-2.14 2.42-2.79q1.575-.99 3.72-.99c1.42 0 2.65.32 3.69.97s1.84 1.58 2.4 2.78.84 2.62.84 4.27q0 2.49-.84 4.29c-.55 1.2-1.35 2.13-2.39 2.78-1.04.64-2.27.96-3.7.96m0-3.59c1.01 0 1.79-.39 2.35-1.17q.84-1.17.84-3.27c0-1.4-.28-2.49-.85-3.27-.56-.79-1.34-1.18-2.34-1.18-1.01 0-1.8.39-2.37 1.18s-.86 1.89-.86 3.29c0 1.38.29 2.46.86 3.25q.855 1.17 2.37 1.17m17.17 3.59c-2.16 0-3.87-.72-5.12-2.15s-1.87-3.38-1.87-5.86c0-1.64.28-3.06.85-4.26.57-1.21 1.38-2.14 2.42-2.79q1.575-.99 3.72-.99c1.42 0 2.65.32 3.69.97s1.84 1.58 2.4 2.78.84 2.62.84 4.27q0 2.49-.84 4.29c-.55 1.2-1.35 2.13-2.39 2.78-1.04.64-2.27.96-3.7.96m0-3.59c1.01 0 1.79-.39 2.35-1.17q.84-1.17.84-3.27c0-1.4-.28-2.49-.85-3.27-.56-.79-1.34-1.18-2.34-1.18-1.01 0-1.8.39-2.37 1.18s-.86 1.89-.86 3.29c0 1.38.29 2.46.86 3.25q.855 1.17 2.37 1.17m16.49 3.59c-1.97 0-3.52-.71-4.64-2.13q-1.68-2.13-1.68-5.91c0-1.6.27-3 .8-4.2s1.27-2.14 2.22-2.81c.96-.67 2.07-1 3.34-1 1.36 0 2.48.5 3.35 1.5v-5.78l3.73-1.69V1444h-3.73v-1.26q-1.11 1.62-3.39 1.62m.61-3.59c.64 0 1.19-.11 1.64-.33q.675-.345 1.14-1.02v-6.19c-.31-.42-.72-.75-1.22-.99a3.5 3.5 0 0 0-1.56-.36c-1.01 0-1.79.38-2.34 1.15-.55.76-.82 1.86-.82 3.29 0 .94.12 1.74.37 2.41.25.66.61 1.17 1.08 1.52s1.04.52 1.71.52m10.48 7.13c.27-.38.6-.94 1-1.68q.6-1.11 1.2-2.7c.4-1.07.73-2.28.99-3.62.27-1.34.41-2.8.41-4.39 0-1.6-.14-3.1-.42-4.49a23.4 23.4 0 0 0-1.07-3.76c-.43-1.12-.86-2.07-1.3-2.85q-.66-1.185-1.14-1.77h3.69q1.005 1.215 1.92 3.12c.61 1.26 1.1 2.71 1.48 4.36.39 1.64.59 3.44.59 5.39 0 1.96-.18 3.72-.54 5.29-.35 1.57-.81 2.95-1.37 4.13s-1.14 2.17-1.75 2.97z"/><path fill="#191315" fill-opacity=".92" d="M167.5 1355c0 2.49 2.015 4.5 4.5 4.5s4.5-2.01 4.5-4.5zm7.682-1266.182a4.5 4.5 0 0 0-6.364 0l-28.638 28.638a4.5 4.5 0 0 0 6.364 6.364L172 98.364l25.456 25.456a4.5 4.5 0 0 0 6.364-6.364zM176.5 1355V92h-9v1263zm-48.62-475.2q0 6.48-2.48 10.96t-6.64 7.24q-4.2 2.72-9.32 3.96A44.5 44.5 0 0 1 99 903.2q-5.08 0-10.2-1.28t-9.36-4.04-6.8-7.24q-2.6-4.48-2.6-10.84 0-5.24 1.68-9.04t4.32-6.28q2.64-2.52 5.56-3.8l3.92 8.24q-2 1.36-3.52 2.84a10.6 10.6 0 0 0-2.36 3.44q-.84 1.92-.84 4.6 0 3.88 1.84 6.56t4.84 4.28q3 1.56 6.56 2.28 3.52.72 6.96.72 3.64 0 7.24-.8 3.56-.8 6.48-2.48 2.88-1.68 4.64-4.28 1.72-2.64 1.72-6.28 0-3.92-1.96-6.48-2-2.6-5.16-4.52l3.16-8.44q3.64 1.68 6.52 4.32t4.56 6.4q1.68 3.72 1.68 8.72m.08-45.61q0 8.56-5.72 13.48t-15.64 4.92q-6.6 0-11.4-2.24t-7.4-6.36q-2.64-4.16-2.64-9.8 0-5.68 2.6-9.8t7.4-6.36 11.4-2.24 11.4 2.24 7.4 6.36 2.6 9.8m-8.52 0q0-4.44-3.4-6.92t-9.48-2.48q-6.12 0-9.52 2.52-3.4 2.48-3.4 6.88t3.44 6.92q3.4 2.48 9.52 2.48 6.04 0 9.44-2.48 3.4-2.52 3.4-6.92m8.52-43.038q0 7.08-4.32 10.8t-12.64 3.72H86.12v-8.96h23.12q5.2 0 7.72-1.92 2.48-1.96 2.48-5.88 0-4.28-2.48-6.36-2.52-2.08-7.56-2.08H86.12v-9H127v9h-3.84q2.4 1.88 3.6 4.56 1.2 2.64 1.2 6.12m15.28-32.677H86.12v-8.96h3.16q-4.12-3.72-4.12-9.48 0-5.24 2.6-9 2.6-3.8 7.4-5.84 4.8-2.08 11.4-2.08 6.48 0 11.28 2.12t7.48 5.92q2.64 3.8 2.64 8.92 0 3-1.04 5.36-1.08 2.32-3.24 4.08h15.44zm-23.8-17.08q0-4.44-3.36-6.8-3.36-2.4-9.52-2.4-6.08 0-9.48 2.44-3.44 2.44-3.44 6.76 0 2.64 1.08 4.68t3.12 3.44h17.32q2.04-1.4 3.16-3.52t1.12-4.6m7.56-29.258H73.36l-4.12-8.96H127zm0-22.18H86.12v-8.96H127zm-46.8-4.44q0 2.2-1.56 3.76t-3.76 1.56q-2.24 0-3.8-1.52-1.6-1.56-1.6-3.8 0-2.319 1.56-3.84 1.56-1.56 3.84-1.56 2.24 0 3.8 1.56 1.52 1.56 1.52 3.84m46.8-17.355H86.12v-8.96h4q-2.52-1.92-3.72-4.6-1.24-2.72-1.24-6.2 0-7.08 4.32-10.76t12.68-3.68H127v9h-23.2q-5.12 0-7.64 1.96-2.52 1.92-2.52 5.84 0 4.24 2.48 6.36 2.48 2.08 7.52 2.08H127zm17.04-60.987-7.4 4.8q-.36-5.72-1.36-9-1-3.32-2.8-4.68-1.76-1.4-4.6-1.4h-3.84q3.92 3.28 3.92 9.36 0 5.24-2.6 9.04-2.64 3.8-7.44 5.88-4.8 2.04-11.4 2.04-6.48 0-11.28-2.12t-7.44-5.96-2.64-9.04q0-2.84.96-5.2.92-2.4 2.64-4h-2.64v-9h38.08q5.04 0 8.64 1.08 3.64 1.04 5.96 3.36 2.36 2.28 3.6 5.96t1.64 8.88m-24.6-2.48q0-2.28-1.16-4.36a10.4 10.4 0 0 0-3.2-3.44h-17.2q-1.88 1.2-3.04 3.36-1.2 2.16-1.2 4.32 0 4.68 3.32 7.16 3.28 2.48 9.56 2.48 4.04 0 6.92-1.16t4.44-3.28 1.56-5.08M87.033 1270v-21h3.885v17.23h10.155v3.77zm25.347.36c-1.68 0-3.105-.32-4.275-.95-1.17-.64-2.115-1.48-2.835-2.53q-1.065-1.59-1.56-3.51t-.495-3.87.495-3.87c.33-1.28.85-2.45 1.56-3.5.72-1.06 1.665-1.9 2.835-2.53q1.755-.96 4.275-.96t4.26.96c1.17.63 2.11 1.47 2.82 2.53.72 1.05 1.24 2.22 1.56 3.5q.495 1.92.495 3.87t-.495 3.87q-.48 1.92-1.56 3.51c-.71 1.05-1.65 1.89-2.82 2.53-1.16.63-2.58.95-4.26.95m0-3.74q1.41 0 2.385-.66c.66-.44 1.19-1.01 1.59-1.72q.6-1.065.87-2.31.27-1.26.27-2.43 0-1.26-.27-2.52a7.5 7.5 0 0 0-.855-2.31q-.585-1.05-1.575-1.68c-.65-.43-1.455-.65-2.415-.65q-1.455 0-2.445.66a5 5 0 0 0-1.575 1.74 8.5 8.5 0 0 0-.855 2.33q-.255 1.245-.255 2.43c0 .83.085 1.66.255 2.5q.27 1.26.87 2.31.615 1.05 1.59 1.68.99.63 2.415.63m15.71 3.38-4.41-21h4.02l2.28 11.82c.06.32.11.6.15.85s.075.53.105.83c.04-.28.09-.56.15-.83.06-.28.13-.56.21-.85l2.985-11.82h3.33l3 11.8c.08.28.145.56.195.83s.095.54.135.82q.06-.405.12-.78c.05-.26.1-.52.15-.79l2.385-11.88h4.005l-4.545 21h-3.525l-3.33-12.6q-.105-.36-.18-.69a19 19 0 0 1-.12-.77c-.05.3-.1.56-.15.77-.04.21-.09.43-.15.67l-3.255 12.62z"/><path fill="#74AA09" fill-opacity=".96" d="M62.854 1311.9q-.915-1.2-1.755-2.97c-.56-1.18-1.02-2.56-1.38-4.13-.35-1.57-.525-3.33-.525-5.29 0-1.95.19-3.75.57-5.39.39-1.65.89-3.1 1.5-4.36q.915-1.905 1.92-3.12h3.69q-.465.585-1.125 1.77-.66 1.17-1.305 2.85c-.43 1.12-.79 2.37-1.08 3.76-.28 1.39-.42 2.89-.42 4.49 0 1.58.135 3.04.405 4.39.27 1.34.6 2.55.99 3.62q.6 1.59 1.2 2.7.615 1.11 1.005 1.68zm13.067 2.49-2.07-3.13c1.46-.11 2.59-.28 3.39-.5.81-.22 1.375-.53 1.695-.94s.48-.95.48-1.61v-1.11q-1.17 1.26-3.3 1.26-1.995 0-3.435-.96c-.96-.65-1.7-1.58-2.22-2.78-.51-1.21-.765-2.64-.765-4.3q0-2.43.795-4.23.81-1.8 2.25-2.79 1.455-.99 3.405-.99c.68 0 1.3.1 1.86.31.57.21 1.04.52 1.41.92v-.87h3.735v13.95q0 2.04-.375 3.45t-1.23 2.31c-.56.6-1.3 1.06-2.22 1.37-.92.32-2.055.53-3.405.64m.81-9.62q.795 0 1.485-.36c.47-.25.87-.58 1.2-1v-6.18q-.42-.585-1.155-.96-.735-.39-1.485-.39-1.62 0-2.475 1.14-.84 1.125-.84 3.3c0 .94.125 1.74.375 2.41.26.66.635 1.17 1.125 1.52s1.08.52 1.77.52m16.977 3.59c-2.16 0-3.865-.72-5.115-2.15s-1.876-3.38-1.876-5.86q0-2.46.856-4.26.855-1.815 2.415-2.79 1.575-.99 3.72-.99c1.42 0 2.65.32 3.69.97s1.84 1.58 2.4 2.78.84 2.62.84 4.27q0 2.49-.84 4.29c-.55 1.2-1.346 2.13-2.386 2.78q-1.56.96-3.705.96m0-3.59q1.514 0 2.355-1.17.84-1.17.84-3.27t-.856-3.27c-.56-.79-1.34-1.18-2.34-1.18-1.01 0-1.8.39-2.37 1.18s-.855 1.89-.855 3.29c0 1.38.285 2.46.856 3.25q.855 1.17 2.37 1.17m17.167 3.59c-2.16 0-3.865-.72-5.115-2.15s-1.875-3.38-1.875-5.86q0-2.46.855-4.26.855-1.815 2.415-2.79 1.575-.99 3.72-.99c1.42 0 2.65.32 3.69.97s1.84 1.58 2.4 2.78.84 2.62.84 4.27q0 2.49-.84 4.29c-.55 1.2-1.345 2.13-2.385 2.78q-1.56.96-3.705.96m0-3.59q1.515 0 2.355-1.17t.84-3.27-.855-3.27c-.56-.79-1.34-1.18-2.34-1.18-1.01 0-1.8.39-2.37 1.18s-.855 1.89-.855 3.29c0 1.38.285 2.46.855 3.25q.855 1.17 2.37 1.17m16.493 3.59q-2.955 0-4.635-2.13t-1.68-5.91q0-2.4.795-4.2c.53-1.2 1.27-2.14 2.22-2.81.96-.67 2.075-1 3.345-1q2.04 0 3.345 1.5v-5.78l3.735-1.69V1308h-3.735v-1.26q-1.11 1.62-3.39 1.62m.615-3.59q.96 0 1.635-.33.675-.345 1.14-1.02v-6.19q-.465-.63-1.215-.99a3.5 3.5 0 0 0-1.56-.36c-1.01 0-1.79.38-2.34 1.15-.55.76-.825 1.86-.825 3.29 0 .94.125 1.74.375 2.41.25.66.61 1.17 1.08 1.52s1.04.52 1.71.52m10.475 7.13q.405-.57 1.005-1.68t1.2-2.7c.4-1.07.73-2.28.99-3.62.27-1.34.405-2.8.405-4.39 0-1.6-.14-3.1-.42-4.49s-.635-2.64-1.065-3.76q-.645-1.68-1.305-2.85-.66-1.185-1.14-1.77h3.69q1.005 1.215 1.92 3.12c.61 1.26 1.105 2.71 1.485 4.36.39 1.64.585 3.44.585 5.39 0 1.96-.18 3.72-.54 5.29-.35 1.57-.805 2.95-1.365 4.13q-.84 1.77-1.755 2.97z"/><path fill="#191315" fill-opacity=".92" d="M77.98 199v-21h3.885v8.325h8.88V178h3.885v21h-3.885v-8.97h-8.88V199zm21.563 0v-21h3.885v21zm17.217.36q-2.415 0-4.155-.9a7.95 7.95 0 0 1-2.835-2.46 11.3 11.3 0 0 1-1.635-3.495q-.525-1.95-.525-4.005 0-1.965.54-3.885.555-1.92 1.665-3.495 1.125-1.575 2.85-2.52 1.725-.96 4.095-.96 2.01 0 3.39.63 1.395.63 2.34 1.65.96 1.005 1.665 2.13l-3.42 1.95a8.3 8.3 0 0 0-1.635-1.86q-.93-.795-2.34-.795-1.47 0-2.46.66a4.9 4.9 0 0 0-1.56 1.725q-.585 1.065-.84 2.325a12.2 12.2 0 0 0 .03 5.085q.285 1.275.9 2.295t1.59 1.62q.975.585 2.34.585 1.035 0 1.875-.465.855-.465 1.35-1.245.495-.795.495-1.785v-.39h-3.57v-3.675h7.575v3.03q0 2.67-1.035 4.515-1.02 1.83-2.775 2.79-1.74.945-3.915.945m12.109-.36v-21h3.885v8.325h8.88V178h3.885v21h-3.885v-8.97h-8.88V199z"/><path fill="#CC054E" fill-opacity=".98" d="M79.934 240.9q-.915-1.2-1.755-2.97t-1.38-4.125q-.525-2.355-.525-5.295 0-2.925.57-5.385.585-2.475 1.5-4.365.915-1.905 1.92-3.12h3.69q-.465.585-1.125 1.77-.66 1.17-1.305 2.85t-1.08 3.765q-.42 2.085-.42 4.485 0 2.37.405 4.395.405 2.01.99 3.615.6 1.59 1.2 2.7.615 1.11 1.005 1.68zm14.612-3.54q-1.05 0-1.815-.375-.75-.375-1.395-1.215V237h-3.75v-19.965l3.75-1.695v7.53q.585-.75 1.44-1.155.87-.405 1.89-.405 1.905 0 3.33 1.005t2.22 2.82q.81 1.8.81 4.185 0 3.795-1.725 5.925-1.71 2.115-4.755 2.115m-.45-3.585q1.53 0 2.34-1.155.825-1.155.825-3.3t-.825-3.285q-.81-1.155-2.34-1.155-.84 0-1.59.375-.75.36-1.17.975v6.195q.465.66 1.14 1.005t1.62.345m15.452 3.585q-2.505 0-3.975-1.35-1.455-1.365-1.455-3.69 0-1.5.75-2.625.765-1.14 2.115-1.755 1.365-.63 3.18-.63 1.005 0 1.935.195.945.18 1.65.525v-.96q0-1.29-.735-1.935-.72-.66-2.13-.66-1.125 0-2.31.405t-2.4 1.2l-1.125-2.955q1.32-.87 2.94-1.335 1.62-.48 3.27-.48 3.09 0 4.62 1.47 1.53 1.455 1.53 4.35V237h-3.66v-1.23q-.78.78-1.86 1.185-1.065.405-2.34.405m.87-3.165q.93 0 1.785-.36.87-.375 1.545-1.05v-1.815a6 6 0 0 0-1.44-.48q-.78-.18-1.56-.18-1.395 0-2.205.54-.795.525-.795 1.47 0 .885.705 1.38t1.965.495m16.95 3.165q-2.955 0-4.635-2.13t-1.68-5.91q0-2.4.795-4.2t2.22-2.805q1.44-1.005 3.345-1.005 2.04 0 3.345 1.5v-5.775l3.735-1.695V237h-3.735v-1.26q-1.11 1.62-3.39 1.62m.615-3.585q.96 0 1.635-.33.675-.345 1.14-1.02v-6.195q-.465-.63-1.215-.99a3.5 3.5 0 0 0-1.56-.36q-1.515 0-2.34 1.155-.825 1.14-.825 3.285 0 1.41.375 2.415.375.99 1.08 1.515t1.71.525m10.475 7.125q.405-.57 1.005-1.68t1.2-2.7q.6-1.605.99-3.615.405-2.01.405-4.395 0-2.4-.42-4.485t-1.065-3.765-1.305-2.85q-.66-1.185-1.14-1.77h3.69q1.005 1.215 1.92 3.12.915 1.89 1.485 4.365.585 2.46.585 5.385 0 2.94-.54 5.295-.525 2.355-1.365 4.125t-1.755 2.97z"/></svg>