<svg width="365" height="236" viewBox="0 0 365 236" fill="none" xmlns="http://www.w3.org/2000/svg">
<rect width="365" height="236" rx="6" fill="white" fill-opacity="0.6"/>
<path d="M38 35C38 35.5304 37.7893 36.0391 37.4142 36.4142C37.0391 36.7893 36.5304 37 36 37H20C19.4696 37 18.9609 36.7893 18.5858 36.4142C18.2107 36.0391 18 35.5304 18 35V21C18 20.4696 18.2107 19.9609 18.5858 19.5858C18.9609 19.2107 19.4696 19 20 19H25L27 22H36C36.5304 22 37.0391 22.2107 37.4142 22.5858C37.7893 22.9609 38 23.4696 38 24V35Z" fill="#FEF9D7" stroke="black" stroke-width="2" stroke-linecap="round" stroke-linejoin="round"/>
<path d="M58.1619 25.1818V26.9716H52.358V25.1818H58.1619ZM53.8089 35V24.255C53.8089 23.5945 53.9453 23.0447 54.218 22.6058C54.495 22.1669 54.8658 21.8388 55.3303 21.6214C55.7947 21.4041 56.3104 21.2955 56.8771 21.2955C57.2777 21.2955 57.6335 21.3274 57.9446 21.3913C58.2557 21.4553 58.4858 21.5128 58.6349 21.5639L58.1747 23.3537C58.0767 23.3239 57.9531 23.294 57.804 23.2642C57.6548 23.2301 57.4886 23.2131 57.3054 23.2131C56.875 23.2131 56.5703 23.3175 56.3913 23.5263C56.2166 23.7308 56.1293 24.0249 56.1293 24.4084V35H53.8089ZM63.9515 35.1918C62.9672 35.1918 62.117 34.9872 61.4011 34.5781C60.6895 34.1648 60.1419 33.581 59.7583 32.8267C59.3748 32.0682 59.1831 31.1754 59.1831 30.1484C59.1831 29.1385 59.3748 28.2521 59.7583 27.4893C60.1461 26.7223 60.6873 26.1257 61.3819 25.6996C62.0765 25.2692 62.8926 25.054 63.8301 25.054C64.4352 25.054 65.0062 25.152 65.5431 25.348C66.0843 25.5398 66.5616 25.8381 66.975 26.2429C67.3926 26.6477 67.7207 27.1634 67.9593 27.7898C68.198 28.4119 68.3173 29.1534 68.3173 30.0142V30.7237H60.2697V29.1641H66.0993C66.095 28.7209 65.9991 28.3267 65.8116 27.9815C65.6241 27.6321 65.362 27.3572 65.0254 27.157C64.693 26.9567 64.3052 26.8565 63.862 26.8565C63.389 26.8565 62.9735 26.9716 62.6156 27.2017C62.2576 27.4276 61.9785 27.7259 61.7782 28.0966C61.5822 28.4631 61.4821 28.8658 61.4778 29.3047V30.6662C61.4778 31.2372 61.5822 31.7273 61.791 32.1364C61.9998 32.5412 62.2917 32.8523 62.6667 33.0696C63.0417 33.2827 63.4806 33.3892 63.9835 33.3892C64.3201 33.3892 64.6248 33.3423 64.8976 33.2486C65.1703 33.1506 65.4068 33.0078 65.6071 32.8203C65.8074 32.6328 65.9586 32.4006 66.0609 32.1236L68.2214 32.3665C68.085 32.9375 67.8251 33.4361 67.4416 33.8622C67.0623 34.2841 66.5765 34.6122 65.9842 34.8466C65.3919 35.0767 64.7143 35.1918 63.9515 35.1918ZM73.1001 35.1982C72.478 35.1982 71.9176 35.0874 71.419 34.8658C70.9247 34.6399 70.5327 34.3075 70.2429 33.8686C69.9574 33.4297 69.8146 32.8885 69.8146 32.245C69.8146 31.6911 69.9169 31.233 70.1214 30.8707C70.326 30.5085 70.6051 30.2188 70.9588 30.0014C71.3125 29.7841 71.7109 29.62 72.1541 29.5092C72.6016 29.3942 73.0639 29.3111 73.5412 29.2599C74.1165 29.2003 74.5831 29.147 74.9411 29.1001C75.299 29.049 75.5589 28.9723 75.7209 28.87C75.8871 28.7635 75.9702 28.5994 75.9702 28.3778V28.3395C75.9702 27.858 75.8274 27.4851 75.5419 27.2209C75.2564 26.9567 74.8452 26.8246 74.3082 26.8246C73.7415 26.8246 73.2919 26.9482 72.9595 27.1953C72.6314 27.4425 72.4098 27.7344 72.2947 28.071L70.1342 27.7642C70.3047 27.1676 70.5859 26.669 70.978 26.2685C71.37 25.8636 71.8494 25.5611 72.4162 25.3608C72.983 25.1562 73.6094 25.054 74.2955 25.054C74.7685 25.054 75.2393 25.1094 75.7081 25.2202C76.1768 25.331 76.6051 25.5142 76.9929 25.7699C77.3807 26.0213 77.6918 26.3643 77.9261 26.799C78.1648 27.2337 78.2841 27.777 78.2841 28.429V35H76.0597V33.6513H75.983C75.8423 33.924 75.6442 34.1797 75.3885 34.4183C75.1371 34.6527 74.8196 34.8423 74.4361 34.9872C74.0568 35.1278 73.6115 35.1982 73.1001 35.1982ZM73.701 33.4979C74.1655 33.4979 74.5682 33.4062 74.9091 33.223C75.25 33.0355 75.5121 32.7884 75.6953 32.4815C75.8828 32.1747 75.9766 31.8402 75.9766 31.478V30.321C75.9041 30.3807 75.7805 30.4361 75.6058 30.4872C75.4354 30.5384 75.2436 30.5831 75.0305 30.6214C74.8175 30.6598 74.6065 30.6939 74.3977 30.7237C74.1889 30.7536 74.0078 30.7791 73.8544 30.8004C73.5092 30.8473 73.2003 30.924 72.9276 31.0305C72.6548 31.1371 72.4396 31.2862 72.282 31.478C72.1243 31.6655 72.0455 31.9084 72.0455 32.2067C72.0455 32.6328 72.201 32.9545 72.5121 33.1719C72.8232 33.3892 73.2195 33.4979 73.701 33.4979ZM85.5135 25.1818V26.9716H79.8693V25.1818H85.5135ZM81.2628 22.8295H83.5767V32.0469C83.5767 32.358 83.6236 32.5966 83.7173 32.7628C83.8153 32.9247 83.9432 33.0355 84.1009 33.0952C84.2585 33.1548 84.4332 33.1847 84.625 33.1847C84.7699 33.1847 84.902 33.174 85.0213 33.1527C85.1449 33.1314 85.2386 33.1122 85.3026 33.0952L85.6925 34.9041C85.5689 34.9467 85.392 34.9936 85.1619 35.0447C84.9361 35.0959 84.6591 35.1257 84.331 35.1342C83.7514 35.1513 83.2294 35.0639 82.7649 34.8722C82.3004 34.6761 81.9318 34.3736 81.6591 33.9645C81.3906 33.5554 81.2585 33.044 81.2628 32.4304V22.8295ZM93.7065 30.8707V25.1818H96.0204V35H93.7768V33.255H93.6745C93.4529 33.8047 93.0886 34.2543 92.5815 34.6037C92.0787 34.9531 91.4586 35.1278 90.7214 35.1278C90.0779 35.1278 89.5091 34.9851 89.0147 34.6996C88.5247 34.4098 88.1412 33.9901 87.8642 33.4403C87.5872 32.8864 87.4487 32.2173 87.4487 31.4332V25.1818H89.7626V31.0753C89.7626 31.6974 89.9331 32.1918 90.274 32.5582C90.6149 32.9247 91.0623 33.108 91.6163 33.108C91.9572 33.108 92.2875 33.0249 92.6071 32.8587C92.9267 32.6925 93.1887 32.4453 93.3933 32.1172C93.6021 31.7848 93.7065 31.3693 93.7065 30.8707ZM98.3999 35V25.1818H100.643V26.8182H100.746C100.925 26.2514 101.232 25.8146 101.666 25.5078C102.105 25.1967 102.606 25.0412 103.168 25.0412C103.296 25.0412 103.439 25.0476 103.597 25.0604C103.759 25.0689 103.893 25.0838 103.999 25.1051V27.2337C103.901 27.1996 103.746 27.1697 103.533 27.1442C103.324 27.1143 103.121 27.0994 102.925 27.0994C102.504 27.0994 102.124 27.1911 101.788 27.3743C101.455 27.5533 101.193 27.8026 101.001 28.1222C100.81 28.4418 100.714 28.8104 100.714 29.228V35H98.3999ZM109.479 35.1918C108.494 35.1918 107.644 34.9872 106.928 34.5781C106.217 34.1648 105.669 33.581 105.286 32.8267C104.902 32.0682 104.71 31.1754 104.71 30.1484C104.71 29.1385 104.902 28.2521 105.286 27.4893C105.673 26.7223 106.215 26.1257 106.909 25.6996C107.604 25.2692 108.42 25.054 109.357 25.054C109.963 25.054 110.534 25.152 111.07 25.348C111.612 25.5398 112.089 25.8381 112.502 26.2429C112.92 26.6477 113.248 27.1634 113.487 27.7898C113.725 28.4119 113.845 29.1534 113.845 30.0142V30.7237H105.797V29.1641H111.627C111.622 28.7209 111.526 28.3267 111.339 27.9815C111.151 27.6321 110.889 27.3572 110.553 27.157C110.22 26.9567 109.833 26.8565 109.389 26.8565C108.916 26.8565 108.501 26.9716 108.143 27.2017C107.785 27.4276 107.506 27.7259 107.306 28.0966C107.11 28.4631 107.009 28.8658 107.005 29.3047V30.6662C107.005 31.2372 107.11 31.7273 107.318 32.1364C107.527 32.5412 107.819 32.8523 108.194 33.0696C108.569 33.2827 109.008 33.3892 109.511 33.3892C109.847 33.3892 110.152 33.3423 110.425 33.2486C110.698 33.1506 110.934 33.0078 111.134 32.8203C111.335 32.6328 111.486 32.4006 111.588 32.1236L113.749 32.3665C113.612 32.9375 113.352 33.4361 112.969 33.8622C112.59 34.2841 112.104 34.6122 111.512 34.8466C110.919 35.0767 110.242 35.1918 109.479 35.1918ZM123.562 27.777L121.453 28.0071C121.393 27.794 121.289 27.5938 121.14 27.4062C120.995 27.2188 120.799 27.0675 120.551 26.9524C120.304 26.8374 120.002 26.7798 119.644 26.7798C119.162 26.7798 118.757 26.8842 118.429 27.093C118.105 27.3018 117.946 27.5724 117.95 27.9048C117.946 28.1903 118.05 28.4226 118.263 28.6016C118.48 28.7805 118.838 28.9276 119.337 29.0426L121.012 29.4006C121.941 29.6009 122.631 29.9183 123.083 30.353C123.539 30.7876 123.769 31.3565 123.773 32.0597C123.769 32.6776 123.588 33.223 123.23 33.696C122.876 34.1648 122.384 34.5312 121.753 34.7955C121.123 35.0597 120.398 35.1918 119.58 35.1918C118.378 35.1918 117.411 34.9403 116.678 34.4375C115.945 33.9304 115.508 33.2251 115.368 32.3217L117.624 32.1044C117.726 32.5476 117.944 32.8821 118.276 33.108C118.608 33.3338 119.041 33.4467 119.574 33.4467C120.123 33.4467 120.564 33.3338 120.897 33.108C121.233 32.8821 121.402 32.603 121.402 32.2706C121.402 31.9893 121.293 31.7571 121.076 31.5739C120.863 31.3906 120.53 31.25 120.078 31.152L118.404 30.8004C117.462 30.6044 116.765 30.2741 116.314 29.8097C115.862 29.3409 115.638 28.7486 115.642 28.0327C115.638 27.4276 115.802 26.9034 116.135 26.4602C116.471 26.0128 116.938 25.6676 117.534 25.4247C118.135 25.1776 118.828 25.054 119.612 25.054C120.762 25.054 121.668 25.299 122.328 25.7891C122.993 26.2791 123.404 26.9418 123.562 27.777Z" fill="black"/>
<path d="M28 48V59C28 61.7614 30.2386 64 33 64H44" stroke="#6C6C6C" stroke-width="2" stroke-linecap="round" stroke-linejoin="round"/>
<path d="M74 71C74 71.5304 73.7893 72.0391 73.4142 72.4142C73.0391 72.7893 72.5304 73 72 73H56C55.4696 73 54.9609 72.7893 54.5858 72.4142C54.2107 72.0391 54 71.5304 54 71V57C54 56.4696 54.2107 55.9609 54.5858 55.5858C54.9609 55.2107 55.4696 55 56 55H61L63 58H72C72.5304 58 73.0391 58.2107 73.4142 58.5858C73.7893 58.9609 74 59.4696 74 60V71Z" stroke="black" stroke-width="2" stroke-linecap="round" stroke-linejoin="round"/>
<path d="M89.1889 74.6818V61.1818H91.4645V62.8054H91.5987C91.718 62.5668 91.8864 62.3132 92.1037 62.0447C92.321 61.772 92.6151 61.5398 92.9858 61.348C93.3565 61.152 93.8295 61.054 94.4048 61.054C95.1634 61.054 95.8473 61.2479 96.4567 61.6357C97.0703 62.0192 97.5561 62.5881 97.9141 63.3423C98.2763 64.0923 98.4574 65.0128 98.4574 66.1037C98.4574 67.1818 98.2805 68.098 97.9268 68.8523C97.5732 69.6065 97.0916 70.1818 96.4822 70.5781C95.8729 70.9744 95.1825 71.1726 94.4112 71.1726C93.8487 71.1726 93.3821 71.0788 93.0114 70.8913C92.6406 70.7038 92.3423 70.478 92.1165 70.2138C91.8949 69.9453 91.7223 69.6918 91.5987 69.4531H91.5028V74.6818H89.1889ZM91.4581 66.0909C91.4581 66.7259 91.5476 67.282 91.7266 67.7592C91.9098 68.2365 92.1719 68.6094 92.5128 68.8778C92.858 69.142 93.2756 69.2741 93.7656 69.2741C94.277 69.2741 94.7053 69.1378 95.0504 68.8651C95.3956 68.5881 95.6555 68.2109 95.8303 67.7337C96.0092 67.2521 96.0987 66.7045 96.0987 66.0909C96.0987 65.4815 96.0114 64.9403 95.8366 64.4673C95.6619 63.9943 95.402 63.6236 95.0568 63.3551C94.7116 63.0866 94.2812 62.9524 93.7656 62.9524C93.2713 62.9524 92.8516 63.0824 92.5064 63.3423C92.1612 63.6023 91.8991 63.9666 91.7202 64.4354C91.5455 64.9041 91.4581 65.456 91.4581 66.0909ZM104.722 71.1918C103.763 71.1918 102.932 70.9808 102.229 70.5589C101.526 70.1371 100.98 69.5469 100.592 68.7884C100.209 68.0298 100.017 67.1435 100.017 66.1293C100.017 65.1151 100.209 64.2266 100.592 63.4638C100.98 62.701 101.526 62.1087 102.229 61.6868C102.932 61.2649 103.763 61.054 104.722 61.054C105.68 61.054 106.511 61.2649 107.214 61.6868C107.918 62.1087 108.461 62.701 108.844 63.4638C109.232 64.2266 109.426 65.1151 109.426 66.1293C109.426 67.1435 109.232 68.0298 108.844 68.7884C108.461 69.5469 107.918 70.1371 107.214 70.5589C106.511 70.9808 105.68 71.1918 104.722 71.1918ZM104.734 69.3381C105.254 69.3381 105.689 69.1953 106.038 68.9098C106.388 68.62 106.648 68.2322 106.818 67.7464C106.993 67.2607 107.08 66.7195 107.08 66.1229C107.08 65.522 106.993 64.9787 106.818 64.4929C106.648 64.0028 106.388 63.6129 106.038 63.3232C105.689 63.0334 105.254 62.8885 104.734 62.8885C104.202 62.8885 103.759 63.0334 103.405 63.3232C103.055 63.6129 102.793 64.0028 102.619 64.4929C102.448 64.9787 102.363 65.522 102.363 66.1229C102.363 66.7195 102.448 67.2607 102.619 67.7464C102.793 68.2322 103.055 68.62 103.405 68.9098C103.759 69.1953 104.202 69.3381 104.734 69.3381ZM119.15 63.777L117.041 64.0071C116.981 63.794 116.877 63.5938 116.727 63.4062C116.583 63.2188 116.387 63.0675 116.139 62.9524C115.892 62.8374 115.59 62.7798 115.232 62.7798C114.75 62.7798 114.345 62.8842 114.017 63.093C113.693 63.3018 113.534 63.5724 113.538 63.9048C113.534 64.1903 113.638 64.4226 113.851 64.6016C114.068 64.7805 114.426 64.9276 114.925 65.0426L116.6 65.4006C117.529 65.6009 118.219 65.9183 118.671 66.353C119.127 66.7876 119.357 67.3565 119.361 68.0597C119.357 68.6776 119.176 69.223 118.818 69.696C118.464 70.1648 117.972 70.5312 117.341 70.7955C116.71 71.0597 115.986 71.1918 115.168 71.1918C113.966 71.1918 112.999 70.9403 112.266 70.4375C111.533 69.9304 111.096 69.2251 110.955 68.3217L113.212 68.1044C113.314 68.5476 113.531 68.8821 113.864 69.108C114.196 69.3338 114.629 69.4467 115.161 69.4467C115.711 69.4467 116.152 69.3338 116.485 69.108C116.821 68.8821 116.99 68.603 116.99 68.2706C116.99 67.9893 116.881 67.7571 116.664 67.5739C116.45 67.3906 116.118 67.25 115.666 67.152L113.992 66.8004C113.05 66.6044 112.353 66.2741 111.901 65.8097C111.45 65.3409 111.226 64.7486 111.23 64.0327C111.226 63.4276 111.39 62.9034 111.722 62.4602C112.059 62.0128 112.526 61.6676 113.122 61.4247C113.723 61.1776 114.416 61.054 115.2 61.054C116.35 61.054 117.256 61.299 117.916 61.7891C118.581 62.2791 118.992 62.9418 119.15 63.777ZM126.172 61.1818V62.9716H120.528V61.1818H126.172ZM121.921 58.8295H124.235V68.0469C124.235 68.358 124.282 68.5966 124.376 68.7628C124.474 68.9247 124.601 69.0355 124.759 69.0952C124.917 69.1548 125.091 69.1847 125.283 69.1847C125.428 69.1847 125.56 69.174 125.68 69.1527C125.803 69.1314 125.897 69.1122 125.961 69.0952L126.351 70.9041C126.227 70.9467 126.05 70.9936 125.82 71.0447C125.594 71.0959 125.317 71.1257 124.989 71.1342C124.41 71.1513 123.888 71.0639 123.423 70.8722C122.959 70.6761 122.59 70.3736 122.317 69.9645C122.049 69.5554 121.917 69.044 121.921 68.4304V58.8295Z" fill="black"/>
<path d="M64 84V95C64 97.7614 66.2386 100 69 100H80" stroke="#6C6C6C" stroke-width="2" stroke-linecap="round" stroke-linejoin="round"/>
<path d="M64 84V100V120" stroke="#6C6C6C" stroke-width="2" stroke-linecap="round" stroke-linejoin="round"/>
<path d="M110 107C110 107.53 109.789 108.039 109.414 108.414C109.039 108.789 108.53 109 108 109H92C91.4696 109 90.9609 108.789 90.5858 108.414C90.2107 108.039 90 107.53 90 107V93C90 92.4696 90.2107 91.9609 90.5858 91.5858C90.9609 91.2107 91.4696 91 92 91H97L99 94H108C108.53 94 109.039 94.2107 109.414 94.5858C109.789 94.9609 110 95.4696 110 96V107Z" stroke="black" stroke-width="2" stroke-linecap="round" stroke-linejoin="round"/>
<path d="M129.472 107.192C128.491 107.192 127.65 106.977 126.947 106.546C126.248 106.116 125.709 105.521 125.33 104.763C124.955 104 124.767 103.122 124.767 102.129C124.767 101.132 124.959 100.252 125.342 99.4893C125.726 98.7223 126.267 98.1257 126.966 97.6996C127.669 97.2692 128.5 97.054 129.459 97.054C130.256 97.054 130.961 97.201 131.575 97.495C132.192 97.7848 132.685 98.196 133.051 98.7287C133.418 99.2571 133.626 99.875 133.678 100.582H131.466C131.376 100.109 131.163 99.7152 130.827 99.3999C130.494 99.0803 130.049 98.9205 129.491 98.9205C129.018 98.9205 128.602 99.0483 128.244 99.304C127.886 99.5554 127.607 99.9176 127.407 100.391C127.211 100.864 127.113 101.43 127.113 102.091C127.113 102.76 127.211 103.335 127.407 103.817C127.603 104.294 127.878 104.663 128.232 104.923C128.589 105.178 129.009 105.306 129.491 105.306C129.832 105.306 130.136 105.242 130.405 105.114C130.678 104.982 130.906 104.793 131.089 104.545C131.272 104.298 131.398 103.998 131.466 103.644H133.678C133.622 104.339 133.418 104.955 133.064 105.491C132.71 106.024 132.229 106.442 131.619 106.744C131.01 107.043 130.294 107.192 129.472 107.192ZM139.86 107.192C138.901 107.192 138.07 106.981 137.367 106.559C136.664 106.137 136.119 105.547 135.731 104.788C135.347 104.03 135.156 103.143 135.156 102.129C135.156 101.115 135.347 100.227 135.731 99.4638C136.119 98.701 136.664 98.1087 137.367 97.6868C138.07 97.2649 138.901 97.054 139.86 97.054C140.819 97.054 141.65 97.2649 142.353 97.6868C143.056 98.1087 143.6 98.701 143.983 99.4638C144.371 100.227 144.565 101.115 144.565 102.129C144.565 103.143 144.371 104.03 143.983 104.788C143.6 105.547 143.056 106.137 142.353 106.559C141.65 106.981 140.819 107.192 139.86 107.192ZM139.873 105.338C140.393 105.338 140.828 105.195 141.177 104.91C141.526 104.62 141.786 104.232 141.957 103.746C142.132 103.261 142.219 102.719 142.219 102.123C142.219 101.522 142.132 100.979 141.957 100.493C141.786 100.003 141.526 99.6129 141.177 99.3232C140.828 99.0334 140.393 98.8885 139.873 98.8885C139.34 98.8885 138.897 99.0334 138.544 99.3232C138.194 99.6129 137.932 100.003 137.757 100.493C137.587 100.979 137.502 101.522 137.502 102.123C137.502 102.719 137.587 103.261 137.757 103.746C137.932 104.232 138.194 104.62 138.544 104.91C138.897 105.195 139.34 105.338 139.873 105.338ZM146.529 107V97.1818H148.74V98.8501H148.855C149.06 98.2876 149.399 97.8487 149.872 97.5334C150.345 97.2138 150.909 97.054 151.566 97.054C152.23 97.054 152.791 97.2159 153.247 97.5398C153.707 97.8594 154.031 98.2962 154.218 98.8501H154.321C154.538 98.3047 154.904 97.87 155.42 97.5462C155.94 97.218 156.556 97.054 157.267 97.054C158.171 97.054 158.908 97.3395 159.479 97.9105C160.05 98.4815 160.336 99.3146 160.336 100.41V107H158.015V100.768C158.015 100.158 157.853 99.7131 157.529 99.4318C157.206 99.1463 156.809 99.0036 156.341 99.0036C155.782 99.0036 155.346 99.1783 155.03 99.5277C154.719 99.8729 154.564 100.322 154.564 100.876V107H152.294V100.672C152.294 100.165 152.141 99.7599 151.834 99.4574C151.532 99.1548 151.135 99.0036 150.645 99.0036C150.313 99.0036 150.01 99.0888 149.738 99.2592C149.465 99.4254 149.248 99.6619 149.086 99.9688C148.924 100.271 148.843 100.625 148.843 101.03V107H146.529ZM162.683 110.682V97.1818H164.959V98.8054H165.093C165.212 98.5668 165.381 98.3132 165.598 98.0447C165.815 97.772 166.109 97.5398 166.48 97.348C166.851 97.152 167.324 97.054 167.899 97.054C168.657 97.054 169.341 97.2479 169.951 97.6357C170.564 98.0192 171.05 98.5881 171.408 99.3423C171.77 100.092 171.952 101.013 171.952 102.104C171.952 103.182 171.775 104.098 171.421 104.852C171.067 105.607 170.586 106.182 169.976 106.578C169.367 106.974 168.677 107.173 167.905 107.173C167.343 107.173 166.876 107.079 166.506 106.891C166.135 106.704 165.836 106.478 165.611 106.214C165.389 105.945 165.216 105.692 165.093 105.453H164.997V110.682H162.683ZM164.952 102.091C164.952 102.726 165.042 103.282 165.221 103.759C165.404 104.237 165.666 104.609 166.007 104.878C166.352 105.142 166.77 105.274 167.26 105.274C167.771 105.274 168.199 105.138 168.545 104.865C168.89 104.588 169.15 104.211 169.324 103.734C169.503 103.252 169.593 102.705 169.593 102.091C169.593 101.482 169.506 100.94 169.331 100.467C169.156 99.9943 168.896 99.6236 168.551 99.3551C168.206 99.0866 167.775 98.9524 167.26 98.9524C166.765 98.9524 166.346 99.0824 166.001 99.3423C165.655 99.6023 165.393 99.9666 165.214 100.435C165.04 100.904 164.952 101.456 164.952 102.091ZM178.216 107.192C177.257 107.192 176.426 106.981 175.723 106.559C175.02 106.137 174.474 105.547 174.086 104.788C173.703 104.03 173.511 103.143 173.511 102.129C173.511 101.115 173.703 100.227 174.086 99.4638C174.474 98.701 175.02 98.1087 175.723 97.6868C176.426 97.2649 177.257 97.054 178.216 97.054C179.175 97.054 180.006 97.2649 180.709 97.6868C181.412 98.1087 181.955 98.701 182.339 99.4638C182.726 100.227 182.92 101.115 182.92 102.129C182.92 103.143 182.726 104.03 182.339 104.788C181.955 105.547 181.412 106.137 180.709 106.559C180.006 106.981 179.175 107.192 178.216 107.192ZM178.229 105.338C178.748 105.338 179.183 105.195 179.532 104.91C179.882 104.62 180.142 104.232 180.312 103.746C180.487 103.261 180.574 102.719 180.574 102.123C180.574 101.522 180.487 100.979 180.312 100.493C180.142 100.003 179.882 99.6129 179.532 99.3232C179.183 99.0334 178.748 98.8885 178.229 98.8885C177.696 98.8885 177.253 99.0334 176.899 99.3232C176.55 99.6129 176.287 100.003 176.113 100.493C175.942 100.979 175.857 101.522 175.857 102.123C175.857 102.719 175.942 103.261 176.113 103.746C176.287 104.232 176.55 104.62 176.899 104.91C177.253 105.195 177.696 105.338 178.229 105.338ZM192.644 99.777L190.535 100.007C190.475 99.794 190.371 99.5938 190.222 99.4062C190.077 99.2188 189.881 99.0675 189.634 98.9524C189.386 98.8374 189.084 98.7798 188.726 98.7798C188.244 98.7798 187.839 98.8842 187.511 99.093C187.188 99.3018 187.028 99.5724 187.032 99.9048C187.028 100.19 187.132 100.423 187.345 100.602C187.563 100.781 187.92 100.928 188.419 101.043L190.094 101.401C191.023 101.601 191.713 101.918 192.165 102.353C192.621 102.788 192.851 103.357 192.855 104.06C192.851 104.678 192.67 105.223 192.312 105.696C191.958 106.165 191.466 106.531 190.835 106.795C190.205 107.06 189.48 107.192 188.662 107.192C187.46 107.192 186.493 106.94 185.76 106.438C185.027 105.93 184.59 105.225 184.45 104.322L186.706 104.104C186.808 104.548 187.026 104.882 187.358 105.108C187.69 105.334 188.123 105.447 188.656 105.447C189.205 105.447 189.646 105.334 189.979 105.108C190.315 104.882 190.484 104.603 190.484 104.271C190.484 103.989 190.375 103.757 190.158 103.574C189.945 103.391 189.612 103.25 189.161 103.152L187.486 102.8C186.544 102.604 185.847 102.274 185.396 101.81C184.944 101.341 184.72 100.749 184.724 100.033C184.72 99.4276 184.884 98.9034 185.217 98.4602C185.553 98.0128 186.02 97.6676 186.616 97.4247C187.217 97.1776 187.91 97.054 188.694 97.054C189.844 97.054 190.75 97.299 191.411 97.7891C192.075 98.2791 192.487 98.9418 192.644 99.777ZM199.11 107.192C198.125 107.192 197.275 106.987 196.559 106.578C195.848 106.165 195.3 105.581 194.917 104.827C194.533 104.068 194.341 103.175 194.341 102.148C194.341 101.138 194.533 100.252 194.917 99.4893C195.304 98.7223 195.846 98.1257 196.54 97.6996C197.235 97.2692 198.051 97.054 198.988 97.054C199.593 97.054 200.164 97.152 200.701 97.348C201.243 97.5398 201.72 97.8381 202.133 98.2429C202.551 98.6477 202.879 99.1634 203.118 99.7898C203.356 100.412 203.475 101.153 203.475 102.014V102.724H195.428V101.164H201.257C201.253 100.721 201.157 100.327 200.97 99.9815C200.782 99.6321 200.52 99.3572 200.184 99.157C199.851 98.9567 199.463 98.8565 199.02 98.8565C198.547 98.8565 198.132 98.9716 197.774 99.2017C197.416 99.4276 197.137 99.7259 196.936 100.097C196.74 100.463 196.64 100.866 196.636 101.305V102.666C196.636 103.237 196.74 103.727 196.949 104.136C197.158 104.541 197.45 104.852 197.825 105.07C198.2 105.283 198.639 105.389 199.142 105.389C199.478 105.389 199.783 105.342 200.056 105.249C200.328 105.151 200.565 105.008 200.765 104.82C200.966 104.633 201.117 104.401 201.219 104.124L203.38 104.366C203.243 104.937 202.983 105.436 202.6 105.862C202.221 106.284 201.735 106.612 201.142 106.847C200.55 107.077 199.873 107.192 199.11 107.192Z" fill="black"/>
<path d="M64 120V131C64 133.761 66.2386 136 69 136H80" stroke="#6C6C6C" stroke-width="2" stroke-linecap="round" stroke-linejoin="round"/>
<path d="M64 120V136V156" stroke="#6C6C6C" stroke-width="2" stroke-linecap="round" stroke-linejoin="round"/>
<path d="M110 143C110 143.53 109.789 144.039 109.414 144.414C109.039 144.789 108.53 145 108 145H92C91.4696 145 90.9609 144.789 90.5858 144.414C90.2107 144.039 90 143.53 90 143V129C90 128.47 90.2107 127.961 90.5858 127.586C90.9609 127.211 91.4696 127 92 127H97L99 130H108C108.53 130 109.039 130.211 109.414 130.586C109.789 130.961 110 131.47 110 132V143Z" stroke="black" stroke-width="2" stroke-linecap="round" stroke-linejoin="round"/>
<path d="M127.503 129.909V143H125.189V129.909H127.503ZM129.882 143V133.182H132.196V143H129.882ZM131.046 131.788C130.679 131.788 130.364 131.667 130.1 131.424C129.835 131.177 129.703 130.881 129.703 130.536C129.703 130.186 129.835 129.89 130.1 129.647C130.364 129.4 130.679 129.276 131.046 129.276C131.416 129.276 131.732 129.4 131.992 129.647C132.256 129.89 132.388 130.186 132.388 130.536C132.388 130.881 132.256 131.177 131.992 131.424C131.732 131.667 131.416 131.788 131.046 131.788ZM136.685 139.919L136.679 137.126H137.049L140.578 133.182H143.282L138.941 138.014H138.462L136.685 139.919ZM134.576 143V129.909H136.89V143H134.576ZM140.738 143L137.542 138.532L139.101 136.902L143.505 143H140.738ZM148.766 143.192C147.782 143.192 146.931 142.987 146.216 142.578C145.504 142.165 144.956 141.581 144.573 140.827C144.189 140.068 143.998 139.175 143.998 138.148C143.998 137.138 144.189 136.252 144.573 135.489C144.961 134.722 145.502 134.126 146.196 133.7C146.891 133.269 147.707 133.054 148.645 133.054C149.25 133.054 149.821 133.152 150.358 133.348C150.899 133.54 151.376 133.838 151.789 134.243C152.207 134.648 152.535 135.163 152.774 135.79C153.012 136.412 153.132 137.153 153.132 138.014V138.724H145.084V137.164H150.914C150.909 136.721 150.814 136.327 150.626 135.982C150.439 135.632 150.176 135.357 149.84 135.157C149.507 134.957 149.12 134.857 148.676 134.857C148.203 134.857 147.788 134.972 147.43 135.202C147.072 135.428 146.793 135.726 146.593 136.097C146.397 136.463 146.297 136.866 146.292 137.305V138.666C146.292 139.237 146.397 139.727 146.605 140.136C146.814 140.541 147.106 140.852 147.481 141.07C147.856 141.283 148.295 141.389 148.798 141.389C149.135 141.389 149.439 141.342 149.712 141.249C149.985 141.151 150.221 141.008 150.422 140.82C150.622 140.633 150.773 140.401 150.875 140.124L153.036 140.366C152.9 140.937 152.64 141.436 152.256 141.862C151.877 142.284 151.391 142.612 150.799 142.847C150.206 143.077 149.529 143.192 148.766 143.192Z" fill="black"/>
<path d="M64 156V167C64 169.761 66.2386 172 69 172H80" stroke="#6C6C6C" stroke-width="2" stroke-linecap="round" stroke-linejoin="round"/>
<path d="M64 156V172V192" stroke="#6C6C6C" stroke-width="2" stroke-linecap="round" stroke-linejoin="round"/>
<path d="M110 179C110 179.53 109.789 180.039 109.414 180.414C109.039 180.789 108.53 181 108 181H92C91.4696 181 90.9609 180.789 90.5858 180.414C90.2107 180.039 90 179.53 90 179V165C90 164.47 90.2107 163.961 90.5858 163.586C90.9609 163.211 91.4696 163 92 163H97L99 166H108C108.53 166 109.039 166.211 109.414 166.586C109.789 166.961 110 167.47 110 168V179Z" stroke="black" stroke-width="2" stroke-linecap="round" stroke-linejoin="round"/>
<path d="M128.832 179.173C128.061 179.173 127.371 178.974 126.761 178.578C126.152 178.182 125.67 177.607 125.317 176.852C124.963 176.098 124.786 175.182 124.786 174.104C124.786 173.013 124.965 172.092 125.323 171.342C125.685 170.588 126.173 170.019 126.787 169.636C127.401 169.248 128.085 169.054 128.839 169.054C129.414 169.054 129.887 169.152 130.258 169.348C130.629 169.54 130.923 169.772 131.14 170.045C131.357 170.313 131.526 170.567 131.645 170.805H131.741V165.909H134.061V179H131.786V177.453H131.645C131.526 177.692 131.353 177.945 131.127 178.214C130.901 178.478 130.603 178.704 130.232 178.891C129.862 179.079 129.395 179.173 128.832 179.173ZM129.478 177.274C129.968 177.274 130.386 177.142 130.731 176.878C131.076 176.609 131.338 176.237 131.517 175.759C131.696 175.282 131.786 174.726 131.786 174.091C131.786 173.456 131.696 172.904 131.517 172.435C131.342 171.967 131.082 171.602 130.737 171.342C130.396 171.082 129.977 170.952 129.478 170.952C128.962 170.952 128.532 171.087 128.187 171.355C127.842 171.624 127.582 171.994 127.407 172.467C127.232 172.94 127.145 173.482 127.145 174.091C127.145 174.705 127.232 175.252 127.407 175.734C127.586 176.211 127.848 176.588 128.193 176.865C128.543 177.138 128.971 177.274 129.478 177.274ZM140.873 179.192C139.889 179.192 139.039 178.987 138.323 178.578C137.611 178.165 137.064 177.581 136.68 176.827C136.297 176.068 136.105 175.175 136.105 174.148C136.105 173.138 136.297 172.252 136.68 171.489C137.068 170.722 137.609 170.126 138.304 169.7C138.998 169.269 139.814 169.054 140.752 169.054C141.357 169.054 141.928 169.152 142.465 169.348C143.006 169.54 143.483 169.838 143.897 170.243C144.314 170.648 144.643 171.163 144.881 171.79C145.12 172.412 145.239 173.153 145.239 174.014V174.724H137.192V173.164H143.021C143.017 172.721 142.921 172.327 142.733 171.982C142.546 171.632 142.284 171.357 141.947 171.157C141.615 170.957 141.227 170.857 140.784 170.857C140.311 170.857 139.895 170.972 139.537 171.202C139.18 171.428 138.9 171.726 138.7 172.097C138.504 172.463 138.404 172.866 138.4 173.305V174.666C138.4 175.237 138.504 175.727 138.713 176.136C138.922 176.541 139.214 176.852 139.589 177.07C139.964 177.283 140.403 177.389 140.905 177.389C141.242 177.389 141.547 177.342 141.819 177.249C142.092 177.151 142.329 177.008 142.529 176.82C142.729 176.633 142.881 176.401 142.983 176.124L145.143 176.366C145.007 176.937 144.747 177.436 144.363 177.862C143.984 178.284 143.498 178.612 142.906 178.847C142.314 179.077 141.636 179.192 140.873 179.192ZM149.511 165.909V179H147.197V165.909H149.511ZM156.237 179.192C155.252 179.192 154.402 178.987 153.686 178.578C152.975 178.165 152.427 177.581 152.044 176.827C151.66 176.068 151.468 175.175 151.468 174.148C151.468 173.138 151.66 172.252 152.044 171.489C152.431 170.722 152.972 170.126 153.667 169.7C154.362 169.269 155.178 169.054 156.115 169.054C156.72 169.054 157.291 169.152 157.828 169.348C158.369 169.54 158.847 169.838 159.26 170.243C159.678 170.648 160.006 171.163 160.244 171.79C160.483 172.412 160.602 173.153 160.602 174.014V174.724H152.555V173.164H158.384C158.38 172.721 158.284 172.327 158.097 171.982C157.909 171.632 157.647 171.357 157.311 171.157C156.978 170.957 156.59 170.857 156.147 170.857C155.674 170.857 155.259 170.972 154.901 171.202C154.543 171.428 154.264 171.726 154.063 172.097C153.867 172.463 153.767 172.866 153.763 173.305V174.666C153.763 175.237 153.867 175.727 154.076 176.136C154.285 176.541 154.577 176.852 154.952 177.07C155.327 177.283 155.766 177.389 156.269 177.389C156.605 177.389 156.91 177.342 157.183 177.249C157.455 177.151 157.692 177.008 157.892 176.82C158.093 176.633 158.244 176.401 158.346 176.124L160.507 176.366C160.37 176.937 160.11 177.436 159.727 177.862C159.347 178.284 158.862 178.612 158.269 178.847C157.677 179.077 156.999 179.192 156.237 179.192ZM167.463 169.182V170.972H161.819V169.182H167.463ZM163.212 166.83H165.526V176.047C165.526 176.358 165.573 176.597 165.667 176.763C165.765 176.925 165.892 177.036 166.05 177.095C166.208 177.155 166.382 177.185 166.574 177.185C166.719 177.185 166.851 177.174 166.971 177.153C167.094 177.131 167.188 177.112 167.252 177.095L167.642 178.904C167.518 178.947 167.341 178.994 167.111 179.045C166.885 179.096 166.608 179.126 166.28 179.134C165.701 179.151 165.179 179.064 164.714 178.872C164.25 178.676 163.881 178.374 163.608 177.964C163.34 177.555 163.208 177.044 163.212 176.43V166.83ZM173.639 179.192C172.655 179.192 171.805 178.987 171.089 178.578C170.377 178.165 169.829 177.581 169.446 176.827C169.062 176.068 168.871 175.175 168.871 174.148C168.871 173.138 169.062 172.252 169.446 171.489C169.834 170.722 170.375 170.126 171.069 169.7C171.764 169.269 172.58 169.054 173.518 169.054C174.123 169.054 174.694 169.152 175.231 169.348C175.772 169.54 176.249 169.838 176.662 170.243C177.08 170.648 177.408 171.163 177.647 171.79C177.885 172.412 178.005 173.153 178.005 174.014V174.724H169.957V173.164H175.787C175.782 172.721 175.687 172.327 175.499 171.982C175.312 171.632 175.05 171.357 174.713 171.157C174.381 170.957 173.993 170.857 173.55 170.857C173.077 170.857 172.661 170.972 172.303 171.202C171.945 171.428 171.666 171.726 171.466 172.097C171.27 172.463 171.17 172.866 171.165 173.305V174.666C171.165 175.237 171.27 175.727 171.479 176.136C171.687 176.541 171.979 176.852 172.354 177.07C172.729 177.283 173.168 177.389 173.671 177.389C174.008 177.389 174.312 177.342 174.585 177.249C174.858 177.151 175.094 177.008 175.295 176.82C175.495 176.633 175.646 176.401 175.748 176.124L177.909 176.366C177.773 176.937 177.513 177.436 177.129 177.862C176.75 178.284 176.264 178.612 175.672 178.847C175.079 179.077 174.402 179.192 173.639 179.192Z" fill="black"/>
<path d="M64 192V203C64 205.761 66.2386 208 69 208H80" stroke="#6C6C6C" stroke-width="2" stroke-linecap="round" stroke-linejoin="round"/>
<path d="M104 214L110 208L104 202" stroke="black" stroke-width="2" stroke-linecap="round" stroke-linejoin="round"/>
<path d="M96 202L90 208L96 214" stroke="black" stroke-width="2" stroke-linecap="round" stroke-linejoin="round"/>
<path d="M132.949 207.777L130.839 208.007C130.78 207.794 130.675 207.594 130.526 207.406C130.381 207.219 130.185 207.067 129.938 206.952C129.691 206.837 129.388 206.78 129.031 206.78C128.549 206.78 128.144 206.884 127.816 207.093C127.492 207.302 127.332 207.572 127.337 207.905C127.332 208.19 127.437 208.423 127.65 208.602C127.867 208.781 128.225 208.928 128.724 209.043L130.398 209.401C131.327 209.601 132.018 209.918 132.469 210.353C132.925 210.788 133.156 211.357 133.16 212.06C133.156 212.678 132.974 213.223 132.616 213.696C132.263 214.165 131.771 214.531 131.14 214.795C130.509 215.06 129.785 215.192 128.967 215.192C127.765 215.192 126.798 214.94 126.065 214.438C125.332 213.93 124.895 213.225 124.754 212.322L127.011 212.104C127.113 212.548 127.33 212.882 127.663 213.108C127.995 213.334 128.428 213.447 128.96 213.447C129.51 213.447 129.951 213.334 130.283 213.108C130.62 212.882 130.788 212.603 130.788 212.271C130.788 211.989 130.68 211.757 130.462 211.574C130.249 211.391 129.917 211.25 129.465 211.152L127.79 210.8C126.849 210.604 126.152 210.274 125.7 209.81C125.249 209.341 125.025 208.749 125.029 208.033C125.025 207.428 125.189 206.903 125.521 206.46C125.858 206.013 126.325 205.668 126.921 205.425C127.522 205.178 128.214 205.054 128.999 205.054C130.149 205.054 131.055 205.299 131.715 205.789C132.38 206.279 132.791 206.942 132.949 207.777ZM139.35 215.192C138.392 215.192 137.561 214.981 136.858 214.559C136.154 214.137 135.609 213.547 135.221 212.788C134.838 212.03 134.646 211.143 134.646 210.129C134.646 209.115 134.838 208.227 135.221 207.464C135.609 206.701 136.154 206.109 136.858 205.687C137.561 205.265 138.392 205.054 139.35 205.054C140.309 205.054 141.14 205.265 141.843 205.687C142.547 206.109 143.09 206.701 143.473 207.464C143.861 208.227 144.055 209.115 144.055 210.129C144.055 211.143 143.861 212.03 143.473 212.788C143.09 213.547 142.547 214.137 141.843 214.559C141.14 214.981 140.309 215.192 139.35 215.192ZM139.363 213.338C139.883 213.338 140.318 213.195 140.667 212.91C141.017 212.62 141.277 212.232 141.447 211.746C141.622 211.261 141.709 210.719 141.709 210.123C141.709 209.522 141.622 208.979 141.447 208.493C141.277 208.003 141.017 207.613 140.667 207.323C140.318 207.033 139.883 206.888 139.363 206.888C138.831 206.888 138.387 207.033 138.034 207.323C137.684 207.613 137.422 208.003 137.248 208.493C137.077 208.979 136.992 209.522 136.992 210.123C136.992 210.719 137.077 211.261 137.248 211.746C137.422 212.232 137.684 212.62 138.034 212.91C138.387 213.195 138.831 213.338 139.363 213.338ZM146.019 215V205.182H148.231V206.85H148.346C148.55 206.288 148.889 205.849 149.362 205.533C149.835 205.214 150.4 205.054 151.056 205.054C151.721 205.054 152.281 205.216 152.737 205.54C153.197 205.859 153.521 206.296 153.709 206.85H153.811C154.028 206.305 154.395 205.87 154.91 205.546C155.43 205.218 156.046 205.054 156.758 205.054C157.661 205.054 158.398 205.339 158.969 205.911C159.54 206.482 159.826 207.315 159.826 208.41V215H157.506V208.768C157.506 208.158 157.344 207.713 157.02 207.432C156.696 207.146 156.3 207.004 155.831 207.004C155.273 207.004 154.836 207.178 154.52 207.528C154.209 207.873 154.054 208.322 154.054 208.876V215H151.785V208.672C151.785 208.165 151.631 207.76 151.324 207.457C151.022 207.155 150.626 207.004 150.135 207.004C149.803 207.004 149.501 207.089 149.228 207.259C148.955 207.425 148.738 207.662 148.576 207.969C148.414 208.271 148.333 208.625 148.333 209.03V215H146.019ZM166.52 215.192C165.536 215.192 164.685 214.987 163.969 214.578C163.258 214.165 162.71 213.581 162.327 212.827C161.943 212.068 161.751 211.175 161.751 210.148C161.751 209.138 161.943 208.252 162.327 207.489C162.714 206.722 163.256 206.126 163.95 205.7C164.645 205.269 165.461 205.054 166.398 205.054C167.004 205.054 167.575 205.152 168.112 205.348C168.653 205.54 169.13 205.838 169.543 206.243C169.961 206.648 170.289 207.163 170.528 207.79C170.766 208.412 170.886 209.153 170.886 210.014V210.724H162.838V209.164H168.668C168.663 208.721 168.567 208.327 168.38 207.982C168.192 207.632 167.93 207.357 167.594 207.157C167.261 206.957 166.874 206.857 166.43 206.857C165.957 206.857 165.542 206.972 165.184 207.202C164.826 207.428 164.547 207.726 164.347 208.097C164.151 208.463 164.05 208.866 164.046 209.305V210.666C164.046 211.237 164.151 211.727 164.359 212.136C164.568 212.541 164.86 212.852 165.235 213.07C165.61 213.283 166.049 213.389 166.552 213.389C166.888 213.389 167.193 213.342 167.466 213.249C167.739 213.151 167.975 213.008 168.175 212.82C168.376 212.633 168.527 212.401 168.629 212.124L170.79 212.366C170.653 212.937 170.393 213.436 170.01 213.862C169.631 214.284 169.145 214.612 168.553 214.847C167.96 215.077 167.283 215.192 166.52 215.192ZM178.794 208.595V210.5H172.901V208.595H178.794ZM188.988 207.777L186.879 208.007C186.819 207.794 186.714 207.594 186.565 207.406C186.42 207.219 186.224 207.067 185.977 206.952C185.73 206.837 185.428 206.78 185.07 206.78C184.588 206.78 184.183 206.884 183.855 207.093C183.531 207.302 183.371 207.572 183.376 207.905C183.371 208.19 183.476 208.423 183.689 208.602C183.906 208.781 184.264 208.928 184.763 209.043L186.438 209.401C187.366 209.601 188.057 209.918 188.509 210.353C188.964 210.788 189.195 211.357 189.199 212.06C189.195 212.678 189.013 213.223 188.656 213.696C188.302 214.165 187.81 214.531 187.179 214.795C186.548 215.06 185.824 215.192 185.006 215.192C183.804 215.192 182.837 214.94 182.104 214.438C181.371 213.93 180.934 213.225 180.793 212.322L183.05 212.104C183.152 212.548 183.369 212.882 183.702 213.108C184.034 213.334 184.467 213.447 184.999 213.447C185.549 213.447 185.99 213.334 186.322 213.108C186.659 212.882 186.827 212.603 186.827 212.271C186.827 211.989 186.719 211.757 186.501 211.574C186.288 211.391 185.956 211.25 185.504 211.152L183.83 210.8C182.888 210.604 182.191 210.274 181.739 209.81C181.288 209.341 181.064 208.749 181.068 208.033C181.064 207.428 181.228 206.903 181.56 206.46C181.897 206.013 182.364 205.668 182.96 205.425C183.561 205.178 184.254 205.054 185.038 205.054C186.188 205.054 187.094 205.299 187.754 205.789C188.419 206.279 188.83 206.942 188.988 207.777ZM193.421 209.247V215H191.107V201.909H193.37V206.85H193.485C193.715 206.296 194.071 205.859 194.552 205.54C195.038 205.216 195.656 205.054 196.406 205.054C197.088 205.054 197.682 205.197 198.189 205.482C198.696 205.768 199.088 206.185 199.365 206.735C199.647 207.285 199.787 207.956 199.787 208.749V215H197.473V209.107C197.473 208.446 197.303 207.933 196.962 207.566C196.625 207.195 196.152 207.01 195.543 207.01C195.134 207.01 194.767 207.099 194.444 207.278C194.124 207.453 193.873 207.707 193.689 208.039C193.51 208.371 193.421 208.774 193.421 209.247ZM204.971 215.198C204.349 215.198 203.789 215.087 203.29 214.866C202.796 214.64 202.404 214.308 202.114 213.869C201.828 213.43 201.686 212.888 201.686 212.245C201.686 211.691 201.788 211.233 201.993 210.871C202.197 210.509 202.476 210.219 202.83 210.001C203.184 209.784 203.582 209.62 204.025 209.509C204.473 209.394 204.935 209.311 205.412 209.26C205.988 209.2 206.454 209.147 206.812 209.1C207.17 209.049 207.43 208.972 207.592 208.87C207.758 208.763 207.841 208.599 207.841 208.378V208.339C207.841 207.858 207.699 207.485 207.413 207.221C207.127 206.957 206.716 206.825 206.179 206.825C205.613 206.825 205.163 206.948 204.831 207.195C204.502 207.442 204.281 207.734 204.166 208.071L202.005 207.764C202.176 207.168 202.457 206.669 202.849 206.268C203.241 205.864 203.721 205.561 204.287 205.361C204.854 205.156 205.48 205.054 206.167 205.054C206.64 205.054 207.11 205.109 207.579 205.22C208.048 205.331 208.476 205.514 208.864 205.77C209.252 206.021 209.563 206.364 209.797 206.799C210.036 207.234 210.155 207.777 210.155 208.429V215H207.931V213.651H207.854C207.713 213.924 207.515 214.18 207.26 214.418C207.008 214.653 206.691 214.842 206.307 214.987C205.928 215.128 205.483 215.198 204.971 215.198ZM205.572 213.498C206.037 213.498 206.439 213.406 206.78 213.223C207.121 213.036 207.383 212.788 207.566 212.482C207.754 212.175 207.848 211.84 207.848 211.478V210.321C207.775 210.381 207.652 210.436 207.477 210.487C207.306 210.538 207.115 210.583 206.902 210.621C206.689 210.66 206.478 210.694 206.269 210.724C206.06 210.754 205.879 210.779 205.725 210.8C205.38 210.847 205.071 210.924 204.799 211.031C204.526 211.137 204.311 211.286 204.153 211.478C203.995 211.665 203.917 211.908 203.917 212.207C203.917 212.633 204.072 212.955 204.383 213.172C204.694 213.389 205.091 213.498 205.572 213.498ZM212.482 215V205.182H214.725V206.818H214.828C215.007 206.251 215.314 205.815 215.748 205.508C216.187 205.197 216.688 205.041 217.25 205.041C217.378 205.041 217.521 205.048 217.679 205.06C217.841 205.069 217.975 205.084 218.081 205.105V207.234C217.983 207.2 217.828 207.17 217.615 207.144C217.406 207.114 217.203 207.099 217.007 207.099C216.586 207.099 216.206 207.191 215.87 207.374C215.537 207.553 215.275 207.803 215.083 208.122C214.892 208.442 214.796 208.81 214.796 209.228V215H212.482ZM223.561 215.192C222.577 215.192 221.726 214.987 221.01 214.578C220.299 214.165 219.751 213.581 219.368 212.827C218.984 212.068 218.792 211.175 218.792 210.148C218.792 209.138 218.984 208.252 219.368 207.489C219.756 206.722 220.297 206.126 220.991 205.7C221.686 205.269 222.502 205.054 223.439 205.054C224.045 205.054 224.616 205.152 225.153 205.348C225.694 205.54 226.171 205.838 226.584 206.243C227.002 206.648 227.33 207.163 227.569 207.79C227.807 208.412 227.927 209.153 227.927 210.014V210.724H219.879V209.164H225.709C225.704 208.721 225.608 208.327 225.421 207.982C225.233 207.632 224.971 207.357 224.635 207.157C224.302 206.957 223.915 206.857 223.471 206.857C222.998 206.857 222.583 206.972 222.225 207.202C221.867 207.428 221.588 207.726 221.388 208.097C221.192 208.463 221.091 208.866 221.087 209.305V210.666C221.087 211.237 221.192 211.727 221.4 212.136C221.609 212.541 221.901 212.852 222.276 213.07C222.651 213.283 223.09 213.389 223.593 213.389C223.93 213.389 224.234 213.342 224.507 213.249C224.78 213.151 225.016 213.008 225.216 212.82C225.417 212.633 225.568 212.401 225.67 212.124L227.831 212.366C227.694 212.937 227.434 213.436 227.051 213.862C226.672 214.284 226.186 214.612 225.594 214.847C225.001 215.077 224.324 215.192 223.561 215.192ZM233.528 215.173C232.756 215.173 232.066 214.974 231.457 214.578C230.847 214.182 230.366 213.607 230.012 212.852C229.658 212.098 229.482 211.182 229.482 210.104C229.482 209.013 229.661 208.092 230.018 207.342C230.381 206.588 230.869 206.019 231.482 205.636C232.096 205.248 232.78 205.054 233.534 205.054C234.109 205.054 234.582 205.152 234.953 205.348C235.324 205.54 235.618 205.772 235.835 206.045C236.053 206.313 236.221 206.567 236.34 206.805H236.436V201.909H238.756V215H236.481V213.453H236.34C236.221 213.692 236.048 213.945 235.822 214.214C235.597 214.478 235.298 214.704 234.928 214.891C234.557 215.079 234.09 215.173 233.528 215.173ZM234.173 213.274C234.663 213.274 235.081 213.142 235.426 212.878C235.771 212.609 236.033 212.237 236.212 211.759C236.391 211.282 236.481 210.726 236.481 210.091C236.481 209.456 236.391 208.904 236.212 208.435C236.038 207.967 235.778 207.602 235.433 207.342C235.092 207.082 234.672 206.952 234.173 206.952C233.658 206.952 233.227 207.087 232.882 207.355C232.537 207.624 232.277 207.994 232.102 208.467C231.928 208.94 231.84 209.482 231.84 210.091C231.84 210.705 231.928 211.252 232.102 211.734C232.281 212.211 232.543 212.588 232.888 212.865C233.238 213.138 233.666 213.274 234.173 213.274ZM247.173 208.595V210.5H241.28V208.595H247.173ZM253.89 215.192C252.909 215.192 252.068 214.977 251.365 214.546C250.666 214.116 250.127 213.521 249.748 212.763C249.373 212 249.185 211.122 249.185 210.129C249.185 209.132 249.377 208.252 249.76 207.489C250.144 206.722 250.685 206.126 251.384 205.7C252.087 205.269 252.918 205.054 253.877 205.054C254.674 205.054 255.379 205.201 255.993 205.495C256.61 205.785 257.103 206.196 257.469 206.729C257.836 207.257 258.044 207.875 258.096 208.582H255.884C255.794 208.109 255.581 207.715 255.245 207.4C254.912 207.08 254.467 206.92 253.909 206.92C253.436 206.92 253.02 207.048 252.662 207.304C252.304 207.555 252.025 207.918 251.825 208.391C251.629 208.864 251.531 209.43 251.531 210.091C251.531 210.76 251.629 211.335 251.825 211.817C252.021 212.294 252.296 212.663 252.65 212.923C253.007 213.178 253.427 213.306 253.909 213.306C254.25 213.306 254.554 213.242 254.823 213.114C255.096 212.982 255.324 212.793 255.507 212.545C255.69 212.298 255.816 211.998 255.884 211.644H258.096C258.04 212.339 257.836 212.955 257.482 213.491C257.128 214.024 256.647 214.442 256.037 214.744C255.428 215.043 254.712 215.192 253.89 215.192ZM264.278 215.192C263.319 215.192 262.488 214.981 261.785 214.559C261.082 214.137 260.537 213.547 260.149 212.788C259.765 212.03 259.574 211.143 259.574 210.129C259.574 209.115 259.765 208.227 260.149 207.464C260.537 206.701 261.082 206.109 261.785 205.687C262.488 205.265 263.319 205.054 264.278 205.054C265.237 205.054 266.068 205.265 266.771 205.687C267.474 206.109 268.018 206.701 268.401 207.464C268.789 208.227 268.983 209.115 268.983 210.129C268.983 211.143 268.789 212.03 268.401 212.788C268.018 213.547 267.474 214.137 266.771 214.559C266.068 214.981 265.237 215.192 264.278 215.192ZM264.291 213.338C264.811 213.338 265.246 213.195 265.595 212.91C265.944 212.62 266.204 212.232 266.375 211.746C266.55 211.261 266.637 210.719 266.637 210.123C266.637 209.522 266.55 208.979 266.375 208.493C266.204 208.003 265.944 207.613 265.595 207.323C265.246 207.033 264.811 206.888 264.291 206.888C263.758 206.888 263.315 207.033 262.961 207.323C262.612 207.613 262.35 208.003 262.175 208.493C262.005 208.979 261.92 209.522 261.92 210.123C261.92 210.719 262.005 211.261 262.175 211.746C262.35 212.232 262.612 212.62 262.961 212.91C263.315 213.195 263.758 213.338 264.291 213.338ZM274.59 215.173C273.819 215.173 273.129 214.974 272.519 214.578C271.91 214.182 271.428 213.607 271.075 212.852C270.721 212.098 270.544 211.182 270.544 210.104C270.544 209.013 270.723 208.092 271.081 207.342C271.443 206.588 271.931 206.019 272.545 205.636C273.158 205.248 273.842 205.054 274.597 205.054C275.172 205.054 275.645 205.152 276.016 205.348C276.386 205.54 276.68 205.772 276.898 206.045C277.115 206.313 277.283 206.567 277.403 206.805H277.499V201.909H279.819V215H277.543V213.453H277.403C277.283 213.692 277.111 213.945 276.885 214.214C276.659 214.478 276.361 214.704 275.99 214.891C275.619 215.079 275.153 215.173 274.59 215.173ZM275.236 213.274C275.726 213.274 276.143 213.142 276.489 212.878C276.834 212.609 277.096 212.237 277.275 211.759C277.454 211.282 277.543 210.726 277.543 210.091C277.543 209.456 277.454 208.904 277.275 208.435C277.1 207.967 276.84 207.602 276.495 207.342C276.154 207.082 275.734 206.952 275.236 206.952C274.72 206.952 274.29 207.087 273.945 207.355C273.599 207.624 273.339 207.994 273.165 208.467C272.99 208.94 272.903 209.482 272.903 210.091C272.903 210.705 272.99 211.252 273.165 211.734C273.344 212.211 273.606 212.588 273.951 212.865C274.3 213.138 274.729 213.274 275.236 213.274ZM286.631 215.192C285.647 215.192 284.797 214.987 284.081 214.578C283.369 214.165 282.822 213.581 282.438 212.827C282.055 212.068 281.863 211.175 281.863 210.148C281.863 209.138 282.055 208.252 282.438 207.489C282.826 206.722 283.367 206.126 284.062 205.7C284.756 205.269 285.572 205.054 286.51 205.054C287.115 205.054 287.686 205.152 288.223 205.348C288.764 205.54 289.241 205.838 289.655 206.243C290.072 206.648 290.4 207.163 290.639 207.79C290.878 208.412 290.997 209.153 290.997 210.014V210.724H282.949V209.164H288.779C288.775 208.721 288.679 208.327 288.491 207.982C288.304 207.632 288.042 207.357 287.705 207.157C287.373 206.957 286.985 206.857 286.542 206.857C286.069 206.857 285.653 206.972 285.295 207.202C284.937 207.428 284.658 207.726 284.458 208.097C284.262 208.463 284.162 208.866 284.157 209.305V210.666C284.157 211.237 284.262 211.727 284.471 212.136C284.68 212.541 284.971 212.852 285.346 213.07C285.721 213.283 286.16 213.389 286.663 213.389C287 213.389 287.305 213.342 287.577 213.249C287.85 213.151 288.086 213.008 288.287 212.82C288.487 212.633 288.638 212.401 288.741 212.124L290.901 212.366C290.765 212.937 290.505 213.436 290.121 213.862C289.742 214.284 289.256 214.612 288.664 214.847C288.072 215.077 287.394 215.192 286.631 215.192ZM294.38 215.141C293.992 215.141 293.66 215.004 293.383 214.732C293.106 214.459 292.969 214.126 292.974 213.734C292.969 213.351 293.106 213.023 293.383 212.75C293.66 212.477 293.992 212.341 294.38 212.341C294.755 212.341 295.081 212.477 295.358 212.75C295.639 213.023 295.782 213.351 295.786 213.734C295.782 213.994 295.714 214.231 295.582 214.444C295.454 214.657 295.283 214.827 295.07 214.955C294.862 215.079 294.631 215.141 294.38 215.141ZM303.078 205.182V206.972H297.434V205.182H303.078ZM298.827 202.83H301.141V212.047C301.141 212.358 301.188 212.597 301.282 212.763C301.38 212.925 301.508 213.036 301.665 213.095C301.823 213.155 301.998 213.185 302.189 213.185C302.334 213.185 302.466 213.174 302.586 213.153C302.709 213.131 302.803 213.112 302.867 213.095L303.257 214.904C303.133 214.947 302.956 214.994 302.726 215.045C302.501 215.096 302.224 215.126 301.895 215.134C301.316 215.151 300.794 215.064 300.329 214.872C299.865 214.676 299.496 214.374 299.224 213.964C298.955 213.555 298.823 213.044 298.827 212.43V202.83ZM312.632 207.777L310.523 208.007C310.463 207.794 310.359 207.594 310.21 207.406C310.065 207.219 309.869 207.067 309.622 206.952C309.375 206.837 309.072 206.78 308.714 206.78C308.233 206.78 307.828 206.884 307.5 207.093C307.176 207.302 307.016 207.572 307.02 207.905C307.016 208.19 307.12 208.423 307.333 208.602C307.551 208.781 307.909 208.928 308.407 209.043L310.082 209.401C311.011 209.601 311.701 209.918 312.153 210.353C312.609 210.788 312.839 211.357 312.843 212.06C312.839 212.678 312.658 213.223 312.3 213.696C311.946 214.165 311.454 214.531 310.824 214.795C310.193 215.06 309.468 215.192 308.65 215.192C307.449 215.192 306.481 214.94 305.748 214.438C305.015 213.93 304.578 213.225 304.438 212.322L306.694 212.104C306.797 212.548 307.014 212.882 307.346 213.108C307.679 213.334 308.111 213.447 308.644 213.447C309.194 213.447 309.635 213.334 309.967 213.108C310.304 212.882 310.472 212.603 310.472 212.271C310.472 211.989 310.363 211.757 310.146 211.574C309.933 211.391 309.6 211.25 309.149 211.152L307.474 210.8C306.532 210.604 305.836 210.274 305.384 209.81C304.932 209.341 304.708 208.749 304.713 208.033C304.708 207.428 304.873 206.903 305.205 206.46C305.542 206.013 306.008 205.668 306.605 205.425C307.206 205.178 307.898 205.054 308.682 205.054C309.833 205.054 310.738 205.299 311.399 205.789C312.064 206.279 312.475 206.942 312.632 207.777Z" fill="#A70000"/>
<path d="M124 209.107H313.566V210.334H124V209.107Z" fill="#A70000"/>
<path d="M258.162 142.614C258.222 142.638 258.318 142.668 258.45 142.704C258.582 142.74 258.678 142.776 258.738 142.812C258.798 142.848 258.828 142.902 258.828 142.974C258.84 143.262 258.732 143.502 258.504 143.694C258.288 143.874 258.03 143.964 257.73 143.964C257.262 143.964 256.896 143.838 256.632 143.586C256.368 143.334 256.176 142.95 256.056 142.434C256.008 142.23 255.984 141.948 255.984 141.588C255.984 141.384 255.996 141.054 256.02 140.598C256.044 140.118 256.056 139.734 256.056 139.446C256.056 139.026 255.936 138.66 255.696 138.348C255.468 138.024 255.144 137.862 254.724 137.862C254.472 137.862 254.208 137.94 253.932 138.096C253.656 138.24 253.464 138.42 253.356 138.636C253.176 138.984 253.05 139.362 252.978 139.77C252.846 140.49 252.78 141.24 252.78 142.02C252.78 142.392 252.786 142.68 252.798 142.884C252.798 142.932 252.798 143.028 252.798 143.172C252.81 143.304 252.798 143.43 252.762 143.55C252.738 143.658 252.69 143.76 252.618 143.856C252.558 143.916 252.462 143.964 252.33 144C252.21 144.048 252.096 144.072 251.988 144.072C251.82 144.072 251.61 144 251.358 143.856C251.106 143.712 250.962 143.55 250.926 143.37L250.908 143.064C250.908 142.956 250.92 142.83 250.944 142.686C251.088 141.846 251.16 141.114 251.16 140.49C251.16 140.214 251.154 139.998 251.142 139.842L251.124 138.996C251.124 138.708 251.052 138.432 250.908 138.168C250.764 137.892 250.596 137.754 250.404 137.754C250.344 137.754 250.26 137.778 250.152 137.826C250.044 137.862 249.954 137.88 249.882 137.88C249.762 137.88 249.63 137.82 249.486 137.7C249.354 137.58 249.288 137.454 249.288 137.322C249.288 137.07 249.372 136.866 249.54 136.71C249.72 136.566 249.894 136.452 250.062 136.368C250.242 136.284 250.446 136.242 250.674 136.242C250.866 136.242 251.022 136.26 251.142 136.296C251.262 136.332 251.424 136.41 251.628 136.53C251.736 136.59 251.862 136.722 252.006 136.926C252.15 137.13 252.27 137.418 252.366 137.79C252.678 137.214 253.062 136.812 253.518 136.584C253.986 136.344 254.58 136.224 255.3 136.224C255.576 136.224 255.87 136.314 256.182 136.494C256.506 136.674 256.782 136.884 257.01 137.124C257.226 137.388 257.406 137.718 257.55 138.114C257.694 138.498 257.766 138.846 257.766 139.158C257.766 139.338 257.754 139.632 257.73 140.04C257.694 140.364 257.676 140.706 257.676 141.066C257.676 141.906 257.838 142.422 258.162 142.614ZM267.172 138.222C267.268 138.39 267.346 138.636 267.406 138.96C267.466 139.272 267.496 139.554 267.496 139.806C267.496 140.274 267.394 140.94 267.19 141.804C266.362 143.316 265.138 144.072 263.518 144.072C262.918 144.072 262.306 143.874 261.682 143.478C261.058 143.082 260.626 142.626 260.386 142.11C260.062 141.078 259.9 140.424 259.9 140.148C259.9 139.668 260.002 139.158 260.206 138.618C260.422 138.078 260.692 137.61 261.016 137.214C261.22 136.938 261.586 136.704 262.114 136.512C262.642 136.308 263.122 136.206 263.554 136.206C264.394 136.206 265.108 136.368 265.696 136.692C266.284 137.004 266.776 137.514 267.172 138.222ZM265.606 141.12C265.666 140.964 265.696 140.562 265.696 139.914C265.696 139.566 265.63 139.224 265.498 138.888C265.378 138.552 265.198 138.264 264.958 138.024C264.934 138 264.868 137.964 264.76 137.916C264.652 137.856 264.502 137.802 264.31 137.754C264.13 137.694 263.92 137.664 263.68 137.664C263.008 137.664 262.516 137.934 262.204 138.474C261.892 139.014 261.736 139.626 261.736 140.31C261.736 140.43 261.766 140.658 261.826 140.994C261.898 141.33 261.958 141.54 262.006 141.624C262.042 141.708 262.132 141.828 262.276 141.984C262.432 142.128 262.618 142.26 262.834 142.38C263.062 142.488 263.296 142.542 263.536 142.542C264.076 142.542 264.508 142.416 264.832 142.164C265.156 141.9 265.414 141.552 265.606 141.12ZM269.255 137.736C269.087 137.712 268.949 137.646 268.841 137.538C268.745 137.418 268.697 137.274 268.697 137.106C268.697 136.89 268.781 136.71 268.949 136.566C268.985 136.53 269.045 136.5 269.129 136.476C269.213 136.44 269.279 136.41 269.327 136.386C269.591 136.302 269.759 136.236 269.831 136.188C270.107 136.02 270.293 135.744 270.389 135.36C270.485 134.904 270.545 134.592 270.569 134.424C270.593 134.16 270.677 133.962 270.821 133.83C270.977 133.686 271.169 133.614 271.397 133.614C271.697 133.614 271.907 133.692 272.027 133.848C272.147 134.004 272.207 134.292 272.207 134.712C272.207 135.264 272.075 135.786 271.811 136.278C271.979 136.278 272.255 136.266 272.639 136.242C273.215 136.218 273.617 136.206 273.845 136.206C274.049 136.206 274.223 136.26 274.367 136.368C274.523 136.464 274.601 136.608 274.601 136.8C274.601 137.256 274.391 137.526 273.971 137.61C273.587 137.718 272.891 137.784 271.883 137.808C271.799 138.984 271.757 139.914 271.757 140.598C271.757 141.018 271.775 141.318 271.811 141.498C271.883 141.87 272.003 142.146 272.171 142.326C272.351 142.494 272.615 142.578 272.963 142.578C273.131 142.578 273.383 142.536 273.719 142.452C273.923 142.392 274.085 142.362 274.205 142.362C274.361 142.362 274.481 142.416 274.565 142.524C274.649 142.632 274.691 142.776 274.691 142.956C274.691 143.28 274.481 143.55 274.061 143.766C273.641 143.97 273.143 144.072 272.567 144.072C272.207 144.072 271.853 143.988 271.505 143.82C271.157 143.64 270.863 143.424 270.623 143.172C270.575 143.148 270.503 143.016 270.407 142.776C270.323 142.536 270.239 142.272 270.155 141.984C270.119 141.84 270.101 141.492 270.101 140.94C270.101 140.412 270.137 139.5 270.209 138.204L270.227 137.808C270.143 137.808 269.987 137.802 269.759 137.79C269.531 137.766 269.363 137.748 269.255 137.736ZM286.87 144.072C286.462 144.072 286.15 144.012 285.934 143.892C285.718 143.76 285.484 143.52 285.232 143.172C284.92 143.448 284.452 143.67 283.828 143.838C283.216 144.006 282.688 144.09 282.244 144.09C281.512 144.09 280.918 143.892 280.462 143.496C280.018 143.088 279.796 142.494 279.796 141.714C279.796 141.378 279.886 141.072 280.066 140.796C280.258 140.508 280.504 140.256 280.804 140.04C281.14 139.812 281.536 139.632 281.992 139.5C282.46 139.368 282.886 139.302 283.27 139.302C283.918 139.302 284.494 139.362 284.998 139.482V139.464C284.998 138.816 284.836 138.372 284.512 138.132C284.2 137.88 283.696 137.754 283 137.754C282.556 137.754 282.172 137.952 281.848 138.348C281.728 138.504 281.476 138.582 281.092 138.582C280.9 138.582 280.756 138.504 280.66 138.348C280.576 138.18 280.534 138.012 280.534 137.844C280.534 137.496 280.678 137.196 280.966 136.944C281.266 136.692 281.626 136.506 282.046 136.386C282.466 136.254 282.856 136.188 283.216 136.188C283.564 136.188 283.978 136.26 284.458 136.404C284.938 136.548 285.328 136.74 285.628 136.98C285.988 137.292 286.264 137.658 286.456 138.078C286.66 138.486 286.762 138.936 286.762 139.428C286.762 139.584 286.75 139.818 286.726 140.13C286.702 140.49 286.69 140.784 286.69 141.012C286.69 141.12 286.678 141.258 286.654 141.426C286.63 141.642 286.618 141.822 286.618 141.966C286.618 142.122 286.666 142.272 286.762 142.416C286.858 142.56 286.99 142.68 287.158 142.776C287.314 142.86 287.416 142.95 287.464 143.046C287.512 143.142 287.536 143.25 287.536 143.37C287.536 143.49 287.458 143.64 287.302 143.82C287.158 143.988 287.014 144.072 286.87 144.072ZM283.27 140.634C282.802 140.634 282.388 140.724 282.028 140.904C281.668 141.084 281.488 141.402 281.488 141.858C281.488 142.086 281.566 142.278 281.722 142.434C281.89 142.59 282.07 142.668 282.262 142.668C282.778 142.668 283.21 142.614 283.558 142.506C283.906 142.398 284.326 142.2 284.818 141.912C284.878 141.72 284.914 141.45 284.926 141.102C284.926 140.97 284.932 140.868 284.944 140.796C284.296 140.688 283.738 140.634 283.27 140.634ZM290.906 141.21C290.906 141.666 290.972 142.02 291.104 142.272C291.248 142.512 291.428 142.632 291.644 142.632C291.764 142.632 291.878 142.626 291.986 142.614C292.094 142.59 292.202 142.578 292.31 142.578C292.43 142.578 292.532 142.638 292.616 142.758C292.712 142.878 292.76 143.01 292.76 143.154C292.76 143.442 292.622 143.67 292.346 143.838C292.082 143.994 291.722 144.072 291.266 144.072C290.942 144.072 290.612 143.976 290.276 143.784C289.952 143.58 289.682 143.268 289.466 142.848C289.25 142.416 289.142 141.882 289.142 141.246C289.142 139.878 289.166 138.72 289.214 137.772C289.274 136.644 289.304 135.222 289.304 133.506C289.304 132.966 289.334 132.588 289.394 132.372C289.466 132.204 289.58 132.078 289.736 131.994C289.904 131.898 290.078 131.85 290.258 131.85C290.438 131.85 290.594 131.88 290.726 131.94C290.87 132 290.966 132.096 291.014 132.228C291.062 132.372 291.092 132.516 291.104 132.66C291.128 132.792 291.14 132.984 291.14 133.236C291.14 133.728 291.122 134.202 291.086 134.658C291.062 135.21 291.05 135.612 291.05 135.864C290.954 137.976 290.906 139.758 290.906 141.21ZM296.003 141.21C296.003 141.666 296.069 142.02 296.201 142.272C296.345 142.512 296.525 142.632 296.741 142.632C296.861 142.632 296.975 142.626 297.083 142.614C297.191 142.59 297.299 142.578 297.407 142.578C297.527 142.578 297.629 142.638 297.713 142.758C297.809 142.878 297.857 143.01 297.857 143.154C297.857 143.442 297.719 143.67 297.443 143.838C297.179 143.994 296.819 144.072 296.363 144.072C296.039 144.072 295.709 143.976 295.373 143.784C295.049 143.58 294.779 143.268 294.563 142.848C294.347 142.416 294.239 141.882 294.239 141.246C294.239 139.878 294.263 138.72 294.311 137.772C294.371 136.644 294.401 135.222 294.401 133.506C294.401 132.966 294.431 132.588 294.491 132.372C294.563 132.204 294.677 132.078 294.833 131.994C295.001 131.898 295.175 131.85 295.355 131.85C295.535 131.85 295.691 131.88 295.823 131.94C295.967 132 296.063 132.096 296.111 132.228C296.159 132.372 296.189 132.516 296.201 132.66C296.225 132.792 296.237 132.984 296.237 133.236C296.237 133.728 296.219 134.202 296.183 134.658C296.159 135.21 296.147 135.612 296.147 135.864C296.051 137.976 296.003 139.758 296.003 141.21ZM306.177 138.222C306.273 138.39 306.351 138.636 306.411 138.96C306.471 139.272 306.501 139.554 306.501 139.806C306.501 140.142 306.447 140.562 306.339 141.066C306.231 141.558 306.141 141.888 306.069 142.056C305.421 143.4 304.173 144.072 302.325 144.072C301.737 144.072 301.161 143.88 300.597 143.496C300.033 143.1 299.631 142.638 299.391 142.11L299.265 141.75C299.253 141.702 299.187 141.522 299.067 141.21C298.959 140.886 298.905 140.64 298.905 140.472C298.905 139.98 299.025 139.41 299.265 138.762C299.505 138.114 299.781 137.598 300.093 137.214C300.297 136.938 300.687 136.704 301.263 136.512C301.839 136.308 302.349 136.206 302.793 136.206C303.621 136.206 304.287 136.362 304.791 136.674C305.307 136.986 305.769 137.502 306.177 138.222ZM304.521 141.12C304.569 141.036 304.611 140.886 304.647 140.67C304.683 140.454 304.701 140.202 304.701 139.914C304.701 139.566 304.635 139.224 304.503 138.888C304.383 138.552 304.203 138.264 303.963 138.024C303.951 138 303.909 137.964 303.837 137.916C303.765 137.856 303.651 137.802 303.495 137.754C303.339 137.694 303.141 137.664 302.901 137.664C302.433 137.664 302.037 137.802 301.713 138.078C301.389 138.354 301.143 138.696 300.975 139.104C300.819 139.512 300.741 139.914 300.741 140.31C300.741 140.418 300.777 140.64 300.849 140.976C300.921 141.312 300.975 141.528 301.011 141.624C301.107 141.792 301.293 141.99 301.569 142.218C301.845 142.434 302.157 142.542 302.505 142.542C303.045 142.542 303.465 142.416 303.765 142.164C304.077 141.912 304.329 141.564 304.521 141.12ZM316.541 139.716C316.613 139.452 316.691 139.092 316.775 138.636C316.895 138.096 316.991 137.688 317.063 137.412C317.135 137.136 317.231 136.902 317.351 136.71C317.483 136.494 317.597 136.35 317.693 136.278C317.801 136.206 317.915 136.17 318.035 136.17C318.659 136.17 318.971 136.41 318.971 136.89C318.971 137.13 318.875 137.58 318.683 138.24C318.047 140.16 317.591 141.648 317.315 142.704C317.195 143.148 317.015 143.49 316.775 143.73C316.535 143.958 316.211 144.072 315.803 144.072C315.599 144.072 315.389 143.976 315.173 143.784C314.969 143.58 314.801 143.334 314.669 143.046L314.471 142.56C314.135 141.708 313.883 141.054 313.715 140.598C313.559 140.13 313.457 139.71 313.409 139.338L313.247 139.914C312.959 140.946 312.659 141.906 312.347 142.794C312.191 143.25 311.999 143.58 311.771 143.784C311.543 143.976 311.249 144.072 310.889 144.072C310.673 144.072 310.481 144.024 310.313 143.928C310.157 143.832 310.007 143.67 309.863 143.442C309.671 143.13 309.485 142.71 309.305 142.182C309.137 141.654 308.891 140.832 308.567 139.716C308.411 139.236 308.267 138.732 308.135 138.204C308.003 137.664 307.937 137.286 307.937 137.07C307.937 136.818 308.003 136.62 308.135 136.476C308.267 136.332 308.459 136.26 308.711 136.26C309.035 136.26 309.263 136.326 309.395 136.458C309.527 136.578 309.647 136.764 309.755 137.016C309.815 137.448 309.947 138.06 310.151 138.852L310.547 140.544C310.571 140.676 310.643 140.952 310.763 141.372L310.907 141.894C311.171 141.33 311.393 140.79 311.573 140.274C311.753 139.758 311.951 139.122 312.167 138.366C312.179 138.318 312.299 137.904 312.527 137.124C312.683 136.872 312.821 136.686 312.941 136.566C313.061 136.434 313.181 136.368 313.301 136.368C313.541 136.368 313.745 136.446 313.913 136.602C314.093 136.746 314.225 136.926 314.309 137.142C314.453 137.61 314.579 138.036 314.687 138.42C314.735 138.576 314.843 138.954 315.011 139.554C315.191 140.142 315.353 140.64 315.497 141.048C315.641 141.456 315.761 141.744 315.857 141.912L316.541 139.716ZM320.333 140.184C320.333 139.728 320.417 139.272 320.585 138.816C320.753 138.348 320.975 137.922 321.251 137.538C321.527 137.154 321.965 136.842 322.565 136.602C323.165 136.35 323.699 136.224 324.167 136.224C324.647 136.224 325.133 136.29 325.625 136.422C326.129 136.554 326.477 136.758 326.669 137.034C327.113 137.658 327.335 138.27 327.335 138.87C327.335 139.194 327.263 139.47 327.119 139.698C326.987 139.926 326.795 140.172 326.543 140.436C326.339 140.652 326.015 140.796 325.571 140.868C325.139 140.94 324.707 140.976 324.275 140.976C323.999 140.976 323.663 140.952 323.267 140.904C322.871 140.844 322.487 140.772 322.115 140.688C322.139 140.928 322.199 141.162 322.295 141.39C322.391 141.618 322.505 141.792 322.637 141.912C322.877 142.14 323.123 142.284 323.375 142.344C323.639 142.404 323.975 142.434 324.383 142.434C324.815 142.434 325.217 142.362 325.589 142.218C325.889 142.11 326.135 142.056 326.327 142.056C326.555 142.056 326.729 142.128 326.849 142.272C326.969 142.404 327.029 142.578 327.029 142.794C327.029 143.094 326.855 143.34 326.507 143.532C326.159 143.724 325.757 143.868 325.301 143.964C324.857 144.048 324.497 144.09 324.221 144.09C323.657 144.09 323.111 143.988 322.583 143.784C322.055 143.58 321.617 143.292 321.269 142.92C320.981 142.584 320.753 142.182 320.585 141.714C320.417 141.234 320.333 140.724 320.333 140.184ZM324.257 137.754C323.993 137.754 323.729 137.808 323.465 137.916C323.201 138.012 322.985 138.15 322.817 138.33C322.601 138.558 322.451 138.744 322.367 138.888C322.295 139.02 322.247 139.206 322.223 139.446C322.523 139.542 323.147 139.59 324.095 139.59C324.611 139.59 325.007 139.512 325.283 139.356C325.571 139.2 325.715 138.996 325.715 138.744C325.715 138.492 325.559 138.264 325.247 138.06C324.935 137.856 324.605 137.754 324.257 137.754ZM336.238 132.732C336.238 132.852 336.22 133.002 336.184 133.182C336.172 133.254 336.16 133.332 336.148 133.416C336.136 133.5 336.124 133.602 336.112 133.722C336.004 134.802 335.95 136.14 335.95 137.736C335.95 139.248 336.016 140.37 336.148 141.102C336.28 141.834 336.484 142.272 336.76 142.416L337.102 142.56C337.282 142.62 337.414 142.686 337.498 142.758C337.594 142.83 337.642 142.95 337.642 143.118C337.642 143.358 337.516 143.568 337.264 143.748C337.012 143.916 336.736 144 336.436 144C336.124 144 335.818 143.874 335.518 143.622C335.218 143.358 334.972 143.028 334.78 142.632C334.576 143.064 334.216 143.412 333.7 143.676C333.184 143.928 332.692 144.054 332.224 144.054C331.804 144.054 331.438 144 331.126 143.892C330.814 143.772 330.49 143.592 330.154 143.352C329.746 143.064 329.434 142.698 329.218 142.254C329.014 141.81 328.912 141.324 328.912 140.796C328.912 140.268 329.014 139.71 329.218 139.122C329.422 138.522 329.656 138.03 329.92 137.646C330.232 137.202 330.646 136.872 331.162 136.656C331.678 136.428 332.212 136.314 332.764 136.314C333.076 136.314 333.346 136.374 333.574 136.494C333.802 136.602 334.036 136.758 334.276 136.962C334.276 136.362 334.264 135.858 334.24 135.45C334.228 135.342 334.222 135.216 334.222 135.072C334.222 134.04 334.306 133.224 334.474 132.624C334.606 132.12 334.924 131.868 335.428 131.868C335.704 131.868 335.908 131.928 336.04 132.048C336.172 132.168 336.238 132.396 336.238 132.732ZM330.658 140.76C330.658 141.372 330.856 141.84 331.252 142.164C331.432 142.332 331.582 142.446 331.702 142.506C331.822 142.566 331.972 142.596 332.152 142.596C332.5 142.596 332.83 142.5 333.142 142.308C333.466 142.104 333.718 141.84 333.898 141.516C334.09 141.192 334.186 140.844 334.186 140.472L334.168 138.69C333.916 138.402 333.682 138.204 333.466 138.096C333.262 137.976 333.046 137.916 332.818 137.916C332.05 137.916 331.522 138.21 331.234 138.798C331.078 139.074 330.94 139.386 330.82 139.734C330.712 140.082 330.658 140.424 330.658 140.76Z" fill="#A70000"/>
<path d="M285.116 191.468C285.375 191.956 285.98 192.142 286.468 191.884L294.422 187.673C294.91 187.414 295.096 186.809 294.838 186.321C294.579 185.833 293.974 185.647 293.486 185.905L286.416 189.648L282.673 182.578C282.414 182.09 281.809 181.904 281.321 182.162C280.833 182.421 280.647 183.026 280.905 183.514L285.116 191.468ZM297.044 151.706L285.044 190.706L286.956 191.294L298.956 152.294L297.044 151.706Z" fill="#A70000"/>
</svg>
